<svg width="34" height="34" viewBox="0 0 34 34" fill="none" xmlns="http://www.w3.org/2000/svg">
<g id="Icon">
<g id="icon">
<path d="M30.6038 15.3391C30.9659 15.7947 31.1663 16.3865 31.1663 17.0002C31.1663 17.6138 30.9659 18.2057 30.6038 18.6612C28.311 21.4627 23.092 26.9168 16.9997 26.9168C10.9073 26.9168 5.68843 21.4627 3.3956 18.6612C3.03346 18.2057 2.83301 17.6138 2.83301 17.0002C2.83301 16.3865 3.03346 15.7947 3.3956 15.3391C5.68843 12.5377 10.9073 7.0835 16.9997 7.0835C23.092 7.0835 28.311 12.5377 30.6038 15.3391Z" stroke="white" stroke-width="1.5" stroke-linecap="round" stroke-linejoin="round"/>
<path d="M17.0004 21.4073C19.4124 21.4073 21.3677 19.4341 21.3677 17C21.3677 14.5659 19.4124 12.5926 17.0004 12.5926C14.5884 12.5926 12.6331 14.5659 12.6331 17C12.6331 19.4341 14.5884 21.4073 17.0004 21.4073Z" stroke="white" stroke-width="1.5" stroke-linecap="round" stroke-linejoin="round"/>
</g>
</g>
</svg>
