<svg width="40" height="53" viewBox="0 0 40 53" fill="none" xmlns="http://www.w3.org/2000/svg">
<path d="M40 10.4348C40 10.3478 40 10.2609 39.913 10.1739V10.087C39.8261 10 39.8261 9.91304 39.7391 9.82609L30.1739 0.26087C30.087 0.173913 30 0.173913 29.913 0.0869565H29.8261C29.7391 0.0869565 29.6522 0 29.5652 0H0.869565C0.347826 0 0 0.347826 0 0.869565V51.3043C0 51.8261 0.347826 52.1739 0.869565 52.1739H5.21739H10.4348H14.7826H22.6087H39.1304C39.6522 52.1739 40 51.8261 40 51.3043V10.4348ZM37.0435 9.56522H30.4348V2.95652L37.0435 9.56522ZM6.08696 20H9.56522V45.2174H6.08696V20ZM6.52174 18.2609L7.82609 15.2174L9.13043 18.2609H6.52174ZM6.08696 50.4348V46.9565H9.56522V50.4348H6.08696ZM15.6522 50.4348V45.2174H19.1304V43.4783H15.6522V38.2609H19.1304V36.5217H15.6522V30.4348H19.1304V28.6957H15.6522V23.4783H19.1304V21.7391H15.6522V17.3913H21.7391V50.4348H15.6522ZM23.4783 50.4348V16.5217C23.4783 16 23.1304 15.6522 22.6087 15.6522H14.7826C14.2609 15.6522 13.913 16 13.913 16.5217V50.4348H11.3043V46.087V19.1304C11.3043 18.8696 11.2174 18.6087 11.0435 18.5217L8.6087 12.7826C8.52174 12.4348 8.17391 12.2609 7.82609 12.2609C7.47826 12.2609 7.21739 12.4348 7.04348 12.7826L4.6087 18.5217C4.43478 18.6957 4.34783 18.8696 4.34783 19.1304V46.087V50.4348H1.73913V1.73913H28.6957V10.4348C28.6957 10.9565 29.0435 11.3043 29.5652 11.3043H38.2609V50.4348H23.4783Z" fill="white"/>
<path d="M11.3043 4.34778H4.34778V6.08691H11.3043V4.34778Z" fill="white"/>
<path d="M34.7826 19.1309H26.9565V20.87H34.7826V19.1309Z" fill="white"/>
<path d="M34.7826 23.4785H26.9565V25.2176H34.7826V23.4785Z" fill="white"/>
<path d="M34.7826 27.826H26.9565V29.5652H34.7826V27.826Z" fill="white"/>
<path d="M34.7826 32.174H26.9565V33.9131H34.7826V32.174Z" fill="white"/>
<path d="M34.7826 36.5215H26.9565V38.2606H34.7826V36.5215Z" fill="white"/>
<path d="M34.7826 40.8691H26.9565V42.6083H34.7826V40.8691Z" fill="white"/>
<path d="M34.7826 45.2168H26.9565V46.9559H34.7826V45.2168Z" fill="white"/>
<path d="M18.2608 7.82605H4.34778V9.56518H18.2608V7.82605Z" fill="white"/>
</svg>
