<svg width="500" height="500" viewBox="0 0 500 500" fill="none" xmlns="http://www.w3.org/2000/svg">
<path d="M403.354 117.634C375.435 58.1854 276.295 66.5724 238.037 108.379C199.779 150.185 187.341 176.978 152.829 161.362C118.317 145.746 74.3106 149.922 71.7856 199.526C69.2606 249.13 109.699 307.789 173.876 325.141C238.053 342.493 238.037 403.9 322.976 391.509C369.286 384.753 370.341 334.649 363.801 293.208C357.261 251.767 435.732 186.578 403.354 117.634Z" fill="#5D50F8"/>
<path opacity="0.9" d="M403.354 117.634C375.435 58.1854 276.295 66.5724 238.037 108.379C199.779 150.185 187.341 176.978 152.829 161.362C118.317 145.746 74.3106 149.922 71.7856 199.526C69.2606 249.13 109.699 307.789 173.876 325.141C238.053 342.493 238.037 403.9 322.976 391.509C369.286 384.753 370.341 334.649 363.801 293.208C357.261 251.767 435.732 186.578 403.354 117.634Z" fill="white"/>
<path d="M250 427.56C357.082 427.56 443.889 422.491 443.889 416.237C443.889 409.984 357.082 404.914 250 404.914C142.918 404.914 56.1113 409.984 56.1113 416.237C56.1113 422.491 142.918 427.56 250 427.56Z" fill="#F5F5F5"/>
<path d="M291.729 282.068L284.087 283.311L286.966 301.012L244.667 326.52L196.464 315.734L193.584 298.032L185.942 299.275L189.795 322.964L247.714 346.441L247.751 346.67L247.921 346.525L248.128 346.609L248.091 346.38L295.583 305.756L291.729 282.068Z" fill="#263238"/>
<path opacity="0.2" d="M291.729 282.068L284.087 283.311L286.966 301.012L244.667 326.52L196.464 315.734L193.584 298.032L185.942 299.275L189.795 322.964L247.714 346.441L247.751 346.67L247.921 346.525L248.128 346.609L248.091 346.38L295.583 305.756L291.729 282.068Z" fill="white"/>
<path d="M299.493 287.258L276.7 287.291L263.513 280.057L312.66 279.986L299.493 287.258Z" fill="#263238"/>
<path d="M316.769 281.167L259.406 281.251C258.496 281.252 257.757 280.515 257.755 279.605C257.754 278.695 258.491 277.956 259.401 277.954L316.764 277.871C317.674 277.87 318.413 278.607 318.415 279.517C318.417 280.426 317.68 281.165 316.769 281.167Z" fill="#263238"/>
<path d="M178.172 303.321L200.966 303.283L214.131 296.008L164.983 296.091L178.172 303.321Z" fill="#263238"/>
<path d="M160.878 297.285L218.241 297.188C219.151 297.186 219.888 296.447 219.886 295.537C219.885 294.627 219.145 293.89 218.235 293.891L160.872 293.988C159.962 293.99 159.225 294.729 159.227 295.639C159.229 296.55 159.968 297.286 160.878 297.285Z" fill="#263238"/>
<path d="M258.79 398.628H232.944V333.864C232.944 326.727 238.73 320.941 245.867 320.941C253.004 320.941 258.79 326.727 258.79 333.864V398.628Z" fill="#263238"/>
<path opacity="0.3" d="M258.79 398.628H232.944V333.864C232.944 326.727 238.73 320.941 245.867 320.941C253.004 320.941 258.79 326.727 258.79 333.864V398.628Z" fill="white"/>
<path d="M272.505 411.121H219.229L228.41 393.881H263.325L272.505 411.121Z" fill="#263238"/>
<path opacity="0.2" d="M272.505 411.121H219.229L228.41 393.881H263.325L272.505 411.121Z" fill="white"/>
<path d="M278.501 409.107H213.235C210.585 409.107 208.438 411.255 208.438 413.905V418.681H283.299V413.905C283.298 411.255 281.151 409.107 278.501 409.107Z" fill="#263238"/>
<path d="M245.868 339.87C248.434 339.87 250.514 337.79 250.514 335.224C250.514 332.658 248.434 330.578 245.868 330.578C243.302 330.578 241.222 332.658 241.222 335.224C241.222 337.79 243.302 339.87 245.868 339.87Z" fill="#263238"/>
<path d="M325.089 89.8066H353.817C358.702 89.8066 362.663 93.7666 362.663 98.6526V123.655C362.663 128.54 358.702 132.501 353.817 132.501H342.455L339.453 140.395L336.451 132.501H325.088C320.203 132.501 316.242 128.541 316.242 123.655V98.6526C316.242 93.7666 320.203 89.8066 325.089 89.8066Z" fill="#407BFF"/>
<path opacity="0.7" d="M325.089 89.8066H353.817C358.702 89.8066 362.663 93.7666 362.663 98.6526V123.655C362.663 128.54 358.702 132.501 353.817 132.501H342.455L339.453 140.395L336.451 132.501H325.088C320.203 132.501 316.242 128.541 316.242 123.655V98.6526C316.242 93.7666 320.203 89.8066 325.089 89.8066Z" fill="white"/>
<path d="M339.453 106.087C333.683 100.086 327.215 102.559 327.215 108.403C327.215 114.247 339.453 122.328 339.453 122.328C339.453 122.328 351.691 114.247 351.691 108.403C351.691 102.559 345.223 100.086 339.453 106.087Z" fill="#407BFF"/>
<path d="M148.398 117.516H119.67C114.784 117.516 110.824 121.476 110.824 126.362V151.364C110.824 156.249 114.785 160.21 119.67 160.21H131.032L134.034 168.104L137.036 160.21H148.399C153.284 160.21 157.245 156.25 157.245 151.364V126.362C157.244 121.477 153.283 117.516 148.398 117.516Z" fill="#407BFF"/>
<path opacity="0.7" d="M148.398 117.516H119.67C114.784 117.516 110.824 121.476 110.824 126.362V151.364C110.824 156.249 114.785 160.21 119.67 160.21H131.032L134.034 168.104L137.036 160.21H148.399C153.284 160.21 157.245 156.25 157.245 151.364V126.362C157.244 121.477 153.283 117.516 148.398 117.516Z" fill="white"/>
<path d="M144.114 148.838C149.682 143.27 149.682 134.242 144.114 128.674C138.546 123.106 129.518 123.106 123.95 128.674C118.382 134.242 118.382 143.27 123.95 148.838C129.518 154.406 138.546 154.406 144.114 148.838Z" fill="#407BFF"/>
<path d="M132.537 145.124C132.152 145.124 131.787 144.955 131.538 144.662L125.944 138.071C125.476 137.519 125.544 136.693 126.095 136.224C126.646 135.757 127.473 135.823 127.942 136.375L132.537 141.789L140.125 132.849C140.594 132.296 141.421 132.23 141.972 132.698C142.524 133.166 142.592 133.993 142.123 134.545L133.536 144.663C133.287 144.954 132.922 145.124 132.537 145.124Z" fill="white"/>
<path d="M303.616 222.618L303.949 217.948L298.367 213.595C297.959 213.277 297.456 213.104 296.938 213.104H293.22C292.096 213.104 291.134 213.909 290.934 215.015L290.189 219.145C289.976 220.324 290.695 221.471 291.848 221.795L295.344 222.775C295.447 222.804 295.547 222.839 295.645 222.882C296.548 223.281 301.873 225.489 303.616 222.618Z" fill="#E4897B"/>
<path d="M312.825 222.9L302.033 216.639L300.334 222.846L310.288 229.057L312.825 222.9Z" fill="#E4897B"/>
<path d="M334.901 200.967C336.476 205.264 334.349 237.405 327.483 241.593C322.848 244.42 303.982 226.224 303.982 226.224L304.663 217.933L320.586 227.387C321.54 209.813 320.586 197.945 326.116 195.238L334.901 200.967Z" fill="#263238"/>
<path opacity="0.3" d="M334.339 221.5C333.259 229.65 331.319 237.76 328.449 240.79C328.139 241.12 327.809 241.39 327.479 241.59C326.839 241.98 325.929 241.97 324.839 241.66C318.009 239.75 303.979 226.22 303.979 226.22L304.659 217.93L320.589 227.39C321.539 209.81 320.589 197.95 326.119 195.24L334.899 200.97C335.699 203.13 335.549 212.34 334.339 221.5Z" fill="white"/>
<path opacity="0.2" d="M334.339 221.5C333.259 229.65 331.319 237.76 328.449 240.79C324.539 224.17 328.029 208.76 328.029 208.76C328.029 208.76 330.719 214.19 334.339 221.5Z" fill="black"/>
<path d="M388.143 276.407C388.143 276.407 363.108 265.42 335.125 275.832C335.125 275.832 327.861 216.544 328.036 208.348C328.211 200.151 371.615 200.584 371.615 200.584C371.615 200.584 373.81 224.345 377.246 238.586C380.683 252.826 389.446 273.579 388.143 276.407Z" fill="#263238"/>
<path d="M322.857 409.834L331.546 409.6C331.871 409.591 332.161 409.808 332.243 410.123L334.068 417.12C334.257 417.845 333.725 418.552 332.974 418.56C329.837 418.591 325.302 418.53 321.362 418.637C316.755 418.761 313.826 418.535 308.424 418.681C305.157 418.769 304.133 415.507 305.489 415.172C311.665 413.649 315.702 413.95 320.962 410.504C321.534 410.128 322.17 409.852 322.857 409.834Z" fill="#263238"/>
<path d="M367.068 409.834L375.757 409.6C376.082 409.591 376.372 409.808 376.454 410.123L378.279 417.12C378.468 417.845 377.937 418.552 377.185 418.56C374.049 418.591 369.513 418.53 365.573 418.637C360.966 418.761 358.038 418.535 352.635 418.681C349.368 418.769 348.344 415.507 349.7 415.172C355.876 413.649 359.913 413.95 365.173 410.504C365.746 410.128 366.382 409.852 367.068 409.834Z" fill="#263238"/>
<path d="M380.962 250.602C385.141 268.724 377.969 411.244 377.969 411.244H364.108L358.182 292.469L336.354 411.244L321.541 410.166C331.225 318.158 339.785 263.227 339.785 263.227L339.765 256.286L380.962 250.602Z" fill="#263238"/>
<path opacity="0.2" d="M321.538 410.163L336.356 411.241L353.534 317.743L358.179 292.472L364.106 411.241H377.965C377.965 411.241 385.142 268.72 380.961 250.605L339.762 256.284L339.784 263.224C339.784 263.224 331.226 318.153 321.538 410.163Z" fill="white"/>
<path d="M375.117 229.266C375.362 230.415 375.6 231.532 375.842 232.616C375.971 233.194 376.098 233.762 376.233 234.318C376.511 235.515 376.782 236.68 377.052 237.79C377.189 238.356 377.324 238.911 377.456 239.455C379.054 245.977 380.366 250.72 380.681 252.825C374.689 253.93 352.102 258.106 339.787 260.367C337.914 255.783 336.298 251.407 334.917 247.243C334.749 246.739 334.582 246.236 334.427 245.74C334.083 244.691 333.764 243.658 333.45 242.646C333.288 242.119 333.139 241.6 332.98 241.084C332.685 240.057 332.392 239.04 332.116 238.052C331.971 237.499 331.817 236.959 331.687 236.425C324.596 209.73 327.427 194.402 327.427 194.402C327.427 194.402 331.636 192.381 336.716 190.751C337.383 190.525 338.068 190.328 338.774 190.126C343.296 188.864 350.883 187.635 356.157 186.923C357.272 186.774 358.394 186.656 359.497 186.553C359.553 186.548 359.609 186.543 359.665 186.538C365.253 186.039 370.105 190.312 370.412 195.914C370.716 201.447 371.298 206.871 372.028 212.047C372.8 217.539 373.755 222.759 374.749 227.516C374.835 227.95 374.92 228.383 375.014 228.804L375.117 229.266Z" fill="#407BFF"/>
<path d="M349.222 167.598C349.303 173.51 350.322 184.092 354.798 186.763C354.798 186.763 345.504 194.702 342.793 194.756C340.89 194.794 338.25 191.532 338.25 191.532C343.888 188.327 342.804 183.728 340.896 179.667L349.222 167.598Z" fill="#E4897B"/>
<path opacity="0.2" d="M345.828 172.521L340.899 179.66C341.354 180.62 341.757 181.611 342.03 182.609C344.229 181.61 346.819 178.088 346.558 175.516C346.428 174.232 346.138 173.047 345.828 172.521Z" fill="black"/>
<path d="M342.75 194.771C342.75 194.771 345.143 196.759 347.868 198.663C350.933 196.415 358.013 190.588 356.933 186.472C356.268 185.331 352.958 185.09 352.958 185.09C352.958 185.09 350.237 190.17 342.75 194.771Z" fill="#407BFF"/>
<path d="M342.75 194.772C342.75 194.772 340.472 197.236 339.203 200.099C336.474 198.914 336.427 190.928 337.189 189.917C338.943 188.421 341.244 188.104 341.244 188.104C341.244 188.104 340.08 191.934 342.75 194.772Z" fill="#407BFF"/>
<g opacity="0.5">
<path d="M342.75 194.771C342.75 194.771 345.143 196.759 347.868 198.663C350.933 196.415 358.013 190.588 356.933 186.472C356.268 185.331 352.958 185.09 352.958 185.09C352.958 185.09 350.237 190.17 342.75 194.771Z" fill="white"/>
<path d="M342.75 194.772C342.75 194.772 340.472 197.236 339.203 200.099C336.474 198.914 336.427 190.928 337.189 189.917C338.943 188.421 341.244 188.104 341.244 188.104C341.244 188.104 340.08 191.934 342.75 194.772Z" fill="white"/>
</g>
<path d="M390.46 277.901C389.91 279.361 386.86 279.811 386.86 279.811C388.01 271.461 385.15 264.801 382.82 260.431C377.11 249.711 361.09 237.631 355.04 222.081C354.77 221.411 354.53 220.741 354.31 220.061C347.79 200.101 355.95 185.561 355.95 185.561C357.05 185.701 358.12 185.851 359.13 186.021C359.9 186.141 360.64 186.281 361.35 186.411C368.44 187.741 372.61 189.401 372.61 189.401C372.61 189.401 375.4 223.691 378.24 239.161C381.1 254.631 391.01 276.451 390.46 277.901Z" fill="#263238"/>
<path opacity="0.3" d="M390.46 277.901C389.91 279.361 386.86 279.811 386.86 279.811C388.01 271.461 385.15 264.801 382.82 260.431C379.06 253.381 370.84 245.731 363.94 236.901C360.47 232.471 357.33 227.741 355.27 222.631C355.18 222.451 355.11 222.261 355.04 222.081C354.77 221.411 354.53 220.741 354.31 220.061C347.79 200.101 355.95 185.561 355.95 185.561C357.05 185.701 358.12 185.851 359.13 186.021C359.9 186.141 360.64 186.281 361.35 186.411C368.44 187.741 372.61 189.401 372.61 189.401C372.61 189.401 373.28 197.561 374.28 207.721C374.66 211.491 375.08 215.541 375.54 219.551C376.37 226.861 377.3 234.041 378.24 239.161C381.1 254.631 391.01 276.451 390.46 277.901Z" fill="white"/>
<path opacity="0.2" d="M357.5 202.301C357.5 202.301 354.64 212.911 355.04 222.081C354.77 221.411 354.53 220.741 354.31 220.061C347.79 200.101 355.95 185.561 355.95 185.561C357.05 185.701 358.12 185.851 359.13 186.021L360.05 197.281L353.77 198.661L357.5 202.301Z" fill="black"/>
<path d="M334.946 277.943L336.469 278.942C336.469 278.942 333.306 256.259 332.793 225.86C332.77 224.394 332.76 222.981 332.753 221.633C332.688 195.897 336.46 191.044 336.706 190.752L333.039 192.191L326.394 194.822C325.395 216.831 334.946 277.943 334.946 277.943Z" fill="#263238"/>
<path opacity="0.3" d="M334.946 277.943L336.469 278.942C336.469 278.942 333.306 256.259 332.793 225.86C332.77 224.394 332.76 222.981 332.753 221.633C332.688 195.897 336.46 191.044 336.706 190.752L333.039 192.191L326.394 194.822C325.395 216.831 334.946 277.943 334.946 277.943Z" fill="white"/>
<path opacity="0.2" d="M333.109 199.935L328.967 202.798C328.967 202.798 330.644 215.311 332.754 221.635C332.689 195.899 336.461 191.046 336.707 190.754L333.04 192.193C331.619 193.692 329.448 196.25 328.268 199.011L333.109 199.935Z" fill="black"/>
<path opacity="0.1" d="M371.79 204.397C371.79 204.397 372.328 209.141 374.637 212.715C374.329 209.73 374.033 206.766 373.754 203.941C373.139 203.937 372.477 204.085 371.79 204.397Z" fill="black"/>
<path opacity="0.2" d="M353.534 317.745L358.179 292.474L357.284 279.1C357.284 279.1 350.915 302.291 353.534 317.745Z" fill="black"/>
<path d="M329.676 156.897C328.298 159.531 329.186 162.892 329.583 165.081C329.98 167.27 330.235 170.179 332.351 166.57C334.467 162.961 334.594 150.048 329.676 156.897Z" fill="#263238"/>
<path d="M349.284 163.057C349.962 170.505 351.198 171.521 348.041 175.849C343.292 182.36 334.29 184.885 331.81 177.615C329.577 171.072 327.004 158.988 333.798 155.005C340.491 151.081 348.605 155.61 349.284 163.057Z" fill="#FF8B7B"/>
<path d="M349.302 168.169C345.457 168.894 345.649 167.249 345.796 166.842C346.437 165.063 344.828 163.009 342.983 160.298C341.139 157.586 346.339 152.815 350.963 153.134C355.22 153.426 355.722 166.958 349.302 168.169Z" fill="#263238"/>
<path d="M333.655 173.937C333.655 173.937 336.451 174.097 341.328 171.336C341.056 173.113 340.129 174.76 337.184 175.553C334.238 176.346 333.655 173.937 333.655 173.937Z" fill="white"/>
<path d="M353.412 167.465C352.961 169.349 351.796 170.818 350.573 171.59C348.733 172.751 347.342 170.99 347.458 168.706C347.563 166.65 348.647 163.569 350.684 163.347C352.691 163.129 353.928 165.312 353.412 167.465Z" fill="#FF8B7B"/>
<path d="M333.999 166.385C333.999 166.385 333.394 169.35 332.423 170.894C333.419 171.546 334.808 170.937 334.808 170.937L333.999 166.385Z" fill="#FF5652"/>
<path d="M350.375 149.977C348.321 147.868 335.018 148.702 330.305 151.587C327.873 153.076 328.075 155.471 329.061 156.669C332.555 160.913 336.015 157.402 336.015 157.402C340.567 153.329 344.519 157.325 344.519 157.325L351.603 153.852C351.603 153.852 352.17 151.819 350.375 149.977Z" fill="#263238"/>
<path d="M340.185 164.7C340.289 165.318 340.044 165.87 339.639 165.934C339.234 165.998 338.822 165.549 338.718 164.931C338.614 164.314 338.859 163.761 339.263 163.697C339.669 163.633 340.081 164.082 340.185 164.7Z" fill="#263238"/>
<path d="M333.183 165.805C333.287 166.423 333.043 166.975 332.637 167.039C332.232 167.103 331.82 166.654 331.716 166.037C331.612 165.419 331.856 164.867 332.261 164.803C332.667 164.739 333.079 165.188 333.183 165.805Z" fill="#263238"/>
<path d="M341.966 162.106C341.843 162.143 341.704 162.114 341.603 162.019C340.407 160.884 339.082 161.173 339.069 161.175C338.871 161.221 338.672 161.098 338.624 160.9C338.576 160.703 338.7 160.505 338.896 160.46C338.966 160.444 340.626 160.081 342.109 161.49C342.257 161.631 342.264 161.863 342.124 162.009C342.08 162.056 342.025 162.088 341.966 162.106Z" fill="#263238"/>
<path d="M329.762 163.879C329.695 163.899 329.622 163.9 329.549 163.878C329.354 163.819 329.242 163.614 329.299 163.42C329.876 161.473 331.5 160.996 331.57 160.966C331.765 160.91 331.971 161.022 332.029 161.217C332.087 161.411 331.978 161.613 331.784 161.671C331.716 161.688 330.469 162.072 330.006 163.634C329.971 163.756 329.876 163.845 329.762 163.879Z" fill="#263238"/>
<path d="M310.367 228.941L265.468 223.58L255.586 258.408L263.593 271.432L312.508 275.52L320.586 237.709L310.367 228.941Z" fill="#263238"/>
<path opacity="0.5" d="M255.59 258.406L258.703 263.485L259.401 264.608L263.592 271.433L312.513 275.518L320.583 237.708L316.224 233.968L314.88 232.814L310.371 228.94L265.469 223.578L255.59 258.406Z" fill="white"/>
<path opacity="0.4" d="M320.583 237.708L276.174 232.961L265.469 223.578L310.371 228.94L320.583 237.708Z" fill="white"/>
<path opacity="0.2" d="M276.174 232.961L263.592 271.433L255.59 258.406L265.469 223.578L276.174 232.961Z" fill="white"/>
<path d="M258.703 263.485L259.401 264.608L271.034 228.567L316.224 233.968L314.88 232.814L270.21 227.83L258.703 263.485Z" fill="#263238"/>
<path d="M301.028 231.422L298.678 229.448L287.35 227.945L289.423 230.115L301.028 231.422Z" fill="#263238"/>
<path d="M305.4 232.052C305.4 232.052 305.359 220.251 304.995 219.485C304.631 218.719 288.727 216.89 287.543 216.721C286.359 216.552 281.682 228.244 281.682 228.244L282.649 229.584L285.655 229.84C285.655 229.84 288.966 219.774 289.343 219.518C289.72 219.262 301.972 220.761 302.315 221.008C302.657 221.255 301.78 230.294 301.78 230.294L302.877 231.721L305.4 232.052Z" fill="#263238"/>
<path d="M258.359 253.047L261.803 257.18L262.081 256.313L264.282 249.502L264.547 248.683L265.017 247.225C265.017 247.225 264.11 248.346 262.869 249.624C261.518 251.007 259.774 252.573 258.359 253.047Z" fill="#407BFF"/>
<path opacity="0.2" d="M259.447 253.313L262.08 256.312L264.281 249.501L264.546 248.682C263.447 250.165 261.445 252.562 259.447 253.313Z" fill="white"/>
<path opacity="0.2" d="M262.869 249.624C263.353 249.559 263.839 249.526 264.281 249.502L265.017 247.225C265.017 247.225 264.11 248.345 262.869 249.624Z" fill="black"/>
<path d="M256.738 244.705L256.409 250.773C256.409 250.773 260.136 248.701 264.326 249.337L264.599 248.489L266.299 243.21L266.481 242.658C266.481 242.658 260.987 242.278 256.738 244.705Z" fill="#407BFF"/>
<path d="M262.578 234.171C262.578 234.171 264.518 237.696 267.417 240.063L267.613 239.422L268.134 237.74L269.002 234.94L269.424 233.583L269.542 233.19C269.542 233.19 268.055 231.157 267.289 229.445L262.578 234.171Z" fill="#407BFF"/>
<path d="M272.427 225.924C272.427 225.924 273.747 227.849 273.964 228.914L274.675 229.004L275.65 229.115L277.203 229.311L278.698 229.491L279.23 229.553C279.23 229.553 279.272 226.361 276.495 223.395L272.427 225.924Z" fill="#407BFF"/>
<path opacity="0.2" d="M273.361 226.033C273.361 226.033 274.339 227.73 274.675 229.004L275.65 229.115C275.476 228.881 275.407 228.561 275.491 228.253C275.644 227.694 276.221 227.364 276.78 227.517C277.34 227.67 277.669 228.247 277.516 228.806C277.461 229.009 277.35 229.186 277.202 229.311L278.697 229.491C278.518 228.209 277.987 225.597 276.492 224.162L273.361 226.033Z" fill="white"/>
<path opacity="0.2" d="M257.155 244.923L257.006 249.837C257.006 249.837 261.195 248.161 264.599 248.489L266.299 243.21C264.475 243.096 260.622 243.122 257.155 244.923ZM262.487 244.264C263.431 244.148 264.257 244.654 264.345 245.393C264.433 246.132 263.737 246.823 262.805 246.932C261.861 247.048 261.026 246.54 260.937 245.8C260.849 245.061 261.546 244.37 262.487 244.264Z" fill="white"/>
<path opacity="0.2" d="M263.446 234.409C263.446 234.409 265.869 238.066 267.613 239.423L268.134 237.741C267.435 237.529 267.037 236.747 267.248 235.975C267.461 235.194 268.224 234.718 268.937 234.912C268.956 234.917 268.986 234.925 269.002 234.94L269.424 233.583C268.721 232.852 267.771 231.702 267.234 230.518L263.446 234.409Z" fill="white"/>
<path opacity="0.2" d="M375.54 219.55C372.74 226.12 368.38 234.58 363.94 236.9C360.47 232.47 357.33 227.74 355.27 222.63C357.27 217.42 361.54 207.09 364.67 204.93C367.03 203.31 371.13 205.48 374.28 207.72C374.66 211.49 375.08 215.54 375.54 219.55Z" fill="black"/>
<path d="M321.169 232.664L313.302 233.079L317.995 241.874C317.995 241.874 324.599 240.031 323.98 236.408L321.169 232.664Z" fill="#E4897B"/>
<path d="M308.427 237.315L312.644 244.406L317.995 241.875L313.302 233.08L308.427 237.315Z" fill="#E4897B"/>
<path d="M333.201 231.064L320.537 232.8L321.588 238.873L333.165 237.51L333.201 231.064Z" fill="#E4897B"/>
<path d="M372.609 189.396C381.68 194.755 369.68 234.472 362.691 236.714C355.702 238.956 331.512 238.205 331.512 238.205L330.231 230.516L357.501 226.824C357.501 226.824 360.327 219.043 362.481 205.592C364.316 194.139 372.609 189.396 372.609 189.396Z" fill="#263238"/>
<path opacity="0.3" d="M372.609 189.396C381.68 194.755 369.68 234.472 362.691 236.714C355.702 238.956 331.512 238.205 331.512 238.205L330.231 230.516L357.501 226.824C357.501 226.824 360.327 219.043 362.481 205.592C364.316 194.139 372.609 189.396 372.609 189.396Z" fill="white"/>
<path d="M151.763 224.825C153.369 227.797 155.057 230.976 156.766 233.905C157.637 235.365 158.497 236.826 159.414 238.111C159.86 238.755 160.309 239.368 160.748 239.903C160.972 240.181 161.233 240.425 161.472 240.693L162.346 241.539C164.813 243.868 167.612 246.217 170.336 248.589C173.079 250.957 175.852 253.351 178.537 255.834L178.554 255.85C179.628 256.843 179.693 258.519 178.7 259.592C177.89 260.468 176.623 260.67 175.602 260.177C172.242 258.55 169.016 256.767 165.823 254.87C162.619 252.968 159.515 250.996 156.356 248.657L155.157 247.71C154.738 247.344 154.307 246.989 153.903 246.604C153.071 245.826 152.336 245.046 151.637 244.265C150.283 242.685 149.096 241.112 147.996 239.495C145.786 236.253 143.921 233.033 142.254 229.47C141.015 226.823 142.157 223.672 144.805 222.434C147.354 221.241 150.37 222.256 151.696 224.697L151.763 224.825Z" fill="#DC897C"/>
<path d="M168.21 246.05L159.61 252.59C159.61 252.59 154.69 248.5 151.06 244.92C149.34 243.22 147.9 241.63 147.42 240.65C146.69 239.17 147.51 234.65 148.55 230.38C149.66 225.84 151.01 221.59 151.01 221.59C153.36 224.35 159.23 237.09 159.23 237.09L168.21 246.05Z" fill="#407BFF"/>
<path opacity="0.2" d="M151.06 244.919C149.34 243.219 147.9 241.629 147.42 240.649C146.69 239.169 147.51 234.649 148.55 230.379C150.052 230.742 152.36 237.089 151.06 244.919Z" fill="black"/>
<path d="M147.806 268.039C145.111 276.59 137.472 283.392 128.392 276.461C119.312 269.53 136.943 235.261 143.337 232.437C149.731 229.615 147.806 268.039 147.806 268.039Z" fill="#407BFF"/>
<path opacity="0.2" d="M147.806 268.039C145.111 276.59 137.472 283.392 128.392 276.461C119.312 269.53 136.943 235.261 143.337 232.437C149.731 229.615 147.806 268.039 147.806 268.039Z" fill="black"/>
<path d="M172.298 418.676C166.403 418.676 165.624 418.585 162.311 418.474C159.475 418.373 158.796 418.727 156.517 418.676C154.612 418.636 154.684 416.812 155.271 414.715C155.565 413.662 156.018 411.435 156.423 409.734L165.06 409.107C166.275 411.427 169.018 414.736 172.34 415.182C175.51 415.607 174.648 418.676 172.298 418.676Z" fill="#407BFF"/>
<path d="M121.451 261.227H143.45C144.774 269.378 150.963 308.236 152.086 329.39C153.409 354.297 161.394 394.189 165.616 409.776C164.428 410.843 158.844 411.289 156.204 409.971C156.204 409.971 133.162 363.964 136.159 335.202C118.731 286.126 120.882 264.841 121.451 261.227Z" fill="#407BFF"/>
<g opacity="0.7">
<path d="M121.451 261.227H143.45C144.774 269.378 150.963 308.236 152.086 329.39C153.409 354.297 161.394 394.189 165.616 409.776C164.428 410.843 158.844 411.289 156.204 409.971C156.204 409.971 133.162 363.964 136.159 335.202C118.731 286.126 120.882 264.841 121.451 261.227Z" fill="white"/>
</g>
<path d="M129.588 418.676C123.693 418.676 122.914 418.585 119.601 418.474C116.765 418.373 116.086 418.727 113.807 418.676C111.902 418.636 111.973 416.812 112.561 414.715C112.855 413.662 113.308 411.435 113.713 409.734L122.35 409.107C123.565 411.427 126.308 414.736 129.63 415.182C132.8 415.607 131.938 418.676 129.588 418.676Z" fill="#407BFF"/>
<path opacity="0.2" d="M130.455 317.939C127.714 308.903 125.739 301.078 124.344 294.367C125.729 289.118 127.695 284.624 130.368 281.922C130.368 281.922 134.212 296.546 130.455 317.939Z" fill="black"/>
<path d="M112.444 261.227H135.334C133.761 273.288 128.923 310.095 125.93 329.54C122.136 354.192 121.655 393.749 122.603 409.869C121.222 410.671 116.188 411.642 113.468 410.791C113.468 410.791 100.613 360.933 109.151 331.974C101.973 279.306 111.016 263.362 112.444 261.227Z" fill="#407BFF"/>
<g opacity="0.7">
<path d="M112.444 261.227H135.334C133.761 273.288 128.923 310.095 125.93 329.54C122.136 354.192 121.655 393.749 122.603 409.869C121.222 410.671 116.188 411.642 113.468 410.791C113.468 410.791 100.613 360.933 109.151 331.974C101.973 279.306 111.016 263.362 112.444 261.227Z" fill="white"/>
</g>
<path d="M148.727 187.693C148.727 187.693 150.965 201.332 146.587 206.128C142.209 210.923 127.151 211.919 122.138 203.064C117.125 194.209 120.204 181.252 131.711 178.577C143.218 175.902 148.727 187.693 148.727 187.693Z" fill="#263238"/>
<path d="M116.373 214.741C116.373 214.741 116.979 220.849 116.79 230.437C116.724 233.357 116.595 236.603 116.344 240.092C115.897 246.462 115.066 253.66 113.616 261.246L143.59 266.22C143.59 266.22 154.138 231.947 148.201 219.348C148.201 219.348 134.034 209.562 116.373 214.741Z" fill="#263238"/>
<path d="M211.105 253.683L208.789 253.315C207.918 253.176 207.034 253.468 206.416 254.096L203.527 257.034C202.372 258.209 201.857 259.87 202.146 261.492L202.325 262.496C206.124 263.369 210.873 261.513 210.873 261.513L212.285 261.134C213.542 260.796 214.273 259.596 213.963 258.376L213.249 255.568C213.002 254.599 212.149 253.848 211.105 253.683Z" fill="#E4897B"/>
<path d="M136.821 226.574L126.449 214.021C129.895 211.487 129.767 202.938 129.294 198.205L137.261 207.109C136.059 210.526 135.586 214.298 140.527 216.358C140.527 216.358 136.813 226.544 136.821 226.574Z" fill="#E4897B"/>
<path opacity="0.2" d="M132.541 201.838L137.257 207.105C136.97 207.913 136.728 208.741 136.594 209.563C134.69 208.96 132.233 206.376 132.213 204.297C132.203 203.259 132.334 202.285 132.541 201.838Z" fill="black"/>
<path d="M126.279 189.975C126.754 197.108 126.805 200.13 130.385 203.953C135.77 209.704 144.316 208.026 145.954 201.008C147.429 194.691 146.403 184.087 139.49 180.922C132.68 177.805 125.804 182.842 126.279 189.975Z" fill="#E4897B"/>
<path d="M132.88 185.655C128.435 190.162 135.658 196.822 127.79 195.544C119.922 194.266 124.472 183.485 129.471 181.51C134.47 179.534 132.88 185.655 132.88 185.655Z" fill="#263238"/>
<path d="M137.191 192.461C137.205 193.061 137.526 193.562 137.907 193.58C138.288 193.597 138.586 193.125 138.572 192.524C138.558 191.924 138.237 191.423 137.856 191.405C137.475 191.388 137.177 191.861 137.191 192.461Z" fill="#263238"/>
<path d="M144.367 192.894C144.381 193.494 144.701 193.995 145.083 194.013C145.464 194.03 145.762 193.558 145.748 192.957C145.734 192.357 145.413 191.856 145.032 191.838C144.651 191.821 144.353 192.293 144.367 192.894Z" fill="#263238"/>
<path d="M144.863 191.866L146.254 191.514C146.254 191.514 145.562 192.608 144.863 191.866Z" fill="#263238"/>
<path d="M142.39 193.789C142.39 193.789 143.44 196.419 144.559 197.716C143.806 198.421 142.489 198.023 142.489 198.023L142.39 193.789Z" fill="#DE5753"/>
<path d="M139.186 200.088C139.49 200.157 139.816 200.203 140.166 200.219C140.26 200.223 140.335 200.148 140.333 200.05C140.331 199.953 140.254 199.871 140.157 199.866C137.599 199.751 136.359 197.854 136.346 197.835C136.293 197.751 136.186 197.723 136.108 197.772C136.03 197.821 136.01 197.93 136.063 198.014C136.112 198.088 137.11 199.616 139.186 200.088Z" fill="#263238"/>
<path d="M124.796 196.623C125.339 198.139 126.406 199.161 127.451 199.577C129.023 200.202 129.95 198.425 129.632 196.501C129.346 194.77 128.183 192.358 126.548 192.572C124.938 192.783 124.174 194.889 124.796 196.623Z" fill="#E4897B"/>
<path d="M135.581 189.051C135.671 189.063 135.764 189.039 135.836 188.976C136.957 187.988 138.183 188.375 138.198 188.379C138.379 188.437 138.567 188.338 138.614 188.152C138.66 187.967 138.549 187.768 138.365 187.707C138.301 187.686 136.763 187.199 135.371 188.426C135.232 188.548 135.224 188.771 135.352 188.923C135.414 188.995 135.497 189.039 135.581 189.051Z" fill="#263238"/>
<path d="M146.375 189.697C146.46 189.714 146.549 189.699 146.623 189.648C146.775 189.543 146.807 189.326 146.693 189.163C145.554 187.527 143.966 187.494 143.898 187.494C143.708 187.493 143.564 187.648 143.576 187.842C143.588 188.036 143.751 188.194 143.941 188.196C144.003 188.197 145.235 188.24 146.141 189.541C146.199 189.626 146.285 189.68 146.375 189.697Z" fill="#263238"/>
<path d="M137.688 191.432L139.078 191.08C139.078 191.08 138.387 192.174 137.688 191.432Z" fill="#263238"/>
<path d="M139.781 182.894C139.781 182.894 140.275 187.448 133.12 190.443C133.12 190.443 136.032 188.888 136.927 185.314C136.927 185.314 134.209 191.1 128.802 190.822C123.395 190.544 124.266 203.918 126.707 208.172C126.707 208.172 119.815 203.857 119.189 198.803C119.189 198.803 119.864 203.679 122.662 206.168C122.662 206.168 118.065 204.1 115.856 195.277C113.175 184.568 121.479 176.377 127.992 174.891C137.766 172.661 140.61 176.19 140.61 176.19C140.61 176.19 143.686 174.466 148.025 180.423C152.363 186.379 154.386 199.056 149.15 205.478C149.15 205.478 150.457 199.24 147.851 190.844C147.851 190.844 143.381 189.596 140.807 183.525C140.807 183.525 140.851 187.305 136.871 189.271C136.87 189.269 139.557 187.658 139.781 182.894Z" fill="#263238"/>
<path d="M144.103 268.04L144.3 263.775L113.651 258.689L111.925 262.157L144.103 268.04Z" fill="#407BFF"/>
<path opacity="0.7" d="M144.103 268.04L144.3 263.775L113.651 258.689L111.925 262.157L144.103 268.04Z" fill="white"/>
<path d="M122.509 263.689L112.369 262.006L113.462 259.217L122.989 260.798L122.509 263.689Z" fill="#263238"/>
<path d="M141.407 263.854L144.444 264.358L144.227 267.292L140.928 266.745L141.407 263.854Z" fill="#263238"/>
<path d="M123.968 260.953L123.488 263.844L139.914 266.569L140.393 263.679L123.968 260.953Z" fill="#263238"/>
<path d="M130.814 265.292L135.256 266.029C135.561 266.08 135.85 265.873 135.901 265.568L136.27 263.345C136.321 263.04 136.114 262.751 135.809 262.7L131.367 261.963C131.062 261.912 130.773 262.119 130.722 262.424L130.353 264.647C130.302 264.952 130.509 265.241 130.814 265.292Z" fill="white"/>
<path d="M129.51 228.479C129.52 229.539 129.44 230.639 129.26 231.779C128.64 235.699 126.64 241.099 124.06 246.469C119.47 256.059 113.05 265.589 109.43 266.579L114.05 255.769L115.2 235.459L115.83 224.229L116.37 214.739C116.37 214.739 120.62 213.189 122.99 213.229C122.99 213.229 129.42 219.339 129.51 228.479Z" fill="#407BFF"/>
<path d="M143.337 216.764C143.337 216.764 145.367 224.544 145.752 234.01C146.137 243.477 147.806 268.04 147.806 268.04C147.806 268.04 151.4 229.868 151.015 221.592C151.015 221.592 146.943 217.542 143.337 216.764Z" fill="#407BFF"/>
<path d="M172.779 291.498C170.261 294.658 163.884 293.765 158.537 289.503C153.189 285.242 150.896 279.226 153.414 276.066C155.932 272.906 162.309 273.799 167.656 278.06C173.003 282.322 175.297 288.338 172.779 291.498Z" fill="#263238"/>
<path d="M185.177 284.233C186.201 284.083 187.023 283.703 187.551 283.04C190.023 279.937 185.43 272.165 177.292 265.68C169.154 259.195 160.552 256.452 158.08 259.555C157.552 260.218 157.364 261.104 157.447 262.136C157.034 262.332 156.679 262.589 156.409 262.928C155.886 263.584 155.711 264.467 155.811 265.497C155.377 265.688 155.014 265.953 154.737 266.3C154.218 266.952 154.054 267.837 154.176 268.873C153.724 269.057 153.347 269.319 153.065 269.673C152.548 270.322 152.394 271.21 152.542 272.256C152.073 272.431 151.679 272.687 151.393 273.046C149.338 275.625 153.156 282.087 159.922 287.479C166.688 292.871 173.839 295.15 175.895 292.571C176.181 292.212 176.342 291.771 176.409 291.275C177.461 291.186 178.292 290.838 178.81 290.189C179.092 289.835 179.263 289.409 179.342 288.927C180.379 288.815 181.205 288.458 181.725 287.806C182.002 287.458 182.179 287.045 182.268 286.58C183.295 286.448 184.117 286.08 184.639 285.424C184.907 285.083 185.078 284.679 185.177 284.233Z" fill="#263238"/>
<path opacity="0.3" d="M185.177 284.233C186.201 284.083 187.023 283.703 187.551 283.04C190.023 279.937 185.43 272.165 177.292 265.68C169.154 259.195 160.552 256.452 158.08 259.555C157.552 260.218 157.364 261.104 157.447 262.136C157.034 262.332 156.679 262.589 156.409 262.928C155.886 263.584 155.711 264.467 155.811 265.497C155.377 265.688 155.014 265.953 154.737 266.3C154.218 266.952 154.054 267.837 154.176 268.873C153.724 269.057 153.347 269.319 153.065 269.673C152.548 270.322 152.394 271.21 152.542 272.256C152.073 272.431 151.679 272.687 151.393 273.046C149.338 275.625 153.156 282.087 159.922 287.479C166.688 292.871 173.839 295.15 175.895 292.571C176.181 292.212 176.342 291.771 176.409 291.275C177.461 291.186 178.292 290.838 178.81 290.189C179.092 289.835 179.263 289.409 179.342 288.927C180.379 288.815 181.205 288.458 181.725 287.806C182.002 287.458 182.179 287.045 182.268 286.58C183.295 286.448 184.117 286.08 184.639 285.424C184.907 285.083 185.078 284.679 185.177 284.233Z" fill="white"/>
<path d="M219.04 266.198C231.004 251.184 227.919 229.023 211.842 217.93C197.972 208.36 178.792 210.831 167.767 223.576C160.602 231.859 158.263 242.56 160.365 252.397C160.747 254.182 160.266 256.051 158.995 257.361C158.933 257.425 158.874 257.492 158.818 257.562C156.308 260.713 160.972 268.606 169.236 275.191C177.501 281.777 186.235 284.562 188.746 281.411C188.8 281.343 188.851 281.273 188.898 281.201C189.907 279.655 191.644 278.78 193.49 278.75C203.106 278.594 212.578 274.306 219.04 266.198Z" fill="#407BFF"/>
<path opacity="0.7" d="M219.04 266.198C231.004 251.184 227.919 229.023 211.842 217.93C197.972 208.36 178.792 210.831 167.767 223.576C160.602 231.859 158.263 242.56 160.365 252.397C160.747 254.182 160.266 256.051 158.995 257.361C158.933 257.425 158.874 257.492 158.818 257.562C156.308 260.713 160.972 268.606 169.236 275.191C177.501 281.777 186.235 284.562 188.746 281.411C188.8 281.343 188.851 281.273 188.898 281.201C189.907 279.655 191.644 278.78 193.49 278.75C203.106 278.594 212.578 274.306 219.04 266.198Z" fill="white"/>
<path d="M177.518 274.31C177.518 274.31 189.536 262.954 199.21 264.36L194.302 260.449L195.672 255.508L187.041 259.694L189.195 250.346L181.203 253.729L182.717 245.184L178.207 247.622L173.299 243.711C173.299 243.711 175.207 256.894 167.617 266.419" stroke="#263238" stroke-width="0.4788" stroke-miterlimit="10" strokeLinecap="round" strokeLinejoin="round"/>
<path opacity="0.2" d="M218 240.879C214.007 246.009 204.775 245.5 197.38 239.743C189.985 233.986 187.228 225.161 191.221 220.032C195.214 214.902 204.446 215.411 211.841 221.167C219.236 226.924 221.993 235.749 218 240.879Z" fill="white"/>
<path opacity="0.2" d="M191.409 267.567C188.495 271.31 181.76 270.939 176.364 266.739C170.969 262.539 168.957 256.1 171.871 252.357C174.785 248.614 181.52 248.985 186.916 253.186C192.311 257.386 194.323 263.825 191.409 267.567Z" fill="white"/>
<path opacity="0.2" d="M129.51 228.48C129.52 229.54 129.44 230.64 129.26 231.78C128.64 235.7 126.64 241.1 124.06 246.47C120.71 243.36 117.62 239.18 115.2 235.46L115.83 224.23C119.38 223.07 123.64 222.18 125.85 223.64C127.17 224.51 128.42 226.36 129.51 228.48Z" fill="black"/>
<path d="M123.672 220.545C125.184 224.777 126.661 229.242 128.213 233.263C128.414 233.738 128.608 234.264 128.813 234.696L129.103 235.378L129.383 235.967C129.59 236.347 129.603 236.494 129.919 236.877C130.034 237.039 130.182 237.215 130.34 237.396C130.491 237.574 130.639 237.753 130.818 237.939C132.172 239.416 133.83 240.954 135.526 242.425C138.943 245.39 142.593 248.277 146.267 251.133L157.384 259.678L157.414 259.701C158.566 260.587 158.782 262.239 157.897 263.391C157.115 264.408 155.735 264.695 154.63 264.139C150.348 261.989 146.202 259.699 142.091 257.263C137.995 254.806 133.954 252.254 130.001 249.36C128.027 247.889 126.062 246.407 124.106 244.534C123.863 244.309 123.614 244.053 123.368 243.798C123.123 243.55 122.875 243.29 122.622 242.993C122.162 242.492 121.516 241.657 121.102 241.04L120.492 240.104L119.969 239.219C119.615 238.615 119.344 238.059 119.031 237.475C116.721 232.908 115.045 228.486 113.598 223.786C112.738 220.993 114.306 218.031 117.099 217.171C119.813 216.336 122.686 217.791 123.635 220.436L123.672 220.545Z" fill="#DC897C"/>
<path d="M116.373 214.74C116.373 214.74 120.275 214.74 122.989 217.423C126.761 221.152 128.867 232.545 131.382 236.911C133.104 239.901 140.835 246.692 140.835 246.692L131.382 253.282C131.382 253.282 123.741 246.505 121.058 242.036C118.375 237.566 108.082 220.631 116.373 214.74Z" fill="#407BFF"/>
<path d="M154.665 258.759L161.838 256.676L160.491 264.85C160.491 264.85 153.979 266.322 153.362 262.935L154.665 258.759Z" fill="#E4897B"/>
<path d="M168.979 258.611L165.434 265.245L160.491 264.85L161.838 256.676L168.979 258.611Z" fill="#E4897B"/>
</svg>
