<svg width="685" height="457" viewBox="0 0 685 457" fill="none" xmlns="http://www.w3.org/2000/svg">
<path d="M70.3337 42.496C70.3337 48.387 75.1094 53.1626 81.0004 53.1626C86.8914 53.1626 91.6671 48.387 91.6671 42.496C91.6671 36.6049 86.8914 31.8293 81.0004 31.8293C75.1094 31.8293 70.3337 36.6049 70.3337 42.496ZM580.5 219.496L579.647 217.687L580.5 219.496ZM81.0004 219.496L81.8072 221.326L81.0004 219.496ZM667 456.5L684.506 441.437L662.708 433.808L667 456.5ZM85.4124 42.7061C86.4228 42.2597 86.88 41.0788 86.4336 40.0685C85.9872 39.0581 84.8063 38.6009 83.7959 39.0473L85.4124 42.7061ZM91.1509 35.9055C90.13 36.3271 89.6441 37.4965 90.0656 38.5174C90.4872 39.5384 91.6566 40.0243 92.6775 39.6027L91.1509 35.9055ZM100.037 36.6647C101.068 36.2671 101.581 35.1093 101.183 34.0788C100.786 33.0483 99.628 32.5352 98.5975 32.9328L100.037 36.6647ZM106.074 30.1434C105.035 30.5181 104.497 31.6642 104.871 32.7033C105.246 33.7423 106.392 34.2809 107.431 33.9062L106.074 30.1434ZM114.935 31.2906C115.982 30.938 116.544 29.8036 116.192 28.7568C115.839 27.71 114.705 27.1473 113.658 27.4998L114.935 31.2906ZM121.23 25.0347C120.176 25.3661 119.591 26.489 119.922 27.5427C120.253 28.5963 121.376 29.1818 122.43 28.8503L121.23 25.0347ZM130.027 26.5413C131.087 26.2302 131.694 25.1189 131.383 24.059C131.072 22.9992 129.96 22.3921 128.901 22.7032L130.027 26.5413ZM136.573 20.5283C135.507 20.8199 134.88 21.9199 135.171 22.9853C135.463 24.0507 136.563 24.678 137.628 24.3864L136.573 20.5283ZM145.292 22.3619C146.362 22.0891 147.009 21.0002 146.736 19.9299C146.463 18.8595 145.375 18.213 144.304 18.4858L145.292 22.3619ZM152.066 16.5775C150.991 16.8322 150.327 17.91 150.581 18.9848C150.836 20.0596 151.914 20.7244 152.989 20.4696L152.066 16.5775ZM160.704 18.7069C161.783 18.4695 162.465 17.4025 162.227 16.3238C161.99 15.245 160.923 14.563 159.844 14.8004L160.704 18.7069ZM167.68 13.14C166.597 13.3607 165.899 14.4169 166.119 15.4992C166.34 16.5815 167.396 17.28 168.479 17.0594L167.68 13.14ZM176.235 15.5378C177.321 15.3332 178.035 14.2874 177.83 13.2019C177.626 12.1165 176.58 11.4024 175.494 11.6071L176.235 15.5378ZM183.366 10.1814C182.278 10.3705 181.549 11.4061 181.738 12.4943C181.927 13.5826 182.963 14.3115 184.051 14.1223L183.366 10.1814ZM191.862 12.82C192.953 12.6458 193.696 11.6203 193.522 10.5295C193.347 9.4388 192.322 8.69584 191.231 8.87008L191.862 12.82ZM199.123 7.66304C198.03 7.82289 197.273 8.83848 197.433 9.93142C197.593 11.0244 198.609 11.7808 199.702 11.6209L199.123 7.66304ZM207.563 10.5224C208.658 10.3765 209.427 9.37057 209.282 8.27569C209.136 7.1808 208.13 6.41153 207.035 6.55748L207.563 10.5224ZM214.943 5.55281C213.847 5.68535 213.065 6.68175 213.198 7.77834C213.33 8.87493 214.327 9.65645 215.423 9.52391L214.943 5.55281ZM223.316 8.61763C224.415 8.4981 225.208 7.51103 225.088 6.41294C224.969 5.31486 223.982 4.52159 222.884 4.64112L223.316 8.61763ZM230.811 3.82419C229.712 3.93117 228.907 4.90912 229.014 6.00849C229.121 7.10787 230.099 7.91237 231.199 7.80539L230.811 3.82419ZM239.102 7.08072C240.202 6.98592 241.018 6.01694 240.923 4.91645C240.828 3.81595 239.859 3.00068 238.759 3.09548L239.102 7.08072ZM246.712 2.45348C245.611 2.53647 244.785 3.49665 244.868 4.5981C244.951 5.69954 245.912 6.52516 247.013 6.44217L246.712 2.45348ZM254.927 5.8874C256.029 5.81586 256.865 4.86432 256.793 3.76206C256.722 2.65981 255.77 1.82426 254.668 1.8958L254.927 5.8874ZM262.633 1.41944C261.53 1.47985 260.685 2.42291 260.745 3.52582C260.805 4.62874 261.748 5.47386 262.851 5.41346L262.633 1.41944ZM270.779 5.01845C271.882 4.96887 272.737 4.03415 272.687 2.93069C272.638 1.82724 271.703 0.972901 270.599 1.02248L270.779 5.01845ZM278.566 0.702772C277.462 0.741818 276.599 1.66834 276.638 2.77222C276.677 3.8761 277.604 4.73932 278.708 4.70027L278.566 0.702772ZM286.645 4.45663C287.749 4.42786 288.621 3.5094 288.592 2.40521C288.564 1.30101 287.645 0.429213 286.541 0.457987L286.645 4.45663ZM294.514 0.286539C293.41 0.305298 292.53 1.21581 292.548 2.32022C292.567 3.42463 293.478 4.30472 294.582 4.28596L294.514 0.286539ZM302.515 4.18647C303.619 4.17748 304.507 3.2748 304.498 2.17027C304.489 1.06573 303.587 0.177616 302.482 0.186601L302.515 4.18647ZM310.466 0.156381C309.361 0.155793 308.465 1.05075 308.465 2.15532C308.464 3.25988 309.359 4.15579 310.464 4.15638L310.466 0.156381ZM318.391 4.19425C319.496 4.20419 320.399 3.31684 320.409 2.21232C320.419 1.10779 319.532 0.204348 318.427 0.194415L318.391 4.19425ZM326.412 0.299538C325.308 0.280421 324.397 1.16022 324.378 2.26462C324.359 3.36903 325.239 4.27982 326.343 4.29894L326.412 0.299538ZM334.278 4.46872C335.382 4.49684 336.3 3.62448 336.328 2.52027C336.357 1.41606 335.484 0.498131 334.38 0.47002L334.278 4.46872ZM342.345 0.70477C341.241 0.667824 340.316 1.5328 340.279 2.63675C340.242 3.74071 341.107 4.66559 342.211 4.70253L342.345 0.70477ZM350.159 5C351.262 5.04565 352.194 4.188 352.24 3.08437C352.285 1.98075 351.428 1.04907 350.324 1.00342L350.159 5ZM358.256 1.36235C357.153 1.30816 356.215 2.15859 356.161 3.26183C356.106 4.36506 356.957 5.30334 358.06 5.35753L358.256 1.36235ZM366.026 5.77957C367.128 5.84225 368.073 4.99907 368.136 3.89628C368.199 2.79349 367.355 1.84869 366.253 1.78602L366.026 5.77957ZM374.19 2.26727C373.087 2.19626 372.136 3.03227 372.065 4.13456C371.994 5.23684 372.83 6.18798 373.933 6.25899L374.19 2.26727ZM381.872 6.80048C382.974 6.87977 383.931 6.05093 384.011 4.94921C384.09 3.84749 383.261 2.89009 382.159 2.8108L381.872 6.80048ZM390.106 3.41248C389.005 3.32499 388.041 4.14669 387.954 5.24778C387.866 6.34888 388.688 7.31242 389.789 7.39991L390.106 3.41248ZM397.694 8.05744C398.794 8.15306 399.764 7.33851 399.86 6.23809C399.955 5.13767 399.141 4.16808 398.04 4.07246L397.694 8.05744ZM405.999 4.79374C404.9 4.68999 403.924 5.49735 403.82 6.59703C403.717 7.69672 404.524 8.6723 405.624 8.77605L405.999 4.79374ZM413.488 9.54713C414.587 9.65894 415.568 8.85874 415.68 7.75985C415.792 6.66095 414.992 5.67948 413.893 5.56767L413.488 9.54713ZM421.867 6.40881C420.769 6.28886 419.781 7.08176 419.661 8.1798C419.541 9.27783 420.334 10.2652 421.432 10.3852L421.867 6.40881ZM429.267 11.2701C430.364 11.3982 431.357 10.6125 431.486 9.51541C431.614 8.41829 430.828 7.42511 429.731 7.2971L429.267 11.2701ZM437.705 8.25787C436.609 8.12163 435.61 8.89977 435.474 9.99591C435.338 11.092 436.116 12.0911 437.212 12.2273L437.705 8.25787ZM445.041 13.2301C446.136 13.3745 447.141 12.6039 447.285 11.5088C447.429 10.4137 446.659 9.40887 445.564 9.26443L445.041 13.2301ZM453.514 10.344C452.42 10.1912 451.409 10.9541 451.256 12.048C451.104 13.142 451.866 14.1527 452.96 14.3056L453.514 10.344ZM460.775 15.4282C461.868 15.5895 462.885 14.8344 463.046 13.7417C463.207 12.6489 462.452 11.6323 461.359 11.4711L460.775 15.4282ZM469.291 12.6741C468.2 12.5041 467.177 13.251 467.007 14.3424C466.837 15.4338 467.584 16.4564 468.675 16.6265L469.291 12.6741ZM476.463 17.8719C477.553 18.0508 478.581 17.3123 478.76 16.2223C478.939 15.1323 478.2 14.1037 477.11 13.9248L476.463 17.8719ZM485.033 15.2597C483.945 15.0715 482.91 15.8013 482.722 16.8897C482.534 17.9781 483.263 19.013 484.352 19.2012L485.033 15.2597ZM492.087 20.5733C493.174 20.7711 494.215 20.0504 494.413 18.9636C494.611 17.8769 493.89 16.8357 492.803 16.6379L492.087 20.5733ZM500.73 18.1183C499.646 17.9103 498.598 18.6212 498.39 19.7061C498.182 20.7909 498.893 21.8389 499.977 22.0468L500.73 18.1183ZM507.703 23.5661C508.785 23.7846 509.84 23.0841 510.059 22.0013C510.277 20.9186 509.577 19.8637 508.494 19.6452L507.703 23.5661ZM516.356 21.2751C515.276 21.0451 514.214 21.7343 513.983 22.8147C513.753 23.895 514.443 24.9573 515.523 25.1874L516.356 21.2751ZM523.281 26.886C524.359 27.1286 525.429 26.4517 525.672 25.3741C525.914 24.2965 525.237 23.2263 524.16 22.9837L523.281 26.886ZM531.848 24.7652C530.774 24.5089 529.695 25.1721 529.439 26.2465C529.182 27.3209 529.846 28.3997 530.92 28.656L531.848 24.7652ZM538.71 30.5744C539.781 30.8467 540.87 30.1996 541.142 29.1291C541.414 28.0586 540.767 26.9701 539.696 26.6978L538.71 30.5744ZM547.438 28.7362C546.372 28.4454 545.273 29.0735 544.982 30.1391C544.691 31.2047 545.319 32.3043 546.385 32.5951L547.438 28.7362ZM553.957 34.7441C555.017 35.0573 556.129 34.4525 556.442 33.3933C556.755 32.3341 556.151 31.2215 555.091 30.9083L553.957 34.7441ZM562.692 33.2642C561.642 32.9219 560.513 33.4958 560.171 34.546C559.829 35.5962 560.402 36.7251 561.453 37.0673L562.692 33.2642ZM568.894 39.6462C569.929 40.0302 571.08 39.502 571.464 38.4664C571.848 37.4307 571.32 36.2798 570.285 35.8957L568.894 39.6462ZM577.871 38.9844C576.866 38.5277 575.68 38.9729 575.224 39.9786C574.767 40.9844 575.212 42.1699 576.218 42.6266L577.871 38.9844ZM582.973 46.1104C583.94 46.6435 585.156 46.2914 585.689 45.324C586.223 44.3566 585.87 43.1402 584.903 42.6071L582.973 46.1104ZM591.828 46.5503C590.876 45.9904 589.65 46.3085 589.09 47.2607C588.53 48.2129 588.848 49.4386 589.8 49.9984L591.828 46.5503ZM596.5 54.0633C597.436 54.6494 598.671 54.3655 599.257 53.4293C599.843 52.493 599.559 51.2589 598.622 50.6728L596.5 54.0633ZM605.319 54.9996C604.4 54.3866 603.158 54.6346 602.545 55.5535C601.932 56.4723 602.18 57.7141 603.099 58.3271L605.319 54.9996ZM609.566 62.7856C610.465 63.4268 611.714 63.2174 612.355 62.318C612.996 61.4186 612.787 60.1697 611.887 59.5285L609.566 62.7856ZM618.302 64.2635C617.424 63.5924 616.169 63.7595 615.498 64.6368C614.827 65.5141 614.994 66.7694 615.871 67.4405L618.302 64.2635ZM621.999 72.308C622.85 73.0114 624.111 72.8912 624.814 72.0395C625.518 71.1878 625.397 69.9272 624.546 69.2238L621.999 72.308ZM630.599 74.4356C629.777 73.6972 628.513 73.7645 627.774 74.586C627.036 75.4074 627.103 76.672 627.925 77.4104L630.599 74.4356ZM633.61 82.7655C634.395 83.5423 635.662 83.5353 636.438 82.75C637.215 81.9647 637.208 80.6984 636.423 79.9216L633.61 82.7655ZM641.968 85.7089C641.227 84.8901 639.962 84.8274 639.143 85.5688C638.324 86.3102 638.262 87.575 639.003 88.3938L641.968 85.7089ZM644.038 94.3166C644.726 95.1813 645.984 95.3251 646.848 94.6378C647.713 93.9505 647.857 92.6924 647.17 91.8277L644.038 94.3166ZM651.943 98.3092C651.323 97.3949 650.079 97.1563 649.165 97.7762C648.251 98.3961 648.012 99.6397 648.632 100.554L651.943 98.3092ZM652.677 107.12C653.213 108.086 654.43 108.435 655.396 107.9C656.362 107.364 656.712 106.147 656.176 105.181L652.677 107.12ZM659.737 112.48C659.308 111.462 658.135 110.985 657.117 111.414C656.1 111.843 655.622 113.016 656.051 114.034L659.737 112.48ZM658.585 121.249C658.884 122.312 659.988 122.933 661.051 122.634C662.115 122.336 662.735 121.232 662.437 120.169L658.585 121.249ZM664.086 128.177C663.943 127.082 662.939 126.31 661.843 126.454C660.748 126.597 659.977 127.601 660.12 128.697L664.086 128.177ZM660.524 136.27C660.496 137.374 661.369 138.292 662.473 138.32C663.577 138.347 664.495 137.475 664.523 136.37L660.524 136.27ZM663.668 144.532C663.869 143.445 663.151 142.402 662.065 142.201C660.979 141.999 659.936 142.717 659.734 143.803L663.668 144.532ZM657.794 151.124C657.433 152.168 657.987 153.307 659.031 153.668C660.075 154.029 661.214 153.475 661.575 152.431L657.794 151.124ZM658.394 159.93C658.891 158.944 658.494 157.741 657.508 157.244C656.521 156.747 655.319 157.144 654.822 158.131L658.394 159.93ZM650.979 164.754C650.372 165.677 650.628 166.917 651.551 167.524C652.474 168.13 653.714 167.874 654.321 166.951L650.979 164.754ZM649.542 173.484C650.235 172.625 650.101 171.366 649.241 170.672C648.381 169.979 647.122 170.114 646.428 170.973L649.542 173.484ZM641.302 176.811C640.541 177.611 640.573 178.877 641.374 179.638C642.174 180.399 643.44 180.367 644.201 179.567L641.302 176.811ZM638.459 185.199C639.273 184.452 639.327 183.187 638.58 182.374C637.833 181.56 636.567 181.506 635.754 182.253L638.459 185.199ZM629.926 187.299C629.071 187.998 628.946 189.259 629.646 190.113C630.345 190.968 631.605 191.094 632.46 190.394L629.926 187.299ZM626.15 195.301C627.038 194.644 627.225 193.391 626.568 192.504C625.91 191.616 624.658 191.429 623.77 192.086L626.15 195.301ZM617.29 196.668C616.375 197.287 616.135 198.53 616.754 199.445C617.373 200.36 618.616 200.6 619.531 199.981L617.29 196.668ZM612.966 204.249C613.903 203.663 614.187 202.429 613.601 201.493C613.016 200.556 611.781 200.272 610.845 200.858L612.966 204.249ZM604.088 204.932C603.133 205.487 602.809 206.712 603.365 207.666C603.92 208.621 605.144 208.945 606.099 208.389L604.088 204.932ZM599.197 212.274C600.167 211.746 600.525 210.531 599.996 209.561C599.468 208.591 598.253 208.233 597.283 208.762L599.197 212.274ZM590.34 212.431C589.357 212.935 588.969 214.14 589.473 215.123C589.977 216.106 591.182 216.494 592.165 215.99L590.34 212.431ZM585.055 219.534C586.049 219.053 586.464 217.856 585.982 216.862C585.501 215.868 584.304 215.453 583.31 215.935L585.055 219.534ZM576.052 219.343C575.045 219.797 574.595 220.981 575.048 221.988C575.502 222.995 576.686 223.444 577.693 222.991L576.052 219.343ZM570.33 226.147C571.353 225.73 571.844 224.563 571.427 223.54C571.01 222.517 569.842 222.026 568.82 222.443L570.33 226.147ZM561.491 225.281C560.454 225.662 559.922 226.811 560.303 227.848C560.684 228.885 561.833 229.417 562.87 229.036L561.491 225.281ZM555.303 231.666C556.353 231.322 556.924 230.192 556.58 229.142C556.235 228.093 555.105 227.521 554.056 227.866L555.303 231.666ZM546.544 230.191C545.484 230.499 544.874 231.609 545.183 232.67C545.492 233.731 546.602 234.34 547.662 234.031L546.544 230.191ZM539.939 236.141C541.009 235.867 541.655 234.778 541.382 233.708C541.108 232.638 540.019 231.992 538.949 232.265L539.939 236.141ZM531.294 234.09C530.216 234.329 529.535 235.397 529.774 236.475C530.013 237.553 531.081 238.234 532.16 237.995L531.294 234.09ZM524.322 239.603C525.407 239.398 526.121 238.352 525.915 237.267C525.71 236.181 524.664 235.468 523.578 235.673L524.322 239.603ZM515.819 237.02C514.728 237.193 513.984 238.218 514.156 239.309C514.329 240.4 515.354 241.144 516.445 240.971L515.819 237.02ZM508.531 242.108C509.627 241.966 510.4 240.964 510.259 239.868C510.117 238.773 509.114 237.999 508.019 238.141L508.531 242.108ZM500.187 239.043C499.089 239.155 498.288 240.136 498.4 241.235C498.511 242.334 499.492 243.134 500.591 243.023L500.187 239.043ZM492.634 243.725C493.736 243.642 494.561 242.682 494.478 241.58C494.396 240.479 493.435 239.653 492.334 239.736L492.634 243.725ZM484.459 240.23C483.356 240.286 482.506 241.225 482.562 242.329C482.618 243.432 483.557 244.281 484.66 244.225L484.459 240.23ZM476.685 244.534C477.789 244.504 478.66 243.584 478.63 242.48C478.6 241.376 477.681 240.505 476.577 240.535L476.685 244.534ZM468.679 240.662C467.575 240.667 466.684 241.568 466.689 242.672C466.695 243.777 467.595 244.667 468.7 244.662L468.679 240.662ZM460.725 244.62C461.83 244.637 462.739 243.755 462.756 242.651C462.773 241.546 461.892 240.637 460.787 240.62L460.725 244.62ZM452.884 240.42C451.78 240.381 450.854 241.245 450.815 242.349C450.777 243.453 451.641 244.379 452.744 244.418L452.884 240.42ZM444.784 244.067C445.887 244.125 446.829 243.279 446.887 242.176C446.946 241.073 446.099 240.131 444.996 240.072L444.784 244.067ZM437.098 239.586C435.996 239.509 435.04 240.34 434.963 241.442C434.886 242.544 435.717 243.499 436.819 243.576L437.098 239.586ZM428.881 242.958C429.982 243.052 430.95 242.237 431.045 241.136C431.139 240.036 430.323 239.067 429.223 238.973L428.881 242.958ZM421.337 238.239C420.238 238.129 419.258 238.931 419.148 240.03C419.037 241.129 419.839 242.109 420.938 242.219L421.337 238.239ZM413.027 241.372C414.125 241.497 415.115 240.708 415.24 239.611C415.365 238.513 414.576 237.523 413.479 237.398L413.027 241.372ZM405.611 236.454C404.515 236.316 403.514 237.092 403.376 238.188C403.238 239.284 404.014 240.284 405.11 240.422L405.611 236.454ZM397.227 239.383C398.321 239.534 399.33 238.768 399.48 237.674C399.631 236.58 398.865 235.571 397.771 235.42L397.227 239.383ZM389.923 234.301C388.83 234.14 387.814 234.895 387.652 235.988C387.491 237.08 388.246 238.097 389.339 238.258L389.923 234.301ZM381.479 237.061C382.571 237.232 383.594 236.486 383.765 235.395C383.936 234.304 383.191 233.28 382.099 233.109L381.479 237.061ZM374.273 231.848C373.183 231.668 372.154 232.406 371.974 233.496C371.794 234.585 372.531 235.615 373.621 235.795L374.273 231.848ZM365.782 234.471C366.87 234.659 367.905 233.928 368.092 232.84C368.28 231.751 367.55 230.717 366.461 230.529L365.782 234.471ZM358.652 229.158C357.565 228.964 356.526 229.688 356.332 230.775C356.137 231.862 356.861 232.901 357.949 233.096L358.652 229.158ZM350.127 231.677C351.213 231.877 352.256 231.158 352.456 230.072C352.655 228.985 351.937 227.943 350.85 227.743L350.127 231.677ZM343.054 226.291C341.969 226.087 340.923 226.801 340.719 227.886C340.514 228.972 341.228 230.017 342.314 230.222L343.054 226.291ZM334.506 228.738C335.591 228.946 336.639 228.235 336.847 227.15C337.055 226.065 336.344 225.017 335.259 224.809L334.506 228.738ZM327.469 223.306C326.385 223.096 325.335 223.804 325.125 224.889C324.914 225.973 325.623 227.023 326.707 227.233L327.469 223.306ZM318.91 225.714C319.994 225.926 321.045 225.219 321.257 224.135C321.469 223.051 320.762 222 319.677 221.788L318.91 225.714ZM311.887 220.263C310.803 220.05 309.752 220.757 309.54 221.841C309.328 222.925 310.034 223.976 311.118 224.188L311.887 220.263ZM303.328 222.663C304.412 222.875 305.462 222.168 305.674 221.084C305.886 219.999 305.179 218.949 304.095 218.737L303.328 222.663ZM296.297 217.218C295.213 217.008 294.163 217.717 293.953 218.801C293.743 219.885 294.451 220.935 295.536 221.145L296.297 217.218ZM287.748 219.644C288.833 219.852 289.881 219.141 290.088 218.056C290.296 216.971 289.585 215.923 288.5 215.716L287.748 219.644ZM280.687 214.234C279.602 214.03 278.556 214.745 278.353 215.831C278.149 216.916 278.863 217.962 279.949 218.165L280.687 214.234ZM272.159 216.72C273.246 216.919 274.288 216.2 274.487 215.113C274.686 214.027 273.966 212.984 272.88 212.785L272.159 216.72ZM265.046 211.373C263.959 211.18 262.92 211.905 262.728 212.993C262.535 214.08 263.26 215.118 264.348 215.311L265.046 211.373ZM256.551 213.954C257.64 214.14 258.673 213.408 258.859 212.319C259.044 211.23 258.312 210.197 257.223 210.011L256.551 213.954ZM249.363 208.702C248.272 208.525 247.245 209.265 247.068 210.355C246.891 211.446 247.631 212.473 248.721 212.65L249.363 208.702ZM240.913 211.417C242.005 211.584 243.026 210.835 243.193 209.743C243.36 208.651 242.611 207.631 241.519 207.463L240.913 211.417ZM233.627 206.295C232.534 206.139 231.521 206.899 231.365 207.993C231.209 209.086 231.969 210.099 233.063 210.255L233.627 206.295ZM225.239 209.184C226.334 209.328 227.338 208.556 227.481 207.461C227.625 206.365 226.853 205.361 225.758 205.218L225.239 209.184ZM217.833 204.233C216.736 204.104 215.743 204.889 215.614 205.986C215.485 207.083 216.269 208.077 217.366 208.206L217.833 204.233ZM209.524 207.34C210.622 207.453 211.605 206.654 211.718 205.555C211.831 204.457 211.032 203.474 209.933 203.361L209.524 207.34ZM201.978 202.606C200.877 202.51 199.908 203.325 199.813 204.426C199.717 205.526 200.532 206.496 201.632 206.591L201.978 202.606ZM193.771 205.978C194.873 206.054 195.828 205.222 195.904 204.12C195.979 203.019 195.148 202.064 194.046 201.988L193.771 205.978ZM186.065 201.515C184.962 201.46 184.023 202.311 183.969 203.414C183.914 204.517 184.764 205.456 185.868 205.51L186.065 201.515ZM177.991 205.204C179.095 205.235 180.016 204.365 180.046 203.261C180.077 202.157 179.207 201.237 178.103 201.206L177.991 205.204ZM170.108 201.073C169.003 201.068 168.104 201.959 168.098 203.064C168.093 204.168 168.984 205.068 170.089 205.073L170.108 201.073ZM162.209 205.134C163.313 205.111 164.19 204.198 164.167 203.093C164.145 201.989 163.231 201.112 162.127 201.135L162.209 205.134ZM154.135 201.407C153.032 201.459 152.18 202.397 152.233 203.5C152.286 204.603 153.223 205.455 154.327 205.402L154.135 201.407ZM146.463 205.894C147.564 205.808 148.388 204.846 148.302 203.745C148.217 202.644 147.255 201.82 146.154 201.906L146.463 205.894ZM138.193 202.65C137.095 202.77 136.302 203.758 136.423 204.856C136.543 205.954 137.531 206.746 138.629 206.626L138.193 202.65ZM130.816 207.617C131.909 207.459 132.667 206.445 132.509 205.351C132.351 204.258 131.337 203.5 130.244 203.658L130.816 207.617ZM122.35 204.943C121.263 205.14 120.542 206.181 120.74 207.268C120.937 208.355 121.978 209.076 123.065 208.878L122.35 204.943ZM115.351 210.433C116.429 210.193 117.109 209.125 116.87 208.047C116.631 206.969 115.563 206.288 114.484 206.528L115.351 210.433ZM106.702 208.42C105.634 208.703 104.998 209.798 105.28 210.866C105.563 211.933 106.658 212.569 107.726 212.287L106.702 208.42ZM100.177 214.459C101.232 214.131 101.821 213.01 101.493 211.955C101.165 210.9 100.044 210.311 98.9888 210.639L100.177 214.459ZM91.3834 213.191C90.3443 213.566 89.8057 214.712 90.1803 215.751C90.555 216.79 91.701 217.329 92.7401 216.954L91.3834 213.191ZM85.4237 219.782C86.4445 219.36 86.9301 218.191 86.5083 217.17C86.0865 216.149 84.917 215.663 83.8962 216.085L85.4237 219.782ZM76.4443 219.349C75.4397 219.808 74.9977 220.995 75.4569 221.999C75.9161 223.004 77.1028 223.446 78.1074 222.987L76.4443 219.349ZM71.0229 226.346C72.014 225.858 72.4223 224.659 71.9348 223.668C71.4472 222.677 70.2485 222.269 69.2574 222.756L71.0229 226.346ZM62.0697 226.433C61.0947 226.952 60.725 228.163 61.2439 229.138C61.7629 230.113 62.9741 230.483 63.9491 229.964L62.0697 226.433ZM57.1299 233.746C58.0861 233.193 58.4129 231.97 57.86 231.014C57.307 230.057 56.0836 229.731 55.1274 230.284L57.1299 233.746ZM48.2344 234.453C47.3012 235.044 47.0237 236.279 47.6146 237.213C48.2055 238.146 49.4411 238.423 50.3743 237.832L48.2344 234.453ZM43.808 242.199C44.7132 241.566 44.9341 240.319 44.3012 239.414C43.6683 238.508 42.4214 238.287 41.5161 238.92L43.808 242.199ZM35.0637 243.679C34.1924 244.357 34.0364 245.614 34.7152 246.485C35.3941 247.357 36.6508 247.513 37.5221 246.834L35.0637 243.679ZM31.5342 251.784C32.3638 251.055 32.445 249.791 31.7157 248.961C30.9864 248.132 29.7227 248.051 28.8931 248.78L31.5342 251.784ZM22.9969 254.328C22.2197 255.112 22.2261 256.379 23.011 257.156C23.796 257.933 25.0623 257.927 25.8394 257.142L22.9969 254.328ZM20.5729 262.896C21.2844 262.051 21.1762 260.789 20.3313 260.078C19.4864 259.366 18.2247 259.475 17.5132 260.319L20.5729 262.896ZM12.5654 266.77C11.9358 267.677 12.1611 268.923 13.0687 269.553C13.9763 270.183 15.2224 269.957 15.852 269.05L12.5654 266.77ZM11.7932 275.611C12.3216 274.641 11.9637 273.427 10.9937 272.898C10.0238 272.37 8.80909 272.728 8.28065 273.698L11.7932 275.611ZM4.81133 281.089C4.40521 282.117 4.9087 283.279 5.9359 283.685C6.9631 284.091 8.12504 283.587 8.53116 282.56L4.81133 281.089ZM6.19178 289.877C6.45479 288.804 5.79833 287.721 4.72553 287.458C3.65273 287.195 2.56984 287.851 2.30683 288.924L6.19178 289.877ZM0.926263 297.043C0.820951 298.142 1.62693 299.119 2.72647 299.224C3.82601 299.33 4.80273 298.524 4.90804 297.424L0.926263 297.043ZM4.74177 305.061C4.6846 303.958 3.74402 303.11 2.64093 303.167C1.53784 303.224 0.689961 304.165 0.747137 305.268L4.74177 305.061ZM1.76301 313.425C1.97689 314.508 3.02877 315.214 4.11243 315C5.19609 314.786 5.90119 313.734 5.6873 312.65L1.76301 313.425ZM7.67973 320.058C7.32315 319.013 6.18661 318.454 5.14117 318.811C4.09574 319.168 3.53731 320.304 3.89388 321.349L7.67973 320.058ZM7.01043 328.916C7.49156 329.911 8.68762 330.327 9.6819 329.846C10.6762 329.364 11.0922 328.168 10.611 327.174L7.01043 328.916ZM14.3607 333.93C13.7733 332.995 12.5388 332.712 11.6033 333.3C10.6679 333.887 10.3857 335.122 10.9731 336.057L14.3607 333.93ZM15.6448 342.726C16.3219 343.599 17.5782 343.758 18.451 343.081C19.3237 342.404 19.4823 341.147 18.8053 340.274L15.6448 342.726ZM23.8379 346.183C23.0851 345.375 21.8196 345.33 21.0113 346.083C20.203 346.835 20.1581 348.101 20.9109 348.909L23.8379 346.183ZM26.6851 354.608C27.5026 355.35 28.7674 355.29 29.5103 354.473C30.2532 353.655 30.1927 352.39 29.3753 351.647L26.6851 354.608ZM35.3436 356.655C34.4705 355.979 33.2142 356.138 32.5376 357.011C31.861 357.884 32.0204 359.14 32.8935 359.817L35.3436 356.655ZM39.4771 364.531C40.3988 365.14 41.6395 364.886 42.2483 363.964C42.8571 363.043 42.6035 361.802 41.6819 361.193L39.4771 364.531ZM48.3451 365.247C47.3808 364.708 46.1624 365.054 45.6238 366.018C45.0853 366.982 45.4304 368.201 46.3948 368.739L48.3451 365.247ZM53.6096 372.42C54.6118 372.885 55.8007 372.449 56.2651 371.446C56.7294 370.444 56.2934 369.255 55.2912 368.791L53.6096 372.42ZM62.4789 371.787C61.4434 371.403 60.2924 371.931 59.9081 372.967C59.5238 374.002 60.0517 375.153 61.0873 375.537L62.4789 371.787ZM68.797 378.04C69.8611 378.336 70.9637 377.713 71.2597 376.649C71.5556 375.585 70.9328 374.482 69.8687 374.186L68.797 378.04ZM77.4434 375.925C76.3563 375.729 75.3164 376.452 75.1207 377.539C74.925 378.626 75.6476 379.666 76.7347 379.861L77.4434 375.925ZM84.5816 380.956C85.6783 381.088 86.6742 380.305 86.806 379.209C86.9378 378.112 86.1556 377.116 85.0589 376.984L84.5816 380.956ZM92.8807 377.87C91.7824 377.753 90.7969 378.548 90.6796 379.646C90.5623 380.745 91.3576 381.73 92.4559 381.847L92.8807 377.87ZM100.32 382.642C101.419 382.748 102.396 381.942 102.501 380.842C102.606 379.743 101.8 378.766 100.701 378.661L100.32 382.642ZM108.512 379.369C107.412 379.275 106.443 380.09 106.348 381.191C106.254 382.291 107.069 383.26 108.17 383.355L108.512 379.369ZM116.018 383.994C117.119 384.079 118.081 383.256 118.166 382.154C118.251 381.053 117.427 380.091 116.325 380.006L116.018 383.994ZM124.154 380.578C123.052 380.502 122.097 381.334 122.021 382.436C121.945 383.538 122.776 384.493 123.878 384.569L124.154 380.578ZM131.764 385.082C132.867 385.15 133.815 384.311 133.883 383.209C133.95 382.106 133.111 381.157 132.009 381.09L131.764 385.082ZM139.901 381.545C138.798 381.485 137.856 382.331 137.796 383.434C137.737 384.537 138.582 385.479 139.685 385.539L139.901 381.545ZM147.524 385.934C148.627 385.986 149.563 385.134 149.615 384.03C149.667 382.927 148.815 381.991 147.711 381.939L147.524 385.934ZM155.543 382.28C154.439 382.236 153.509 383.095 153.464 384.198C153.42 385.302 154.279 386.233 155.382 386.277L155.543 382.28ZM163.297 386.569C164.401 386.606 165.326 385.741 165.364 384.637C165.401 383.533 164.536 382.608 163.432 382.571L163.297 386.569ZM171.278 382.81C170.174 382.78 169.254 383.65 169.224 384.755C169.194 385.859 170.065 386.778 171.169 386.808L171.278 382.81ZM179.03 386.997C180.134 387.02 181.048 386.143 181.071 385.039C181.094 383.934 180.218 383.021 179.113 382.998L179.03 386.997ZM187.021 383.138C185.916 383.121 185.008 384.004 184.992 385.108C184.976 386.213 185.858 387.121 186.962 387.137L187.021 383.138ZM194.804 387.228C195.908 387.237 196.811 386.349 196.821 385.245C196.83 384.14 195.942 383.237 194.838 383.228L194.804 387.228ZM202.707 383.27C201.603 383.268 200.705 384.161 200.702 385.266C200.7 386.37 201.593 387.268 202.698 387.27L202.707 383.27ZM210.594 387.266C211.698 387.262 212.59 386.363 212.586 385.258C212.582 384.154 211.684 383.262 210.579 383.266L210.594 387.266ZM218.416 383.214C217.312 383.224 216.425 384.128 216.436 385.233C216.446 386.337 217.35 387.224 218.455 387.213L218.416 383.214ZM226.384 387.114C227.488 387.096 228.37 386.187 228.353 385.083C228.335 383.978 227.426 383.097 226.322 383.114L226.384 387.114ZM234.134 382.969C233.029 382.993 232.153 383.908 232.177 385.012C232.201 386.116 233.115 386.992 234.22 386.968L234.134 382.969ZM242.145 386.775C243.249 386.744 244.12 385.825 244.089 384.721C244.059 383.616 243.14 382.746 242.035 382.776L242.145 386.775ZM249.851 382.539C248.747 382.576 247.882 383.5 247.918 384.604C247.955 385.708 248.88 386.574 249.984 386.537L249.851 382.539ZM257.894 386.25C258.998 386.207 259.857 385.277 259.814 384.173C259.771 383.069 258.841 382.21 257.737 382.253L257.894 386.25ZM265.562 381.923C264.458 381.973 263.604 382.908 263.654 384.011C263.704 385.115 264.639 385.969 265.742 385.919L265.562 381.923ZM273.642 385.54C274.745 385.483 275.593 384.543 275.537 383.44C275.481 382.337 274.541 381.488 273.438 381.545L273.642 385.54ZM281.263 381.122C280.161 381.185 279.318 382.13 279.38 383.233C279.443 384.336 280.388 385.179 281.491 385.116L281.263 381.122ZM289.383 384.643C290.486 384.574 291.323 383.624 291.254 382.521C291.185 381.419 290.235 380.582 289.132 380.651L289.383 384.643ZM296.953 380.136C295.851 380.212 295.019 381.166 295.095 382.268C295.171 383.37 296.126 384.202 297.228 384.126L296.953 380.136ZM305.117 383.559C306.218 383.477 307.044 382.517 306.962 381.416C306.879 380.314 305.919 379.488 304.818 379.571L305.117 383.559ZM312.629 378.962C311.528 379.051 310.708 380.016 310.797 381.117C310.886 382.218 311.851 383.038 312.952 382.949L312.629 378.962ZM320.838 382.288C321.939 382.192 322.753 381.222 322.658 380.122C322.562 379.021 321.592 378.207 320.492 378.303L320.838 382.288ZM328.29 377.601C327.19 377.703 326.381 378.678 326.484 379.777C326.586 380.877 327.561 381.686 328.66 381.584L328.29 377.601ZM336.546 380.826C337.646 380.717 338.448 379.737 338.339 378.638C338.23 377.539 337.251 376.736 336.151 376.845L336.546 380.826ZM343.934 376.049C342.835 376.165 342.038 377.149 342.154 378.248C342.27 379.346 343.254 380.143 344.353 380.027L343.934 376.049ZM352.218 379.174C353.316 379.052 354.107 378.062 353.984 376.965C353.861 375.867 352.872 375.076 351.774 375.199L352.218 379.174ZM359.558 374.306C358.461 374.435 357.677 375.429 357.806 376.526C357.936 377.623 358.93 378.407 360.027 378.278L359.558 374.306ZM367.868 377.329C368.964 377.193 369.742 376.194 369.606 375.098C369.47 374.002 368.471 373.223 367.375 373.359L367.868 377.329ZM375.162 372.367C374.067 372.51 373.295 373.514 373.438 374.609C373.581 375.705 374.585 376.477 375.68 376.334L375.162 372.367ZM383.496 375.287C384.591 375.137 385.356 374.129 385.206 373.034C385.056 371.94 384.048 371.175 382.953 371.325L383.496 375.287ZM390.743 370.231C389.649 370.388 388.89 371.402 389.047 372.495C389.204 373.589 390.218 374.348 391.311 374.191L390.743 370.231ZM399.101 373.047C400.194 372.883 400.946 371.864 400.782 370.772C400.618 369.68 399.599 368.927 398.507 369.091L399.101 373.047ZM406.297 367.895C405.206 368.066 404.46 369.09 404.631 370.181C404.802 371.272 405.825 372.018 406.917 371.847L406.297 367.895ZM414.68 370.603C415.77 370.425 416.509 369.397 416.331 368.307C416.152 367.217 415.124 366.477 414.034 366.656L414.68 370.603ZM421.806 365.358C420.717 365.544 419.985 366.577 420.171 367.666C420.356 368.754 421.389 369.487 422.478 369.301L421.806 365.358ZM430.229 367.954C431.317 367.761 432.042 366.723 431.849 365.636C431.656 364.548 430.618 363.823 429.531 364.016L430.229 367.954ZM437.271 362.617C436.184 362.817 435.466 363.86 435.666 364.946C435.866 366.032 436.909 366.751 437.995 366.551L437.271 362.617ZM445.745 365.095C446.83 364.888 447.542 363.84 447.334 362.755C447.127 361.67 446.079 360.959 444.994 361.167L445.745 365.095ZM452.701 359.665C451.617 359.88 450.913 360.933 451.128 362.016C451.343 363.1 452.396 363.804 453.479 363.589L452.701 359.665ZM461.226 362.024C462.308 361.801 463.004 360.744 462.782 359.662C462.559 358.58 461.502 357.883 460.42 358.106L461.226 362.024ZM468.093 356.5C467.013 356.73 466.324 357.792 466.554 358.872C466.784 359.953 467.846 360.642 468.926 360.412L468.093 356.5ZM476.648 358.739C477.727 358.501 478.409 357.434 478.171 356.355C477.933 355.276 476.866 354.595 475.787 354.832L476.648 358.739ZM483.443 353.116C482.366 353.362 481.692 354.434 481.938 355.511C482.183 356.588 483.255 357.262 484.332 357.016L483.443 353.116ZM492.017 355.236C493.092 354.982 493.758 353.905 493.505 352.83C493.252 351.755 492.175 351.089 491.1 351.342L492.017 355.236ZM498.747 349.511C497.673 349.773 497.015 350.854 497.276 351.927C497.537 353.001 498.619 353.659 499.692 353.398L498.747 349.511ZM507.339 351.508C508.41 351.239 509.061 350.152 508.792 349.081C508.523 348.009 507.436 347.359 506.365 347.628L507.339 351.508ZM513.995 345.681C512.926 345.958 512.283 347.05 512.561 348.119C512.838 349.188 513.929 349.831 514.998 349.554L513.995 345.681ZM522.609 347.551C523.677 347.265 524.311 346.169 524.025 345.102C523.74 344.035 522.644 343.401 521.577 343.686L522.609 347.551ZM529.164 341.628C528.1 341.921 527.474 343.022 527.767 344.087C528.061 345.152 529.162 345.777 530.227 345.484L529.164 341.628ZM538.082 343.317C539.149 343.03 539.781 341.933 539.494 340.866C539.207 339.799 538.11 339.167 537.043 339.454L538.082 343.317ZM544.986 337.404C543.914 337.669 543.259 338.753 543.524 339.825C543.789 340.897 544.873 341.552 545.945 341.287L544.986 337.404ZM553.691 339.464C554.769 339.223 555.447 338.154 555.207 337.076C554.966 335.998 553.897 335.32 552.819 335.56L553.691 339.464ZM560.926 333.856C559.842 334.069 559.136 335.121 559.349 336.204C559.562 337.288 560.614 337.994 561.698 337.781L560.926 333.856ZM569.497 336.358C570.586 336.176 571.321 335.145 571.138 334.055C570.956 332.966 569.924 332.231 568.835 332.414L569.497 336.358ZM577.037 331.172C575.942 331.319 575.174 332.326 575.321 333.42C575.468 334.515 576.475 335.283 577.57 335.136L577.037 331.172ZM585.491 334.213C586.591 334.106 587.395 333.127 587.287 332.028C587.18 330.929 586.201 330.125 585.102 330.232L585.491 334.213ZM593.29 329.601C592.187 329.662 591.342 330.606 591.403 331.709C591.465 332.812 592.408 333.656 593.511 333.595L593.29 329.601ZM601.564 333.34C602.669 333.333 603.558 332.432 603.551 331.327C603.544 330.223 602.643 329.333 601.538 329.341L601.564 333.34ZM609.659 329.51C608.555 329.455 607.617 330.305 607.562 331.408C607.507 332.511 608.357 333.45 609.46 333.505L609.659 329.51ZM617.449 334.164C618.546 334.293 619.54 333.509 619.669 332.412C619.798 331.315 619.013 330.321 617.916 330.192L617.449 334.164ZM626.127 331.482C625.044 331.266 623.991 331.969 623.774 333.052C623.558 334.135 624.261 335.189 625.344 335.405L626.127 331.482ZM633.028 337.309C634.086 337.627 635.201 337.027 635.518 335.969C635.836 334.911 635.236 333.796 634.178 333.478L633.028 337.309ZM642.002 336.299C640.986 335.866 639.811 336.338 639.378 337.354C638.944 338.37 639.416 339.545 640.432 339.978L642.002 336.299ZM647.434 343.504C648.385 344.065 649.611 343.748 650.172 342.796C650.733 341.845 650.417 340.619 649.465 340.058L647.434 343.504ZM656.37 344.822C655.509 344.13 654.25 344.266 653.558 345.127C652.866 345.988 653.002 347.247 653.863 347.939L656.37 344.822ZM659.545 353.27C660.291 354.086 661.556 354.143 662.371 353.398C663.186 352.653 663.244 351.388 662.498 350.572L659.545 353.27ZM667.675 357.19C667.062 356.272 665.82 356.023 664.902 356.636C663.983 357.249 663.735 358.491 664.347 359.41L667.675 357.19ZM668.207 366.213C668.683 367.209 669.877 367.63 670.874 367.154C671.87 366.677 672.292 365.483 671.815 364.487L668.207 366.213ZM674.93 372.25C674.583 371.201 673.452 370.633 672.403 370.98C671.354 371.328 670.786 372.459 671.133 373.508L674.93 372.25ZM673.193 381.131C673.424 382.211 674.487 382.899 675.567 382.668C676.647 382.437 677.335 381.374 677.104 380.294L673.193 381.131ZM678.453 388.487C678.323 387.391 677.328 386.607 676.231 386.737C675.134 386.866 674.351 387.861 674.48 388.958L678.453 388.487ZM675.095 396.896C675.138 398 676.067 398.86 677.171 398.817C678.275 398.774 679.135 397.845 679.092 396.741L675.095 396.896ZM679.126 404.993C679.158 403.889 678.289 402.968 677.185 402.936C676.08 402.904 675.159 403.773 675.127 404.877L679.126 404.993ZM674.655 412.865C674.558 413.965 675.371 414.936 676.471 415.033C677.572 415.129 678.542 414.316 678.639 413.216L674.655 412.865ZM677.698 421.405C677.852 420.312 677.09 419.3 675.996 419.146C674.903 418.992 673.891 419.753 673.737 420.847L677.698 421.405ZM672.428 428.769C672.223 429.854 672.936 430.9 674.021 431.105C675.107 431.31 676.153 430.597 676.358 429.512L672.428 428.769ZM674.659 437.531C674.911 436.456 674.244 435.379 673.168 435.127C672.093 434.875 671.017 435.542 670.765 436.618L674.659 437.531ZM668.764 444.404C668.466 445.468 669.087 446.571 670.151 446.869C671.215 447.166 672.318 446.545 672.616 445.482L668.764 444.404ZM670.223 453.346C670.57 452.297 670.002 451.166 668.953 450.818C667.905 450.471 666.773 451.039 666.426 452.088L670.223 453.346ZM81.8316 44.315C83.0193 43.7723 84.213 43.236 85.4124 42.7061L83.7959 39.0473C82.5813 39.5839 81.3723 40.1271 80.1692 40.6769L81.8316 44.315ZM92.6775 39.6027C95.1092 38.5987 97.5628 37.6195 100.037 36.6647L98.5975 32.9328C96.0945 33.8986 93.612 34.8893 91.1509 35.9055L92.6775 39.6027ZM107.431 33.9062C109.913 33.0111 112.415 32.1393 114.935 31.2906L113.658 27.4998C111.112 28.3574 108.584 29.2385 106.074 30.1434L107.431 33.9062ZM122.43 28.8503C124.946 28.0589 127.478 27.2894 130.027 26.5413L128.901 22.7032C126.328 23.4584 123.77 24.2354 121.23 25.0347L122.43 28.8503ZM137.628 24.3864C140.169 23.6912 142.723 23.0165 145.292 22.3619L144.304 18.4858C141.713 19.1461 139.136 19.8268 136.573 20.5283L137.628 24.3864ZM152.989 20.4696C155.548 19.863 158.12 19.2756 160.704 18.7069L159.844 14.8004C157.24 15.3736 154.647 15.9658 152.066 16.5775L152.989 20.4696ZM168.479 17.0594C171.054 16.5343 173.64 16.0272 176.235 15.5378L175.494 11.6071C172.88 12.1001 170.274 12.6109 167.68 13.14L168.479 17.0594ZM184.051 14.1223C186.646 13.6713 189.25 13.2373 191.862 12.82L191.231 8.87008C188.602 9.29018 185.98 9.72717 183.366 10.1814L184.051 14.1223ZM199.702 11.6209C202.315 11.2387 204.936 10.8726 207.563 10.5224L207.035 6.55748C204.391 6.90988 201.753 7.27828 199.123 7.66304L199.702 11.6209ZM215.423 9.52391C218.049 9.20656 220.68 8.90458 223.316 8.61763L222.884 4.64112C220.232 4.92975 217.585 5.23353 214.943 5.55281L215.423 9.52391ZM231.199 7.80539C233.829 7.5494 236.464 7.30796 239.102 7.08072L238.759 3.09548C236.106 3.32396 233.457 3.56675 230.811 3.82419L231.199 7.80539ZM247.013 6.44217C249.649 6.24356 252.287 6.05874 254.927 5.8874L254.668 1.8958C252.014 2.06803 249.362 2.25381 246.712 2.45348L247.013 6.44217ZM262.851 5.41346C265.493 5.26876 268.136 5.1372 270.779 5.01845L270.599 1.02248C267.944 1.14181 265.288 1.27402 262.633 1.41944L262.851 5.41346ZM278.708 4.70027C281.354 4.60665 284.001 4.52555 286.645 4.45663L286.541 0.457987C283.884 0.527227 281.226 0.60871 278.566 0.702772L278.708 4.70027ZM294.582 4.28596C297.229 4.24101 299.873 4.20796 302.515 4.18647L302.482 0.186601C299.829 0.208184 297.173 0.241385 294.514 0.286539L294.582 4.28596ZM310.464 4.15638C313.11 4.15779 315.753 4.17053 318.391 4.19425L318.427 0.194415C315.778 0.170589 313.124 0.157798 310.466 0.156381L310.464 4.15638ZM326.343 4.29894C328.994 4.34482 331.639 4.40153 334.278 4.46872L334.38 0.47002C331.73 0.402555 329.074 0.345612 326.412 0.299538L326.343 4.29894ZM342.211 4.70253C344.868 4.79144 347.517 4.89071 350.159 5L350.324 1.00342C347.672 0.893702 345.012 0.794033 342.345 0.70477L342.211 4.70253ZM358.06 5.35753C360.724 5.4884 363.38 5.6292 366.026 5.77957L366.253 1.78602C363.597 1.63507 360.931 1.49372 358.256 1.36235L358.06 5.35753ZM373.933 6.25899C376.59 6.4302 379.237 6.61083 381.872 6.80048L382.159 2.8108C379.514 2.62043 376.858 2.43913 374.19 2.26727L373.933 6.25899ZM389.789 7.39991C392.437 7.61034 395.073 7.82965 397.694 8.05744L398.04 4.07246C395.409 3.84382 392.764 3.62369 390.106 3.41248L389.789 7.39991ZM405.624 8.77605C408.261 9.02488 410.883 9.28204 413.488 9.54713L413.893 5.56767C411.278 5.30161 408.646 5.04348 405.999 4.79374L405.624 8.77605ZM421.432 10.3852C424.062 10.6725 426.674 10.9676 429.267 11.2701L429.731 7.2971C427.128 6.99345 424.507 6.69721 421.867 6.40881L421.432 10.3852ZM437.212 12.2273C439.843 12.5544 442.453 12.8888 445.041 13.2301L445.564 9.26443C442.967 8.92188 440.347 8.58619 437.705 8.25787L437.212 12.2273ZM452.96 14.3056C455.592 14.6732 458.197 15.0476 460.775 15.4282L461.359 11.4711C458.771 11.0889 456.155 10.7131 453.514 10.344L452.96 14.3056ZM468.675 16.6265C471.302 17.0357 473.898 17.4511 476.463 17.8719L477.11 13.9248C474.536 13.5022 471.929 13.0851 469.291 12.6741L468.675 16.6265ZM484.352 19.2012C486.968 19.6535 489.547 20.1112 492.087 20.5733L492.803 16.6379C490.251 16.1737 487.661 15.714 485.033 15.2597L484.352 19.2012ZM499.977 22.0468C502.599 22.5492 505.175 23.056 507.703 23.5661L508.494 19.6452C505.953 19.1324 503.365 18.6231 500.73 18.1183L499.977 22.0468ZM515.523 25.1874C518.17 25.7511 520.757 26.3177 523.281 26.886L524.16 22.9837C521.62 22.4119 519.018 21.842 516.356 21.2751L515.523 25.1874ZM530.92 28.656C533.6 29.2954 536.198 29.9354 538.71 30.5744L539.696 26.6978C537.164 26.0538 534.547 25.409 531.848 24.7652L530.92 28.656ZM546.385 32.5951C549.027 33.3159 551.552 34.0331 553.957 34.7441L555.091 30.9083C552.658 30.1887 550.105 29.4639 547.438 28.7362L546.385 32.5951ZM561.453 37.0673C564.141 37.9434 566.625 38.8047 568.894 39.6462L570.285 35.8957C567.959 35.0331 565.424 34.1544 562.692 33.2642L561.453 37.0673ZM576.218 42.6266C577.456 43.1888 578.571 43.7344 579.56 44.2612L581.44 40.7307C580.364 40.1576 579.172 39.575 577.871 38.9844L576.218 42.6266ZM579.56 44.2612C580.66 44.8472 581.799 45.4638 582.973 46.1104L584.903 42.6071C583.713 41.9512 582.557 41.3255 581.44 40.7307L579.56 44.2612ZM589.8 49.9984C591.969 51.2737 594.21 52.6299 596.5 54.0633L598.622 50.6728C596.3 49.2188 594.027 47.8434 591.828 46.5503L589.8 49.9984ZM603.099 58.3271C605.238 59.7541 607.399 61.2412 609.566 62.7856L611.887 59.5285C609.685 57.9588 607.49 56.4483 605.319 54.9996L603.099 58.3271ZM615.871 67.4405C617.929 69.0147 619.976 70.6381 621.999 72.308L624.546 69.2238C622.483 67.5203 620.397 65.8661 618.302 64.2635L615.871 67.4405ZM627.925 77.4104C629.864 79.1535 631.764 80.9393 633.61 82.7655L636.423 79.9216C634.528 78.0478 632.582 76.2183 630.599 74.4356L627.925 77.4104ZM639.003 88.3938C640.757 90.3307 642.44 92.3058 644.038 94.3166L647.17 91.8277C645.514 89.745 643.775 87.7047 641.968 85.7089L639.003 88.3938ZM648.632 100.554C650.094 102.71 651.447 104.899 652.677 107.12L656.176 105.181C654.884 102.848 653.466 100.556 651.943 98.3092L648.632 100.554ZM656.051 114.034C657.053 116.41 657.903 118.816 658.585 121.249L662.437 120.169C661.707 117.564 660.8 115 659.737 112.48L656.051 114.034ZM660.12 128.697C660.448 131.195 660.588 133.721 660.524 136.27L664.523 136.37C664.592 133.607 664.44 130.875 664.086 128.177L660.12 128.697ZM659.734 143.803C659.287 146.22 658.645 148.661 657.794 151.124L661.575 152.431C662.49 149.782 663.183 147.148 663.668 144.532L659.734 143.803ZM654.822 158.131C653.718 160.322 652.441 162.53 650.979 164.754L654.321 166.951C655.864 164.605 657.219 162.264 658.394 159.93L654.822 158.131ZM646.428 170.973C644.867 172.909 643.161 174.855 641.302 176.811L644.201 179.567C646.131 177.537 647.909 175.509 649.542 173.484L646.428 170.973ZM635.754 182.253C633.928 183.93 631.986 185.612 629.926 187.299L632.46 190.394C634.576 188.661 636.575 186.93 638.459 185.199L635.754 182.253ZM623.77 192.086C621.711 193.611 619.552 195.138 617.29 196.668L619.531 199.981C621.838 198.421 624.043 196.861 626.15 195.301L623.77 192.086ZM610.845 200.858C608.676 202.215 606.424 203.573 604.088 204.932L606.099 208.389C608.471 207.01 610.759 205.629 612.966 204.249L610.845 200.858ZM597.283 208.762C595.039 209.984 592.725 211.208 590.34 212.431L592.165 215.99C594.579 214.752 596.922 213.513 599.197 212.274L597.283 208.762ZM583.31 215.935C582.106 216.519 580.885 217.103 579.647 217.687L581.353 221.305C582.604 220.715 583.838 220.125 585.055 219.534L583.31 215.935ZM579.647 217.687C578.451 218.251 577.253 218.803 576.052 219.343L577.693 222.991C578.915 222.441 580.136 221.879 581.353 221.305L579.647 217.687ZM568.82 222.443C566.386 223.435 563.943 224.381 561.491 225.281L562.87 229.036C565.365 228.12 567.852 227.157 570.33 226.147L568.82 222.443ZM554.056 227.866C551.561 228.685 549.057 229.459 546.544 230.191L547.662 234.031C550.218 233.288 552.765 232.5 555.303 231.666L554.056 227.866ZM538.949 232.265C536.405 232.915 533.854 233.523 531.294 234.09L532.16 237.995C534.76 237.419 537.353 236.801 539.939 236.141L538.949 232.265ZM523.578 235.673C520.999 236.161 518.413 236.61 515.819 237.02L516.445 240.971C519.077 240.554 521.703 240.099 524.322 239.603L523.578 235.673ZM508.019 238.141C505.415 238.477 502.805 238.777 500.187 239.043L500.591 243.023C503.244 242.753 505.891 242.449 508.531 242.108L508.019 238.141ZM492.334 239.736C489.715 239.933 487.09 240.097 484.459 240.23L484.66 244.225C487.323 244.091 489.981 243.924 492.634 243.725L492.334 239.736ZM476.577 240.535C473.949 240.607 471.317 240.648 468.679 240.662L468.7 244.662C471.366 244.648 474.028 244.606 476.685 244.534L476.577 240.535ZM460.787 240.62C458.157 240.579 455.523 240.512 452.884 240.42L452.744 244.418C455.408 244.511 458.069 244.578 460.725 244.62L460.787 240.62ZM444.996 240.072C442.367 239.933 439.734 239.771 437.098 239.586L436.819 243.576C439.477 243.762 442.132 243.926 444.784 244.067L444.996 240.072ZM429.223 238.973C426.597 238.748 423.968 238.503 421.337 238.239L420.938 242.219C423.588 242.485 426.236 242.732 428.881 242.958L429.223 238.973ZM413.479 237.398C410.858 237.1 408.235 236.785 405.611 236.454L405.11 240.422C407.75 240.755 410.389 241.072 413.027 241.372L413.479 237.398ZM397.771 235.42C395.156 235.061 392.54 234.688 389.923 234.301L389.339 238.258C391.968 238.647 394.598 239.022 397.227 239.383L397.771 235.42ZM382.099 233.109C379.491 232.7 376.882 232.279 374.273 231.848L373.621 235.795C376.24 236.227 378.86 236.65 381.479 237.061L382.099 233.109ZM366.461 230.529C363.858 230.08 361.255 229.623 358.652 229.158L357.949 233.096C360.559 233.562 363.17 234.021 365.782 234.471L366.461 230.529ZM350.85 227.743C348.251 227.264 345.652 226.78 343.054 226.291L342.314 230.222C344.917 230.712 347.521 231.197 350.127 231.677L350.85 227.743ZM335.259 224.809C332.661 224.311 330.064 223.81 327.469 223.306L326.707 227.233C329.305 227.737 331.904 228.239 334.506 228.738L335.259 224.809ZM319.677 221.788C317.079 221.28 314.482 220.771 311.887 220.263L311.118 224.188C313.712 224.696 316.31 225.205 318.91 225.714L319.677 221.788ZM304.095 218.737C301.493 218.229 298.893 217.722 296.297 217.218L295.536 221.145C298.129 221.648 300.727 222.154 303.328 222.663L304.095 218.737ZM288.5 215.716C285.892 215.217 283.288 214.722 280.687 214.234L279.949 218.165C282.544 218.653 285.144 219.146 287.748 219.644L288.5 215.716ZM272.88 212.785C270.264 212.307 267.653 211.835 265.046 211.373L264.348 215.311C266.946 215.772 269.55 216.242 272.159 216.72L272.88 212.785ZM257.223 210.011C254.598 209.564 251.978 209.127 249.363 208.702L248.721 212.65C251.325 213.073 253.935 213.508 256.551 213.954L257.223 210.011ZM241.519 207.463C238.882 207.059 236.252 206.669 233.627 206.295L233.063 210.255C235.672 210.627 238.29 211.015 240.913 211.417L241.519 207.463ZM225.758 205.218C223.109 204.872 220.468 204.543 217.833 204.233L217.366 208.206C219.982 208.513 222.607 208.84 225.239 209.184L225.758 205.218ZM209.933 203.361C207.273 203.087 204.622 202.835 201.978 202.606L201.632 206.591C204.254 206.818 206.884 207.068 209.524 207.34L209.933 203.361ZM194.046 201.988C191.376 201.804 188.716 201.646 186.065 201.515L185.868 205.51C188.492 205.639 191.126 205.796 193.771 205.978L194.046 201.988ZM178.103 201.206C175.428 201.131 172.763 201.086 170.108 201.073L170.089 205.073C172.711 205.086 175.346 205.13 177.991 205.204L178.103 201.206ZM162.127 201.135C159.451 201.19 156.787 201.279 154.135 201.407L154.327 205.402C156.941 205.277 159.568 205.188 162.209 205.134L162.127 201.135ZM146.154 201.906C143.487 202.113 140.833 202.36 138.193 202.65L138.629 206.626C141.226 206.341 143.837 206.098 146.463 205.894L146.154 201.906ZM130.244 203.658C127.598 204.04 124.967 204.467 122.35 204.943L123.065 208.878C125.633 208.412 128.217 207.992 130.816 207.617L130.244 203.658ZM114.484 206.528C111.874 207.107 109.28 207.737 106.702 208.42L107.726 212.287C110.251 211.618 112.792 211 115.351 210.433L114.484 206.528ZM98.9888 210.639C96.4365 211.434 93.9011 212.283 91.3834 213.191L92.7401 216.954C95.2012 216.067 97.6804 215.236 100.177 214.459L98.9888 210.639ZM83.8962 216.085C82.6574 216.597 81.4232 217.124 80.1936 217.666L81.8072 221.326C83.008 220.797 84.2135 220.282 85.4237 219.782L83.8962 216.085ZM80.1936 217.666C78.9264 218.225 77.6766 218.786 76.4443 219.349L78.1074 222.987C79.323 222.431 80.5562 221.877 81.8072 221.326L80.1936 217.666ZM69.2574 222.756C66.7851 223.972 64.3898 225.198 62.0697 226.433L63.9491 229.964C66.2304 228.75 68.5877 227.543 71.0229 226.346L69.2574 222.756ZM55.1274 230.284C52.7412 231.663 50.4442 233.054 48.2344 234.453L50.3743 237.832C52.5373 236.463 54.7884 235.1 57.1299 233.746L55.1274 230.284ZM41.5161 238.92C39.2614 240.497 37.1116 242.083 35.0637 243.679L37.5221 246.834C39.5135 245.282 41.6077 243.737 43.808 242.199L41.5161 238.92ZM28.8931 248.78C26.8004 250.62 24.8364 252.47 22.9969 254.328L25.8394 257.142C27.6113 255.352 29.5079 253.565 31.5342 251.784L28.8931 248.78ZM17.5132 260.319C15.7086 262.463 14.0613 264.614 12.5654 266.77L15.852 269.05C17.274 267 18.8452 264.948 20.5729 262.896L17.5132 260.319ZM8.28065 273.698C6.93827 276.162 5.78477 278.627 4.81133 281.089L8.53116 282.56C9.44293 280.254 10.5267 277.936 11.7932 275.611L8.28065 273.698ZM2.30683 288.924C1.63944 291.646 1.18369 294.355 0.926263 297.043L4.90804 297.424C5.14701 294.929 5.57036 292.411 6.19178 289.877L2.30683 288.924ZM0.747137 305.268C0.889982 308.024 1.2342 310.746 1.76301 313.425L5.6873 312.65C5.19435 310.153 4.87445 307.621 4.74177 305.061L0.747137 305.268ZM3.89388 321.349C4.77229 323.925 5.81675 326.45 7.01043 328.916L10.611 327.174C9.48495 324.847 8.50326 322.473 7.67973 320.058L3.89388 321.349ZM10.9731 336.057C12.4088 338.344 13.9711 340.569 15.6448 342.726L18.8053 340.274C17.209 338.217 15.723 336.1 14.3607 333.93L10.9731 336.057ZM20.9109 348.909C22.7471 350.881 24.6764 352.782 26.6851 354.608L29.3753 351.647C27.4462 349.894 25.5962 348.071 23.8379 346.183L20.9109 348.909ZM32.8935 359.817C35.0269 361.47 37.2258 363.043 39.4771 364.531L41.6819 361.193C39.5134 359.761 37.3964 358.246 35.3436 356.655L32.8935 359.817ZM46.3948 368.739C48.763 370.062 51.1724 371.291 53.6096 372.42L55.2912 368.791C52.946 367.704 50.6262 366.521 48.3451 365.247L46.3948 368.739ZM61.0873 375.537C63.6455 376.487 66.2203 377.323 68.797 378.04L69.8687 374.186C67.4034 373.501 64.9353 372.699 62.4789 371.787L61.0873 375.537ZM76.7347 379.861C78.0758 380.103 79.4137 380.309 80.7463 380.48L81.2544 376.512C79.9906 376.351 78.7196 376.154 77.4434 375.925L76.7347 379.861ZM80.7463 380.48C81.9758 380.637 83.2545 380.796 84.5816 380.956L85.0589 376.984C83.7417 376.826 82.4732 376.668 81.2544 376.512L80.7463 380.48ZM92.4559 381.847C94.9498 382.114 97.5724 382.38 100.32 382.642L100.701 378.661C97.9676 378.399 95.3596 378.135 92.8807 377.87L92.4559 381.847ZM108.17 383.355C110.699 383.572 113.316 383.786 116.018 383.994L116.325 380.006C113.635 379.799 111.03 379.586 108.512 379.369L108.17 383.355ZM123.878 384.569C126.441 384.746 129.07 384.917 131.764 385.082L132.009 381.09C129.325 380.925 126.706 380.754 124.154 380.578L123.878 384.569ZM139.685 385.539C142.247 385.677 144.86 385.809 147.524 385.934L147.711 381.939C145.057 381.814 142.453 381.682 139.901 381.545L139.685 385.539ZM155.382 386.277C157.978 386.381 160.616 386.479 163.297 386.569L163.432 382.571C160.76 382.482 158.13 382.384 155.543 382.28L155.382 386.277ZM171.169 386.808C173.754 386.878 176.374 386.941 179.03 386.997L179.113 382.998C176.466 382.942 173.854 382.88 171.278 382.81L171.169 386.808ZM186.962 387.137C189.546 387.175 192.16 387.205 194.804 387.228L194.838 383.228C192.202 383.205 189.596 383.175 187.021 383.138L186.962 387.137ZM202.698 387.27C205.303 387.277 207.935 387.275 210.594 387.266L210.579 383.266C207.929 383.275 205.304 383.277 202.707 383.27L202.698 387.27ZM218.455 387.213C221.074 387.188 223.717 387.155 226.384 387.114L226.322 383.114C223.663 383.156 221.028 383.189 218.416 383.214L218.455 387.213ZM234.22 386.968C236.84 386.912 239.482 386.848 242.145 386.775L242.035 382.776C239.381 382.849 236.747 382.913 234.134 382.969L234.22 386.968ZM249.984 386.537C252.602 386.45 255.239 386.354 257.894 386.25L257.737 382.253C255.09 382.357 252.461 382.452 249.851 382.539L249.984 386.537ZM265.742 385.919C268.359 385.801 270.992 385.675 273.642 385.54L273.438 381.545C270.796 381.68 268.171 381.806 265.562 381.923L265.742 385.919ZM281.491 385.116C284.107 384.967 286.738 384.809 289.383 384.643L289.132 380.651C286.495 380.817 283.872 380.974 281.263 381.122L281.491 385.116ZM297.228 384.126C299.844 383.946 302.474 383.757 305.117 383.559L304.818 379.571C302.183 379.768 299.561 379.956 296.953 380.136L297.228 384.126ZM312.952 382.949C315.568 382.738 318.198 382.517 320.838 382.288L320.492 378.303C317.859 378.531 315.238 378.751 312.629 378.962L312.952 382.949ZM328.66 381.584C331.278 381.34 333.907 381.088 336.546 380.826L336.151 376.845C333.52 377.106 330.9 377.358 328.29 377.601L328.66 381.584ZM344.353 380.027C346.965 379.752 349.587 379.468 352.218 379.174L351.774 375.199C349.151 375.492 346.538 375.775 343.934 376.049L344.353 380.027ZM360.027 378.278C362.632 377.971 365.246 377.655 367.868 377.329L367.375 373.359C364.761 373.684 362.155 374 359.558 374.306L360.027 378.278ZM375.68 376.334C378.278 375.994 380.883 375.646 383.496 375.287L382.953 371.325C380.349 371.682 377.752 372.029 375.162 372.367L375.68 376.334ZM391.311 374.191C393.901 373.819 396.498 373.438 399.101 373.047L398.507 369.091C395.912 369.481 393.324 369.861 390.743 370.231L391.311 374.191ZM406.917 371.847C409.498 371.442 412.086 371.028 414.68 370.603L414.034 366.656C411.449 367.079 408.87 367.492 406.297 367.895L406.917 371.847ZM422.478 369.301C425.056 368.862 427.64 368.413 430.229 367.954L429.531 364.016C426.951 364.473 424.376 364.92 421.806 365.358L422.478 369.301ZM437.995 366.551C440.574 366.075 443.157 365.59 445.745 365.095L444.994 361.167C442.415 361.66 439.84 362.143 437.271 362.617L437.995 366.551ZM453.479 363.589C456.057 363.077 458.64 362.556 461.226 362.024L460.42 358.106C457.843 358.636 455.27 359.155 452.701 359.665L453.479 363.589ZM468.926 360.412C471.497 359.865 474.071 359.307 476.648 358.739L475.787 354.832C473.219 355.399 470.655 355.954 468.093 356.5L468.926 360.412ZM484.332 357.016C486.891 356.433 489.453 355.84 492.017 355.236L491.1 351.342C488.545 351.944 485.993 352.535 483.443 353.116L484.332 357.016ZM499.692 353.398C502.239 352.778 504.788 352.148 507.339 351.508L506.365 347.628C503.823 348.266 501.284 348.894 498.747 349.511L499.692 353.398ZM514.998 349.554C517.534 348.897 520.071 348.229 522.609 347.551L521.577 343.686C519.048 344.362 516.521 345.027 513.995 345.681L514.998 349.554ZM530.227 345.484C531.497 345.134 532.768 344.781 534.039 344.426L532.961 340.574C531.695 340.928 530.43 341.279 529.164 341.628L530.227 345.484ZM534.039 344.426C535.399 344.046 536.747 343.676 538.082 343.317L537.043 339.454C535.695 339.817 534.334 340.19 532.961 340.574L534.039 344.426ZM545.945 341.287C548.578 340.637 551.16 340.03 553.691 339.464L552.819 335.56C550.258 336.132 547.647 336.747 544.986 337.404L545.945 341.287ZM561.698 337.781C564.357 337.258 566.956 336.785 569.497 336.358L568.835 332.414C566.256 332.846 563.62 333.327 560.926 333.856L561.698 337.781ZM577.57 335.136C580.282 334.771 582.922 334.464 585.491 334.213L585.102 330.232C582.483 330.488 579.795 330.801 577.037 331.172L577.57 335.136ZM593.511 333.595C596.285 333.441 598.969 333.357 601.564 333.34L601.538 329.341C598.875 329.358 596.126 329.444 593.29 329.601L593.511 333.595ZM609.46 333.505C612.235 333.643 614.896 333.864 617.449 334.164L617.916 330.192C615.27 329.881 612.518 329.652 609.659 329.51L609.46 333.505ZM625.344 335.405C628.044 335.944 630.603 336.581 633.028 337.309L634.178 333.478C631.627 332.712 628.945 332.045 626.127 331.482L625.344 335.405ZM640.432 339.978C642.935 341.046 645.265 342.225 647.434 343.504L649.465 340.058C647.143 338.689 644.658 337.432 642.002 336.299L640.432 339.978ZM653.863 347.939C655.939 349.608 657.828 351.391 659.545 353.27L662.498 350.572C660.645 348.543 658.606 346.621 656.37 344.822L653.863 347.939ZM664.347 359.41C665.802 361.59 667.083 363.864 668.207 366.213L671.815 364.487C670.614 361.976 669.24 359.537 667.675 357.19L664.347 359.41ZM671.133 373.508C671.958 375.998 672.64 378.545 673.193 381.131L677.104 380.294C676.523 377.577 675.804 374.889 674.93 372.25L671.133 373.508ZM674.48 388.958C674.793 391.594 674.992 394.246 675.095 396.896L679.092 396.741C678.985 393.995 678.778 391.236 678.453 388.487L674.48 388.958ZM675.127 404.877C675.049 407.573 674.886 410.243 674.655 412.865L678.639 413.216C678.877 410.522 679.045 407.774 679.126 404.993L675.127 404.877ZM673.737 420.847C673.351 423.583 672.907 426.233 672.428 428.769L676.358 429.512C676.848 426.92 677.303 424.208 677.698 421.405L673.737 420.847ZM670.765 436.618C670.096 439.468 669.414 442.082 668.764 444.404L672.616 445.482C673.279 443.111 673.977 440.441 674.659 437.531L670.765 436.618Z" fill="#e67e22"/>
</svg>
