<svg width="438" height="219" viewBox="0 0 438 219" fill="none" xmlns="http://www.w3.org/2000/svg">
<path d="M144.24 219C131.024 219 117.827 218.764 104.65 218.292C85.8222 217.617 66.353 216.92 48.2572 206.91C35.5984 199.908 24.387 188.673 15.8355 174.421C10.1198 164.76 5.92883 154.28 3.40974 143.348C-1.28933 123.444 -1.12928 102.707 3.87645 82.8777C5.63065 76.0791 8.04893 69.4686 11.0966 63.1408C24.2931 35.8839 48.3627 17.5871 77.1338 12.9423C77.3714 12.9115 77.6117 12.9064 77.8504 12.927C77.9798 12.9339 78.1088 12.9413 78.2403 12.9358L78.4095 12.8821C78.8435 12.7317 79.2892 12.6176 79.7422 12.541C124.115 5.9523 171.023 19.2836 215.392 51.0928C249.699 75.6909 295.164 88.9366 354.387 91.5868L355.228 91.6307C371.715 92.5753 387.662 99.3546 401.348 111.237C414.856 122.964 424.998 138.611 430.678 156.487C431.377 158.666 432.017 160.934 432.581 163.229C433.106 165.361 433.069 167.592 432.473 169.706C431.878 171.82 430.744 173.744 429.181 175.291V175.295L429.034 175.446C428.679 175.798 428.305 176.136 427.923 176.451L427.474 176.82C423.69 179.929 420.7 182.386 417.123 184.294C414.736 185.558 412.199 186.513 409.571 187.138C395.139 190.647 380.483 193.901 366.01 196.809C337.903 202.461 309.056 207.124 280.269 210.668C235.14 216.218 189.711 219.001 144.24 219ZM77.5139 13.8924C77.4255 13.8915 77.3372 13.8975 77.2497 13.9103C48.7476 18.5117 24.9059 36.6289 11.8402 63.616C8.82259 69.881 6.42824 76.426 4.69149 83.1572C-0.268626 102.81 -0.426692 123.364 4.23058 143.091C6.72501 153.918 10.8754 164.298 16.5359 173.866C25.0037 187.979 36.1004 199.101 48.6265 206.029C66.5599 215.95 85.9373 216.644 104.677 217.315C163.287 219.404 221.971 216.856 280.178 209.696C308.946 206.155 337.775 201.495 365.863 195.846C380.326 192.94 394.972 189.689 409.394 186.182C411.959 185.573 414.436 184.641 416.764 183.407C420.27 181.538 423.231 179.105 426.979 176.025L427.428 175.656C427.757 175.386 428.079 175.097 428.387 174.796L428.476 174.703C431.556 171.607 432.754 167.521 431.762 163.494C431.204 161.224 430.571 158.98 429.88 156.823C418.276 120.307 388.26 94.5013 355.188 92.6068L354.351 92.5629C327.299 91.352 303.626 87.9982 281.983 82.3085C256.146 75.5167 233.591 65.2929 214.942 51.9215C170.742 20.2342 124.029 6.95249 79.8505 13.51C79.4379 13.581 79.0318 13.686 78.6365 13.8239L78.3314 13.9091C78.1581 13.9168 77.9844 13.9147 77.8113 13.9029C77.7094 13.8976 77.6105 13.8924 77.5139 13.8924Z" fill="#F0F0F0"/>
<path d="M136.811 71.3528C135.587 70.182 134.336 63.6528 132.774 62.99C133.942 65.5639 133.094 66.2453 133.088 69.0701C133.102 70.6741 132.915 72.2735 132.529 73.8307H106.068V53.2333C106.068 51.3826 106.433 49.55 107.143 47.8401C107.853 46.1302 108.894 44.5766 110.206 43.268C111.518 41.9593 113.076 40.9212 114.79 40.213C116.504 39.5048 118.342 39.1403 120.197 39.1404C120.905 39.1542 121.609 39.2569 122.292 39.4462C124.566 40.0586 126.639 41.2569 128.302 42.9207C129.966 44.5845 131.162 46.6554 131.769 48.9256C133.787 56.2797 136.995 68.5213 136.811 71.3528Z" fill="#2F2E41"/>
<path d="M107.62 96.6915L107.633 80.637L98.1718 81.4804L101.511 91.6059L99.9482 117.057C99.1902 117.226 98.4982 117.612 97.9563 118.167C97.4145 118.723 97.0463 119.423 96.8967 120.183C96.747 120.944 96.8224 121.731 97.1136 122.449C97.4049 123.168 97.8994 123.786 98.5368 124.229C99.1742 124.672 99.9271 124.92 100.704 124.943C101.48 124.967 102.247 124.764 102.91 124.361C103.573 123.957 104.104 123.37 104.438 122.671C104.772 121.971 104.895 121.19 104.792 120.422L107.62 96.6915Z" fill="#FFB6B6"/>
<path d="M126.241 211.417L130.063 211.416L131.882 196.711H126.24L126.241 211.417Z" fill="#FFB6B6"/>
<path d="M124.946 209.536L130.989 209.176V211.759L136.734 215.716C137.017 215.911 137.231 216.192 137.344 216.517C137.456 216.842 137.461 217.195 137.359 217.523C137.256 217.852 137.051 218.139 136.773 218.342C136.495 218.546 136.16 218.656 135.815 218.656H128.621L127.381 216.102L126.897 218.656H124.184L124.946 209.536Z" fill="#2F2E41"/>
<path d="M104.138 211.417L107.961 211.416L109.779 196.711H104.138L104.138 211.417Z" fill="#FFB6B6"/>
<path d="M102.844 209.536L108.887 209.176V211.759L114.631 215.716C114.915 215.911 115.129 216.192 115.241 216.517C115.354 216.842 115.359 217.195 115.256 217.523C115.154 217.852 114.949 218.139 114.671 218.342C114.393 218.546 114.057 218.656 113.713 218.656H106.519L105.279 216.102L104.794 218.656H102.082L102.844 209.536Z" fill="#2F2E41"/>
<path d="M122.837 63.2997L114.918 63.4546L109.328 69.3395L104.847 69.9951C102.82 70.2916 100.956 71.2732 99.5676 72.7757C98.1789 74.2782 97.3493 76.2106 97.2175 78.2499L97.9938 82.5033H102.652L105.347 98.2842C104.299 100.947 104.228 103.049 106.378 103.875L113.055 116.419L132.774 107.592C133.774 105.877 134.094 104.155 133.072 102.48L134.482 78.3218H139.222C139.222 73.8036 137.69 69.9945 133.188 69.4917C131.4 69.2987 129.604 69.1963 127.805 69.1847L122.837 63.2997Z" fill="#E6E6E6"/>
<path d="M132.774 107.592C132.774 107.592 113.521 110.999 106.378 103.875C106.378 103.875 105.653 105.103 104.561 107.139C104.246 107.725 103.639 108.121 103.273 108.831C102.94 109.475 102.083 110.268 101.72 110.999C101.428 111.587 101.897 112.356 101.593 112.991C97.9352 120.644 93.6617 131.438 94.5779 138.565C95.1687 143.162 96.389 153.857 97.6742 165.345C97.7746 166.242 96.9613 167.395 97.0622 168.3C97.1574 169.153 98.1668 169.758 98.2619 170.613C98.3251 171.18 97.6202 171.759 97.6833 172.326C97.7524 172.949 98.5895 173.559 98.6583 174.178C100.419 190.04 102.031 204.849 102.031 204.849H111.036L112.736 171.027L111.347 158.698L114.608 133.764L119.11 157.459L119.69 170.795L124.448 205.468H132.774V171.902L133.395 170.158L132.774 167.922L133.395 165.512L132.774 162.888V107.592Z" fill="#2F2E41"/>
<path d="M125.267 58.7195C124.041 60.3447 122.296 61.5048 120.32 62.0087C118.344 62.5127 116.255 62.3304 114.396 61.4918C112.538 60.6533 111.022 59.2086 110.097 57.3956C109.171 55.5826 108.893 53.5094 109.307 51.5175C109.721 49.5255 110.803 47.7336 112.374 46.4369C113.946 45.1401 115.913 44.4158 117.953 44.3833C119.992 44.3507 121.981 45.0119 123.594 46.2578C125.206 47.5037 126.345 49.2602 126.822 51.2379C126.848 51.3452 126.87 51.4519 126.891 51.5627C127.144 52.8023 127.129 54.0812 126.849 55.3149C126.569 56.5486 126.03 57.709 125.267 58.7195Z" fill="#FFB6B6"/>
<path d="M123.396 53.6112C123.205 52.658 122.724 51.787 122.017 51.1178C122.087 52.0312 121.96 52.949 121.644 53.8094C119.284 54.0179 116.912 53.5494 114.809 52.459C113.226 51.3873 111.21 51.4802 108.863 52.459C108.862 51.32 109.087 50.1922 109.524 49.1399C109.961 48.0877 110.602 47.1316 111.409 46.3262C112.216 45.5209 113.175 44.882 114.23 44.4463C115.285 44.0105 116.416 43.7862 117.558 43.7864H119.11C121.416 43.7868 123.628 44.7006 125.258 46.327C126.889 47.9533 127.805 50.159 127.805 52.459C126.372 52.9716 124.897 53.3572 123.396 53.6112Z" fill="#2F2E41"/>
<path d="M55.4667 164.147C69.2626 164.147 80.4463 152.992 80.4463 139.231C80.4463 125.471 69.2626 114.316 55.4667 114.316C41.6708 114.316 30.4871 125.471 30.4871 139.231C30.4871 152.992 41.6708 164.147 55.4667 164.147Z" fill="#F0F0F0"/>
<path d="M214.651 49.8302C228.446 49.8302 239.63 38.6753 239.63 24.9151C239.63 11.1549 228.446 0 214.651 0C200.855 0 189.671 11.1549 189.671 24.9151C189.671 38.6753 200.855 49.8302 214.651 49.8302Z" fill="#F0F0F0"/>
<path d="M413.018 168.055C426.814 168.055 437.998 156.9 437.998 143.14C437.998 129.38 426.814 118.225 413.018 118.225C399.222 118.225 388.038 129.38 388.038 143.14C388.038 156.9 399.222 168.055 413.018 168.055Z" fill="#F0F0F0"/>
<path d="M259.712 27.6322V84.129C259.712 85.3025 259.248 86.4287 258.42 87.2628C257.593 88.097 256.469 88.5718 255.292 88.584C255.276 88.5857 255.26 88.5864 255.243 88.586H248.651C243.376 88.586 238.317 86.496 234.587 82.7758C230.857 79.0555 228.762 74.0097 228.762 68.7485V27.6322C228.762 26.4501 229.233 25.3164 230.071 24.4806C230.909 23.6447 232.045 23.1751 233.23 23.1751H235.902C234.664 26.7759 251.46 28.2919 252.382 23.1751H255.243C256.428 23.1751 257.565 23.6447 258.403 24.4806C259.241 25.3165 259.712 26.4501 259.712 27.6322Z" fill="#6C63FF"/>
<path d="M240.148 18.9505C240.148 18.7956 240.21 18.6472 240.32 18.5377C240.429 18.4282 240.578 18.3666 240.734 18.3664H244.716C244.871 18.3668 245.019 18.4286 245.129 18.5381C245.238 18.6476 245.3 18.7959 245.3 18.9505C245.3 19.1051 245.238 19.2535 245.129 19.3629C245.019 19.4724 244.871 19.5342 244.716 19.5346H240.734C240.578 19.5344 240.429 19.4729 240.32 19.3633C240.21 19.2538 240.148 19.1054 240.148 18.9505Z" fill="#3F3D56"/>
<path d="M256.611 95.7522H231.428C229.474 95.75 227.601 94.9749 226.219 93.5969C224.838 92.2189 224.061 90.3506 224.058 88.4018V48.9083C223.92 48.8092 223.807 48.6787 223.73 48.5276C223.652 48.3765 223.612 48.2091 223.612 48.0393V44.0673C223.612 43.8976 223.652 43.7302 223.73 43.5791C223.807 43.428 223.92 43.2976 224.058 43.1986V42.1325C223.92 42.0335 223.807 41.9031 223.73 41.752C223.652 41.6009 223.612 41.4335 223.612 41.2638V37.2916C223.612 37.1218 223.652 36.9544 223.73 36.8033C223.807 36.6522 223.92 36.5218 224.058 36.4228V34.4961C223.888 34.4046 223.745 34.2686 223.646 34.1026C223.546 33.9365 223.494 33.7467 223.495 33.5534V29.5815C223.494 29.3881 223.546 29.1983 223.646 29.0322C223.745 28.8661 223.888 28.73 224.058 28.6385V23.3591C224.061 21.4103 224.838 19.542 226.219 18.164C227.601 16.786 229.474 16.0109 231.428 16.0087H256.611C258.565 16.0109 260.438 16.7861 261.82 18.164C263.201 19.542 263.979 21.4104 263.981 23.3591V34.867C264.113 34.9498 264.223 35.0649 264.299 35.2015C264.375 35.3381 264.415 35.4916 264.415 35.6478V43.2215C264.415 43.3776 264.375 43.5312 264.299 43.6678C264.223 43.8044 264.113 43.9196 263.981 44.0024V88.4018C263.979 90.3506 263.201 92.2189 261.82 93.5969C260.438 94.9749 258.565 95.75 256.611 95.7522ZM231.428 16.9858C229.734 16.9877 228.11 17.6598 226.912 18.8546C225.714 20.0494 225.04 21.6694 225.038 23.3591V29.4696L224.567 29.4877C224.542 29.4886 224.519 29.4988 224.502 29.5162C224.485 29.5337 224.475 29.557 224.474 29.5815V33.5534C224.475 33.5778 224.485 33.6011 224.502 33.6185C224.519 33.6359 224.542 33.6462 224.567 33.6471L225.038 33.665V37.1088L224.665 37.2004C224.645 37.2054 224.626 37.217 224.613 37.2335C224.6 37.25 224.592 37.2704 224.592 37.2916V41.2637C224.592 41.2849 224.6 41.3053 224.613 41.3218C224.626 41.3383 224.645 41.3499 224.665 41.3549L225.038 41.4465V43.8846L224.665 43.9762C224.645 43.9811 224.626 43.9928 224.613 44.0093C224.6 44.0257 224.592 44.0461 224.592 44.0673V48.0392C224.592 48.0605 224.6 48.0809 224.613 48.0974C224.626 48.1139 224.645 48.1256 224.665 48.1306L225.038 48.2222V88.4018C225.04 90.0915 225.714 91.7115 226.912 92.9063C228.11 94.1012 229.734 94.7732 231.428 94.7751H256.611C258.305 94.7732 259.93 94.1011 261.128 92.9063C262.325 91.7115 262.999 90.0915 263.001 88.4018V43.1659H263.435V35.7036H263.001V23.3591C262.999 21.6694 262.325 20.0494 261.128 18.8546C259.93 17.6598 258.305 16.9877 256.611 16.9858L231.428 16.9858Z" fill="#3F3D56"/>
<path d="M246.941 19.5346C247.265 19.5346 247.527 19.2731 247.527 18.9505C247.527 18.6279 247.265 18.3664 246.941 18.3664C246.618 18.3664 246.356 18.6279 246.356 18.9505C246.356 19.2731 246.618 19.5346 246.941 19.5346Z" fill="#3F3D56"/>
<path d="M119.547 132.1H54.0188C53.0883 132.098 52.1965 131.728 51.5384 131.072C50.8804 130.416 50.5096 129.526 50.507 128.598V96.7512C50.5094 95.823 50.8801 94.9335 51.5381 94.2772C52.1961 93.6208 53.0878 93.2509 54.0184 93.2484H119.547C120.477 93.2508 121.369 93.6206 122.027 94.2768C122.685 94.9331 123.056 95.8225 123.059 96.7507V128.598C123.056 129.526 122.686 130.415 122.028 131.072C121.37 131.728 120.478 132.098 119.547 132.1Z" fill="white"/>
<path d="M119.547 132.1H54.0188C53.0883 132.098 52.1965 131.728 51.5384 131.072C50.8804 130.416 50.5096 129.526 50.507 128.598V96.7512C50.5094 95.823 50.8801 94.9335 51.5381 94.2772C52.1961 93.6208 53.0878 93.2509 54.0184 93.2484H119.547C120.477 93.2508 121.369 93.6206 122.027 94.2768C122.685 94.9331 123.056 95.8225 123.059 96.7507V128.598C123.056 129.526 122.686 130.415 122.028 131.072C121.37 131.728 120.478 132.098 119.547 132.1ZM54.0188 94.2255C53.3478 94.2275 52.7048 94.4943 52.2303 94.9676C51.7559 95.441 51.4885 96.0823 51.4866 96.7517V128.598C51.4886 129.267 51.7561 129.908 52.2306 130.382C52.7052 130.855 53.3483 131.121 54.0193 131.123H119.546C120.217 131.121 120.861 130.855 121.335 130.381C121.81 129.908 122.077 129.266 122.079 128.597V96.7512C122.077 96.0819 121.81 95.4405 121.335 94.9673C120.86 94.494 120.217 94.2274 119.546 94.2255L54.0188 94.2255Z" fill="#3F3D56"/>
<path d="M90.2951 127.394C77.3714 127.394 63.8956 127.271 58.8676 127.191C58.2061 127.177 57.5761 126.906 57.1122 126.436C56.6483 125.965 56.3871 125.332 56.3846 124.672V98.3104C56.3848 98.074 56.4789 97.8474 56.6463 97.6801C56.8136 97.5128 57.0405 97.4184 57.2775 97.4175H116.286C116.523 97.4178 116.75 97.5117 116.918 97.6785C117.086 97.8454 117.18 98.0717 117.181 98.308V116.194C117.17 119.114 116.012 121.913 113.956 123.991C111.9 126.069 109.109 127.26 106.182 127.309C101.496 127.37 95.9468 127.394 90.2951 127.394Z" fill="#6C63FF"/>
<path d="M112.783 114.551H59.4645C59.018 114.55 58.5828 114.411 58.2179 114.155C57.853 113.898 57.5761 113.536 57.4249 113.117L51.39 96.23C51.2737 95.9043 51.2375 95.5555 51.2843 95.213C51.3312 94.8704 51.4598 94.5441 51.6593 94.2613C51.8588 93.9786 52.1234 93.7478 52.4309 93.5882C52.7384 93.4287 53.0798 93.345 53.4264 93.3443L120.074 93.2518C120.391 93.2515 120.704 93.3204 120.991 93.4539C121.278 93.5873 121.533 93.7819 121.736 94.0241C121.94 94.2662 122.088 94.5499 122.17 94.8552C122.251 95.1605 122.265 95.4799 122.209 95.7911L122.261 95.8128L122.069 96.2581L122.068 96.2627L114.772 113.242C114.606 113.63 114.329 113.962 113.975 114.195C113.621 114.427 113.207 114.551 112.783 114.551ZM120.077 94.2289L53.4283 94.3214C53.2385 94.3217 53.0514 94.3675 52.883 94.4549C52.7145 94.5423 52.5695 94.6687 52.4602 94.8236C52.3509 94.9785 52.2805 95.1572 52.2548 95.3449C52.2291 95.5325 52.249 95.7236 52.3127 95.902L58.3474 112.788C58.4303 113.018 58.5821 113.216 58.7821 113.357C58.982 113.497 59.2205 113.573 59.4652 113.574H112.783C113.015 113.574 113.242 113.506 113.436 113.379C113.629 113.251 113.781 113.07 113.872 112.857L121.167 95.8777C121.245 95.6977 121.276 95.5015 121.259 95.3065C121.241 95.1115 121.175 94.9239 121.067 94.7605C120.959 94.5971 120.812 94.463 120.639 94.3702C120.467 94.2774 120.274 94.2289 120.077 94.2289Z" fill="#3F3D56"/>
<path d="M86.6834 118.227C88.9892 118.227 90.8584 116.362 90.8584 114.062C90.8584 111.763 88.9892 109.898 86.6834 109.898C84.3776 109.898 82.5084 111.763 82.5084 114.062C82.5084 116.362 84.3776 118.227 86.6834 118.227Z" fill="white"/>
<path d="M244.398 82.0754C246.704 82.0754 248.573 80.211 248.573 77.9111C248.573 75.6113 246.704 73.7469 244.398 73.7469C242.092 73.7469 240.223 75.6113 240.223 77.9111C240.223 80.211 242.092 82.0754 244.398 82.0754Z" fill="white"/>
<path d="M402.306 138.313L391.154 127.331C390.611 126.792 389.966 126.365 389.258 126.075C388.549 125.785 387.79 125.638 387.025 125.641H386.985C386.214 125.643 385.45 125.798 384.739 126.096C384.028 126.395 383.383 126.831 382.842 127.38C380.348 129.897 378.93 133.28 378.885 136.819C378.84 140.357 380.172 143.775 382.602 146.354C382.719 146.481 382.842 146.603 382.964 146.726C383.642 147.398 384.391 147.996 385.198 148.509C387.402 149.93 389.973 150.681 392.598 150.673H392.682C394.483 150.667 396.266 150.304 397.927 149.607C399.587 148.909 401.092 147.89 402.355 146.608C403.45 145.501 404.059 144.006 404.05 142.451C404.041 140.896 403.414 139.408 402.306 138.313ZM401.66 145.919C399.589 148 396.863 149.305 393.94 149.615C391.017 149.925 388.077 149.22 385.614 147.62C384.91 147.155 384.252 146.623 383.65 146.032C381.247 143.665 379.885 140.442 379.864 137.073C379.843 133.705 381.164 130.466 383.537 128.069C383.988 127.61 384.526 127.246 385.12 126.997C385.714 126.747 386.351 126.619 386.995 126.618H387.025C387.662 126.615 388.294 126.738 388.884 126.98C389.474 127.221 390.011 127.576 390.463 128.025L401.616 139.012C402.539 139.922 403.062 141.161 403.07 142.456C403.079 143.752 402.571 144.997 401.66 145.919Z" fill="#3F3D56"/>
<path d="M365.714 102.269L354.561 91.2821C353.463 90.1958 351.978 89.5879 350.432 89.5918H350.398C349.625 89.5949 348.86 89.7506 348.148 90.0499C347.436 90.3493 346.791 90.7863 346.249 91.3358C344.187 93.4241 342.851 96.1161 342.435 99.0173C342.019 101.919 342.545 104.876 343.937 107.457L343.942 107.462C344.516 108.518 345.23 109.492 346.063 110.359C346.156 110.467 346.264 110.574 346.371 110.682C348.933 113.217 352.397 114.637 356.006 114.629H356.094C357.896 114.622 359.679 114.258 361.339 113.56C362.999 112.861 364.504 111.841 365.767 110.56C366.31 110.012 366.738 109.363 367.029 108.65C367.32 107.936 367.467 107.173 367.462 106.403C367.457 105.633 367.3 104.872 367 104.163C366.7 103.453 366.263 102.81 365.714 102.269ZM365.067 109.876C363.895 111.065 362.498 112.011 360.957 112.659C359.416 113.308 357.761 113.645 356.089 113.652H356.006C353.494 113.651 351.039 112.909 348.949 111.52C346.859 110.131 345.227 108.157 344.26 105.845C343.292 103.534 343.03 100.988 343.509 98.5293C343.988 96.0701 345.185 93.8071 346.949 92.0247C347.863 91.1039 349.105 90.5821 350.403 90.5738C351.702 90.5656 352.95 91.0716 353.875 91.9807L365.028 102.963C365.951 103.875 366.473 105.115 366.48 106.411C366.487 107.707 365.979 108.953 365.067 109.876Z" fill="#3F3D56"/>
<path d="M403.019 141.766L390.724 129.653C389.917 128.861 388.829 128.42 387.697 128.427C386.565 128.434 385.482 128.888 384.686 129.691C383.69 130.695 382.901 131.884 382.367 133.192C381.832 134.5 381.561 135.9 381.569 137.312C381.577 138.725 381.864 140.122 382.413 141.423C382.963 142.725 383.764 143.906 384.772 144.898C385.779 145.891 386.973 146.676 388.285 147.208C389.597 147.74 391.001 148.009 392.417 147.999C393.833 147.99 395.233 147.702 396.537 147.152C397.842 146.602 399.025 145.802 400.019 144.796L403.019 141.766Z" fill="#6C63FF"/>
<path d="M366.429 105.72L354.133 93.6075C353.327 92.815 352.238 92.3739 351.106 92.3809C349.974 92.3879 348.892 92.8425 348.095 93.6449C347.099 94.6487 346.311 95.8385 345.776 97.1463C345.241 98.4541 344.97 99.8542 344.978 101.267C344.986 102.679 345.273 104.076 345.823 105.378C346.372 106.679 347.174 107.86 348.181 108.853C349.189 109.845 350.383 110.63 351.694 111.162C353.006 111.694 354.41 111.963 355.826 111.953C357.242 111.944 358.642 111.656 359.947 111.106C361.251 110.557 362.434 109.756 363.428 108.75L366.429 105.72Z" fill="#6C63FF"/>
<path d="M389.508 149.31L389.214 150.082C387.833 149.559 386.494 149.035 385.198 148.509C362.236 139.163 351.274 128.225 343.942 107.462L343.937 107.457C343.589 106.48 343.251 105.48 342.923 104.458L343.697 104.209C343.956 105.192 344.334 106.14 344.824 107.032C345.225 108.171 345.638 109.28 346.063 110.359C352.954 127.883 363.118 137.898 382.602 146.354C383.581 146.779 384.585 147.201 385.614 147.62C386.808 148.396 388.124 148.967 389.508 149.31Z" fill="#3F3D56"/>
<path d="M354.357 113.74L353.668 114.435L379.107 139.496L379.796 138.8L354.357 113.74Z" fill="#3F3D56"/>
<path d="M138.985 92.9747L138.998 76.9202L129.536 77.7635L132.875 87.8891L120.754 106.216C119.996 106.386 119.304 106.772 118.762 107.327C118.22 107.882 117.852 108.582 117.703 109.343C117.553 110.103 117.628 110.89 117.92 111.609C118.211 112.327 118.705 112.945 119.343 113.388C119.98 113.831 120.733 114.079 121.51 114.103C122.286 114.126 123.052 113.924 123.716 113.52C124.379 113.116 124.91 112.529 125.244 111.83C125.578 111.13 125.701 110.349 125.598 109.581L138.985 92.9747Z" fill="#FFB6B6"/>
</svg>
