<svg width="342" height="300" viewBox="0 0 342 300" fill="none" xmlns="http://www.w3.org/2000/svg">
<path d="M16.4998 102.231L0.00943581 92.9216C-0.213001 82.9617 1.99366 73.0979 6.43782 64.1867C10.2398 81.4822 30.248 89.7108 39.4796 104.812C42.3228 109.544 44.0672 114.857 44.5834 120.356C45.0997 125.856 44.3745 131.401 42.4618 136.582L43.5463 149.991C35.0235 147.433 27.1554 143.053 20.4842 137.153C13.8129 131.253 8.49708 123.974 4.90291 115.817C2.93183 111.221 1.54607 106.394 0.778333 101.451C8.46686 102.271 16.4998 102.231 16.4998 102.231Z" fill="#F2F2F2"/>
<path d="M312.942 271.591L313.448 260.195C318.719 257.371 324.598 255.879 330.575 255.849C322.349 262.59 323.377 275.584 317.8 284.649C316.039 287.463 313.669 289.843 310.865 291.614C308.061 293.385 304.896 294.501 301.603 294.879L294.719 299.104C293.774 293.826 293.983 288.405 295.329 283.216C296.676 278.026 299.129 273.191 302.52 269.043C304.445 266.735 306.653 264.68 309.091 262.924C310.739 267.282 312.942 271.591 312.942 271.591Z" fill="#F2F2F2"/>
<path d="M295.205 293.239L288.971 293.239L286.006 269.141L295.206 269.142L295.205 293.239Z" fill="#FFB6B6"/>
<path d="M296.794 299.295L276.696 299.294V299.04C276.696 296.96 277.52 294.966 278.987 293.496C280.454 292.025 282.444 291.199 284.519 291.199L288.19 288.407L295.04 291.199L296.795 291.199L296.794 299.295Z" fill="#2F2E41"/>
<path d="M266.246 293.239L260.012 293.239L257.047 269.141L266.247 269.142L266.246 293.239Z" fill="#FFB6B6"/>
<path d="M267.835 299.295L247.737 299.294V299.04C247.737 296.96 248.561 294.966 250.028 293.496C251.495 292.025 253.485 291.199 255.56 291.199L259.231 288.407L266.081 291.199L267.836 291.199L267.835 299.295Z" fill="#2F2E41"/>
<path d="M263.548 161.496L304.092 162.511C311.792 166.703 311.909 175.776 309.386 186.548C309.386 186.548 310.238 192.951 308.534 194.658C306.831 196.365 305.979 196.365 306.831 199.353C307.683 202.341 303.183 207.221 303.729 207.769C304.276 208.317 305.553 211.305 305.553 211.305L301.295 235.634C301.295 235.634 298.314 277.891 297.462 278.745C296.61 279.599 295.758 278.745 296.61 280.879C297.462 283.013 298.314 282.16 297.462 283.013C296.707 283.829 295.997 284.684 295.332 285.574H285.036C285.036 285.574 284.26 281.306 284.26 280.879C284.26 280.452 283.408 277.891 283.408 277.465C283.408 277.038 284.161 276.283 284.161 276.283C284.421 275.415 284.597 274.525 284.686 273.623C284.686 272.769 287.241 239.903 287.241 239.903L282.131 197.219L269.781 239.049C269.781 239.049 269.781 275.757 268.929 276.611C268.077 277.465 268.077 277.038 268.503 278.745C268.929 280.452 270.632 280.026 269.355 281.306C268.077 282.587 267.651 280.452 268.077 282.587L268.503 284.721L255.727 284.904C255.727 284.904 254.024 281.306 254.875 280.026C255.727 278.745 255.676 279.095 254.637 276.999C253.598 274.904 253.172 274.477 253.598 274.05C254.023 273.623 254.024 271.353 254.024 271.353L256.153 230.512C256.153 230.512 256.579 187.402 256.579 186.121C256.611 185.462 256.49 184.805 256.225 184.201V182.463L257.856 176.304L263.548 161.496Z" fill="#2F2E41"/>
<path d="M287.903 76.9979C294.86 76.9979 300.5 71.345 300.5 64.3718C300.5 57.3986 294.86 51.7458 287.903 51.7458C280.946 51.7458 275.306 57.3986 275.306 64.3718C275.306 71.345 280.946 76.9979 287.903 76.9979Z" fill="#FFB6B6"/>
<path d="M281.605 85.3428C278.891 86.9599 277.267 89.9312 276.335 92.9547C274.61 98.5523 273.571 104.34 273.242 110.189L272.258 127.701L260.067 164.989C270.633 173.95 310.347 167.026 310.347 167.026C310.347 167.026 311.566 166.618 310.347 165.397C309.128 164.175 307.941 165.257 309.16 164.035C310.379 162.813 309.539 164.175 309.132 162.953C308.726 161.731 309.132 162.546 309.539 162.138C309.945 161.731 306.393 158.065 306.393 158.065L309.644 136.662L313.707 93.4886C308.831 87.3792 299.024 83.7778 299.024 83.7778L296.49 79.2062L283.82 80.2221L281.605 85.3428Z" fill="#E6E6E6"/>
<path d="M279.877 56.9619C280.364 56.9657 280.849 57.0295 281.321 57.1518C282.251 57.376 283.196 57.5348 284.149 57.6271C287.065 57.9021 289.805 59.1486 291.932 61.1676C294.058 63.1867 295.448 65.8617 295.88 68.7655C296.612 68.1258 298.278 66.9492 299.643 68.0427C299.664 68.0601 299.676 68.069 299.724 68.0462C300.631 67.6151 302.24 62.3088 302.289 57.6367C302.315 55.157 301.925 51.9904 299.924 50.9876L299.819 50.9348L299.791 50.82C299.657 50.2622 298.164 49.31 295.568 48.5689C290.85 47.2221 283.818 44.5985 279.858 48.4596C279.558 49.7612 278.583 52.5467 277.599 52.8625C276.508 53.2119 275.566 53.5135 275.418 54.8544C275.294 56.7625 275.303 58.6769 275.445 60.5838C275.814 59.417 276.54 58.3957 277.519 57.6638C278.215 57.194 279.038 56.9491 279.877 56.9619Z" fill="#2F2E41"/>
<path d="M256.429 126.726L277.007 113.518L266.643 99.7087L256.409 112.326L224.521 114.287C223.683 113.456 222.621 112.887 221.465 112.651C220.31 112.414 219.111 112.52 218.014 112.954C216.917 113.389 215.971 114.134 215.289 115.099C214.608 116.063 214.221 117.206 214.176 118.387C214.131 119.568 214.431 120.737 215.037 121.751C215.643 122.764 216.531 123.579 217.592 124.096C218.652 124.613 219.84 124.809 221.01 124.661C222.18 124.513 223.282 124.027 224.181 123.263L256.429 126.726Z" fill="#FFB6B6"/>
<path d="M296.106 95.0811C297.301 102.325 274.747 116.159 274.747 116.159C274.746 114.459 261.285 127.295 260.677 125.885C258.951 121.877 257.736 112.384 255.323 110.865C253.943 109.996 263.635 101.833 263.635 101.833C263.635 101.833 268.707 96.7106 275.365 90.2497C277.213 88.3881 279.501 87.0255 282.016 86.2887C284.531 85.5519 287.191 85.4648 289.749 86.0356C289.749 86.0356 294.912 87.8367 296.106 95.0811Z" fill="#E6E6E6"/>
<path d="M338.52 130.193L324.909 109.853L311.354 120.531L324.157 130.519L326.787 162.431C325.976 163.289 325.432 164.365 325.22 165.528C325.009 166.69 325.139 167.89 325.596 168.98C326.053 170.069 326.816 171.002 327.793 171.665C328.77 172.327 329.918 172.69 331.097 172.71C332.276 172.73 333.435 172.406 334.434 171.776C335.432 171.147 336.226 170.24 336.719 169.167C337.212 168.093 337.383 166.899 337.211 165.729C337.038 164.56 336.53 163.466 335.748 162.581L338.52 130.193Z" fill="#FFB6B6"/>
<path d="M306.114 91.1052C313.315 89.755 327.592 112.062 327.592 112.062C325.895 112.099 338.985 125.316 337.591 125.955C333.63 127.77 324.186 129.188 322.722 131.638C321.884 133.039 313.536 123.501 313.536 123.501C313.536 123.501 308.32 118.526 301.734 111.992C299.838 110.179 298.43 107.915 297.642 105.411C296.854 102.906 296.711 100.242 297.226 97.6674C297.226 97.6674 298.913 92.4554 306.114 91.1052Z" fill="#E6E6E6"/>
<path d="M341.998 299.396C341.998 299.475 341.982 299.554 341.952 299.627C341.922 299.701 341.877 299.767 341.821 299.823C341.765 299.88 341.699 299.924 341.625 299.954C341.552 299.985 341.474 300 341.394 300H199.343C199.183 300 199.029 299.936 198.916 299.823C198.803 299.71 198.739 299.556 198.739 299.396C198.739 299.235 198.803 299.081 198.916 298.968C199.029 298.855 199.183 298.791 199.343 298.791H341.394C341.474 298.791 341.552 298.806 341.625 298.837C341.699 298.867 341.765 298.911 341.821 298.968C341.877 299.024 341.922 299.09 341.952 299.164C341.982 299.237 341.998 299.316 341.998 299.396Z" fill="#CCCCCC"/>
<path d="M210.403 116.217H38.0036C35.3101 116.22 32.7279 117.294 30.8233 119.203C28.9187 121.112 27.8474 123.7 27.8444 126.399V233.979C27.8474 236.679 28.9187 239.267 30.8233 241.176C32.7279 243.085 35.3102 244.159 38.0036 244.162H210.403C213.096 244.159 215.679 243.085 217.583 241.176C219.488 239.267 220.559 236.679 220.562 233.979V126.399C220.559 123.7 219.488 121.112 217.583 119.203C215.679 117.294 213.096 116.22 210.403 116.217Z" fill="#382BDA"/>
<path d="M210.403 116.217H38.0036C35.3101 116.22 32.7279 117.294 30.8233 119.203C28.9187 121.112 27.8474 123.7 27.8444 126.399V233.979C27.8474 236.679 28.9187 239.267 30.8233 241.176C32.7279 243.085 35.3102 244.159 38.0036 244.162H210.403C213.096 244.159 215.679 243.085 217.583 241.176C219.488 239.267 220.559 236.679 220.562 233.979V126.399C220.559 123.7 219.488 121.112 217.583 119.203C215.679 117.294 213.096 116.22 210.403 116.217ZM213.737 193.493C213.696 204.445 209.373 214.945 201.697 222.74C194.021 230.535 183.602 235.004 172.676 235.188C155.183 235.416 182.355 235.505 161.257 235.505C113.013 235.505 62.7083 235.043 43.9389 234.744C41.4694 234.693 39.1177 233.676 37.3858 231.911C35.654 230.146 34.6792 227.772 34.6697 225.296V126.407C34.6706 125.521 35.0219 124.671 35.6465 124.043C36.2712 123.416 37.1184 123.061 38.0029 123.058H210.396C211.28 123.059 212.128 123.411 212.754 124.037C213.38 124.663 213.734 125.512 213.737 126.399V193.493Z" fill="#3F3D56"/>
<path d="M189.181 54.2692H57.8307C56.6685 54.2709 55.5352 54.632 54.5854 55.3033C53.6357 55.9746 52.9157 56.9233 52.5239 58.0199L32.2378 115.064C31.9351 115.915 31.8407 116.827 31.9625 117.723C32.0844 118.618 32.419 119.471 32.9382 120.21C33.4574 120.949 34.1461 121.553 34.9463 121.97C35.7465 122.387 36.6348 122.605 37.5367 122.606L213.699 122.92H213.706C214.639 122.919 215.556 122.688 216.377 122.245C217.198 121.802 217.896 121.161 218.41 120.381C218.923 119.601 219.235 118.706 219.318 117.775C219.401 116.844 219.252 115.907 218.885 115.049L194.359 57.6915C193.925 56.6753 193.203 55.8092 192.283 55.2007C191.362 54.5923 190.284 54.2684 189.181 54.2692Z" fill="#3F3D56"/>
<path d="M219.341 116.287C219.34 117.052 219.185 117.809 218.885 118.512L194.36 162.664C193.924 163.678 193.201 164.542 192.281 165.149C191.36 165.757 190.283 166.081 189.181 166.083H57.8327C56.6702 166.081 55.5363 165.721 54.5857 165.05C53.6352 164.379 52.9143 163.431 52.5214 162.334L32.2392 118.497C31.9906 117.799 31.8817 117.058 31.9189 116.317C31.956 115.577 32.1384 114.851 32.4557 114.181C32.7729 113.511 33.2187 112.91 33.7677 112.413C34.3167 111.916 34.958 111.532 35.655 111.284C36.258 111.066 36.8942 110.954 37.5353 110.954L213.7 110.639H213.705C215.2 110.639 216.633 111.234 217.69 112.294C218.747 113.353 219.341 114.789 219.341 116.287Z" fill="#3F3D56"/>
<path d="M50.928 196.914C53.5327 196.914 89.3001 199.105 89.3001 201.716C89.3001 204.326 53.5326 206.368 50.928 206.368C49.6772 206.368 48.4777 205.87 47.5932 204.984C46.7088 204.097 46.2119 202.895 46.2119 201.641C46.2119 200.387 46.7088 199.185 47.5932 198.299C48.4777 197.412 49.6772 196.914 50.928 196.914Z" fill="#3F3D56"/>
<path d="M181.001 19.5669H70.2494C67.2813 19.5703 64.4357 20.7536 62.3369 22.8572C60.2382 24.9607 59.0576 27.8128 59.0541 30.7877V166.083L189.181 166.083C190.249 166.086 191.296 165.781 192.196 165.204V30.7877C192.193 27.8128 191.012 24.9607 188.914 22.8572C186.815 20.7536 183.969 19.5703 181.001 19.5669Z" fill="#E6E6E6"/>
<path d="M138.729 28.6644H78.0339C75.3312 28.667 72.7399 29.7439 70.8283 31.6589C68.9168 33.5739 67.841 36.1706 67.837 38.8795V166.083H183.408V73.4461C183.395 61.5735 178.683 50.191 170.307 41.7958C161.931 33.4005 150.574 28.6781 138.729 28.6644Z" fill="white"/>
<path d="M163.719 154.786H87.5263C86.8677 154.786 86.2361 155.048 85.7704 155.515C85.3046 155.981 85.043 156.614 85.043 157.275C85.043 157.935 85.3046 158.568 85.7704 159.035C86.2361 159.501 86.8677 159.764 87.5263 159.764H163.719C164.378 159.764 165.009 159.501 165.475 159.035C165.941 158.568 166.202 157.935 166.202 157.275C166.202 156.614 165.941 155.981 165.475 155.515C165.009 155.048 164.378 154.786 163.719 154.786Z" fill="#E4E4E4"/>
<path d="M163.719 144.941H87.5263C86.867 144.941 86.2348 145.204 85.7686 145.671C85.3024 146.138 85.0405 146.772 85.0405 147.433C85.0405 148.094 85.3024 148.727 85.7686 149.195C86.2348 149.662 86.867 149.924 87.5263 149.924H163.719C164.378 149.924 165.011 149.662 165.477 149.195C165.943 148.727 166.205 148.094 166.205 147.433C166.205 146.772 165.943 146.138 165.477 145.671C165.011 145.204 164.378 144.941 163.719 144.941Z" fill="#E4E4E4"/>
<path d="M120.555 135.102H87.5263C86.8677 135.102 86.2361 135.364 85.7703 135.831C85.3046 136.298 85.043 136.931 85.043 137.591C85.043 138.251 85.3046 138.884 85.7703 139.351C86.2361 139.818 86.8677 140.08 87.5263 140.08H120.555C121.213 140.08 121.845 139.818 122.311 139.351C122.776 138.884 123.038 138.251 123.038 137.591C123.038 136.931 122.776 136.298 122.311 135.831C121.845 135.364 121.213 135.102 120.555 135.102Z" fill="#E4E4E4"/>
<path d="M163.719 114.489H87.5263C86.867 114.489 86.2348 114.752 85.7686 115.219C85.3024 115.686 85.0405 116.32 85.0405 116.981C85.0405 117.642 85.3024 118.275 85.7686 118.743C86.2348 119.21 86.867 119.472 87.5263 119.472H163.719C164.378 119.472 165.011 119.21 165.477 118.743C165.943 118.275 166.205 117.642 166.205 116.981C166.205 116.32 165.943 115.686 165.477 115.219C165.011 114.752 164.378 114.489 163.719 114.489Z" fill="#E4E4E4"/>
<path d="M163.719 104.65H87.5263C86.8677 104.65 86.2361 104.912 85.7704 105.379C85.3046 105.846 85.043 106.479 85.043 107.139C85.043 107.799 85.3046 108.432 85.7704 108.899C86.2361 109.366 86.8677 109.628 87.5263 109.628H163.719C164.378 109.628 165.009 109.366 165.475 108.899C165.941 108.432 166.202 107.799 166.202 107.139C166.202 106.479 165.941 105.846 165.475 105.379C165.009 104.912 164.378 104.65 163.719 104.65Z" fill="#E4E4E4"/>
<path d="M120.555 94.8058H87.5263C86.867 94.8058 86.2347 95.0683 85.7685 95.5355C85.3024 96.0028 85.0405 96.6365 85.0405 97.2973C85.0405 97.9581 85.3024 98.5918 85.7685 99.0591C86.2347 99.5263 86.867 99.7888 87.5263 99.7888H120.555C121.214 99.7888 121.846 99.5263 122.312 99.0591C122.779 98.5918 123.041 97.9581 123.041 97.2973C123.041 96.6365 122.779 96.0028 122.312 95.5355C121.846 95.0683 121.214 94.8058 120.555 94.8058Z" fill="#E4E4E4"/>
<path d="M163.719 74.1928H87.5263C86.867 74.1928 86.2348 74.4553 85.7686 74.9225C85.3024 75.3898 85.0405 76.0235 85.0405 76.6843C85.0405 77.3451 85.3024 77.9788 85.7686 78.4461C86.2348 78.9134 86.867 79.1759 87.5263 79.1759H163.719C164.378 79.1759 165.011 78.9134 165.477 78.4461C165.943 77.9788 166.205 77.3451 166.205 76.6843C166.205 76.0235 165.943 75.3898 165.477 74.9225C165.011 74.4553 164.378 74.1928 163.719 74.1928Z" fill="#382BDA"/>
<path d="M163.719 64.3536H87.5263C86.867 64.3536 86.2348 64.6161 85.7686 65.0834C85.3024 65.5506 85.0405 66.1843 85.0405 66.8451C85.0405 67.5059 85.3024 68.1397 85.7686 68.6069C86.2348 69.0742 86.867 69.3367 87.5263 69.3367H163.719C164.378 69.3367 165.011 69.0742 165.477 68.6069C165.943 68.1397 166.205 67.5059 166.205 66.8451C166.205 66.1843 165.943 65.5506 165.477 65.0834C165.011 64.6161 164.378 64.3536 163.719 64.3536Z" fill="#382BDA"/>
<path d="M120.555 54.5094H87.5263C86.867 54.5094 86.2347 54.7719 85.7685 55.2391C85.3024 55.7064 85.0405 56.3401 85.0405 57.0009C85.0405 57.6617 85.3024 58.2954 85.7685 58.7627C86.2347 59.2299 86.867 59.4924 87.5263 59.4924H120.555C121.214 59.4924 121.846 59.2299 122.312 58.7627C122.779 58.2954 123.041 57.6617 123.041 57.0009C123.041 56.3401 122.779 55.7064 122.312 55.2391C121.846 54.7719 121.214 54.5094 120.555 54.5094Z" fill="#382BDA"/>
<path d="M188.044 38.7703C198.726 38.7703 207.385 30.0913 207.385 19.3852C207.385 8.67903 198.726 0 188.044 0C177.362 0 168.703 8.67903 168.703 19.3852C168.703 30.0913 177.362 38.7703 188.044 38.7703Z" fill="#382BDA"/>
<path d="M185.406 29.4742C185.072 29.4742 184.742 29.3963 184.444 29.2465C184.145 29.0968 183.885 28.8794 183.685 28.6115L178.408 21.56C178.238 21.3335 178.114 21.0756 178.043 20.8009C177.972 20.5263 177.956 20.2403 177.996 19.9594C178.035 19.6786 178.13 19.4083 178.274 19.1641C178.418 18.9199 178.609 18.7066 178.835 18.5365C179.061 18.3663 179.319 18.2425 179.593 18.1723C179.868 18.1021 180.153 18.0868 180.433 18.1273C180.713 18.1679 180.983 18.2634 181.226 18.4084C181.469 18.5534 181.681 18.7451 181.85 18.9725L185.303 23.5855L194.169 10.256C194.485 9.7801 194.977 9.44977 195.537 9.33761C196.097 9.22545 196.678 9.34066 197.152 9.6579C197.627 9.97513 197.957 10.4684 198.069 11.0292C198.181 11.59 198.066 12.1724 197.749 12.6482L187.196 28.514C187.005 28.8009 186.748 29.0378 186.447 29.2047C186.146 29.3717 185.81 29.4639 185.466 29.4735C185.446 29.4739 185.426 29.4742 185.406 29.4742Z" fill="white"/>
</svg>
