<svg width="447" height="206" viewBox="0 0 447 206" fill="none" xmlns="http://www.w3.org/2000/svg">
<path d="M94.7943 194.537C84.0916 187.569 76.3097 175.045 77.9024 162.383C87.5395 172.379 100.405 178.647 114.223 180.079C119.554 180.611 125.539 180.65 129.325 184.437C131.681 186.793 132.682 190.237 132.733 193.567C132.785 196.897 131.984 200.174 131.188 203.408L131.384 204.216C118.618 203.745 105.497 201.504 94.7943 194.537Z" fill="#F0F0F0"/>
<path d="M78.1702 162.38C82.1738 172.157 89.1593 180.425 98.1345 186.009C100.045 187.246 102.139 188.174 104.339 188.759C106.501 189.26 108.757 189.173 110.874 188.508C112.86 187.928 114.824 187.105 116.917 187.017C117.989 186.988 119.055 187.185 120.045 187.596C121.035 188.008 121.927 188.623 122.662 189.403C124.545 191.299 125.634 193.757 126.614 196.197C127.703 198.907 128.792 201.739 131.01 203.746C131.278 203.99 130.885 204.392 130.617 204.149C126.758 200.657 126.333 195.054 123.3 191.003C121.884 189.113 119.89 187.637 117.452 187.574C115.32 187.52 113.294 188.367 111.288 188.972C109.232 189.651 107.042 189.817 104.907 189.455C102.685 188.984 100.558 188.138 98.6196 186.954C94.2124 184.358 90.2412 181.086 86.8515 177.257C82.9586 172.91 79.8389 167.929 77.6273 162.53C77.4906 162.196 78.0344 162.048 78.1702 162.38Z" fill="white"/>
<path d="M95.1383 184.381C93.9959 185.758 92.4007 186.685 90.6375 186.995C88.8744 187.306 87.0581 186.98 85.5131 186.077C85.2011 185.893 85.4726 185.4 85.785 185.584C87.2221 186.428 88.914 186.731 90.5552 186.439C92.1965 186.146 93.679 185.277 94.7351 183.988C94.965 183.709 95.3668 184.103 95.1383 184.381Z" fill="white"/>
<path d="M109.906 188.935C109.598 185.292 107.926 181.899 105.224 179.433C104.956 179.189 105.35 178.786 105.617 179.03C108.424 181.602 110.157 185.136 110.469 188.928C110.499 189.29 109.936 189.295 109.906 188.935Z" fill="white"/>
<path d="M83.6673 172.674C84.2204 172.234 84.6553 171.662 84.9329 171.012C85.2105 170.362 85.3221 169.653 85.2576 168.949C85.2235 168.588 85.7867 168.583 85.8206 168.942C85.8882 169.72 85.764 170.503 85.4589 171.222C85.1538 171.941 84.6771 172.574 84.0704 173.067C84.0171 173.118 83.9463 173.147 83.8723 173.148C83.7984 173.149 83.7269 173.122 83.6723 173.072C83.6192 173.02 83.5889 172.949 83.5879 172.874C83.587 172.8 83.6155 172.728 83.6673 172.674Z" fill="white"/>
<path d="M114.41 139.212C114.437 139.437 114.465 139.662 114.497 139.889C114.885 142.908 115.519 145.891 116.391 148.808C116.455 149.034 116.523 149.263 116.593 149.487C118.769 156.492 122.228 163.033 126.795 168.777C128.614 171.061 130.604 173.203 132.749 175.185C135.71 177.922 139.14 180.655 140.97 184.108C141.164 184.466 141.337 184.836 141.486 185.216L132.355 203.915C132.313 203.948 132.275 203.982 132.233 204.014L131.902 204.777C131.785 204.683 131.664 204.582 131.547 204.488C131.478 204.433 131.412 204.375 131.343 204.32C131.298 204.282 131.253 204.245 131.21 204.213C131.195 204.201 131.18 204.188 131.17 204.178C131.127 204.146 131.09 204.112 131.052 204.083C130.379 203.523 129.709 202.957 129.042 202.385C129.037 202.383 129.037 202.383 129.035 202.377C123.962 198.009 119.209 193.179 115.341 187.782C115.225 187.619 115.104 187.455 114.992 187.284C113.262 184.842 111.735 182.262 110.426 179.571C109.714 178.096 109.077 176.585 108.518 175.045C107.08 171.062 106.279 166.879 106.143 162.648C105.873 154.214 108.307 145.788 113.972 139.675C114.117 139.519 114.26 139.366 114.41 139.212Z" fill="#F0F0F0"/>
<path d="M114.628 139.37C111.932 149.584 112.527 160.387 116.327 170.244C117.108 172.38 118.22 174.381 119.624 176.171C121.048 177.871 122.902 179.159 124.993 179.901C126.928 180.632 128.993 181.156 130.717 182.345C131.59 182.966 132.323 183.765 132.865 184.689C133.408 185.613 133.749 186.641 133.866 187.706C134.227 190.351 133.614 192.969 132.927 195.507C132.163 198.326 131.325 201.242 131.886 204.178C131.954 204.534 131.398 204.619 131.33 204.263C130.353 199.154 133.391 194.425 133.411 189.366C133.42 187.006 132.717 184.628 130.808 183.112C129.138 181.786 127.01 181.244 125.044 180.52C122.993 179.826 121.144 178.641 119.658 177.068C118.168 175.355 116.98 173.401 116.145 171.29C114.191 166.566 112.992 161.565 112.593 156.47C112.105 150.657 112.616 144.804 114.104 139.163C114.197 138.814 114.72 139.023 114.628 139.37Z" fill="white"/>
<path d="M114.916 167.142C113.174 167.554 111.342 167.335 109.747 166.522C108.152 165.71 106.898 164.357 106.209 162.707C106.071 162.372 106.585 162.142 106.723 162.477C107.362 164.015 108.53 165.275 110.017 166.028C111.503 166.782 113.211 166.979 114.831 166.586C115.183 166.501 115.266 167.057 114.916 167.142Z" fill="white"/>
<path d="M123.961 179.66C125.91 176.565 126.62 172.851 125.95 169.257C125.883 168.901 126.439 168.816 126.506 169.171C127.197 172.913 126.45 176.777 124.415 179.993C124.221 180.299 123.768 179.964 123.961 179.66Z" fill="white"/>
<path d="M112.811 150.895C113.518 150.876 114.21 150.681 114.823 150.329C115.437 149.977 115.953 149.478 116.326 148.877C116.516 148.569 116.969 148.904 116.78 149.21C116.365 149.872 115.794 150.422 115.117 150.813C114.44 151.204 113.677 151.423 112.896 151.451C112.823 151.46 112.749 151.441 112.689 151.397C112.63 151.353 112.589 151.288 112.575 151.216C112.564 151.142 112.583 151.067 112.627 151.007C112.671 150.947 112.737 150.907 112.811 150.895Z" fill="white"/>
<path d="M421.416 194.537C432.119 187.569 439.901 175.045 438.308 162.383C428.671 172.379 415.805 178.647 401.987 180.079C396.656 180.611 390.671 180.65 386.885 184.437C384.529 186.793 383.528 190.237 383.477 193.567C383.426 196.897 384.226 200.174 385.022 203.408L384.827 204.216C397.593 203.745 410.713 201.504 421.416 194.537Z" fill="#F0F0F0"/>
<path d="M438.039 162.38C434.035 172.157 427.05 180.425 418.075 186.009C416.164 187.246 414.07 188.174 411.87 188.759C409.708 189.26 407.452 189.173 405.335 188.508C403.349 187.928 401.385 187.105 399.292 187.017C398.22 186.988 397.154 187.185 396.164 187.596C395.174 188.008 394.282 188.623 393.547 189.403C391.664 191.299 390.576 193.757 389.595 196.197C388.506 198.907 387.417 201.739 385.199 203.746C384.931 203.99 385.324 204.392 385.592 204.149C389.451 200.657 389.876 195.054 392.909 191.003C394.325 189.113 396.319 187.637 398.757 187.574C400.889 187.52 402.915 188.367 404.921 188.972C406.977 189.651 409.167 189.817 411.302 189.455C413.525 188.984 415.651 188.138 417.589 186.954C421.997 184.358 425.968 181.086 429.358 177.257C433.25 172.91 436.37 167.929 438.582 162.53C438.718 162.196 438.175 162.048 438.039 162.38Z" fill="white"/>
<path d="M421.07 184.381C422.212 185.758 423.808 186.685 425.571 186.995C427.334 187.306 429.15 186.98 430.695 186.077C431.007 185.893 430.736 185.4 430.423 185.584C428.986 186.428 427.294 186.731 425.653 186.439C424.012 186.146 422.529 185.277 421.473 183.988C421.243 183.709 420.841 184.103 421.07 184.381Z" fill="white"/>
<path d="M406.304 188.935C406.613 185.292 408.285 181.899 410.987 179.433C411.254 179.189 410.861 178.786 410.593 179.03C407.787 181.602 406.054 185.136 405.741 188.928C405.712 189.29 406.275 189.295 406.304 188.935Z" fill="white"/>
<path d="M432.542 172.674C431.989 172.234 431.554 171.662 431.277 171.012C430.999 170.362 430.888 169.653 430.952 168.949C430.986 168.588 430.423 168.583 430.389 168.942C430.321 169.72 430.446 170.503 430.751 171.222C431.056 171.941 431.533 172.574 432.139 173.067C432.193 173.118 432.263 173.147 432.337 173.148C432.411 173.149 432.483 173.122 432.537 173.072C432.59 173.02 432.621 172.949 432.622 172.874C432.623 172.8 432.594 172.728 432.542 172.674Z" fill="white"/>
<path d="M401.799 139.212C401.772 139.437 401.744 139.662 401.712 139.889C401.323 142.908 400.69 145.891 399.818 148.808C399.754 149.034 399.686 149.263 399.616 149.487C397.44 156.492 393.98 163.033 389.414 168.777C387.595 171.061 385.605 173.203 383.46 175.185C380.498 177.922 377.069 180.655 375.239 184.108C375.044 184.466 374.872 184.836 374.723 185.216L383.854 203.915C383.896 203.948 383.934 203.982 383.976 204.014L384.307 204.777C384.424 204.683 384.544 204.582 384.662 204.488C384.731 204.433 384.797 204.375 384.866 204.32C384.911 204.282 384.956 204.245 384.998 204.213C385.014 204.201 385.028 204.188 385.039 204.177C385.082 204.146 385.118 204.112 385.157 204.083C385.83 203.523 386.5 202.957 387.167 202.385C387.171 202.383 387.171 202.383 387.174 202.377C392.247 198.008 397 193.179 400.867 187.782C400.984 187.619 401.104 187.455 401.217 187.284C402.947 184.842 404.474 182.262 405.783 179.571C406.495 178.096 407.132 176.585 407.691 175.045C409.128 171.062 409.93 166.879 410.066 162.648C410.335 154.214 407.902 145.788 402.237 139.675C402.092 139.519 401.949 139.366 401.799 139.212Z" fill="#F0F0F0"/>
<path d="M401.581 139.37C404.277 149.584 403.682 160.387 399.882 170.244C399.102 172.38 397.989 174.381 396.585 176.171C395.161 177.871 393.307 179.159 391.216 179.901C389.281 180.632 387.216 181.156 385.492 182.345C384.619 182.966 383.887 183.765 383.344 184.689C382.801 185.613 382.46 186.641 382.343 187.706C381.982 190.351 382.595 192.969 383.283 195.507C384.046 198.326 384.884 201.242 384.323 204.178C384.255 204.534 384.812 204.619 384.88 204.263C385.856 199.154 382.819 194.425 382.799 189.366C382.79 187.006 383.492 184.628 385.401 183.112C387.071 181.786 389.199 181.244 391.166 180.52C393.216 179.826 395.065 178.641 396.551 177.068C398.042 175.355 399.23 173.401 400.064 171.29C402.018 166.566 403.217 161.565 403.616 156.47C404.104 150.657 403.593 144.804 402.105 139.163C402.013 138.814 401.49 139.023 401.581 139.37Z" fill="white"/>
<path d="M401.293 167.142C403.035 167.554 404.867 167.335 406.462 166.522C408.057 165.71 409.311 164.357 410 162.707C410.138 162.372 409.624 162.142 409.486 162.477C408.847 164.015 407.679 165.275 406.192 166.028C404.705 166.782 402.998 166.979 401.378 166.586C401.026 166.501 400.943 167.057 401.293 167.142Z" fill="white"/>
<path d="M392.247 179.66C390.298 176.565 389.588 172.851 390.259 169.257C390.326 168.901 389.769 168.816 389.702 169.171C389.011 172.913 389.758 176.777 391.794 179.993C391.988 180.299 392.441 179.964 392.247 179.66Z" fill="white"/>
<path d="M403.397 150.895C402.689 150.876 401.998 150.681 401.384 150.329C400.771 149.977 400.255 149.478 399.882 148.877C399.692 148.569 399.239 148.904 399.428 149.21C399.843 149.872 400.414 150.422 401.091 150.813C401.768 151.204 402.53 151.423 403.312 151.451C403.385 151.46 403.459 151.441 403.519 151.397C403.578 151.353 403.619 151.288 403.632 151.216C403.643 151.142 403.625 151.067 403.581 151.007C403.536 150.947 403.47 150.907 403.397 150.895Z" fill="white"/>
<path d="M115.874 133.093C115.469 132.849 115.123 132.52 114.859 132.129C114.595 131.737 114.42 131.292 114.347 130.826C114.274 130.359 114.304 129.882 114.436 129.429C114.567 128.975 114.796 128.556 115.107 128.201L109.414 118.232L115.372 118.617L119.865 128.024C120.428 128.585 120.765 129.334 120.813 130.127C120.86 130.921 120.615 131.704 120.123 132.329C119.631 132.954 118.927 133.377 118.144 133.517C117.361 133.658 116.553 133.507 115.874 133.093Z" fill="#FFB6B6"/>
<path d="M72.0474 201.047H75.9891L77.8642 185.86L72.0469 185.861L72.0474 201.047Z" fill="#FFB6B6"/>
<path d="M71.043 199.762L78.805 199.761C80.1169 199.761 81.3754 200.282 82.303 201.209C83.2307 202.135 83.7518 203.392 83.7519 204.703V204.863L71.0432 204.864L71.043 199.762Z" fill="#2F2E41"/>
<path d="M99.0537 201.047H102.995L104.87 185.86L99.0527 185.861L99.0537 201.047Z" fill="#FFB6B6"/>
<path d="M98.0469 199.762L105.809 199.761C107.121 199.761 108.379 200.282 109.307 201.209C110.235 202.135 110.756 203.392 110.756 204.703V204.863L98.0471 204.864L98.0469 199.762Z" fill="#2F2E41"/>
<path d="M109.188 118.661C109.188 118.661 110.272 134.083 108.137 141.85C106.001 149.617 105.62 196.588 105.62 196.588H98.4633L92.2601 132.651L77.9596 196.813L71.1426 196.345L74.8811 120.738L109.188 118.661Z" fill="#2F2E41"/>
<path d="M77.8394 66.6727L83.3107 62.6843L92.4787 64.6785L94.9604 70.5692L99.2368 72.6872C100.643 73.3837 101.859 74.4107 102.78 75.6801C103.701 76.9496 104.299 78.4234 104.524 79.975L110.633 122.119L74.8811 120.738L70.5538 71.1057C70.5085 70.5873 70.5679 70.065 70.7283 69.5699C70.8887 69.0748 71.147 68.6168 71.4877 68.2232C71.8284 67.8295 72.2448 67.5081 72.712 67.278C73.1793 67.0479 73.688 66.9138 74.2081 66.8836L77.8394 66.6727Z" fill="#3F3D56"/>
<path d="M101.498 75.9792L104.8 80.4257L119.182 124.246L112.441 126.942L101.646 106.523L101.498 75.9792Z" fill="#3F3D56"/>
<path d="M89.5301 60.6021C93.9402 60.6021 97.5152 57.0308 97.5152 52.6253C97.5152 48.2198 93.9402 44.6484 89.5301 44.6484C85.12 44.6484 81.5449 48.2198 81.5449 52.6253C81.5449 57.0308 85.12 60.6021 89.5301 60.6021Z" fill="#FFB9B9"/>
<path d="M72.1211 85.4438L85.1518 103.549L99.7173 113.037L72.1211 85.4438Z" fill="black"/>
<path d="M85.2975 58.3918C84.7421 57.284 84.1707 56.0782 84.383 54.8575C84.5953 53.6368 85.9976 52.5731 87.0798 53.1783C87.5289 51.5572 89.5167 50.8478 91.1899 51.0349C92.8632 51.2221 94.4039 52.0283 96.0516 52.3745C97.6993 52.7206 99.7004 52.446 100.591 51.0185L98.4601 50.9817L100.679 48.4108L98.1069 48.2186C98.9978 47.2581 98.7611 45.6262 97.8987 44.6401C97.0362 43.6541 95.7274 43.1875 94.4503 42.8925C91.9009 42.3054 89.2583 42.2448 86.6845 42.7142C85.471 42.9011 84.3018 43.3075 83.2343 43.9136C82.2291 44.5261 81.3985 45.3866 80.8223 46.4124C80.2007 47.5697 79.8647 48.8585 79.8423 50.1717C79.8043 51.9307 80.2089 53.671 81.019 55.2333C81.8291 56.7955 83.0187 58.1297 84.4788 59.1134" fill="#2F2E41"/>
<path d="M382.608 205.069H134.801C132.249 205.066 129.803 204.052 127.998 202.249C126.194 200.447 125.179 198.003 125.176 195.453V9.61537C125.179 7.06607 126.194 4.62202 127.998 2.81942C129.803 1.01681 132.249 0.00286201 134.801 0H382.608C385.16 0.00290726 387.606 1.01688 389.411 2.81948C391.215 4.62209 392.23 7.06611 392.233 9.61537V195.453C392.23 198.002 391.215 200.447 389.411 202.249C387.606 204.052 385.16 205.066 382.608 205.069Z" fill="#E4E4E4"/>
<path d="M320.24 85.3266H281.987C280.097 85.3266 278.284 84.5764 276.947 83.2411C275.61 81.9057 274.859 80.0946 274.859 78.2061C274.859 76.3177 275.61 74.5066 276.947 73.1712C278.284 71.8359 280.097 71.0857 281.987 71.0857H320.24C322.131 71.0857 323.944 71.8359 325.28 73.1712C326.617 74.5066 327.368 76.3177 327.368 78.2061C327.368 80.0946 326.617 81.9057 325.28 83.2411C323.944 84.5764 322.131 85.3266 320.24 85.3266Z" fill="white"/>
<path d="M286.74 104.789H277.711C277.018 104.789 276.353 104.514 275.863 104.024C275.373 103.535 275.098 102.871 275.098 102.178C275.098 101.486 275.373 100.822 275.863 100.332C276.353 99.8425 277.018 99.5674 277.711 99.5674H286.74C287.433 99.5674 288.098 99.8425 288.588 100.332C289.078 100.822 289.353 101.486 289.353 102.178C289.353 102.871 289.078 103.535 288.588 104.024C288.098 104.514 287.433 104.789 286.74 104.789Z" fill="white"/>
<path d="M324.279 104.789H315.25C314.557 104.789 313.892 104.514 313.402 104.024C312.912 103.535 312.637 102.871 312.637 102.178C312.637 101.486 312.912 100.822 313.402 100.332C313.892 99.8425 314.557 99.5674 315.25 99.5674H324.279C324.972 99.5674 325.637 99.8425 326.127 100.332C326.617 100.822 326.892 101.486 326.892 102.178C326.892 102.871 326.617 103.535 326.127 104.024C325.637 104.514 324.972 104.789 324.279 104.789Z" fill="white"/>
<path d="M305.271 104.789H296.242C295.549 104.789 294.885 104.514 294.394 104.024C293.904 103.535 293.629 102.871 293.629 102.178C293.629 101.486 293.904 100.822 294.394 100.332C294.885 99.8425 295.549 99.5674 296.242 99.5674H305.271C305.964 99.5674 306.629 99.8425 307.119 100.332C307.609 100.822 307.885 101.486 307.885 102.178C307.885 102.871 307.609 103.535 307.119 104.024C306.629 104.514 305.964 104.789 305.271 104.789Z" fill="white"/>
<path d="M286.74 114.758H277.711C277.018 114.758 276.353 114.482 275.863 113.993C275.373 113.503 275.098 112.839 275.098 112.147C275.098 111.454 275.373 110.79 275.863 110.301C276.353 109.811 277.018 109.536 277.711 109.536H286.74C287.433 109.536 288.098 109.811 288.588 110.301C289.078 110.79 289.353 111.454 289.353 112.147C289.353 112.839 289.078 113.503 288.588 113.993C288.098 114.482 287.433 114.758 286.74 114.758Z" fill="white"/>
<path d="M324.279 114.758H315.25C314.557 114.758 313.892 114.482 313.402 113.993C312.912 113.503 312.637 112.839 312.637 112.147C312.637 111.454 312.912 110.79 313.402 110.301C313.892 109.811 314.557 109.536 315.25 109.536H324.279C324.972 109.536 325.637 109.811 326.127 110.301C326.617 110.79 326.892 111.454 326.892 112.147C326.892 112.839 326.617 113.503 326.127 113.993C325.637 114.482 324.972 114.758 324.279 114.758Z" fill="white"/>
<path d="M305.271 114.758H296.242C295.549 114.758 294.885 114.482 294.394 113.993C293.904 113.503 293.629 112.839 293.629 112.147C293.629 111.454 293.904 110.79 294.394 110.301C294.885 109.811 295.549 109.536 296.242 109.536H305.271C305.964 109.536 306.629 109.811 307.119 110.301C307.609 110.79 307.885 111.454 307.885 112.147C307.885 112.839 307.609 113.503 307.119 113.993C306.629 114.482 305.964 114.758 305.271 114.758Z" fill="white"/>
<path d="M286.74 124.726H277.711C277.018 124.726 276.353 124.451 275.863 123.962C275.373 123.472 275.098 122.808 275.098 122.115C275.098 121.423 275.373 120.759 275.863 120.269C276.353 119.78 277.018 119.505 277.711 119.505H286.74C287.433 119.505 288.098 119.78 288.588 120.269C289.078 120.759 289.353 121.423 289.353 122.115C289.353 122.808 289.078 123.472 288.588 123.962C288.098 124.451 287.433 124.726 286.74 124.726Z" fill="white"/>
<path d="M324.279 124.726H315.25C314.557 124.726 313.892 124.451 313.402 123.962C312.912 123.472 312.637 122.808 312.637 122.115C312.637 121.423 312.912 120.759 313.402 120.269C313.892 119.78 314.557 119.505 315.25 119.505H324.279C324.972 119.505 325.637 119.78 326.127 120.269C326.617 120.759 326.892 121.423 326.892 122.115C326.892 122.808 326.617 123.472 326.127 123.962C325.637 124.451 324.972 124.726 324.279 124.726Z" fill="white"/>
<path d="M305.271 124.726H296.242C295.549 124.726 294.885 124.451 294.394 123.962C293.904 123.472 293.629 122.808 293.629 122.115C293.629 121.423 293.904 120.759 294.394 120.269C294.885 119.78 295.549 119.505 296.242 119.505H305.271C305.964 119.505 306.629 119.78 307.119 120.269C307.609 120.759 307.885 121.423 307.885 122.115C307.885 122.808 307.609 123.472 307.119 123.962C306.629 124.451 305.964 124.726 305.271 124.726Z" fill="white"/>
<path d="M286.74 134.695H277.711C277.018 134.695 276.353 134.42 275.863 133.93C275.373 133.44 275.098 132.776 275.098 132.084C275.098 131.392 275.373 130.727 275.863 130.238C276.353 129.748 277.018 129.473 277.711 129.473H286.74C287.433 129.473 288.098 129.748 288.588 130.238C289.078 130.727 289.353 131.392 289.353 132.084C289.353 132.776 289.078 133.44 288.588 133.93C288.098 134.42 287.433 134.695 286.74 134.695Z" fill="white"/>
<path d="M324.279 134.695H315.25C314.557 134.695 313.892 134.42 313.402 133.93C312.912 133.44 312.637 132.776 312.637 132.084C312.637 131.392 312.912 130.727 313.402 130.238C313.892 129.748 314.557 129.473 315.25 129.473H324.279C324.972 129.473 325.637 129.748 326.127 130.238C326.617 130.727 326.892 131.392 326.892 132.084C326.892 132.776 326.617 133.44 326.127 133.93C325.637 134.42 324.972 134.695 324.279 134.695Z" fill="white"/>
<path d="M305.271 134.695H296.242C295.549 134.695 294.885 134.42 294.394 133.93C293.904 133.44 293.629 132.776 293.629 132.084C293.629 131.392 293.904 130.727 294.394 130.238C294.885 129.748 295.549 129.473 296.242 129.473H305.271C305.964 129.473 306.629 129.748 307.119 130.238C307.609 130.727 307.885 131.392 307.885 132.084C307.885 132.776 307.609 133.44 307.119 133.93C306.629 134.42 305.964 134.695 305.271 134.695Z" fill="white"/>
<path d="M225.678 124.251C239.063 124.251 249.913 113.413 249.913 100.042C249.913 86.6715 239.063 75.8325 225.678 75.8325C212.294 75.8325 201.443 86.6715 201.443 100.042C201.443 113.413 212.294 124.251 225.678 124.251Z" fill="#CACACA"/>
<path d="M225.677 129.71C223.787 129.708 221.975 128.957 220.639 127.623C219.303 126.288 218.551 124.478 218.549 122.59V77.4939C218.548 76.5583 218.732 75.6318 219.09 74.7672C219.448 73.9027 219.973 73.1171 220.634 72.4552C221.296 71.7934 222.082 71.2684 222.948 70.9102C223.813 70.552 224.74 70.3677 225.677 70.3677C226.613 70.3677 227.541 70.552 228.406 70.9102C229.271 71.2684 230.057 71.7934 230.719 72.4552C231.381 73.1171 231.906 73.9027 232.264 74.7672C232.621 75.6318 232.805 76.5583 232.804 77.4939V122.59C232.802 124.478 232.051 126.288 230.714 127.623C229.378 128.957 227.566 129.708 225.677 129.71Z" fill="white"/>
<path d="M288.99 82.2689H282.337C282.085 82.2689 281.843 82.1689 281.665 81.9908C281.487 81.8128 281.387 81.5713 281.387 81.3195C281.387 81.0677 281.487 80.8262 281.665 80.6482C281.843 80.4701 282.085 80.3701 282.337 80.3701H288.99C289.242 80.3701 289.484 80.4701 289.662 80.6482C289.84 80.8262 289.94 81.0677 289.94 81.3195C289.94 81.5713 289.84 81.8128 289.662 81.9908C289.484 82.1689 289.242 82.2689 288.99 82.2689Z" fill="#E4E4E4"/>
<path d="M299.445 82.5064H292.792C292.54 82.5064 292.298 82.4064 292.12 82.2284C291.942 82.0503 291.842 81.8089 291.842 81.5571C291.842 81.3053 291.942 81.0638 292.12 80.8857C292.298 80.7077 292.54 80.6077 292.792 80.6077H299.445C299.697 80.6077 299.939 80.7077 300.117 80.8857C300.295 81.0638 300.395 81.3053 300.395 81.5571C300.395 81.8089 300.295 82.0503 300.117 82.2284C299.939 82.4064 299.697 82.5064 299.445 82.5064Z" fill="#E4E4E4"/>
<path d="M309.898 82.7438H303.245C302.993 82.7438 302.751 82.6437 302.573 82.4657C302.395 82.2876 302.295 82.0462 302.295 81.7944C302.295 81.5426 302.395 81.3011 302.573 81.123C302.751 80.945 302.993 80.845 303.245 80.845H309.898C310.15 80.845 310.392 80.945 310.57 81.123C310.748 81.3011 310.848 81.5426 310.848 81.7944C310.848 82.0462 310.748 82.2876 310.57 82.4657C310.392 82.6437 310.15 82.7438 309.898 82.7438Z" fill="#E4E4E4"/>
<path d="M320.353 82.9811H313.7C313.448 82.9811 313.207 82.881 313.028 82.703C312.85 82.5249 312.75 82.2835 312.75 82.0317C312.75 81.7799 312.85 81.5384 313.028 81.3603C313.207 81.1823 313.448 81.0823 313.7 81.0823H320.353C320.605 81.0823 320.847 81.1823 321.025 81.3603C321.203 81.5384 321.303 81.7799 321.303 82.0317C321.303 82.2835 321.203 82.5249 321.025 82.703C320.847 82.881 320.605 82.9811 320.353 82.9811Z" fill="#E4E4E4"/>
<path d="M156.774 175.756C156.774 176.931 157.007 178.095 157.461 179.18C157.914 180.264 158.579 181.248 159.416 182.074H155.491C154.333 182.074 153.186 181.846 152.116 181.403C151.046 180.961 150.074 180.312 149.255 179.494C148.436 178.675 147.786 177.704 147.343 176.635C146.9 175.567 146.672 174.421 146.672 173.264V30.4366C146.672 29.2797 146.9 28.1341 147.343 27.0652C147.786 25.9963 148.436 25.0251 149.255 24.2071C150.074 23.389 151.046 22.7401 152.116 22.2973C153.186 21.8546 154.333 21.6267 155.491 21.6267H161.203C159.856 22.4094 158.738 23.5315 157.961 24.881C157.184 26.2304 156.775 27.7599 156.774 29.3168L156.774 175.756Z" fill="#CACACA"/>
<path d="M446.433 206H0.564165C0.414389 206 0.270899 205.94 0.165145 205.834C0.0593904 205.728 0 205.584 0 205.435C0 205.285 0.0593904 205.142 0.165145 205.036C0.270899 204.93 0.414389 204.87 0.564165 204.87H446.433C446.583 204.87 446.727 204.929 446.833 205.035C446.939 205.141 446.998 205.285 446.998 205.435C446.998 205.585 446.939 205.729 446.833 205.835C446.727 205.941 446.583 206 446.433 206Z" fill="#CACACA"/>
<path d="M155.825 63.3618C152.822 62.5216 149.807 61.7431 146.782 61.0263C136.436 58.5593 125.948 56.733 115.377 55.5578C113.585 55.0865 111.679 55.3413 110.075 56.2668C108.47 57.1923 107.296 58.7136 106.809 60.4994L101.53 79.9619C101.045 81.7559 101.293 83.6687 102.218 85.2805C103.144 86.8923 104.672 88.0712 106.467 88.5587L106.538 88.5729C113.524 89.3657 120.575 90.467 127.589 91.8721C128.216 91.9955 128.839 92.1236 129.466 92.2566C131.714 92.7218 133.955 93.2186 136.19 93.7471C137.169 93.975 138.143 94.2123 139.122 94.4544C141.755 95.1095 144.389 95.8073 147.025 96.5478C149.956 97.3738 152.89 98.2551 155.825 99.1919C156.143 99.2868 156.462 99.3865 156.775 99.4909V63.6324C156.462 63.5375 156.143 63.4473 155.825 63.3618Z" fill="white"/>
<path d="M155.825 63.3618C152.822 62.5216 149.807 61.7431 146.782 61.0263C136.436 58.5593 125.948 56.733 115.377 55.5578C113.585 55.0865 111.679 55.3413 110.075 56.2668C108.47 57.1923 107.296 58.7136 106.809 60.4994L101.53 79.9619C101.045 81.7559 101.293 83.6687 102.218 85.2805C103.144 86.8923 104.672 88.0712 106.467 88.5587L106.538 88.5729C113.524 89.3657 120.575 90.467 127.589 91.8721C128.216 91.9955 128.839 92.1236 129.466 92.2566C131.714 92.7218 133.955 93.2186 136.19 93.7471C137.169 93.975 138.143 94.2123 139.122 94.4544C141.755 95.1095 144.389 95.8073 147.025 96.5478C149.956 97.3738 152.89 98.2551 155.825 99.1919C156.143 99.2868 156.462 99.3865 156.775 99.4909V98.4893C156.457 98.3896 156.139 98.2899 155.825 98.1902C153.126 97.331 150.43 96.5225 147.737 95.7645C146.73 95.475 145.722 95.1949 144.715 94.9243C142.9 94.4354 141.089 93.967 139.284 93.5192C138.324 93.2771 137.365 93.0445 136.409 92.8214C136.337 92.8024 136.261 92.7882 136.19 92.7692C134.56 92.3847 132.927 92.0176 131.291 91.6679C130.664 91.535 130.036 91.4021 129.409 91.2739C121.844 89.7074 114.222 88.4875 106.681 87.633C105.138 87.2039 103.828 86.1834 103.035 84.7939C102.242 83.4043 102.031 81.758 102.447 80.2135L107.726 60.7462C108.148 59.1973 109.169 57.879 110.563 57.0807C111.957 56.2824 113.612 56.0693 115.163 56.4882L115.234 56.4977C125.671 57.6554 136.028 59.45 146.245 61.8713C146.35 61.8997 146.454 61.9235 146.559 61.9472C149.657 62.6877 152.746 63.4884 155.825 64.3492C156.139 64.4346 156.457 64.5248 156.775 64.6197L156.775 63.6324C156.462 63.5375 156.143 63.4473 155.825 63.3618Z" fill="#382BDA"/>
<path d="M156.775 64.1262V98.9878C156.456 98.8834 156.143 98.7837 155.824 98.684C153.016 97.7868 150.198 96.9419 147.371 96.1491C144.657 95.3801 141.934 94.657 139.202 93.9798C138.233 93.7424 137.268 93.5098 136.299 93.282C136.261 93.1111 136.223 92.9401 136.19 92.7692C136.014 91.9527 135.876 91.1269 135.771 90.2961C135.724 89.9781 135.691 89.66 135.657 89.3372C135.157 84.2516 135.854 79.1196 137.692 74.3508C139.531 69.582 142.46 65.3084 146.245 61.8713C146.383 61.7383 146.525 61.6103 146.668 61.4868C149.737 62.2179 152.789 63.009 155.824 63.8603C156.143 63.941 156.461 64.0312 156.775 64.1262Z" fill="#382BDA"/>
<path d="M125.217 78.4002L112.002 76.8432C111.538 76.7883 111.066 76.8255 110.616 76.9525C110.165 77.0796 109.744 77.294 109.377 77.5836C109.009 77.8733 108.702 78.2324 108.474 78.6404C108.245 79.0485 108.099 79.4976 108.044 79.962C107.989 80.4264 108.026 80.8971 108.154 81.3471C108.281 81.7972 108.495 82.2178 108.785 82.585C109.075 82.9522 109.435 83.2587 109.843 83.4871C110.252 83.7155 110.701 83.8613 111.166 83.9161L124.381 85.4732C125.319 85.5815 126.261 85.3139 127.002 84.7291C127.742 84.1442 128.22 83.2899 128.331 82.3534C128.442 81.417 128.176 80.4749 127.592 79.7338C127.009 78.9927 126.155 78.5131 125.217 78.4002ZM127.394 82.2452C127.311 82.9323 126.959 83.5585 126.415 83.9865C125.87 84.4145 125.178 84.6095 124.49 84.5285L111.275 82.9715C110.589 82.8881 109.964 82.5363 109.537 81.9933C109.11 81.4503 108.915 80.7604 108.996 80.0746C109.077 79.3888 109.427 78.763 109.969 78.3344C110.511 77.9058 111.201 77.7092 111.888 77.7878L125.103 79.3448C125.791 79.428 126.418 79.7797 126.847 80.3232C127.277 80.8666 127.473 81.5576 127.394 82.2452Z" fill="#382BDA"/>
<path d="M156.775 72.2909V88.8245C156.47 89.0076 156.153 89.1693 155.825 89.3087C154.119 90.0694 152.229 90.3156 150.385 90.0171C148.541 89.7185 146.825 88.8882 145.447 87.6283C145.314 87.5096 145.181 87.3815 145.053 87.2485C144.924 87.1204 144.801 86.9827 144.682 86.845C143.247 85.1991 142.418 83.1133 142.332 80.9327C142.245 78.7521 142.906 76.6073 144.206 74.853C145.505 73.0987 147.365 71.8401 149.478 71.2853C151.591 70.7305 153.83 70.9128 155.825 71.8019C156.15 71.9478 156.468 72.111 156.775 72.2909Z" fill="white"/>
<path d="M155.825 84.2581C152.085 85.0366 148.371 85.8988 144.682 86.845C143.304 87.1963 141.93 87.5604 140.562 87.937C138.927 88.3879 137.292 88.8546 135.657 89.3372C133.571 89.9543 131.489 90.5999 129.409 91.2739C128.806 91.4733 128.197 91.6727 127.589 91.8721C121.806 93.7993 116.061 95.9356 110.411 98.2663C108.613 98.7153 107.065 99.8556 106.105 101.439C105.144 103.022 104.849 104.921 105.283 106.721L110.05 126.316C110.491 128.121 111.631 129.677 113.219 130.644C114.807 131.61 116.714 131.908 118.522 131.471L118.589 131.448C127.88 127.64 137.39 124.388 147.067 121.707C149.956 120.905 152.875 120.148 155.825 119.438C156.143 119.362 156.457 119.286 156.775 119.215V84.0635C156.457 84.1204 156.143 84.1869 155.825 84.2581Z" fill="white"/>
<path d="M155.825 84.2581C152.085 85.0366 148.371 85.8988 144.682 86.845C143.304 87.1963 141.93 87.5604 140.562 87.937C138.927 88.3879 137.292 88.8546 135.657 89.3372C133.571 89.9543 131.489 90.5999 129.409 91.2739C128.806 91.4733 128.197 91.6727 127.589 91.8721C121.806 93.7993 116.061 95.9356 110.411 98.2663C108.613 98.7153 107.065 99.8556 106.105 101.439C105.144 103.022 104.849 104.921 105.283 106.721L110.05 126.316C110.491 128.121 111.631 129.677 113.219 130.644C114.807 131.61 116.714 131.908 118.522 131.471L118.589 131.448C127.88 127.64 137.39 124.388 147.067 121.707C149.956 120.905 152.875 120.148 155.825 119.438C156.143 119.362 156.457 119.286 156.775 119.215V118.237C156.457 118.313 156.143 118.389 155.825 118.465C155.587 118.522 155.345 118.579 155.107 118.636C152.313 119.314 149.549 120.033 146.815 120.791C146.744 120.81 146.668 120.833 146.596 120.852C136.968 123.527 127.506 126.769 118.261 130.56C116.702 130.925 115.062 130.661 113.697 129.824C112.332 128.988 111.352 127.647 110.972 126.093L106.21 106.498C105.832 104.937 106.089 103.291 106.925 101.92C107.76 100.548 109.106 99.5639 110.667 99.1825L110.739 99.1588C116.892 96.6144 123.156 94.3073 129.466 92.2566C130.074 92.0572 130.683 91.8625 131.291 91.6679C132.783 91.198 134.276 90.7408 135.771 90.2961C137.349 89.8262 138.925 89.3737 140.5 88.9386C140.604 88.9101 140.709 88.8816 140.813 88.8532C142.353 88.4307 143.898 88.0223 145.447 87.6283C148.883 86.7549 152.342 85.9528 155.825 85.2217C156.138 85.1553 156.457 85.0888 156.775 85.0271V84.0635C156.457 84.1204 156.143 84.1869 155.825 84.2581Z" fill="#382BDA"/>
<path d="M156.775 84.5427V118.726C156.461 118.797 156.143 118.868 155.825 118.944C152.85 119.665 149.888 120.434 146.939 121.251C146.82 121.118 146.706 120.985 146.596 120.852C143.517 117.252 141.255 113.028 139.965 108.471C138.674 103.914 138.387 99.1327 139.122 94.4544C139.146 94.2978 139.174 94.1364 139.202 93.9798C139.226 93.8279 139.255 93.6711 139.284 93.5192C139.577 91.9648 139.983 90.434 140.5 88.9386C140.562 88.7582 140.623 88.5776 140.69 88.3973C142.139 87.9985 143.594 87.6157 145.053 87.2485C148.621 86.3276 152.212 85.4905 155.825 84.7374C156.138 84.6662 156.457 84.6044 156.775 84.5427Z" fill="#382BDA"/>
<path d="M134.693 115.507C134.337 114.633 133.648 113.935 132.777 113.568C131.907 113.2 130.926 113.193 130.05 113.547L117.719 118.54C116.844 118.896 116.147 119.585 115.78 120.454C115.413 121.323 115.406 122.302 115.762 123.176C116.117 124.05 116.804 124.748 117.674 125.116C118.543 125.484 119.524 125.492 120.399 125.139L132.73 120.145C133.605 119.788 134.302 119.1 134.67 118.231C135.038 117.362 135.046 116.382 134.693 115.507ZM132.374 119.262L120.043 124.26C119.4 124.52 118.681 124.514 118.043 124.244C117.404 123.974 116.9 123.462 116.639 122.821C116.378 122.179 116.383 121.461 116.652 120.823C116.922 120.185 117.434 119.68 118.075 119.419L130.407 114.425C131.049 114.164 131.768 114.169 132.407 114.438C133.045 114.708 133.551 115.219 133.811 115.861C134.072 116.502 134.067 117.221 133.798 117.859C133.528 118.497 133.016 119.001 132.374 119.262Z" fill="#382BDA"/>
<path d="M156.775 93.2725V111.885C156.462 111.965 156.145 112.028 155.825 112.075C153.917 112.342 151.973 112.03 150.245 111.179C148.517 110.327 147.086 108.977 146.137 107.302C145.188 105.628 144.765 103.706 144.923 101.789C145.081 99.8706 145.814 98.0446 147.025 96.5478C147.134 96.4101 147.247 96.2773 147.371 96.1491C147.485 96.0162 147.609 95.888 147.737 95.7645C148.788 94.7264 150.064 93.9447 151.467 93.4803C152.87 93.016 154.361 92.8815 155.825 93.0873C156.145 93.1302 156.462 93.1921 156.775 93.2725Z" fill="white"/>
<path d="M155.824 60.8886V108.268C156.143 108.164 156.461 108.064 156.775 107.969V61.3206C156.456 61.1734 156.143 61.031 155.824 60.8886ZM155.824 60.8886V108.268C156.143 108.164 156.461 108.064 156.775 107.969V61.3206C156.456 61.1734 156.143 61.031 155.824 60.8886ZM155.824 60.8886V108.268C156.143 108.164 156.461 108.064 156.775 107.969V61.3206C156.456 61.1734 156.143 61.031 155.824 60.8886ZM155.825 64.3492L155.825 118.944C156.143 118.868 156.461 118.797 156.775 118.726L156.775 64.6197C156.457 64.5248 156.139 64.4346 155.825 64.3492ZM155.825 64.3492L155.825 118.944C156.143 118.868 156.461 118.797 156.775 118.726L156.775 64.6197C156.457 64.5248 156.139 64.4346 155.825 64.3492ZM155.825 64.3492L155.825 118.944C156.143 118.868 156.461 118.797 156.775 118.726L156.775 64.6197C156.457 64.5248 156.139 64.4346 155.825 64.3492ZM155.825 64.3492L155.825 118.944C156.143 118.868 156.461 118.797 156.775 118.726L156.775 64.6197C156.457 64.5248 156.139 64.4346 155.825 64.3492ZM155.825 64.3492L155.825 119.438C156.143 119.362 156.457 119.286 156.775 119.215L156.775 64.6197C156.457 64.5248 156.139 64.4346 155.825 64.3492ZM363.126 19.4619H165.689C163.074 19.4663 160.568 20.5059 158.718 22.3531C156.869 24.2002 155.829 26.7043 155.824 29.3166V175.756C155.829 178.367 156.87 180.871 158.719 182.717C160.568 184.564 163.075 185.602 165.689 185.605H363.126C365.74 185.602 368.246 184.563 370.095 182.717C371.943 180.87 372.983 178.367 372.986 175.756V29.3166C372.984 26.7045 371.945 24.1999 370.096 22.3524C368.248 20.5049 365.741 19.4654 363.126 19.4619ZM372.036 175.756C372.033 178.115 371.094 180.378 369.424 182.046C367.753 183.715 365.488 184.654 363.126 184.656H165.689C163.326 184.654 161.061 183.716 159.39 182.047C157.719 180.378 156.778 178.116 156.774 175.756L156.774 29.3168C156.778 26.956 157.719 24.6928 159.39 23.0235C161.061 21.3542 163.326 20.4149 165.689 20.4113H363.126C365.489 20.414 367.755 21.3533 369.425 23.0229C371.095 24.6925 372.034 26.956 372.036 29.3166V175.756ZM155.825 64.3492L155.825 118.465C156.143 118.389 156.457 118.313 156.775 118.237L156.775 64.6197C156.457 64.5248 156.139 64.4346 155.825 64.3492ZM155.825 64.3492L155.825 118.944C156.143 118.868 156.461 118.797 156.775 118.726L156.775 64.6197C156.457 64.5248 156.139 64.4346 155.825 64.3492ZM155.825 64.3492L155.825 118.944C156.143 118.868 156.461 118.797 156.775 118.726L156.775 64.6197C156.457 64.5248 156.139 64.4346 155.825 64.3492ZM155.825 64.3492L155.825 118.944C156.143 118.868 156.461 118.797 156.775 118.726L156.775 64.6197C156.457 64.5248 156.139 64.4346 155.825 64.3492ZM155.824 60.8886V108.268C156.143 108.164 156.461 108.064 156.775 107.969V61.3206C156.456 61.1734 156.143 61.031 155.824 60.8886ZM155.824 60.8886V108.268C156.143 108.164 156.461 108.064 156.775 107.969V61.3206C156.456 61.1734 156.143 61.031 155.824 60.8886Z" fill="#2F2E41"/>
<path d="M113.498 111.019C113.312 110.585 113.033 110.197 112.68 109.883C112.328 109.568 111.911 109.335 111.458 109.199C111.005 109.063 110.528 109.028 110.061 109.096C109.593 109.164 109.146 109.334 108.751 109.593L99.6414 102.601L99.2109 108.549L107.928 114.277C108.408 114.911 109.104 115.347 109.885 115.502C110.665 115.658 111.475 115.522 112.162 115.12C112.849 114.718 113.364 114.079 113.61 113.323C113.857 112.567 113.817 111.748 113.498 111.019Z" fill="#FFB6B6"/>
<path d="M76.7877 68.8197L73.7901 67.4045C73.7901 67.4045 68.9609 68.7615 71.307 75.1407L85.5054 101.564L102.84 111.702L108.244 106.919L90.8968 93.2073L76.7877 68.8197Z" fill="#3F3D56"/>
</svg>
