<svg width="461" height="277" viewBox="0 0 461 277" fill="none" xmlns="http://www.w3.org/2000/svg">
<path d="M28.9992 58.0611C23.2637 58.0611 17.657 56.3585 12.8881 53.1686C8.11921 49.9787 4.40232 45.4447 2.20744 40.1401C0.0125649 34.8355 -0.561715 28.9984 0.557223 23.367C1.67616 17.7356 4.43807 12.5629 8.49367 8.50287C12.5493 4.44287 17.7164 1.67798 23.3417 0.557827C28.967 -0.562324 34.7978 0.0125785 40.0967 2.20983C45.3956 4.40709 49.9246 8.12801 53.1111 12.9021C56.2975 17.6761 57.9983 23.2889 57.9983 29.0306C57.9896 36.7273 54.9316 44.1063 49.495 49.5487C44.0585 54.9911 36.6875 58.0524 28.9992 58.0611ZM28.9992 1.20962C23.5027 1.20962 18.1296 2.84129 13.5594 5.8983C8.98921 8.95531 5.42719 13.3003 3.32377 18.384C1.22034 23.4676 0.669993 29.0614 1.74231 34.4582C2.81462 39.8549 5.46144 44.8121 9.34806 48.703C13.2347 52.5938 18.1865 55.2435 23.5774 56.317C28.9683 57.3904 34.5562 56.8395 39.6343 54.7338C44.7124 52.6281 49.0527 49.0622 52.1064 44.4871C55.1601 39.912 56.79 34.5331 56.79 29.0306C56.7817 21.6546 53.851 14.5831 48.641 9.36743C43.4311 4.1518 36.3672 1.21798 28.9992 1.20962Z" fill="#F2F2F2"/>
<path d="M225.952 41.1267C223.084 41.1267 220.281 40.2754 217.896 38.6804C215.512 37.0854 213.653 34.8185 212.556 32.1661C211.458 29.5138 211.171 26.5953 211.731 23.7796C212.29 20.9639 213.671 18.3775 215.699 16.3475C217.727 14.3175 220.31 12.9351 223.123 12.375C225.936 11.8149 228.851 12.1024 231.5 13.201C234.15 14.2996 236.414 16.1601 238.008 18.5471C239.601 20.9342 240.451 23.7405 240.451 26.6114C240.447 30.4597 238.918 34.1492 236.2 36.8704C233.481 39.5916 229.796 41.1223 225.952 41.1267ZM225.952 13.3057C223.323 13.3057 220.753 14.0861 218.567 15.5481C216.382 17.0102 214.678 19.0882 213.672 21.5195C212.666 23.9508 212.403 26.6261 212.916 29.2072C213.429 31.7882 214.695 34.1591 216.553 36.0199C218.412 37.8807 220.78 39.148 223.359 39.6614C225.937 40.1748 228.609 39.9113 231.038 38.9042C233.467 37.8971 235.543 36.1917 237.003 34.0036C238.463 31.8155 239.243 29.243 239.243 26.6114C239.239 23.0837 237.837 19.7017 235.346 17.2073C232.854 14.7128 229.476 13.3097 225.952 13.3057Z" fill="#F2F2F2"/>
<path d="M328.053 111.889C324.827 111.889 321.673 110.931 318.99 109.137C316.308 107.342 314.217 104.792 312.983 101.808C311.748 98.8242 311.425 95.5409 312.054 92.3732C312.684 89.2056 314.237 86.2959 316.519 84.0121C318.8 81.7284 321.706 80.1731 324.871 79.5431C328.035 78.913 331.315 79.2364 334.295 80.4723C337.276 81.7083 339.823 83.8013 341.616 86.4867C343.408 89.1721 344.365 92.3293 344.365 95.559C344.36 99.8884 342.64 104.039 339.582 107.1C336.524 110.162 332.378 111.884 328.053 111.889ZM328.053 80.4389C325.066 80.4389 322.145 81.3257 319.662 82.9871C317.178 84.6485 315.242 87.0099 314.099 89.7728C312.956 92.5356 312.657 95.5758 313.239 98.5088C313.822 101.442 315.261 104.136 317.373 106.251C319.485 108.365 322.176 109.805 325.106 110.389C328.036 110.972 331.073 110.673 333.833 109.528C336.593 108.384 338.952 106.446 340.611 103.959C342.271 101.473 343.157 98.5495 343.157 95.559C343.152 91.5503 341.559 87.707 338.728 84.8725C335.896 82.0379 332.057 80.4434 328.053 80.4389Z" fill="#F2F2F2"/>
<path d="M460.396 277H324.462C324.302 277 324.148 276.936 324.035 276.823C323.922 276.709 323.858 276.556 323.858 276.395C323.858 276.235 323.922 276.081 324.035 275.968C324.148 275.854 324.302 275.79 324.462 275.79H460.396C460.556 275.79 460.71 275.854 460.823 275.968C460.936 276.081 461 276.235 461 276.395C461 276.556 460.936 276.709 460.823 276.823C460.71 276.936 460.556 277 460.396 277Z" fill="#CCCCCC"/>
<path d="M387.209 92.6843C395.404 92.6843 402.048 86.0336 402.048 77.8297C402.048 69.6257 395.404 62.9751 387.209 62.9751C379.014 62.9751 372.371 69.6257 372.371 77.8297C372.371 86.0336 379.014 92.6843 387.209 92.6843Z" fill="#FFB8B8"/>
<path d="M388.749 254.225L381.736 256.609L369.21 230.664L379.561 227.144L388.749 254.225Z" fill="#FFB8B8"/>
<path d="M376.046 256.307L389.571 251.708L392.464 260.233L370.422 267.728C370.042 266.608 369.886 265.425 369.964 264.245C370.041 263.065 370.349 261.912 370.871 260.851C371.393 259.791 372.119 258.844 373.007 258.064C373.895 257.284 374.927 256.687 376.046 256.307Z" fill="#2F2E41"/>
<path d="M404.595 268.881L397.198 269.253L392.243 240.866L403.161 240.316L404.595 268.881Z" fill="#FFB8B8"/>
<path d="M391.808 267.402L406.074 266.685L406.525 275.677L383.276 276.847C383.217 275.666 383.391 274.485 383.787 273.371C384.184 272.257 384.796 271.233 385.588 270.356C386.38 269.479 387.337 268.767 388.404 268.26C389.472 267.753 390.628 267.462 391.808 267.402Z" fill="#2F2E41"/>
<path d="M360.574 174.564C361.237 173.973 361.763 173.244 362.114 172.427C362.465 171.61 362.633 170.726 362.606 169.838C362.579 168.949 362.358 168.077 361.958 167.283C361.558 166.489 360.989 165.793 360.291 165.243L367.344 144.816L356.474 147.597L351.443 166.568C350.598 167.803 350.235 169.306 350.423 170.791C350.61 172.276 351.335 173.641 352.461 174.626C353.586 175.612 355.034 176.15 356.529 176.139C358.024 176.127 359.463 175.567 360.574 174.564Z" fill="#FFB8B8"/>
<path d="M403.904 260.322C403.808 260.322 403.712 260.317 403.617 260.307L393.576 259.242C392.959 259.18 392.382 258.907 391.942 258.469C391.503 258.032 391.227 257.456 391.16 256.839L383.4 187.583L377.785 206.535L388.254 243.78C388.361 244.159 388.384 244.557 388.322 244.947C388.26 245.336 388.114 245.707 387.895 246.034C387.675 246.361 387.388 246.637 387.051 246.842C386.715 247.047 386.339 247.176 385.948 247.221L375.769 248.392C375.121 248.464 374.469 248.301 373.93 247.934C373.391 247.566 373.001 247.017 372.831 246.387L361.709 204.473C361.618 204.128 361.595 203.769 361.642 203.415L366.641 165.797L403.925 168.79L406.621 257.517C406.632 257.881 406.57 258.244 406.439 258.584C406.307 258.924 406.109 259.233 405.855 259.495C405.602 259.757 405.298 259.965 404.963 260.107C404.628 260.249 404.268 260.322 403.904 260.322Z" fill="#2F2E41"/>
<path d="M391.015 175.223C378.524 175.223 364.382 170.391 363.525 170.095L363.278 170.009L377.369 97.6232L377.629 97.6339C383.213 97.8607 398.453 97.977 398.606 97.9782L398.88 97.9803L404.754 161.859L405.804 171.202L405.675 171.306C402.082 174.215 396.721 175.223 391.015 175.223Z" fill="#6C63FF"/>
<path d="M368.449 168.967L359.635 165.413L364.127 111.015C364.235 109.674 364.643 108.374 365.32 107.212C365.997 106.049 366.926 105.054 368.039 104.299L372.677 101.14C372.546 100.693 372.522 100.221 372.608 99.7636C372.694 99.306 372.887 98.8753 373.172 98.507C373.457 98.1387 373.825 97.8432 374.245 97.6448C374.666 97.4464 375.128 97.3508 375.593 97.3658L376.921 97.4085C377.174 97.2381 377.472 97.1481 377.776 97.1502C378.081 97.1524 378.378 97.2467 378.628 97.4207C378.878 97.5947 379.069 97.8404 379.178 98.1254C379.286 98.4104 379.305 98.7214 379.234 99.0177L378.942 104.781L368.449 168.967Z" fill="#2F2E41"/>
<path d="M364.001 159.215L352.493 158.73L356.221 134.724L359.31 112.135C359.371 111.324 359.614 110.537 360.021 109.833C360.429 109.13 360.99 108.527 361.662 108.071C362.335 107.614 363.102 107.316 363.906 107.198C364.71 107.08 365.53 107.146 366.305 107.39C367.512 107.769 368.547 108.562 369.229 109.629C369.911 110.695 370.197 111.968 370.035 113.225L366.906 137.699L364.001 159.215Z" fill="#2F2E41"/>
<path d="M382.224 169.799L382.145 169.557C382.092 169.391 376.906 152.736 385.584 132.862L389.936 111.195L393.655 97.5897C393.724 97.3466 393.85 97.123 394.021 96.9369C394.192 96.7507 394.404 96.6071 394.64 96.5174C394.918 96.4212 395.218 96.4089 395.502 96.4821C395.787 96.5553 396.043 96.7107 396.24 96.929C398.833 96.1673 401.619 96.4462 404.009 97.7067L409.232 100.461C410.393 101.073 411.319 102.054 411.864 103.25C412.408 104.445 412.541 105.788 412.242 107.067L405.103 137.563L408.573 166.048L382.224 169.799Z" fill="#2F2E41"/>
<path d="M389.824 158.058C390.707 158.154 391.6 158.055 392.441 157.768C393.281 157.481 394.049 157.013 394.689 156.397C395.33 155.781 395.827 155.032 396.147 154.202C396.467 153.373 396.602 152.483 396.541 151.596L412.705 139.609L407.055 136.927L389.625 145.915C388.143 146.116 386.786 146.854 385.812 147.99C384.837 149.125 384.312 150.579 384.337 152.075C384.361 153.572 384.934 155.008 385.945 156.11C386.956 157.213 388.336 157.906 389.824 158.058Z" fill="#FFB8B8"/>
<path d="M399.958 152.692L394.499 142.489L407.963 133.618L401.393 110.025C401.129 109.08 401.064 108.092 401.199 107.12C401.335 106.149 401.669 105.216 402.181 104.38C402.693 103.544 403.372 102.823 404.175 102.261C404.978 101.699 405.888 101.309 406.848 101.115C408.545 100.777 410.307 101.066 411.807 101.93C413.307 102.793 414.443 104.172 415.004 105.811L423.87 131.899C424.053 132.437 424.063 133.018 423.899 133.562C423.735 134.106 423.406 134.584 422.957 134.931L399.958 152.692Z" fill="#2F2E41"/>
<path d="M388.259 80.9804C386.481 81.2121 385.139 79.3902 384.517 77.706C383.894 76.0218 383.42 74.0611 381.874 73.1514C379.761 71.9084 377.057 73.4033 374.641 72.9932C371.913 72.5302 370.138 69.6352 369.999 66.8682C369.86 64.1012 370.96 61.4398 372.04 58.8887L372.416 62.0592C372.366 60.9846 372.592 59.9151 373.072 58.9529C373.553 57.9906 374.272 57.168 375.161 56.5635L374.675 61.2158C374.779 60.5739 375.008 59.9588 375.349 59.4058C375.69 58.8527 376.138 58.3726 376.665 57.993C377.192 57.6133 377.789 57.3417 378.421 57.1936C379.054 57.0455 379.709 57.0239 380.35 57.13L380.273 59.902C383.425 59.5268 386.604 59.1511 389.765 59.437C392.926 59.7228 396.109 60.7239 398.504 62.8079C402.088 65.9251 403.397 71.058 402.957 75.7902C402.518 80.5224 400.567 84.9679 398.533 89.2623C398.021 90.3428 397.313 91.562 396.127 91.6997C395.061 91.8233 394.085 90.9312 393.754 89.9093C393.499 88.8608 393.508 87.7651 393.783 86.7214C394.082 85.1263 394.46 83.496 394.179 81.8977C393.897 80.2994 392.748 78.7199 391.139 78.524C389.529 78.3282 387.882 80.1698 388.656 81.5961L388.259 80.9804Z" fill="#2F2E41"/>
<path d="M194.119 244.085L188.343 241.65L184.381 212.663H131.614L127.319 241.532L122.152 244.118C121.904 244.242 121.706 244.446 121.589 244.696C121.472 244.947 121.443 245.23 121.506 245.499C121.57 245.769 121.722 246.009 121.939 246.18C122.156 246.352 122.424 246.446 122.701 246.446H193.643C193.926 246.446 194.201 246.347 194.42 246.168C194.639 245.988 194.79 245.738 194.846 245.46C194.902 245.182 194.86 244.893 194.728 244.643C194.595 244.392 194.38 244.195 194.119 244.085Z" fill="#E6E6E6"/>
<path d="M287.888 216.52H28.6856C27.3257 216.517 26.0225 215.974 25.0619 215.01C24.1013 214.046 23.5619 212.74 23.5619 211.379V174.788H293.012V211.379C293.012 212.74 292.473 214.046 291.512 215.01C290.552 215.974 289.248 216.517 287.888 216.52Z" fill="#CCCCCC"/>
<path d="M293.283 192.082H23.3253V35.5184C23.3272 33.8753 23.98 32.3001 25.1406 31.1383C26.3012 29.9765 27.8747 29.323 29.516 29.3212H287.092C288.734 29.323 290.307 29.9765 291.468 31.1383C292.628 32.3001 293.281 33.8753 293.283 35.5184V192.082Z" fill="#3F3D56"/>
<path d="M277.16 180.718H39.4488C38.1835 180.717 36.9704 180.213 36.0756 179.318C35.1809 178.422 34.6776 177.208 34.6762 175.941V45.4622C34.6776 44.1955 35.1809 42.981 36.0756 42.0853C36.9703 41.1896 38.1834 40.6857 39.4488 40.6843H277.16C278.425 40.6857 279.638 41.1896 280.533 42.0853C281.428 42.981 281.931 44.1955 281.932 45.4622V175.941C281.931 177.208 281.428 178.422 280.533 179.318C279.638 180.213 278.425 180.717 277.16 180.718Z" fill="white"/>
<path d="M274.922 246.748H44.7415C44.5812 246.748 44.4275 246.684 44.3142 246.571C44.2009 246.457 44.1373 246.304 44.1373 246.143C44.1373 245.983 44.2009 245.829 44.3142 245.715C44.4275 245.602 44.5812 245.538 44.7415 245.538H274.922C275.082 245.538 275.236 245.602 275.349 245.715C275.463 245.829 275.526 245.983 275.526 246.143C275.526 246.304 275.463 246.457 275.349 246.571C275.236 246.684 275.082 246.748 274.922 246.748Z" fill="#CCCCCC"/>
<path d="M254.828 164.507H61.7807C61.6205 164.507 61.4668 164.443 61.3535 164.329C61.2402 164.216 61.1766 164.062 61.1766 163.902V71.2741C61.1766 71.1137 61.2402 70.9599 61.3535 70.8465C61.4668 70.733 61.6205 70.6693 61.7807 70.6693C61.941 70.6693 62.0946 70.733 62.2079 70.8465C62.3212 70.9599 62.3849 71.1137 62.3849 71.2741V163.297H254.828C254.988 163.297 255.142 163.361 255.255 163.474C255.368 163.588 255.432 163.741 255.432 163.902C255.432 164.062 255.368 164.216 255.255 164.329C255.142 164.443 254.988 164.507 254.828 164.507Z" fill="#3F3D56"/>
<path d="M103.026 157.854H85.468C84.9926 157.853 84.5368 157.664 84.2006 157.327C83.8643 156.991 83.6752 156.534 83.6746 156.059V131.828C83.6752 131.352 83.8643 130.896 84.2006 130.559C84.5368 130.223 84.9926 130.033 85.468 130.033H103.026C103.502 130.033 103.958 130.223 104.294 130.559C104.63 130.896 104.819 131.352 104.82 131.828V156.059C104.819 156.534 104.63 156.991 104.294 157.327C103.958 157.664 103.502 157.853 103.026 157.854Z" fill="#6C63FF"/>
<path d="M135.046 157.854H117.488C117.012 157.853 116.557 157.664 116.22 157.327C115.884 156.991 115.695 156.535 115.695 156.059V108.845C115.695 108.369 115.884 107.913 116.22 107.577C116.557 107.24 117.012 107.051 117.488 107.05H135.046C135.522 107.051 135.978 107.24 136.314 107.577C136.65 107.913 136.839 108.369 136.84 108.845V156.059C136.839 156.535 136.65 156.991 136.314 157.327C135.978 157.664 135.522 157.853 135.046 157.854Z" fill="#6C63FF"/>
<path d="M167.066 157.854H149.508C149.032 157.853 148.577 157.664 148.24 157.327C147.904 156.991 147.715 156.534 147.714 156.059V131.828C147.715 131.352 147.904 130.896 148.24 130.559C148.577 130.223 149.032 130.033 149.508 130.033H167.066C167.542 130.033 167.997 130.223 168.334 130.559C168.67 130.896 168.859 131.352 168.86 131.828V156.059C168.859 156.534 168.67 156.991 168.334 157.327C167.997 157.664 167.542 157.853 167.066 157.854Z" fill="#6C63FF"/>
<path d="M199.086 157.854H181.528C181.063 157.864 180.613 157.689 180.277 157.368C179.941 157.047 179.746 156.605 179.734 156.14V99.6921C179.746 99.227 179.941 98.7854 180.277 98.4642C180.613 98.1429 181.063 97.9682 181.528 97.9782H199.086C199.551 97.9682 200 98.1429 200.337 98.4642C200.673 98.7854 200.868 99.227 200.88 99.6921V156.14C200.868 156.605 200.673 157.047 200.337 157.368C200 157.689 199.551 157.864 199.086 157.854Z" fill="#6C63FF"/>
<path d="M231.106 157.854H213.548C213.072 157.853 212.616 157.664 212.28 157.327C211.944 156.991 211.755 156.534 211.754 156.059V83.4437C211.755 82.9677 211.944 82.5114 212.28 82.1749C212.616 81.8383 213.072 81.649 213.548 81.6485H231.106C231.581 81.649 232.037 81.8383 232.374 82.1749C232.71 82.5114 232.899 82.9677 232.899 83.4437V156.059C232.899 156.534 232.71 156.991 232.374 157.327C232.037 157.664 231.581 157.853 231.106 157.854Z" fill="#6C63FF"/>
<path d="M94.2473 122.775C96.2492 122.775 97.8721 121.15 97.8721 119.146C97.8721 117.142 96.2492 115.517 94.2473 115.517C92.2453 115.517 90.6224 117.142 90.6224 119.146C90.6224 121.15 92.2453 122.775 94.2473 122.775Z" fill="#3F3D56"/>
<path d="M126.267 99.1878C128.269 99.1878 129.892 97.5631 129.892 95.559C129.892 93.5548 128.269 91.9302 126.267 91.9302C124.265 91.9302 122.642 93.5548 122.642 95.559C122.642 97.5631 124.265 99.1878 126.267 99.1878Z" fill="#3F3D56"/>
<path d="M158.287 122.775C160.289 122.775 161.912 121.15 161.912 119.146C161.912 117.142 160.289 115.517 158.287 115.517C156.285 115.517 154.662 117.142 154.662 119.146C154.662 121.15 156.285 122.775 158.287 122.775Z" fill="#3F3D56"/>
<path d="M190.307 87.6965C192.309 87.6965 193.932 86.0719 193.932 84.0677C193.932 82.0636 192.309 80.4389 190.307 80.4389C188.305 80.4389 186.682 82.0636 186.682 84.0677C186.682 86.0719 188.305 87.6965 190.307 87.6965Z" fill="#3F3D56"/>
<path d="M222.327 74.3909C224.329 74.3909 225.952 72.7662 225.952 70.762C225.952 68.7579 224.329 67.1332 222.327 67.1332C220.325 67.1332 218.702 68.7579 218.702 70.762C218.702 72.7662 220.325 74.3909 222.327 74.3909Z" fill="#3F3D56"/>
<path d="M158.363 119.959L126.267 95.8928L94.6098 119.63L93.8848 118.662L126.267 94.3814L158.211 118.333L189.954 83.5585L190.081 83.5065L222.101 70.5915L222.553 71.7134L190.66 84.577L158.363 119.959Z" fill="#3F3D56"/>
</svg>
