<svg width="495" height="330" viewBox="0 0 495 330" fill="none" xmlns="http://www.w3.org/2000/svg">
<path d="M372.307 12.7496C368.567 14.8535 362.531 6.5315 361.164 10.6022C359.796 14.6728 363.109 31.0978 364.818 35.037C365.667 36.995 366.868 38.7858 367.702 40.7507C368.535 42.7156 368.982 44.9748 368.245 46.9781C366.963 50.4643 362.731 51.8825 360.633 54.9467C358.189 58.5154 359.176 63.3222 360.319 67.4952C361.304 71.0921 362.353 74.7215 364.248 77.9321C366.144 81.1427 369.002 83.9383 372.572 85.0006C377.119 86.353 381.978 84.7457 386.361 82.9311C390.575 81.1865 394.744 79.2087 398.328 76.3861C401.912 73.5636 404.902 69.8171 406.155 65.4275C407.726 59.9213 406.413 53.8954 403.692 48.8583C400.971 43.8212 396.946 39.6247 392.816 35.6628C385.861 28.9902 378.458 22.7842 370.676 17.1001L372.307 12.7496Z" fill="#2F2E41"/>
<path d="M427.923 295.279L424.393 328.27L424.232 329.779L384.288 329.623L384.077 328.109L379.848 297.879L427.923 295.279Z" fill="#FFB6B6"/>
<path d="M366.85 328.044C366.85 328.542 366.845 329.045 366.839 329.552L325.373 329.392L325.238 327.878L322.681 299.181L365.559 293.976C365.559 293.976 366.94 309.197 366.85 328.044Z" fill="#FFB6B6"/>
<path d="M362.234 71.192C368.821 79.4989 380.434 81.9062 389.806 76.9616C403.184 69.9036 421.449 61.8145 424.677 68.2782C429.874 78.6851 429.874 88.7847 429.874 88.7847L435.071 210.072C435.071 210.072 437.67 259.044 405.187 254.721C372.703 250.398 322.029 268.61 322.029 268.61L327.206 214.879L341.027 194.621L346.626 136.5L336.972 89.7424L348.666 84.5389C348.666 84.5389 349.965 75.4329 353.863 75.4329C357.761 75.4329 358.702 66.6854 362.13 71.0592C362.164 71.1029 362.199 71.1472 362.234 71.192Z" fill="#6C63FF"/>
<path d="M432.705 329.814L424.232 329.779L384.288 329.623L379.089 329.603L378.788 328.089L370.752 287.475L369.496 328.054L369.451 329.563L366.839 329.552L325.373 329.392L322.4 329.376L322.39 327.868L322.029 268.608L322.034 268.603L346.066 219.827L411.691 210.731L412.695 210.59L430.525 208.121L430.997 234.546L431.027 236.054L432.675 328.3L432.705 329.814Z" fill="#2F2E41"/>
<path d="M381.648 67.3339C396.635 67.3339 408.784 55.1707 408.784 40.1666C408.784 25.1625 396.635 12.9993 381.648 12.9993C366.662 12.9993 354.513 25.1625 354.513 40.1666C354.513 55.1707 366.662 67.3339 381.648 67.3339Z" fill="#FFB6B6"/>
<path d="M412.238 82.7143C405.904 91.7595 402.665 102.935 403.179 113.97C395.999 110.487 391.152 103.129 389.502 95.3133C387.853 87.4974 389.111 79.2908 391.762 71.756C391.789 71.6807 391.815 71.6054 391.842 71.5302C395.867 60.2206 392.127 47.5805 382.406 40.5501C375.849 35.8079 370.162 29.8586 365.798 23.039C363.334 19.1891 361.239 14.3596 363.08 10.1749C364.776 6.3189 369.158 4.51666 373.191 3.31076C382.398 0.557168 392.182 -1.00966 401.632 0.73273C411.083 2.47512 420.181 7.91642 424.648 16.435C429.114 24.9536 427.944 36.5794 420.694 42.8944C422.981 43.6346 424.599 46.0611 424.405 48.4592C424.21 50.8572 422.223 52.9911 419.848 53.3528C421.398 53.2978 422.313 55.3417 421.76 56.7925C421.207 58.2434 419.782 59.1447 418.422 59.8915C416.485 60.9553 414.337 62.0676 414.329 64.8533C414.326 65.9703 414.724 67.0543 415.374 67.9621C416.949 70.1621 419.492 71.1528 421.94 72.083C416.762 73.6098 412.633 78.2432 411.706 83.5671L412.238 82.7143Z" fill="#2F2E41"/>
<path d="M296.527 72.2045C295.787 64.4263 299.195 57.7389 304.14 57.2679C309.084 56.7969 313.691 62.7201 314.431 70.5012C314.769 73.6053 314.359 76.7454 313.237 79.6587L315.959 112.655L300.466 113.604L299.427 80.9745C297.775 78.325 296.78 75.3177 296.527 72.2045Z" fill="#FFB6B6"/>
<path d="M380.937 87.8575C380.937 87.8575 355.625 72.9507 350.414 75.1867C345.203 77.4227 319.891 115.435 319.891 115.435L317.564 108.498L299.79 110.218C299.79 110.218 289.368 158.665 312.446 154.193C335.525 149.721 373.493 107.982 373.493 107.982L380.937 87.8575Z" fill="#6C63FF"/>
<path d="M146.101 167.953C146.101 167.953 160.393 159.564 164.241 167.342C168.09 175.121 203.647 267.913 203.647 267.913L180.734 272.379L146.101 167.953Z" fill="#6C63FF"/>
<path d="M114.93 112.521L115.603 113.481C113.092 114.933 112.721 118.595 113.899 121.253C115.077 123.91 117.356 125.88 119.328 128.015C121.3 130.15 123.098 132.794 122.915 135.697C122.71 138.962 120.051 141.65 119.681 144.902C119.145 149.636 123.548 153.79 123.33 158.551C123.165 162.187 120.372 165.107 117.602 167.466C115.434 169.315 113.074 171.173 111.61 173.558C111.209 174.214 110.874 174.916 110.629 175.666C109.536 179.051 110.567 182.741 111.954 186.014C113.337 189.288 115.099 192.486 115.532 196.015C115.96 199.543 114.631 203.616 111.387 205.063C117.847 204.509 124.151 202.254 129.499 198.587C129.981 198.257 130.45 197.917 130.914 197.569C138.497 191.852 143.824 183.594 148.95 175.545C149.374 174.884 149.793 174.219 150.217 173.558C151.354 171.767 152.496 169.98 153.638 168.189C156.895 163.071 160.192 157.876 161.967 152.079C163.6 146.733 163.877 141.083 164.546 135.531C164.872 132.812 165.3 130.1 165.38 127.363C165.509 123.151 164.791 118.921 163.328 114.968C161.896 111.083 159.746 107.461 156.975 104.379C154.138 101.221 150.667 98.653 146.849 96.8039C143.15 95.0129 139.127 93.9008 135.027 93.5926C133.653 93.4899 132.283 93.472 130.914 93.5346C125.511 93.7579 120.171 95.1246 114.979 96.8039C111.16 98.653 107.689 101.221 104.852 104.379C102.082 107.461 99.9313 111.083 98.4993 114.968C103.478 112.307 109.393 111.391 114.93 112.521Z" fill="#2F2E41"/>
<path d="M153.646 161.382L128.031 151.325L127.383 161.382L104.928 164.902L94.3805 212.672L103.923 242.34L175.243 244.351L172.732 234.294C172.732 234.294 184.284 221.22 177.252 200.101L176.471 194.726C174.43 180.673 166.001 168.359 153.646 161.382Z" fill="#6C63FF"/>
<path d="M139.39 150.873C151.955 150.873 162.141 140.675 162.141 128.095C162.141 115.515 151.955 105.317 139.39 105.317C126.824 105.317 116.638 115.515 116.638 128.095C116.638 140.675 126.824 150.873 139.39 150.873Z" fill="#A0616A"/>
<path d="M96.4472 127.363C96.5275 130.1 96.9558 132.811 97.2814 135.531C97.9506 141.083 98.2272 146.733 99.86 152.079C101.635 157.876 104.932 163.071 108.189 168.189C109.331 169.98 110.473 171.767 111.61 173.558C112.034 174.219 112.454 174.884 112.877 175.545C118.003 183.594 123.33 191.852 130.914 197.569C131.378 197.917 131.846 198.257 132.328 198.587C137.677 202.254 143.98 204.509 150.44 205.063C147.197 203.616 145.867 199.543 146.296 196.015C146.728 192.486 148.49 189.288 149.873 186.014C151.261 182.741 152.291 179.051 151.198 175.666C150.953 174.916 150.618 174.214 150.217 173.558C148.754 171.173 146.394 169.315 144.226 167.466C141.455 165.108 138.663 162.187 138.497 158.551C138.279 153.79 135.241 155.384 134.706 150.65C134.335 147.399 130.004 141.856 129.798 138.591C129.615 135.688 131.395 128.667 133.367 126.532C135.339 124.397 133.528 118.023 134.706 115.366C135.883 112.709 148.736 114.933 146.224 113.481L146.898 112.521C152.434 111.391 158.349 112.307 163.328 114.968C164.412 115.545 165.447 116.201 166.428 116.943C168.797 112.61 165.987 107.112 162.164 103.99C158.421 100.926 153.808 99.1577 149.231 97.5989C148.441 97.3309 147.647 97.063 146.849 96.8039C141.656 95.1245 136.316 93.7579 130.914 93.5346C129.544 93.472 128.175 93.4899 126.801 93.5926C122.701 93.9008 118.677 95.0129 114.979 96.8039C111.16 98.653 107.689 101.221 104.852 104.379C102.082 107.461 99.9313 111.083 98.4993 114.968C97.0361 118.921 96.3178 123.151 96.4472 127.363Z" fill="#2F2E41"/>
<path d="M493.593 309.454L461.881 242.742C459.515 237.764 454.427 234.546 448.918 234.546H48.3612C46.8392 234.546 45.3577 234.782 43.9613 235.234C40.4306 236.366 37.4271 238.84 35.6492 242.239L1.65661 307.116C-0.693898 311.596 -0.538169 316.866 2.07352 321.2C4.68018 325.54 9.25576 328.145 14.3135 328.165L322.4 329.376L325.373 329.392L366.839 329.552L369.451 329.563L379.089 329.603L384.288 329.623L424.232 329.779L432.705 329.814L480.575 330H480.635C485.577 330 490.102 327.506 492.754 323.327C495.416 319.129 495.727 313.939 493.593 309.454Z" fill="white"/>
<path d="M493.593 309.454L461.881 242.742C459.515 237.764 454.427 234.546 448.918 234.546H48.3612C46.8392 234.546 45.3577 234.782 43.9613 235.234C40.4306 236.366 37.4271 238.84 35.6492 242.239L1.65661 307.116C-0.693898 311.596 -0.538169 316.866 2.07352 321.2C4.68018 325.54 9.25576 328.145 14.3135 328.165L322.4 329.376L325.373 329.392L366.839 329.552L369.451 329.563L379.089 329.603L384.288 329.623L424.232 329.779L432.705 329.814L480.575 330H480.635C485.577 330 490.102 327.506 492.754 323.327C495.416 319.129 495.727 313.939 493.593 309.454ZM491.484 322.518C489.108 326.264 485.06 328.491 480.635 328.491H480.58L432.675 328.3L424.393 328.27L384.077 328.109L378.788 328.089L369.496 328.054L366.85 328.044L325.238 327.878L322.39 327.868L14.3184 326.656C9.79319 326.636 5.69474 324.308 3.36434 320.426C1.02879 316.544 0.888268 311.827 2.99268 307.815L36.9851 242.943C38.2106 240.605 40.0789 238.754 42.3141 237.563C44.1372 236.587 46.2065 236.054 48.3612 236.054H448.918C453.85 236.054 458.4 238.935 460.52 243.391L492.232 310.098C494.145 314.12 493.864 318.762 491.484 322.518Z" fill="#3F3D56"/>
<path d="M142.346 282.818L218.186 255.162L180.266 239.893L104.677 259.688L142.346 282.818Z" fill="#F2F2F2"/>
<path d="M257.864 241.082L249.325 268.236L349.274 274.27L340.735 243.597L257.864 241.082Z" fill="#F2F2F2"/>
<path d="M140.049 245.727C147.076 246.425 152.413 250.621 151.969 255.098C151.524 259.575 145.468 262.638 138.438 261.939C135.627 261.699 132.913 260.787 130.525 259.282L100.788 255.949L102.647 242.011L131.766 246.776C134.403 245.769 137.244 245.409 140.049 245.727Z" fill="#A0616A"/>
<path d="M110.201 167.668L104.928 164.902C104.928 164.902 96.6406 165.153 91.1159 170.685C85.5911 176.216 40.8906 239.574 40.8906 239.574C40.8906 239.574 29.841 256.671 57.4649 259.185C85.0888 261.699 115.726 261.699 115.726 261.699L118.237 241.082L76.5505 236.557L105.742 197.838L110.201 167.668Z" fill="#6C63FF"/>
<path d="M266.919 160.97C261.852 162.473 256.498 163.323 250.968 163.403C250.641 163.413 250.315 163.419 249.988 163.419C244.986 163.419 240.129 162.8 235.483 161.633L235.604 160.442L238.306 134.349L238.477 132.68L235.971 125.152H266.718L266.226 132.509L266.045 135.189L266.312 136.039L273.092 157.671L273.393 158.637C271.294 159.537 269.134 160.316 266.919 160.97Z" fill="#6C63FF"/>
<path d="M235.483 161.633C228.186 159.808 221.415 156.63 215.454 152.391C212.997 151.059 210.612 149.616 208.327 148.087L209.457 147.519L237.849 133.303L238.306 134.349L250.531 162.408L250.968 163.403C250.641 163.413 250.315 163.419 249.988 163.419C244.986 163.419 240.129 162.8 235.483 161.633Z" fill="#2F2E41"/>
<path d="M297.341 140.051C297.215 140.222 297.085 140.388 296.954 140.554C294.835 143.249 292.484 145.754 289.943 148.042L289.852 141.756C289.852 141.756 291.881 140.273 294.388 139.885C294.985 139.79 295.613 139.76 296.246 139.83C296.612 139.865 296.974 139.936 297.341 140.051Z" fill="#2F2E41"/>
<path d="M289.943 148.042C285.081 152.431 279.496 156.032 273.393 158.637C271.294 159.537 269.134 160.316 266.919 160.97L266.312 136.039L266.226 132.509L294.388 139.885L295.884 140.278L296.954 140.554C294.835 143.249 292.484 145.754 289.943 148.042Z" fill="#2F2E41"/>
<path d="M251.634 116.995C264.092 116.995 274.19 106.884 274.19 94.4123C274.19 81.9403 264.092 71.8297 251.634 71.8297C239.177 71.8297 229.078 81.9403 229.078 94.4123C229.078 106.884 239.177 116.995 251.634 116.995Z" fill="#A0616A"/>
<path d="M266.896 159.929C261.703 161.498 256.213 162.358 250.533 162.408L250.97 163.403C256.5 163.323 261.854 162.473 266.921 160.97L266.896 159.929ZM209.459 147.519C197.882 136.808 190.534 121.582 190.238 104.667C178.419 118.364 190.162 135.943 208.329 148.087C210.614 149.616 212.999 151.059 215.456 152.391C213.351 150.898 211.347 149.269 209.459 147.519ZM296.76 66.3651C285.801 52.5872 268.91 43.7422 249.99 43.7422C217.038 43.7422 190.222 70.5839 190.222 103.58C190.222 103.942 190.227 104.304 190.238 104.667C190.549 104.299 190.88 103.937 191.227 103.58C207.801 86.4838 217.59 44.7479 249.99 44.7479C268.93 44.7479 285.806 53.7639 296.559 67.7378C304.204 77.6639 308.754 90.0992 308.754 103.58C308.754 105.536 308.659 107.472 308.468 109.378C308.347 110.645 308.181 111.902 307.976 113.144C306.479 122.271 302.878 130.704 297.689 137.909C297.222 138.563 296.74 139.202 296.248 139.83C296.127 139.981 296.012 140.132 295.886 140.278C294.058 142.566 292.064 144.713 289.925 146.699C285.018 151.265 279.332 154.996 273.094 157.671C271.085 158.541 269.016 159.295 266.896 159.929C261.703 161.498 256.213 162.358 250.533 162.408C250.352 162.413 250.171 162.413 249.99 162.413C245.44 162.413 240.563 161.714 235.606 160.442C228.836 158.707 221.909 155.911 215.456 152.391C221.417 156.63 228.188 159.808 235.485 161.633C240.131 162.8 244.988 163.419 249.99 163.419C250.317 163.419 250.643 163.414 250.97 163.403C256.5 163.323 261.854 162.473 266.921 160.97C269.136 160.316 271.296 159.537 273.395 158.637C279.498 156.032 285.083 152.431 289.945 148.042C292.486 145.754 294.837 143.25 296.956 140.554C297.087 140.388 297.217 140.222 297.343 140.051C297.514 139.83 297.684 139.604 297.85 139.378C303.531 131.8 307.448 122.829 309.005 113.079C309.206 111.827 309.367 110.56 309.487 109.278C309.668 107.402 309.759 105.501 309.759 103.58C309.759 89.526 304.897 76.5879 296.76 66.3651Z" fill="#E6E6E6"/>
<path d="M231.432 106.426C227.373 102.592 224.543 97.511 227.375 86.6789C227.586 85.8724 227.021 85.0067 226.475 84.3771C225.929 83.7475 224.9 83.4549 224.252 83.9788C224.714 82.6189 231.034 77.7616 231.495 76.4017C230.957 77.1172 226.847 78.6511 226.518 77.818C226.188 76.9849 226.477 76.0489 226.766 75.201L228.492 70.1471C228.926 68.8758 230.637 70.3947 231.495 69.3619C233.033 67.5118 231.278 65.5616 233.626 65.0429C241.308 63.3452 249.453 61.8285 256.916 64.3203C260.177 65.4087 263.141 67.2169 266.074 69.0101L271.441 72.2914C274.52 74.1737 277.864 76.4067 278.707 79.9183L273.072 77.9019C274.327 80.5778 275.593 83.2868 276.168 86.1867C276.742 89.0866 275.189 100.006 273.685 102.549C272.363 104.784 271.428 98.7822 270.993 101.343C271.491 96.313 269.229 91.0956 265.22 88.0239C264.398 87.3939 263.46 86.788 263.094 85.8182C262.687 84.7365 263.096 83.4359 262.539 82.4231C261.846 81.1639 260.038 81.0438 258.69 81.5381C257.342 82.0323 256.163 82.9613 254.766 83.2942C251.063 84.1768 247.695 80.6717 243.898 80.4081C240.28 80.157 237.045 82.992 235.54 86.2952C234.036 89.5984 229.875 88.8833 229.486 92.4927C229.097 96.102 234.778 103.245 232.5 106.069L231.432 106.426Z" fill="#2F2E41"/>
<path d="M228.584 140.097L226.902 138.784L226.51 138.483C226.133 138.186 225.636 138.085 225.169 138.201L223.2 138.694C222.994 138.744 222.773 138.684 222.623 138.533L220.413 136.32C220.262 136.17 220.202 135.948 220.252 135.742L220.744 133.771C220.865 133.303 220.759 132.811 220.463 132.428L218.851 130.352C218.811 130.301 218.765 130.251 218.72 130.206C218.107 129.592 217.118 129.592 216.505 130.206L215.576 131.136C214.908 131.8 214.617 132.801 214.943 133.726C215.777 136.099 217.133 138.256 218.916 140.031C219.549 140.665 220.227 141.248 220.945 141.771C222.251 142.717 223.687 143.471 225.214 144.009C226.143 144.336 227.138 144.044 227.801 143.38L228.73 142.445C229.398 141.781 229.328 140.68 228.584 140.097ZM228.052 141.771L227.123 142.701C226.686 143.134 226.073 143.295 225.531 143.104C224.25 142.656 223.04 142.043 221.919 141.278C221.086 140.72 220.307 140.072 219.594 139.353C217.917 137.678 216.636 135.647 215.847 133.409C215.656 132.866 215.817 132.252 216.249 131.815L217.183 130.885C217.198 130.865 217.218 130.85 217.238 130.834C217.505 130.628 217.886 130.674 218.092 130.94L219.705 133.017C219.82 133.163 219.86 133.359 219.815 133.54L219.323 135.511C219.187 136.044 219.348 136.612 219.735 136.999L221.945 139.212C222.331 139.604 222.899 139.76 223.431 139.624L225.4 139.131C225.581 139.086 225.777 139.126 225.922 139.242L225.948 139.262L227.997 140.856C228.017 140.871 228.037 140.891 228.052 140.906C228.293 141.148 228.293 141.53 228.052 141.771Z" fill="#CCCCCC"/>
<path d="M248.191 135.552C248.439 135.552 248.64 135.753 248.64 136.002V136.902C248.64 138.89 250.25 140.501 252.236 140.501C254.221 140.501 255.831 138.89 255.831 136.902V136.002C255.831 135.753 256.032 135.552 256.28 135.552C256.529 135.552 256.73 135.753 256.73 136.002V136.902C256.73 139.213 254.981 141.148 252.685 141.379V143.201H255.382C255.63 143.201 255.831 143.402 255.831 143.651C255.831 143.899 255.63 144.101 255.382 144.101H249.09C248.842 144.101 248.64 143.899 248.64 143.651C248.64 143.402 248.842 143.201 249.09 143.201H251.786V141.379C249.49 141.148 247.742 139.213 247.742 136.902V136.002C247.742 135.753 247.943 135.552 248.191 135.552Z" fill="#CCCCCC"/>
<path d="M252.236 129.703C250.749 129.703 249.538 130.91 249.538 132.403V136.904C249.538 138.392 250.749 139.599 252.236 139.599C253.727 139.599 254.933 138.392 254.933 136.904V132.403C254.933 130.91 253.727 129.703 252.236 129.703ZM254.034 136.904C254.034 137.894 253.23 138.704 252.236 138.704C251.241 138.704 250.437 137.894 250.437 136.904V132.403C250.437 131.408 251.241 130.603 252.236 130.603C253.23 130.603 254.034 131.408 254.034 132.403V136.904Z" fill="#CCCCCC"/>
<path d="M283.34 129.879C281.929 129.401 280.397 130.156 279.92 131.569L280.678 132.328C280.728 131.372 281.522 130.623 282.481 130.628C283.471 130.633 284.274 131.443 284.269 132.433V135.923L285.168 136.823V132.433C285.168 131.282 284.43 130.251 283.34 129.879ZM285.62 143.234H282.923V141.409C283.712 141.334 284.465 141.047 285.108 140.579L284.46 139.931C283.893 140.313 283.209 140.534 282.471 140.534C280.487 140.534 278.875 138.92 278.875 136.934V136.034C278.875 135.953 278.855 135.873 278.81 135.808C278.734 135.677 278.594 135.586 278.428 135.586C278.348 135.586 278.272 135.606 278.207 135.647C278.071 135.722 277.976 135.868 277.976 136.034V136.934C277.976 139.242 279.729 141.178 282.024 141.409V143.234H279.327C279.076 143.234 278.875 143.436 278.875 143.682C278.875 143.933 279.076 144.135 279.327 144.135H285.62C285.866 144.135 286.067 143.933 286.067 143.682C286.067 143.436 285.866 143.234 285.62 143.234ZM286.519 135.586C286.268 135.586 286.067 135.787 286.067 136.034V136.934C286.067 137.175 286.042 137.417 285.997 137.653L286.042 137.698L286.725 138.387C286.775 138.231 286.821 138.075 286.856 137.914C286.931 137.598 286.966 137.271 286.966 136.934V136.034C286.966 135.787 286.765 135.586 286.519 135.586Z" fill="#CCCCCC"/>
<path d="M277.398 130.316L276.761 130.955L287.549 141.751L288.182 141.113L277.398 130.316ZM283.134 138.608C282.215 138.975 281.17 138.523 280.804 137.598C280.718 137.386 280.673 137.16 280.673 136.934V136.144L279.774 135.244V136.934C279.774 138.422 280.984 139.634 282.471 139.634C282.938 139.634 283.4 139.513 283.807 139.282L283.134 138.608Z" fill="#CCCCCC"/>
<path d="M404.285 235.54C398.322 239.973 391.205 240.486 388.388 236.687C385.571 232.888 388.121 226.216 394.086 221.782C396.444 219.979 399.2 218.767 402.122 218.248L427.621 199.786L436.02 211.951L409.991 228.859C408.649 231.511 406.692 233.802 404.285 235.54Z" fill="#FFB6B6"/>
<path d="M420.349 85.1894C420.349 85.1894 440.918 85.8398 444.816 100.149C448.714 114.459 456.51 144.959 455.211 187.307C455.211 187.307 461.708 214.625 444.816 213.324L421.428 223.731L405.836 202.917L418.83 187.307L420.349 85.1894Z" fill="#6C63FF"/>
</svg>
