<svg width="500" height="500" viewBox="0 0 500 500" fill="none" xmlns="http://www.w3.org/2000/svg">
<path d="M70.184 208.308C65.454 184.966 68.386 160.589 79.449 139.497C89.75 119.859 108.498 99.7629 142.492 95.3789C220.37 85.3329 223.779 208.522 313.188 154.287C402.597 100.053 477.934 205.649 417.617 268.652C357.299 331.655 225.578 345.476 159.598 316.745C97.479 289.698 76.891 241.408 70.184 208.308Z" fill="#5D50F8"/>
<path opacity="0.9" d="M70.184 208.308C65.454 184.966 68.386 160.589 79.449 139.497C89.75 119.859 108.498 99.7629 142.492 95.3789C220.37 85.3329 223.779 208.522 313.188 154.287C402.597 100.053 477.934 205.649 417.617 268.652C357.299 331.655 225.578 345.476 159.598 316.745C97.479 289.698 76.891 241.408 70.184 208.308Z" fill="white"/>
<path d="M467.736 455.762C467.736 458.406 370.605 460.55 250.787 460.55C130.969 460.55 33.8391 458.407 33.8391 455.762C33.8391 453.118 130.97 450.974 250.787 450.974C370.604 450.974 467.736 453.117 467.736 455.762Z" fill="#F5F5F5"/>
<path d="M211.85 112.367C218.105 106.111 218.105 95.9695 211.85 89.7142C205.594 83.4588 195.453 83.4588 189.197 89.7142C182.942 95.9696 182.942 106.111 189.197 112.367C195.453 118.622 205.594 118.622 211.85 112.367Z" fill="#382ADA"/>
<path d="M208.557 101.036V101.044C208.557 101.783 207.954 102.385 207.207 102.385H201.867V107.725C201.867 108.464 201.264 109.066 200.526 109.066C199.779 109.066 199.176 108.463 199.176 107.725V102.385H193.836C193.097 102.385 192.495 101.782 192.495 101.044V101.036C192.495 100.297 193.098 99.6949 193.836 99.6949H199.176V94.3549C199.176 93.6159 199.779 93.0139 200.526 93.0139C201.265 93.0139 201.867 93.6169 201.867 94.3549V99.6949H207.207C207.954 99.6949 208.557 100.298 208.557 101.036Z" fill="white"/>
<path d="M200.526 121.122C200.262 121.122 200.048 120.908 200.048 120.644V119.688C200.048 119.424 200.262 119.21 200.526 119.21C200.79 119.21 201.004 119.424 201.004 119.688V120.644C201.004 120.909 200.79 121.122 200.526 121.122ZM201.004 143.567V141.657C201.004 141.393 200.79 141.179 200.526 141.179C200.262 141.179 200.048 141.393 200.048 141.657V143.567C200.048 143.831 200.262 144.045 200.526 144.045C200.79 144.045 201.004 143.831 201.004 143.567ZM201.004 137.836V135.926C201.004 135.662 200.79 135.448 200.526 135.448C200.262 135.448 200.048 135.662 200.048 135.926V137.836C200.048 138.1 200.262 138.314 200.526 138.314C200.79 138.314 201.004 138.1 201.004 137.836ZM201.004 132.105V130.195C201.004 129.931 200.79 129.717 200.526 129.717C200.262 129.717 200.048 129.931 200.048 130.195V132.105C200.048 132.369 200.262 132.583 200.526 132.583C200.79 132.583 201.004 132.37 201.004 132.105ZM201.004 126.375V124.465C201.004 124.201 200.79 123.987 200.526 123.987C200.262 123.987 200.048 124.201 200.048 124.465V126.375C200.048 126.639 200.262 126.853 200.526 126.853C200.79 126.853 201.004 126.639 201.004 126.375ZM201.96 148.343C201.96 148.079 201.746 147.865 201.482 147.865H201.004V147.387C201.004 147.123 200.79 146.909 200.526 146.909C200.262 146.909 200.048 147.123 200.048 147.387V148.343C200.048 148.607 200.262 148.821 200.526 148.821H201.482C201.746 148.821 201.96 148.607 201.96 148.343ZM223.682 148.343C223.682 148.079 223.468 147.865 223.204 147.865H221.394C221.13 147.865 220.916 148.079 220.916 148.343C220.916 148.607 221.13 148.821 221.394 148.821H223.204C223.468 148.821 223.682 148.607 223.682 148.343ZM218.251 148.343C218.251 148.079 218.037 147.865 217.773 147.865H215.963C215.699 147.865 215.485 148.079 215.485 148.343C215.485 148.607 215.699 148.821 215.963 148.821H217.773C218.037 148.821 218.251 148.607 218.251 148.343ZM212.821 148.343C212.821 148.079 212.607 147.865 212.343 147.865H210.533C210.269 147.865 210.055 148.079 210.055 148.343C210.055 148.607 210.269 148.821 210.533 148.821H212.343C212.607 148.821 212.821 148.607 212.821 148.343ZM207.391 148.343C207.391 148.079 207.177 147.865 206.913 147.865H205.103C204.839 147.865 204.625 148.079 204.625 148.343C204.625 148.607 204.839 148.821 205.103 148.821H206.913C207.177 148.821 207.391 148.607 207.391 148.343ZM228.258 148.343C228.258 148.079 228.044 147.865 227.78 147.865H226.824C226.56 147.865 226.346 148.079 226.346 148.343C226.346 148.607 226.56 148.821 226.824 148.821H227.78C228.044 148.821 228.258 148.607 228.258 148.343Z" fill="#407BFF"/>
<path d="M408.41 431.996L409.415 448.067L402.564 448.613L397.962 432.809L408.41 431.996Z" fill="#CE7A63"/>
<path d="M404.159 447.012C404.159 447.012 403.109 445.714 401.777 446.157C400.445 446.6 398.702 448.781 398.702 448.781C398.702 448.781 391.478 451.098 389.528 451.22C387.577 451.342 386.294 452.594 386.135 456.219H410.701C410.701 456.219 410.701 447.697 409.868 446.22C409.145 444.94 407.695 446.586 407.695 446.586L404.159 447.012Z" fill="#263238"/>
<path d="M386.695 455.098C388.113 455.081 389.538 455.065 390.956 455.049C397.167 454.983 403.386 454.918 409.597 454.86C409.835 454.852 409.835 454.491 409.597 454.491C409.179 454.499 408.753 454.499 408.335 454.499C408.335 454.483 408.335 454.474 408.327 454.458C407.426 452.483 408.466 450.468 410.244 449.46C410.449 449.345 410.269 449.026 410.064 449.149C408.13 450.239 407.073 452.394 407.958 454.508L405.328 454.533C399.117 454.598 392.906 454.664 386.695 454.73C386.457 454.729 386.457 455.098 386.695 455.098Z" fill="white"/>
<path d="M399.54 450.267C398.717 449.111 397.328 448.783 396.161 449.655C395.972 449.796 395.79 449.478 395.976 449.339C397.315 448.338 398.924 448.773 399.856 450.082C399.992 450.275 399.675 450.458 399.54 450.267Z" fill="white"/>
<path d="M397.502 450.882C396.679 449.726 395.289 449.398 394.123 450.27C393.934 450.411 393.752 450.093 393.938 449.954C395.277 448.953 396.886 449.388 397.818 450.697C397.955 450.89 397.637 451.073 397.502 450.882Z" fill="white"/>
<path d="M395.397 451.497C394.574 450.341 393.185 450.013 392.018 450.885C391.829 451.026 391.647 450.709 391.833 450.569C393.172 449.568 394.781 450.003 395.713 451.312C395.85 451.505 395.533 451.688 395.397 451.497Z" fill="white"/>
<path d="M355.88 431.827L354.925 448.062L348.007 448.613L345.332 432.648L355.88 431.827Z" fill="#CE7A63"/>
<path d="M349.602 447.012C349.602 447.012 348.552 445.714 347.22 446.157C345.888 446.6 344.145 448.781 344.145 448.781C344.145 448.781 336.921 451.098 334.97 451.22C333.019 451.342 331.312 452.439 330.58 456.219H354.235C354.235 456.219 355.166 447.684 355.31 446.22C355.454 444.757 353.138 446.586 353.138 446.586L349.602 447.012Z" fill="#263238"/>
<path d="M331.283 455.098C332.701 455.081 334.126 455.065 335.544 455.049C341.755 454.983 347.974 454.918 354.185 454.86C354.423 454.852 354.423 454.491 354.185 454.491C353.767 454.499 353.341 454.499 352.923 454.499C352.923 454.483 352.923 454.474 352.915 454.458C352.014 452.483 353.054 450.468 354.832 449.46C355.037 449.345 354.857 449.026 354.652 449.149C352.718 450.239 351.661 452.394 352.546 454.508L349.916 454.533C343.705 454.598 337.494 454.664 331.283 454.73C331.045 454.729 331.045 455.098 331.283 455.098Z" fill="white"/>
<path d="M344.983 450.267C344.16 449.111 342.77 448.783 341.603 449.655C341.414 449.796 341.232 449.478 341.418 449.339C342.757 448.338 344.366 448.773 345.298 450.082C345.436 450.275 345.118 450.458 344.983 450.267Z" fill="white"/>
<path d="M342.945 450.882C342.122 449.726 340.732 449.398 339.566 450.27C339.377 450.411 339.195 450.093 339.381 449.954C340.72 448.953 342.329 449.388 343.261 450.697C343.398 450.89 343.081 451.073 342.945 450.882Z" fill="white"/>
<path d="M340.84 451.497C340.017 450.341 338.627 450.013 337.46 450.885C337.271 451.026 337.089 450.709 337.275 450.569C338.614 449.568 340.223 450.003 341.155 451.312C341.293 451.505 340.976 451.688 340.84 451.497Z" fill="white"/>
<path d="M339.762 262.658C339.762 262.658 335.723 316.911 335.989 340.739C336.265 365.524 344.349 437.646 344.349 437.646H357.586C357.586 437.646 360.026 366.79 361.211 342.449C362.503 315.913 370.432 258.308 370.432 258.308L339.762 262.658Z" fill="#263238"/>
<path opacity="0.2" d="M363.736 312.926C364.769 303.191 365.965 293.131 367.049 284.338L365.499 275.058C365.499 275.058 360.312 289.545 363.736 312.926Z" fill="black"/>
<path d="M358.583 433.642C358.556 435.072 358.452 437.916 358.452 437.916H343.195L342.736 433.642H358.583Z" fill="#382ADA"/>
<path d="M362.348 258.308C362.348 258.308 366.366 318.064 370.686 340.435C375.416 364.933 396.886 437.646 396.886 437.646H411.197C411.197 437.646 402.005 367.101 399.558 342.845C396.902 316.52 395.747 263.363 395.747 263.363L362.348 258.308Z" fill="#263238"/>
<path d="M411.837 433.536C411.976 435.001 412.198 437.915 412.198 437.915H395.438L394.429 433.536H411.837Z" fill="#382ADA"/>
<path d="M398.184 268.45C369.574 270.4 348.064 270.55 336.664 266.25C335.874 215.87 337.634 184.53 340.004 176.87C340.644 174.81 342.044 173.09 343.964 172.11C345.934 171.09 348.944 169.91 352.984 169.31C358.974 168.42 368.894 168.16 375.764 168.18C379.534 168.19 383.404 168.48 386.594 168.8C390.554 169.21 393.144 172.75 392.974 176.73C392.634 184.39 392.604 192.14 392.784 199.74C392.894 204.12 393.064 208.44 393.284 212.67C394.714 239.68 398.134 262.56 398.184 268.45Z" fill="#382ADA"/>
<path opacity="0.2" d="M393.284 212.67L380.996 185.663L392.784 199.74C392.894 204.12 393.064 208.44 393.284 212.67Z" fill="black"/>
<path d="M357.122 128.963C355.611 127.322 350.542 127.183 348.127 130.343C345.55 133.716 342.278 139.964 340.199 138.309C340.199 138.309 341.056 141.404 344.589 141.643C344.589 141.643 342.477 143.95 339.761 143.098C339.761 143.098 340.972 147.364 346.045 148.104C350.703 148.783 357.179 135.451 358.208 133.265C358.203 130.855 358.019 130.947 357.122 128.963Z" fill="#263238"/>
<path d="M360.017 129.549C364.151 129.091 368.35 130.257 371.501 132.972C373.559 134.745 375.156 137.094 374.447 139.887C372.791 146.405 368.392 156.925 368.392 156.925L348.646 141.742C348.646 141.742 348.546 135.411 351.724 132.269C353.377 130.634 356.961 129.889 360.017 129.549Z" fill="#263238"/>
<path d="M356.389 129.193C356.389 129.193 363.19 124.341 372.237 131.068C381.284 137.795 372.199 149.984 372.199 149.984C372.199 149.984 369.302 155.374 371.858 156.696C371.858 156.696 370.24 157.332 369.038 157.193C369.038 157.193 369.915 158.826 371.039 158.685C371.039 158.685 369.475 159.314 366.691 158.068C363.907 156.823 356.389 129.193 356.389 129.193Z" fill="#263238"/>
<path d="M356.823 162.794L356.82 162.803C356.829 162.835 356.833 162.855 356.842 162.886L357.381 166.834C357.368 167.625 357.282 168.403 357.129 169.151C357.002 169.782 356.825 170.388 356.619 170.967C355.636 172.015 354.915 174.58 357.9 174.961C361.667 175.449 369.265 170.794 369.719 169.162C368.611 163.794 367.895 157.589 368.785 152.701L363.908 156.823L356.823 162.794Z" fill="#CE7A63"/>
<path opacity="0.2" d="M356.842 162.887L357.381 166.835C359.873 166.05 362.628 164.033 363.503 161.593C364.122 159.83 363.515 158.034 362.795 157.851L356.842 162.887Z" fill="black"/>
<path d="M348.287 153.701C348.407 154.56 348.555 155.41 348.723 156.251C350.222 163.676 358.94 165.408 365.061 160.83C365.071 160.821 365.071 160.811 365.08 160.811C365.623 160.404 366.147 159.95 366.644 159.438C370.686 155.292 370.247 151.669 370.707 143.62C371.167 135.581 363.252 129.546 355.511 132.736C348.367 135.68 347.068 145.111 348.287 153.701Z" fill="#CE7A63"/>
<path d="M357.925 147.152C357.934 147.801 357.598 148.331 357.174 148.337C356.75 148.343 356.399 147.822 356.39 147.173C356.381 146.524 356.717 145.994 357.141 145.988C357.565 145.982 357.916 146.503 357.925 147.152Z" fill="#263238"/>
<path d="M350.859 147.222C350.868 147.871 350.532 148.401 350.108 148.407C349.684 148.413 349.333 147.892 349.324 147.243C349.315 146.594 349.652 146.064 350.075 146.058C350.499 146.052 350.85 146.573 350.859 147.222Z" fill="#263238"/>
<path d="M355.366 155.993C355.229 155.977 355.149 155.962 355.144 155.96C355.01 155.931 354.925 155.8 354.953 155.666C354.982 155.533 355.112 155.449 355.247 155.475C355.378 155.503 358.588 156.137 359.489 152.515C359.521 152.382 359.66 152.298 359.789 152.334C359.923 152.367 360.003 152.502 359.97 152.635C359.098 156.15 356.195 156.086 355.366 155.993Z" fill="#263238"/>
<path d="M370.702 144.376C370.702 144.376 368.702 145.868 368.284 147.906C368.159 148.515 367.739 148.584 367.739 148.584L364.822 148.821C364.822 148.821 366.601 141.062 364.517 140.9C362.433 140.738 365.123 137.487 363.943 136.82C361.158 135.245 353.163 134.164 349.47 138.595C349.47 138.595 350.885 133.943 355.006 131.858C359.127 129.773 366.837 130.196 369.454 134.338C372.071 138.481 370.702 144.376 370.702 144.376Z" fill="#263238"/>
<path d="M374.183 148.971C373.599 151.063 372.104 152.691 370.536 153.543C368.176 154.824 366.4 152.858 366.556 150.319C366.697 148.033 368.094 144.612 370.703 144.377C373.272 144.144 374.85 146.579 374.183 148.971Z" fill="#CE7A63"/>
<path d="M348.927 144.533C349.039 144.532 349.146 144.473 349.204 144.369C349.464 143.902 349.797 143.611 350.193 143.503C350.845 143.326 351.487 143.69 351.494 143.695C351.642 143.784 351.842 143.736 351.931 143.582C352.021 143.43 351.97 143.234 351.818 143.144C351.784 143.124 350.943 142.637 350.025 142.886C349.456 143.04 348.991 143.435 348.645 144.058C348.559 144.212 348.614 144.407 348.769 144.493C348.819 144.52 348.873 144.533 348.927 144.533Z" fill="#263238"/>
<path d="M361.196 144.277C361.243 144.274 361.29 144.26 361.333 144.235C361.485 144.147 361.539 143.953 361.451 143.8C361.431 143.764 360.942 142.926 360.021 142.688C359.45 142.54 358.851 142.653 358.242 143.023C358.09 143.115 358.042 143.311 358.134 143.462C358.226 143.614 358.423 143.661 358.573 143.569C359.028 143.293 359.46 143.204 359.856 143.305C360.514 143.473 360.893 144.111 360.896 144.118C360.96 144.227 361.078 144.285 361.196 144.277Z" fill="#263238"/>
<path d="M354.049 146.599C354.049 146.599 353.584 148.671 351.949 150.06C350.313 151.449 353.556 152.66 353.556 152.66L354.049 146.599Z" fill="#BA4D3C"/>
<path d="M367.975 145.934C363.893 145.523 361.35 146.978 360.712 147.398C360.521 145.616 359.359 144.236 357.945 144.236C356.453 144.236 355.24 145.772 355.156 147.698C353.694 146.833 352.684 147.346 352.28 147.65C352.177 145.747 350.974 144.236 349.493 144.236C347.946 144.236 346.687 145.882 346.687 147.907C346.687 149.93 347.946 151.577 349.493 151.577C351.026 151.577 352.272 149.96 352.295 147.963C352.428 147.829 353.447 146.906 355.145 147.984C355.177 149.971 356.418 151.576 357.945 151.576C359.493 151.576 360.752 149.93 360.752 147.906C360.752 147.83 360.738 147.759 360.735 147.684C361.027 147.471 363.576 145.731 367.95 146.182C368.017 146.193 368.081 146.139 368.087 146.07C368.094 146.002 368.043 145.941 367.975 145.934ZM349.493 151.326C348.084 151.326 346.937 149.792 346.937 147.906C346.937 146.02 348.084 144.485 349.493 144.485C350.903 144.485 352.05 146.019 352.05 147.906C352.049 149.792 350.903 151.326 349.493 151.326ZM357.945 151.326C356.536 151.326 355.389 149.792 355.389 147.906C355.389 146.02 356.535 144.485 357.945 144.485C359.355 144.485 360.502 146.019 360.502 147.906C360.501 149.792 359.355 151.326 357.945 151.326Z" fill="white"/>
<path d="M339.494 178.88L330.914 199.42C329.474 202.82 328.004 206.2 326.514 209.51C325.774 211.16 325.004 212.79 324.234 214.36C323.464 215.93 322.674 217.47 321.924 218.73C321.694 219.14 321.424 219.54 321.264 219.76L321.254 219.77L320.144 220.3L318.924 220.85L316.424 221.94L306.134 226.3C299.224 229.23 292.304 232.25 285.454 235.44L287.874 242.98C295.344 241.56 302.724 239.89 310.084 238.02C313.754 237.05 317.424 236.1 321.114 234.99L323.914 234.14L325.334 233.69L326.844 233.17L327.414 232.96L327.674 232.85L328.704 232.4C328.894 232.31 329.024 232.26 329.244 232.15C329.464 232.02 329.674 231.9 329.874 231.76C330.084 231.63 330.294 231.48 330.414 231.39C331.024 230.92 331.424 230.55 331.784 230.19C332.234 229.73 332.604 229.31 332.924 228.92C333.534 228.19 333.974 227.56 334.424 226.93C335.184 225.83 335.844 224.77 336.464 223.74C336.924 222.99 337.344 222.26 337.764 221.53C338.744 219.77 339.664 218.03 340.554 216.3C342.344 212.83 343.974 209.35 345.574 205.87C348.744 198.89 351.694 191.93 354.384 184.74L339.494 178.88ZM321.724 219.54L321.664 219.58L321.624 219.6L321.724 219.53C321.754 219.51 321.784 219.49 321.814 219.48C321.784 219.5 321.754 219.52 321.724 219.54Z" fill="#382ADA"/>
<path opacity="0.2" d="M338.724 191.45C337.894 197.4 336.474 223.67 336.474 223.67C336.474 223.67 336.474 223.69 336.464 223.74C335.844 224.77 335.184 225.83 334.424 226.93C333.974 227.56 333.534 228.19 332.924 228.92C333.474 216.31 338.724 191.45 338.724 191.45Z" fill="black"/>
<path d="M288.494 240.606C288.099 238.067 287.342 236.278 287.342 236.278C287.342 236.278 285.271 234.062 282.764 234.007C280.257 233.951 278.27 233.24 276.403 233.327C274.536 233.415 276.52 234.972 277.743 235.587C278.966 236.202 280.346 236.912 279.736 237.756C279.125 238.6 270.959 242.285 270.246 243.551C269.532 244.817 271.04 244.635 271.04 244.635C271.04 244.635 269.215 245.475 269.245 246.462C269.275 247.449 270.58 247.266 270.58 247.266C270.58 247.266 269.374 247.873 269.9 248.674C270.176 249.095 272.251 248.762 274.211 248.365C273.806 248.558 273.519 248.798 273.474 249.097C273.289 250.318 275.989 249.917 278.149 249.642C280.309 249.367 282.505 248.388 284.007 246.748C285.507 245.108 288.888 243.145 288.494 240.606ZM277.644 247.646C277.732 247.633 277.8 247.627 277.826 247.633C277.826 247.633 277.759 247.637 277.644 247.646Z" fill="#CE7A63"/>
<path d="M270.927 247.332C273.018 246.386 275.138 245.51 277.273 244.719C277.497 245.276 277.764 245.803 278.066 246.324C278.224 246.577 278.546 246.249 278.402 245.996C277.482 244.435 276.921 242.651 276.733 240.73C276.702 240.419 276.293 240.522 276.324 240.833C276.371 241.313 276.439 241.772 276.535 242.231C276.499 242.21 276.457 242.21 276.415 242.225C274.701 242.715 273.046 243.417 271.45 244.33C271.211 244.474 271.371 244.911 271.624 244.767C273.185 243.875 274.805 243.181 276.477 242.706C276.54 242.684 276.582 242.641 276.61 242.585C276.736 243.171 276.904 243.742 277.107 244.292C274.972 245.083 272.859 245.952 270.761 246.905C270.507 247.018 270.673 247.447 270.927 247.332Z" fill="#BA4D3C"/>
<path d="M278.938 242.494C280.558 240.301 283.004 239.478 285.267 240.313C285.522 240.41 285.681 239.948 285.425 239.852C282.97 238.942 280.355 239.865 278.602 242.222C278.428 242.471 278.763 242.729 278.938 242.494Z" fill="#BA4D3C"/>
<path d="M391.615 171.837C396.496 178.187 401.17 184.67 405.784 191.215C408.096 194.483 410.372 197.78 412.629 201.1C414.914 204.43 417.095 207.722 419.374 211.271L419.809 211.953L420.339 212.823L420.601 213.259L420.666 213.368L420.9 213.803L421.146 214.32C421.227 214.5 421.3 214.681 421.329 214.768C421.494 215.217 421.642 215.715 421.699 215.985L421.808 216.471L421.875 216.854C422.038 217.853 422.065 218.554 422.092 219.23C422.109 219.886 422.11 220.504 422.096 221.084C422.039 223.409 421.86 225.492 421.664 227.58C421.247 231.729 420.676 235.751 420.056 239.763C418.81 247.779 417.24 255.668 415.391 263.561L407.003 262.56C407.004 254.584 407.094 246.58 407.207 238.678C407.255 234.73 407.28 230.784 407.219 226.952C407.191 225.051 407.135 223.138 406.985 221.47C406.949 221.051 406.901 220.672 406.852 220.332C406.804 220.012 406.731 219.718 406.713 219.735C406.711 219.74 406.71 219.75 406.71 219.75L406.729 219.872C406.733 219.898 406.795 220.161 406.879 220.374L406.989 220.65C407.039 220.768 407.094 220.885 407.154 220.999L407.303 221.267L407.267 221.219L407.122 221.026L406.428 220.085C404.175 217.056 401.675 213.874 399.296 210.719C396.877 207.562 394.459 204.395 392.068 201.207C387.273 194.84 382.507 188.434 377.924 181.911L391.615 171.837Z" fill="#382ADA"/>
<path d="M415.222 263.055C413.394 258.308 409.303 259.52 408.102 260.725C408.102 260.725 405.063 263.799 404.447 265.561C403.831 267.322 402.928 269.042 403.243 269.845C403.389 270.218 403.918 269.823 404.444 269.296C404.128 270.219 403.929 270.968 403.959 271.335C403.959 271.335 404.419 276.192 406.31 277.709C408.201 279.226 407.843 274.86 407.843 274.86C407.843 274.86 408.07 279.187 412.644 277.792C414.397 277.258 416.342 272.069 416.653 269.175C417.449 266.714 415.222 263.055 415.222 263.055Z" fill="#CE7A63"/>
<path d="M357.463 167.625C357.463 167.625 353.565 167.197 351.487 169.568C350.654 172.478 352.49 175.943 354.475 179.438L358.787 174.986C359.077 174.988 356.845 171.193 357.463 167.625Z" fill="#382ADA"/>
<path opacity="0.2" d="M357.463 167.625C357.463 167.625 353.565 167.197 351.487 169.568C350.654 172.478 352.49 175.943 354.475 179.438L358.787 174.986C359.077 174.988 356.845 171.193 357.463 167.625Z" fill="black"/>
<path d="M369.053 165.497C367.206 169.753 363.269 172.559 358.787 174.986L361.222 179.438L376.249 168.181C376.249 168.181 371.917 164.363 369.053 165.497Z" fill="#382ADA"/>
<path opacity="0.2" d="M369.053 165.497C367.206 169.753 363.269 172.559 358.787 174.986L361.222 179.438L376.249 168.181C376.249 168.181 371.917 164.363 369.053 165.497Z" fill="black"/>
<path opacity="0.2" d="M358.814 181.408C358.814 181.832 358.471 182.175 358.047 182.175C357.623 182.175 357.28 181.832 357.28 181.408C357.28 180.985 357.623 180.641 358.047 180.641C358.471 180.641 358.814 180.985 358.814 181.408Z" fill="black"/>
<path opacity="0.2" d="M358.814 186.429C358.814 186.852 358.471 187.196 358.047 187.196C357.623 187.196 357.28 186.853 357.28 186.429C357.28 186.006 357.623 185.662 358.047 185.662C358.471 185.662 358.814 186.006 358.814 186.429Z" fill="black"/>
<path opacity="0.2" d="M358.814 191.45C358.814 191.874 358.471 192.217 358.047 192.217C357.623 192.217 357.28 191.874 357.28 191.45C357.28 191.027 357.623 190.683 358.047 190.683C358.471 190.683 358.814 191.027 358.814 191.45Z" fill="black"/>
<path d="M263.085 438.04L265.136 448.416H270.622L271.353 438.04H263.085Z" fill="#FFC3BD"/>
<path d="M269.899 447.099C269.899 447.099 270.939 445.814 272.259 446.253C273.578 446.692 275.305 448.852 275.305 448.852C275.305 448.852 282.46 451.147 284.392 451.268C286.324 451.389 288.015 452.476 288.74 456.22H265.309C265.309 456.22 264.387 447.766 264.244 446.316C264.101 444.867 266.396 446.678 266.396 446.678L269.899 447.099Z" fill="#263238"/>
<path d="M288.044 455.103C286.635 455.089 285.233 455.075 283.824 455.061C277.67 454.999 271.515 454.93 265.361 454.868C265.126 454.868 265.126 454.502 265.361 454.509C265.775 454.516 266.197 454.516 266.611 454.523C266.611 454.509 266.618 454.488 266.625 454.475C267.509 452.52 266.487 450.524 264.719 449.522C264.512 449.411 264.698 449.094 264.899 449.211C266.812 450.296 267.862 452.43 266.985 454.523C267.855 454.537 268.719 454.544 269.589 454.55C275.736 454.612 281.891 454.681 288.045 454.743C288.279 454.744 288.279 455.11 288.044 455.103Z" fill="#382ADA"/>
<path d="M274.474 450.324C275.289 449.179 276.666 448.854 277.822 449.718C278.009 449.858 278.19 449.543 278.005 449.405C276.678 448.414 275.084 448.844 274.162 450.141C274.026 450.331 274.34 450.512 274.474 450.324Z" fill="white"/>
<path d="M276.493 450.933C277.308 449.788 278.685 449.463 279.84 450.326C280.027 450.466 280.208 450.151 280.023 450.013C278.696 449.022 277.102 449.452 276.18 450.749C276.045 450.94 276.359 451.122 276.493 450.933Z" fill="white"/>
<path d="M278.578 451.542C279.393 450.397 280.769 450.072 281.925 450.935C282.112 451.075 282.293 450.76 282.108 450.622C280.781 449.631 279.187 450.061 278.265 451.359C278.129 451.55 278.443 451.731 278.578 451.542Z" fill="white"/>
<path d="M214.007 438.114L215.145 448.416H220.631L222.274 438.114H214.007Z" fill="#FFC3BD"/>
<path d="M219.908 447.099C219.908 447.099 220.948 445.814 222.267 446.253C223.586 446.692 225.313 448.852 225.313 448.852C225.313 448.852 232.468 451.147 234.4 451.268C236.332 451.389 238.023 452.476 238.748 456.22H215.317C215.317 456.22 214.395 447.766 214.252 446.316C214.109 444.867 216.404 446.678 216.404 446.678L219.908 447.099Z" fill="#263238"/>
<path d="M238.053 455.103C236.644 455.089 235.242 455.075 233.833 455.061C227.679 454.999 221.524 454.93 215.37 454.868C215.135 454.868 215.135 454.502 215.37 454.509C215.784 454.516 216.206 454.516 216.62 454.523C216.62 454.509 216.627 454.488 216.634 454.475C217.518 452.52 216.496 450.524 214.728 449.522C214.521 449.411 214.707 449.094 214.908 449.211C216.821 450.296 217.871 452.43 216.994 454.523C217.864 454.537 218.728 454.544 219.598 454.55C225.746 454.612 231.9 454.681 238.054 454.743C238.288 454.744 238.288 455.11 238.053 455.103Z" fill="#382ADA"/>
<path d="M224.484 450.324C225.299 449.179 226.676 448.854 227.832 449.718C228.019 449.858 228.2 449.543 228.015 449.405C226.688 448.414 225.094 448.844 224.172 450.141C224.035 450.331 224.349 450.512 224.484 450.324Z" fill="white"/>
<path d="M226.502 450.933C227.317 449.788 228.694 449.463 229.85 450.326C230.037 450.466 230.218 450.151 230.033 450.013C228.706 449.022 227.112 449.452 226.19 450.749C226.054 450.94 226.368 451.122 226.502 450.933Z" fill="white"/>
<path d="M228.587 451.542C229.402 450.397 230.779 450.072 231.934 450.935C232.121 451.075 232.302 450.76 232.117 450.622C230.79 449.631 229.196 450.061 228.273 451.359C228.139 451.55 228.453 451.731 228.587 451.542Z" fill="white"/>
<path d="M261.26 438.405H273.365C274.412 422.817 277.376 371.164 275.034 345.604C276.718 310.139 271.298 263.062 271.298 263.062H232.951C232.951 263.062 235.761 294.565 248.374 345.093C248.288 385.125 258.059 425.145 261.26 438.405Z" fill="#382ADA"/>
<path opacity="0.2" d="M261.26 438.405H273.365C274.412 422.817 277.376 371.164 275.034 345.604C276.718 310.139 271.298 263.062 271.298 263.062H232.951C232.951 263.062 235.761 294.565 248.374 345.093C248.288 385.125 258.059 425.145 261.26 438.405Z" fill="white"/>
<path opacity="0.2" d="M246.307 336.601C253.239 308.286 247.152 271.569 247.152 271.569L241.17 313.509L246.307 336.601Z" fill="black"/>
<path d="M259.818 438.101L260.706 442.702L274.587 442.642L274.595 438.04L259.818 438.101Z" fill="#263238"/>
<path d="M212.281 438.852H224.386C228.699 422.816 237.363 371.257 238.749 345.697C245.606 310.232 248.887 263.062 248.887 263.062H210.54C210.54 263.062 206.973 294.926 212.217 345.454C211.198 389.506 212.006 425.145 212.281 438.852Z" fill="#382ADA"/>
<path opacity="0.2" d="M212.281 438.852H224.386C228.699 422.816 237.363 371.257 238.749 345.697C245.606 310.232 248.887 263.062 248.887 263.062H210.54C210.54 263.062 206.973 294.926 212.217 345.454C211.198 389.506 212.006 425.145 212.281 438.852Z" fill="white"/>
<path d="M211.223 438.089L211.198 442.65L225.189 442.652L225.922 438.092L211.223 438.089Z" fill="#263238"/>
<path d="M276.314 268.85C249.714 279.07 206.384 271.66 206.384 271.66C206.674 264.37 206.944 253.09 207.094 240.8C207.134 237.5 207.164 234.13 207.184 230.74C207.224 224.24 207.224 217.68 207.174 211.49C207.164 210.99 207.164 210.49 207.154 210C207.124 206.96 207.074 204.02 207.014 201.24C207.004 200.9 207.004 200.56 206.994 200.22C206.874 194.75 206.674 189.91 206.424 186.04C205.934 178.75 209.904 171.96 217.114 170.75C219.304 170.38 221.674 170.05 224.134 169.79C224.714 169.72 225.314 169.67 225.914 169.61C232.744 168.94 240.244 168.64 247.084 168.84C247.424 168.84 247.774 168.85 248.114 168.86C248.284 168.87 248.484 168.87 248.654 168.88C248.944 168.89 249.254 168.9 249.544 168.92C252.584 169.04 255.484 169.27 258.074 169.61C263.954 170.37 269.174 175.01 269.274 180.95C269.364 186.39 269.894 197.88 270.664 210.84C270.964 215.74 271.294 220.87 271.654 225.95C273.044 245.96 274.814 265.35 276.314 268.85Z" fill="#263238"/>
<path opacity="0.2" d="M221.964 191.45C221.964 191.45 221.389 219.695 223.268 223.125C225.147 226.555 261.475 236.924 261.475 236.924C243.291 234.452 225.701 231.682 216.393 224.75L221.964 191.45Z" fill="black"/>
<path opacity="0.2" d="M262.724 245.22C241.554 250.23 216.794 243.8 207.094 240.8C207.134 237.5 207.164 234.13 207.184 230.74C222.094 241.77 262.724 245.22 262.724 245.22Z" fill="black"/>
<path d="M244.731 186.124L241.164 225.667L248.296 240.031L253.867 224.333L248.102 186.124H244.731Z" fill="#382ADA"/>
<path d="M245.581 177.618L241.73 183.328L246.256 188.563L250.782 181.824L245.581 177.618Z" fill="#382ADA"/>
<path d="M253.406 130.225C249.249 128.748 244.63 128.934 240.717 130.972C238.162 132.303 235.942 134.341 235.997 137.397C236.125 144.529 238.113 156.46 238.113 156.46L262.188 145.576C262.188 145.576 263.941 139.602 261.122 135.791C259.028 132.962 256.479 131.317 253.406 130.225Z" fill="#263238"/>
<path d="M244.417 129.629C244.417 129.629 241.164 127.816 237.895 131.191C235.17 134.004 236.361 143.162 236.361 143.162L244.417 129.629Z" fill="#263238"/>
<path d="M242.001 130.383C242.001 130.383 242.939 124.941 252.872 126.566C262.806 128.191 270.681 136.395 267.056 140.691C263.566 144.827 252.872 137.941 252.872 137.941L242.001 130.383Z" fill="#263238"/>
<path d="M248.634 165.327L248.635 165.337C248.618 165.368 248.609 165.387 248.592 165.418L247.077 169.364C246.899 170.184 246.799 171.008 246.775 171.817C246.753 172.5 246.788 173.169 246.861 173.816C247.621 175.137 247.744 177.96 244.569 177.629C240.561 177.218 233.766 170.93 233.694 169.135C236.141 163.861 238.467 157.266 238.735 152.002L242.77 157.442L248.634 165.327Z" fill="#FFC3BD"/>
<path d="M245.581 177.618C246.529 175.524 246.519 173 246.853 170.739C246.853 170.739 247.028 169.057 247.516 168.221C247.516 168.221 250.261 167.582 251.867 169.033C252.508 173.416 251.998 177.762 250.707 182.083L245.581 177.618Z" fill="#263238"/>
<path d="M230.378 169.229C230.378 169.229 232.6 164.958 235.644 164.437C236.014 169.594 238.109 173.681 245.581 177.617L241.164 184.166C235.019 179.145 231.562 174.168 230.378 169.229Z" fill="#263238"/>
<g opacity="0.2">
<path d="M248.591 165.418L247.076 169.364C244.694 167.948 242.338 165.197 242.028 162.465C241.817 160.494 242.88 158.788 243.667 158.774L248.591 165.418Z" fill="black"/>
</g>
<path d="M259.656 158.01C259.324 158.868 258.964 159.709 258.587 160.537C255.237 167.84 245.814 167.512 240.606 161.299C240.599 161.287 240.601 161.277 240.591 161.275C240.13 160.723 239.698 160.127 239.309 159.478C236.141 154.216 237.475 150.581 238.954 142.159C240.43 133.747 250.068 129.436 257.286 134.609C263.947 139.383 262.999 149.436 259.656 158.01Z" fill="#FFC3BD"/>
<path d="M243.806 145.403C243.806 145.403 243.764 152.431 246.514 153.431C249.264 154.431 251.309 152.098 254.328 155.014C254.328 155.014 256.308 153.971 258.136 155.347C259.964 156.723 259.655 157.54 259.655 157.54C259.655 157.54 258.959 168.024 249.361 166.81C239.764 165.596 238.597 156.18 239.264 151.18L241.157 144.97L243.806 145.403Z" fill="#263238"/>
<path d="M250.049 155.207C250.049 155.207 252.559 156.114 256 156.918C256 156.918 254.787 159.734 251.744 158.428C249.806 157.595 250.049 155.207 250.049 155.207Z" fill="white"/>
<path d="M258.02 133.826C254.271 130.673 246.207 129.238 242.499 132.88C238.791 136.522 238.773 142.942 238.773 142.942C238.773 142.942 238.673 144.103 239.39 144.868C239.46 144.935 239.542 145.055 239.631 145.192L243.804 145.873C244.137 144.154 244.83 141.018 246.003 140.854C248.199 140.546 246.703 138.126 247.175 136.767C248.707 132.352 260.719 135.371 262.1 142.126C262.1 142.126 261.769 136.979 258.02 133.826Z" fill="#263238"/>
<path d="M234.065 146.84C234.16 149.142 235.308 151.186 236.721 152.446C238.847 154.342 241.158 152.743 241.613 150.083C242.023 147.689 241.41 143.817 238.774 142.941C236.176 142.077 233.957 144.208 234.065 146.84Z" fill="#FFC3BD"/>
<path d="M251.27 147.335C251.115 147.98 251.332 148.585 251.753 148.686C252.174 148.787 252.642 148.346 252.796 147.701C252.951 147.056 252.735 146.451 252.313 146.35C251.892 146.249 251.424 146.69 251.27 147.335Z" fill="#263238"/>
<path d="M258.089 148.945C257.934 149.59 258.15 150.195 258.572 150.296C258.994 150.397 259.461 149.957 259.615 149.312C259.77 148.667 259.553 148.062 259.132 147.961C258.711 147.859 258.243 148.3 258.089 148.945Z" fill="#263238"/>
<path d="M261.023 146.987C260.908 146.959 260.811 146.872 260.777 146.75C260.622 146.205 260.349 145.824 259.966 145.616C259.335 145.275 258.584 145.495 258.576 145.498C258.402 145.554 258.207 145.456 258.152 145.275C258.096 145.096 258.196 144.906 258.375 144.85C258.415 144.837 259.402 144.539 260.289 145.019C260.839 145.317 261.223 145.837 261.43 146.564C261.482 146.744 261.377 146.932 261.197 146.983C261.137 147 261.078 147 261.023 146.987Z" fill="#263238"/>
<path d="M249.875 144.331C249.822 144.318 249.772 144.293 249.727 144.256C249.571 144.127 249.549 143.896 249.678 143.74C249.708 143.704 250.425 142.849 251.515 142.757C252.191 142.701 252.848 142.944 253.467 143.483C253.621 143.617 253.638 143.849 253.504 144.002C253.37 144.156 253.138 144.171 252.985 144.038C252.523 143.637 252.051 143.452 251.582 143.489C250.803 143.551 250.251 144.201 250.245 144.208C250.152 144.321 250.007 144.363 249.875 144.331Z" fill="#263238"/>
<path d="M255.755 147.505C255.755 147.505 256.094 150.502 257.005 152.578C257.919 154.662 254.328 153.883 254.328 153.883L255.755 147.505Z" fill="#ED847E"/>
<path d="M282.702 243.369C281.363 241.051 276.467 238.93 276.467 238.93C275.827 238.706 274.217 238.718 272.456 238.819L272.648 238.801C272.648 238.801 275.853 236.964 275.046 236.518C274.239 236.072 272.289 236.789 270.335 237.197C268.381 237.605 266.185 239.403 266.185 239.403C264.755 240.269 263.929 242.961 264.939 246.517C264.939 246.517 269.024 250.404 271.929 250.939C274.796 251.643 280.656 251.999 281.96 250.207C284.696 246.449 279.645 243.806 279.645 243.806C279.645 243.806 284.041 245.688 282.702 243.369Z" fill="#FFC3BD"/>
<path d="M264.604 237.71L263.464 245.54C255.154 245.09 246.954 244.34 238.704 243.24C234.574 242.7 230.454 242.04 226.284 241.26C224.194 240.87 222.104 240.42 219.964 239.89C217.824 239.35 215.684 238.78 213.264 237.84C212.654 237.6 212.014 237.33 211.314 236.99C210.614 236.63 209.874 236.23 208.904 235.49C208.414 235.11 207.864 234.65 207.204 233.87C206.884 233.49 206.514 232.97 206.174 232.34C205.994 231.98 205.834 231.66 205.674 231.22C205.604 231 205.534 230.78 205.464 230.56L205.414 230.34C205.114 229.13 205.044 228.42 204.954 227.71C204.674 225.08 204.624 222.99 204.574 220.81C204.534 216.52 204.604 212.37 204.764 208.21C205.044 199.9 205.644 191.72 206.484 183.47L222.424 184.86C222.194 188.88 221.824 192.95 221.564 196.99L220.624 209.1C220.324 213.12 219.994 217.14 219.824 221.04C219.754 222.41 219.694 223.82 219.684 225.04C220.904 225.61 222.374 226.17 223.844 226.68C225.644 227.3 227.514 227.88 229.404 228.46C233.184 229.61 237.074 230.65 240.974 231.69C248.784 233.73 256.724 235.73 264.604 237.71Z" fill="#263238"/>
<path d="M334.834 185.54C329.464 190.61 323.884 195.37 318.114 199.96C315.244 202.28 312.284 204.49 309.234 206.72C307.684 207.8 306.124 208.88 304.354 209.97C303.904 210.24 303.444 210.51 302.934 210.79C302.414 211.08 301.874 211.37 301.074 211.7C300.644 211.86 300.204 212.05 299.264 212.26L298.854 212.33C298.714 212.35 298.494 212.38 298.314 212.39C297.914 212.42 297.404 212.45 296.594 212.35L296.304 212.3L295.894 212.22C295.634 212.16 295.364 212.08 295.114 211.99L294.974 211.95L294.694 211.85C294.354 211.72 293.904 211.56 293.644 211.44L292.784 211.06C290.654 210.07 288.994 209.13 287.294 208.16C285.614 207.18 283.994 206.22 282.414 205.2C279.254 203.18 276.154 201.15 273.134 199.03C272.974 198.92 272.814 198.81 272.654 198.7C271.714 198.04 270.784 197.38 269.864 196.72C264.954 193.22 260.184 189.61 255.504 185.77L265.284 173.11C271.114 177.27 276.884 181.66 282.594 185.98C285.464 188.11 288.294 190.3 291.144 192.37C292.574 193.4 293.974 194.45 295.364 195.43C296.364 196.13 297.404 196.84 298.324 197.42C299.594 196.83 300.944 196.13 302.294 195.43C305.424 193.84 308.564 192.08 311.744 190.37C318.084 186.92 324.494 183.42 331.014 180.13L334.834 185.54Z" fill="#263238"/>
<path opacity="0.2" d="M272.654 198.7C271.714 198.04 270.784 197.38 269.864 196.72L269.014 183.05L272.654 198.7Z" fill="black"/>
<path d="M334.185 185.663C334.185 185.663 336.202 185.526 337.06 184.125C338.723 181.408 341.343 180.91 342.393 180.333C343.443 179.757 342.239 177.968 339.575 178.54C339.575 178.54 340.718 174.83 341.637 173.932C342.556 173.034 347.401 171.113 347.309 170.416C347.217 169.719 343.469 170.846 341.281 171.837C339.093 172.828 334.654 178.323 330.656 180.291C330.658 180.292 329.082 184.451 334.185 185.663Z" fill="#FFC3BD"/>
<path d="M143.872 181.335C144.745 187.919 145.392 194.54 145.969 201.156C146.282 204.461 146.507 207.776 146.79 211.073L147.16 216.007L147.521 220.415C147.496 220.535 147.651 221.266 147.838 221.916C148.017 222.583 148.245 223.316 148.481 224.049C148.952 225.524 149.498 227.035 150.028 228.563C151.092 231.628 152.269 234.702 153.394 237.809C155.69 244.002 158.022 250.25 160.188 256.548L153.091 260.068C149.368 254.427 145.93 248.677 142.626 242.795C140.956 239.861 139.384 236.872 137.81 233.827C137.027 232.297 136.285 230.74 135.54 229.117C135.169 228.3 134.803 227.479 134.44 226.573C134.076 225.655 133.718 224.797 133.339 223.292L133.207 222.691L133.139 222.325L133.015 221.643L132.785 220.333L132.36 217.809L131.562 212.828C131.082 209.513 130.572 206.213 130.154 202.902C129.273 196.286 128.494 189.672 127.963 183.018L143.872 181.335Z" fill="#3729D9"/>
<path d="M137.94 272.775L118.317 249.608C117.826 249.029 117.898 248.161 118.477 247.67L151.102 220.035C151.681 219.544 152.549 219.616 153.04 220.195L172.664 243.362C173.155 243.941 173.083 244.809 172.503 245.3L139.878 272.935C139.298 273.426 138.431 273.354 137.94 272.775Z" fill="#263238"/>
<path opacity="0.2" d="M137.94 272.775L118.317 249.608C117.826 249.029 117.898 248.161 118.477 247.67L151.102 220.035C151.681 219.544 152.549 219.616 153.04 220.195L172.664 243.362C173.155 243.941 173.083 244.809 172.503 245.3L139.878 272.935C139.298 273.426 138.431 273.354 137.94 272.775Z" fill="white"/>
<path d="M149.796 246.485C149.796 248.863 147.868 250.791 145.49 250.791C143.112 250.791 141.183 248.863 141.183 246.485C141.183 244.107 143.111 242.179 145.49 242.179C147.868 242.178 149.796 244.107 149.796 246.485Z" fill="#263238"/>
<path d="M123.788 130.548C123.788 130.548 116.221 130.458 114.382 139C112.465 147.904 111.909 144.395 107.839 148.635C103.769 152.875 108.217 158.622 101.202 161.817C101.202 161.817 107.047 167.503 118.431 165.268C129.815 163.034 128.223 171.141 142.912 168.999C142.912 168.999 140.614 164.747 143.812 160.923C147.01 157.099 144.632 154.31 144.764 150.249C144.896 146.188 145.94 137.359 140.361 133.561C134.782 129.762 129.866 131.422 129.866 131.422C129.866 131.422 126.614 130.107 123.788 130.548Z" fill="#263238"/>
<path d="M143.556 436.071L146.424 447.872H152.638L152.92 436.071H143.556Z" fill="#FF8B7B"/>
<path d="M170.683 456.22C170.346 452.375 168.657 451.227 166.572 451.096C164.402 450.959 156.657 448.366 156.657 448.366C156.657 448.366 155.039 445.924 153.614 445.428C152.188 444.932 150.809 446.385 150.809 446.385L146.908 445.909C146.908 445.909 145.739 444.153 144.934 445.692C143.687 448.075 143.838 454.673 143.954 456.221H170.683V456.22Z" fill="#3729D9"/>
<path d="M170.177 455.215C168.559 455.208 166.949 455.2 165.331 455.193C158.264 455.159 151.198 455.117 144.131 455.083C143.861 455.084 143.916 454.67 144.185 454.677C144.66 454.683 145.145 454.68 145.621 454.685C145.623 454.669 145.634 454.646 145.644 454.63C146.955 452.415 146.081 450.164 144.199 449.042C143.977 448.918 144.24 448.558 144.452 448.689C146.488 449.904 147.374 452.311 146.049 454.682C147.048 454.692 148.039 454.695 149.039 454.698C156.098 454.732 163.164 454.774 170.231 454.809C170.501 454.807 170.446 455.221 170.177 455.215Z" fill="black"/>
<path d="M155.486 450.028C156.588 448.734 158.199 448.367 159.373 449.343C159.563 449.501 159.817 449.145 159.629 448.989C158.281 447.868 156.409 448.355 155.16 449.821C154.977 450.037 155.305 450.241 155.486 450.028Z" fill="white"/>
<path d="M157.677 450.717C158.779 449.423 160.39 449.056 161.564 450.032C161.754 450.19 162.008 449.835 161.82 449.678C160.472 448.558 158.6 449.044 157.351 450.51C157.168 450.725 157.496 450.93 157.677 450.717Z" fill="white"/>
<path d="M159.943 451.405C161.045 450.111 162.655 449.744 163.829 450.72C164.019 450.878 164.273 450.522 164.085 450.366C162.738 449.246 160.865 449.733 159.616 451.198C159.434 451.414 159.762 451.618 159.943 451.405Z" fill="white"/>
<path d="M117.848 281.483C119.112 293.375 121.598 308.759 126.097 328.558C127.404 334.311 128.882 340.439 130.554 346.964C125.979 384.739 143.881 439.313 143.881 439.313L153.469 439.099C153.469 439.099 154.672 378.111 153.544 346.182C151.696 293.869 145.324 244.036 145.324 244.036L119.208 243.933C119.208 243.933 114.698 251.796 117.848 281.483Z" fill="#263238"/>
<path opacity="0.2" d="M117.848 281.483C119.112 293.375 121.598 308.759 126.097 328.558C131.593 307.635 121.651 262.981 121.651 262.981L117.848 281.483Z" fill="black"/>
<path d="M154.57 441.355L154.873 437.248H142.082L142.805 441.355H154.57Z" fill="#263238"/>
<path d="M103.801 436.071L106.669 447.872H112.883L113.165 436.071H103.801Z" fill="#FF8B7B"/>
<path d="M115.048 441.355L115.351 437.248H102.56L103.283 441.355H115.048Z" fill="#263238"/>
<path d="M130.928 456.22C130.591 452.375 128.902 451.227 126.817 451.096C124.647 450.959 116.902 448.366 116.902 448.366C116.902 448.366 115.284 445.924 113.859 445.428C112.433 444.932 111.054 446.385 111.054 446.385L107.153 445.909C107.153 445.909 105.984 444.153 105.179 445.692C103.933 448.075 104.083 454.673 104.199 456.221H130.928V456.22Z" fill="#3729D9"/>
<path d="M130.422 455.215C128.804 455.208 127.194 455.2 125.576 455.193C118.509 455.159 111.443 455.117 104.376 455.083C104.106 455.084 104.161 454.67 104.43 454.677C104.905 454.683 105.39 454.68 105.865 454.685C105.867 454.669 105.878 454.646 105.888 454.63C107.199 452.415 106.325 450.164 104.443 449.042C104.221 448.918 104.484 448.558 104.696 448.689C106.732 449.904 107.618 452.311 106.293 454.682C107.292 454.692 108.284 454.695 109.283 454.698C116.342 454.732 123.408 454.774 130.475 454.809C130.746 454.807 130.691 455.221 130.422 455.215Z" fill="black"/>
<path d="M115.731 450.028C116.833 448.734 118.444 448.367 119.618 449.343C119.808 449.501 120.062 449.145 119.874 448.989C118.527 447.868 116.654 448.355 115.405 449.821C115.222 450.037 115.549 450.241 115.731 450.028Z" fill="white"/>
<path d="M117.922 450.717C119.024 449.423 120.635 449.056 121.809 450.032C121.999 450.19 122.253 449.835 122.065 449.678C120.718 448.558 118.845 449.044 117.596 450.51C117.413 450.725 117.74 450.93 117.922 450.717Z" fill="white"/>
<path d="M120.188 451.405C121.29 450.111 122.9 449.744 124.074 450.72C124.264 450.878 124.518 450.522 124.33 450.366C122.982 449.246 121.11 449.733 119.861 451.198C119.679 451.414 120.007 451.618 120.188 451.405Z" fill="white"/>
<path d="M126.841 246.047C126.841 246.047 121.957 318.26 120.362 346.964C118.539 379.753 114.435 435.643 113.88 439.301H103.97C105.106 440.406 91.2498 390.241 96.8358 349.396C91.6008 310.329 85.2298 281.725 93.4428 244.942L126.841 246.047Z" fill="#263238"/>
<path d="M90.4639 247.791C111.291 254.669 146.291 252.408 146.291 247.641C146.291 234.206 141.534 219.101 142.809 210.348C152.655 203.459 144.962 197.235 145.819 187.025C146.483 179.236 140.966 172.251 133.263 170.923C131.485 170.623 129.642 170.323 127.831 170.088C127.456 170.034 127.092 169.991 126.727 169.949C121.885 169.349 117.278 169.231 112.168 169.263C110.39 169.263 108.547 169.295 106.618 169.317C104.7 169.349 102.826 169.435 101.047 169.563C94.4259 170.024 89.6369 176.13 90.8049 182.687C92.5079 192.361 93.4729 201.5 93.8369 209.803C93.9229 211.678 93.9869 213.488 94.0079 215.267C94.1149 222.22 93.7939 228.498 93.1619 233.908C93.1509 234.026 93.1299 234.144 93.1189 234.251C92.8189 236.715 92.4549 238.986 92.0259 241.065C91.8979 241.719 91.7579 242.34 91.6079 242.95C91.3109 244.245 90.8069 246.505 90.4639 247.791Z" fill="#3729D9"/>
<path opacity="0.2" d="M146.288 247.64C146.288 252.41 111.288 254.67 90.4678 247.79C90.8078 246.51 91.3078 244.24 91.6078 242.95C91.7578 242.34 91.8978 241.72 92.0278 241.06C92.4578 238.98 92.8178 236.71 93.1178 234.25C93.1278 234.14 93.1578 234.02 93.1678 233.91C93.7978 228.5 94.1178 222.22 94.0078 215.27C93.9878 213.49 93.9278 211.68 93.8378 209.8C93.7178 207.05 93.5378 204.22 93.2678 201.3C93.1078 199.42 92.9178 197.5 92.6878 195.56C92.2078 191.4 91.5878 187.1 90.8078 182.69C89.6378 176.13 94.4278 170.02 101.048 169.56C102.828 169.43 104.698 169.35 106.618 169.32C108.548 169.29 110.388 169.26 112.168 169.26C117.278 169.23 121.888 169.35 126.728 169.95C127.098 169.99 127.458 170.03 127.828 170.09C129.638 170.32 131.488 170.62 133.268 170.92C140.968 172.25 146.488 179.24 145.818 187.02C144.968 197.23 152.658 203.46 142.808 210.35C141.538 219.1 146.288 234.21 146.288 247.64Z" fill="white"/>
<path opacity="0.2" d="M103.658 185.65L93.2677 201.3C93.1077 199.42 92.9177 197.5 92.6877 195.56V195.52L103.658 185.65Z" fill="black"/>
<path d="M127.833 187.127C127.833 187.496 128.132 187.795 128.501 187.795C128.87 187.795 129.169 187.496 129.169 187.127C129.169 186.758 128.87 186.459 128.501 186.459C128.132 186.459 127.833 186.758 127.833 187.127Z" fill="#3729D9"/>
<path d="M128.906 193.799C129.275 193.799 129.574 193.5 129.574 193.131C129.574 192.762 129.275 192.463 128.906 192.463C128.537 192.463 128.238 192.762 128.238 193.131C128.238 193.5 128.537 193.799 128.906 193.799Z" fill="#3729D9"/>
<path d="M128.906 199.909C129.275 199.909 129.574 199.61 129.574 199.241C129.574 198.872 129.275 198.573 128.906 198.573C128.537 198.573 128.238 198.872 128.238 199.241C128.238 199.61 128.537 199.909 128.906 199.909Z" fill="#3729D9"/>
<path d="M112.169 169.262C117.101 177.928 128.703 183.118 128.703 183.118C130.269 179.234 129.778 173.008 127.832 170.087C127.457 170.033 127.093 169.99 126.728 169.948C121.886 169.348 117.28 169.23 112.169 169.262Z" fill="#FF8B7B"/>
<path d="M127.964 172.666C128.006 172.796 128.061 172.927 128.146 173.061C129.824 175.707 128 178.124 125.113 177.916C124.832 177.896 124.557 177.857 124.287 177.803C123.25 177.595 122.289 177.062 121.571 176.285C121.568 176.282 121.565 176.278 121.562 176.275C118.103 172.521 114.382 169.676 114.382 169.676C118.72 167.351 120.305 159.093 120.708 153.934L127.443 162.509L128.704 164.381C128.095 165.46 127.55 166.581 127.244 167.692C126.746 169.416 126.796 171.128 127.964 172.666Z" fill="#FF8B7B"/>
<path d="M115.049 169.257C115.049 169.257 111.015 168.208 107.839 169.257L114.382 180.5C117.828 177.989 121.775 181.248 128.704 183.118C128.704 183.118 120.449 178.967 115.049 169.257Z" fill="#3729D9"/>
<path d="M115.049 169.257C115.049 169.257 111.015 168.208 107.839 169.257L114.382 180.5C117.828 177.989 121.775 181.248 128.704 183.118C128.704 183.118 120.449 178.967 115.049 169.257Z" fill="#3729D9"/>
<path d="M126.949 169.771C126.949 169.771 130.946 169.038 133.264 170.922C133.264 170.922 134.6 175.395 135.135 179.77C135.135 179.77 131.289 177.85 128.703 183.118C128.703 183.118 130.012 174.727 126.949 169.771Z" fill="#3729D9"/>
<path d="M126.949 169.771C126.949 169.771 130.946 169.038 133.264 170.922C133.264 170.922 134.6 175.395 135.135 179.77C135.135 179.77 131.289 177.85 128.703 183.118C128.703 183.118 130.012 174.727 126.949 169.771Z" fill="#3729D9"/>
<g opacity="0.2">
<path d="M127.244 167.693C127.55 166.581 128.095 165.461 128.704 164.382L127.443 162.51L123.202 162.607C123.202 162.607 124.315 166.029 127.244 167.693Z" fill="black"/>
</g>
<path d="M119.475 144.741C118.8 153.218 118.337 156.792 121.894 161.691C127.245 169.06 137.607 167.995 140.752 159.881C143.583 152.577 144.211 139.941 136.612 135.463C129.126 131.051 120.15 136.264 119.475 144.741Z" fill="#FF8B7B"/>
<path d="M121.338 150.29C117.088 149.16 118.758 144.77 118.758 144.77L125.018 145.74C125.018 145.74 125.588 151.41 121.338 150.29Z" fill="#263238"/>
<path d="M138.497 136.25C138.497 136.25 138.388 140.938 132.638 141.188C126.888 141.438 127.392 149.937 120.953 148.594C114.513 147.251 117.701 139.251 120.451 137.126C123.201 135.001 129.982 128.625 138.497 136.25Z" fill="#263238"/>
<path d="M137.219 157.806C137.219 157.806 133.09 155.939 132.182 154.14C132.182 154.14 131.576 157.356 133.739 158.542C135.902 159.728 137.219 157.806 137.219 157.806Z" fill="white"/>
<path d="M133.425 148.521C133.329 149.205 133.614 149.811 134.061 149.874C134.508 149.937 134.949 149.433 135.045 148.748C135.141 148.064 134.857 147.458 134.409 147.395C133.962 147.333 133.521 147.837 133.425 148.521Z" fill="#263238"/>
<path d="M140.379 149.652C140.283 150.337 140.568 150.942 141.015 151.005C141.462 151.068 141.903 150.564 141.999 149.879C142.095 149.195 141.811 148.589 141.363 148.526C140.915 148.464 140.475 148.968 140.379 149.652Z" fill="#263238"/>
<path d="M141.16 148.537L142.87 148.294C142.87 148.294 141.846 149.46 141.16 148.537Z" fill="#263238"/>
<path d="M137.825 149.511C137.825 149.511 138.75 151.49 139.809 153.245C140.153 153.815 139.896 154.565 139.261 154.772C138.171 155.127 137.032 155.197 137.032 155.197L137.825 149.511Z" fill="#FF5652"/>
<path d="M115.667 150.142C116.193 151.857 117.368 153.052 118.561 153.574C120.356 154.358 121.572 152.44 121.34 150.286C121.131 148.348 119.945 145.604 118.015 145.748C116.113 145.889 115.066 148.182 115.667 150.142Z" fill="#FF8B7B"/>
<path d="M131.551 145.783C131.658 145.783 131.766 145.739 131.845 145.656C133.088 144.34 134.56 144.588 134.577 144.59C134.795 144.628 135.009 144.484 135.049 144.263C135.089 144.042 134.942 143.832 134.722 143.791C134.645 143.777 132.797 143.464 131.255 145.099C131.102 145.262 131.11 145.519 131.272 145.673C131.35 145.747 131.45 145.783 131.551 145.783Z" fill="#263238"/>
<path d="M143.57 147.013C143.67 147.021 143.774 146.994 143.859 146.925C144.033 146.785 144.06 146.529 143.921 146.354C142.513 144.605 140.647 144.77 140.567 144.778C140.344 144.801 140.181 144.999 140.204 145.223C140.226 145.445 140.425 145.608 140.647 145.587C140.72 145.58 142.17 145.473 143.288 146.864C143.361 146.953 143.463 147.005 143.57 147.013Z" fill="#263238"/>
<path d="M134.206 147.406L135.916 147.163C135.916 147.163 134.892 148.329 134.206 147.406Z" fill="#263238"/>
<path d="M82.2179 222.32C85.7079 227.92 89.5979 233.55 93.4079 239.1L87.5179 244.4C82.2379 239.68 77.3679 234.74 72.7079 229.32C70.3679 226.6 68.1379 223.77 66.0079 220.49C65.4779 219.66 64.9579 218.8 64.4579 217.84C63.9579 216.88 63.4679 215.85 63.0279 214.55C62.8079 213.91 62.6079 213.17 62.4579 212.27C62.3179 211.38 62.1879 210.3 62.4279 208.78C62.6779 207.39 63.0279 206.56 63.3379 205.81C63.6479 205.07 63.9579 204.52 64.2579 203.96C65.4579 201.85 66.6279 200.33 67.7979 198.8C68.9779 197.29 70.1579 195.88 71.3479 194.51C73.7679 191.81 76.1879 189.22 78.6979 186.74C83.6879 181.76 88.7779 177.08 94.2479 172.6L104.638 184.77L89.6779 198.23C87.2279 200.5 84.7679 202.72 82.4779 205.01C81.3179 206.13 80.1879 207.26 79.1479 208.38C78.1179 209.47 77.1479 210.63 76.5479 211.44C76.5379 211.46 76.5179 211.47 76.5079 211.49C76.5779 211.68 76.6479 211.89 76.7279 212.1C76.9579 212.69 77.2379 213.34 77.5379 214.01C78.7979 216.69 80.4979 219.51 82.2179 222.32Z" fill="#3729D9"/>
<path opacity="0.2" d="M82.2179 222.32C85.7079 227.92 89.5979 233.55 93.4079 239.1L87.5179 244.4C82.2379 239.68 77.3679 234.74 72.7079 229.32C70.3679 226.6 68.1379 223.77 66.0079 220.49C65.4779 219.66 64.9579 218.8 64.4579 217.84C63.9579 216.88 63.4679 215.85 63.0279 214.55C62.8079 213.91 62.6079 213.17 62.4579 212.27C62.3179 211.38 62.1879 210.3 62.4279 208.78C62.6779 207.39 63.0279 206.56 63.3379 205.81C63.6479 205.07 63.9579 204.52 64.2579 203.96C65.4579 201.85 66.6279 200.33 67.7979 198.8C68.9779 197.29 70.1579 195.88 71.3479 194.51C73.7679 191.81 76.1879 189.22 78.6979 186.74C83.6879 181.76 88.7779 177.08 94.2479 172.6L104.638 184.77L89.6779 198.23C87.2279 200.5 84.7679 202.72 82.4779 205.01C81.3179 206.13 80.1879 207.26 79.1479 208.38C78.1179 209.47 77.1479 210.63 76.5479 211.44C76.5379 211.46 76.5179 211.47 76.5079 211.49C76.5779 211.68 76.6479 211.89 76.7279 212.1C76.9579 212.69 77.2379 213.34 77.5379 214.01C78.7979 216.69 80.4979 219.51 82.2179 222.32Z" fill="white"/>
<path d="M93.0149 236.619C93.0149 236.619 99.6589 239.083 100.684 240.377C101.709 241.671 95.1859 249.016 92.6539 250.044C90.1219 251.072 91.4259 248.023 91.4259 248.023C91.4259 248.023 88.1559 248.786 86.6299 246.304C85.1039 243.822 86.9049 237.034 93.0149 236.619Z" fill="#FF8B7B"/>
<path d="M163.734 255.636C163.734 255.636 164.335 255.503 165.497 253.906C166.497 252.531 166.534 251.134 166.595 250.304L162.4 253.857C162.4 253.857 158.67 252.429 156.369 254.119C151.728 257.529 153.04 261.368 153.576 262.478C154.111 263.588 157.949 262.906 160.608 260.7C163.268 258.495 163.734 255.636 163.734 255.636Z" fill="#FF8B7B"/>
</svg>
