<svg width="303" height="351" viewBox="0 0 303 351" fill="none" xmlns="http://www.w3.org/2000/svg">
<path d="M303 133.97C303 134.967 302.988 135.963 302.965 136.956C302.955 137.606 302.935 138.256 302.909 138.905C302.904 139.092 302.899 139.273 302.889 139.459C302.874 139.817 302.859 140.17 302.844 140.517C302.733 142.839 302.562 145.144 302.331 147.432C302.321 147.543 302.311 147.654 302.3 147.76C302.275 147.986 302.255 148.213 302.225 148.439C302.155 149.119 302.079 149.799 301.994 150.469C301.938 150.922 301.883 151.371 301.822 151.824C301.792 152.041 301.762 152.257 301.737 152.469C301.702 152.705 301.671 152.937 301.636 153.169C301.621 153.269 301.606 153.37 301.591 153.476C301.541 153.818 301.49 154.166 301.435 154.508C301.37 154.957 301.299 155.4 301.224 155.848C301.153 156.291 301.078 156.735 300.997 157.178C300.922 157.621 300.841 158.064 300.761 158.507C300.68 158.956 300.595 159.399 300.509 159.842C300.076 162.038 299.593 164.215 299.06 166.374C298.848 167.215 298.632 168.055 298.41 168.893C298.043 170.252 297.656 171.605 297.248 172.952C297.132 173.325 297.017 173.697 296.901 174.065C296.77 174.488 296.634 174.911 296.498 175.329C296.362 175.752 296.226 176.17 296.086 176.588C295.945 177.006 295.804 177.424 295.658 177.842C295.517 178.255 295.371 178.673 295.22 179.086C295.074 179.504 294.923 179.917 294.772 180.33C294.616 180.743 294.465 181.156 294.309 181.564C293.997 182.39 293.677 183.208 293.348 184.017C293.187 184.425 293.021 184.833 292.85 185.236C292.18 186.858 291.479 188.461 290.746 190.046C290.585 190.398 290.424 190.751 290.258 191.098C290.147 191.33 290.042 191.557 289.931 191.788C289.745 192.171 289.564 192.549 289.377 192.926C289.191 193.309 289 193.697 288.804 194.085C288.416 194.85 288.022 195.614 287.621 196.376C287.224 197.137 286.816 197.897 286.398 198.648C285.981 199.398 285.558 200.149 285.13 200.889C284.914 201.262 284.697 201.635 284.481 202.002C283.61 203.478 282.711 204.937 281.784 206.379C280.863 207.814 279.912 209.233 278.93 210.635C278.442 211.335 277.944 212.035 277.441 212.725C277.24 213.002 277.038 213.274 276.837 213.546C276.59 213.888 276.334 214.226 276.077 214.563C265.171 229.081 251.427 241.226 235.681 250.259C219.936 259.292 202.519 265.024 184.489 267.105C166.46 269.187 148.196 267.575 130.81 262.367C113.423 257.16 97.2766 248.466 83.3539 236.814C81.8844 235.585 80.4418 234.326 79.026 233.037C69.9412 224.757 62.0323 215.271 55.52 204.843C54.7098 203.538 53.9148 202.219 53.1498 200.889C41.4073 180.547 35.2427 157.462 35.28 133.97C35.28 59.9792 95.21 2.45909e-05 169.14 2.45909e-05C191.386 -0.0134691 213.283 5.52648 232.85 16.1182C252.417 26.71 269.035 42.019 281.2 60.6591C281.421 60.9965 281.643 61.339 281.864 61.6815C293.959 80.5202 301.113 102.107 302.663 124.446C302.889 127.589 303.002 130.763 303 133.97Z" fill="#F2F2F2"/>
<path d="M281.864 61.6815L96.448 61.6815C96.3147 61.6783 96.1879 61.623 96.0948 61.5275C96.0016 61.432 95.9495 61.3038 95.9495 61.1703C95.9495 61.0368 96.0016 60.9087 96.0948 60.8131C96.1879 60.7176 96.3147 60.6624 96.448 60.6591L281.2 60.6591C281.421 60.9965 281.643 61.339 281.864 61.6815Z" fill="#CACACA"/>
<path d="M107.697 54.5243C110.734 54.5243 113.195 52.0058 113.195 48.8992C113.195 45.7925 110.734 43.274 107.697 43.274C104.661 43.274 102.199 45.7925 102.199 48.8992C102.199 52.0058 104.661 54.5243 107.697 54.5243Z" fill="#3F3D56"/>
<path d="M126.69 54.5243C129.727 54.5243 132.188 52.0058 132.188 48.8992C132.188 45.7925 129.727 43.274 126.69 43.274C123.654 43.274 121.192 45.7925 121.192 48.8992C121.192 52.0058 123.654 54.5243 126.69 54.5243Z" fill="#3F3D56"/>
<path d="M145.683 54.5243C148.72 54.5243 151.181 52.0058 151.181 48.8992C151.181 45.7925 148.72 43.274 145.683 43.274C142.647 43.274 140.185 45.7925 140.185 48.8992C140.185 52.0058 142.647 54.5243 145.683 54.5243Z" fill="#3F3D56"/>
<path d="M302.663 124.446C297.827 126.647 293.494 130.202 289.71 135.093C285.337 140.749 280.651 144.733 275.866 147.432C275.639 147.558 275.418 147.679 275.191 147.8C270.901 150.114 266.196 151.557 261.347 152.046C259.883 152.193 258.411 152.264 256.939 152.257C256.325 152.252 255.711 152.237 255.102 152.207C253.658 152.136 252.229 151.995 250.825 151.794C242.763 150.646 235.471 147.543 230.071 144.627C222.673 140.543 214.642 137.731 206.314 136.307C204.824 136.06 203.338 135.867 201.855 135.728C201.241 135.667 200.632 135.622 200.023 135.581C198.529 135.481 197.036 135.434 195.545 135.44C194.78 135.445 194.02 135.461 193.255 135.491C180.402 135.994 163.64 139.661 148.608 152.469C148.407 152.64 148.211 152.811 148.009 152.982C147.823 153.144 147.637 153.31 147.451 153.476C145.071 155.593 142.829 157.859 140.738 160.26C138.34 163.011 136.121 165.913 134.095 168.948C131.689 172.502 128.879 175.764 125.721 178.668C121.05 182.982 117.31 188.206 114.729 194.019C112.149 199.833 110.782 206.112 110.715 212.473V212.725C110.71 212.997 110.71 213.274 110.71 213.546H276.842C277.043 213.274 277.245 213.002 277.441 212.725C277.944 212.035 278.442 211.335 278.93 210.635C279.912 209.235 280.863 207.816 281.784 206.379C282.715 204.938 283.614 203.48 284.481 202.002C284.697 201.635 284.914 201.262 285.13 200.889C285.558 200.149 285.981 199.398 286.398 198.648C286.816 197.897 287.224 197.137 287.621 196.376C288.024 195.616 288.418 194.852 288.804 194.085C289 193.697 289.191 193.309 289.377 192.926C289.564 192.549 289.745 192.171 289.931 191.788C290.042 191.557 290.147 191.33 290.258 191.098C290.424 190.751 290.585 190.398 290.746 190.046C291.481 188.459 292.182 186.856 292.85 185.236C293.021 184.833 293.187 184.425 293.348 184.017C293.675 183.206 293.995 182.389 294.309 181.564C294.465 181.156 294.616 180.743 294.772 180.33C294.923 179.917 295.074 179.504 295.22 179.086C295.371 178.673 295.517 178.255 295.658 177.842C295.804 177.424 295.945 177.006 296.086 176.588C296.226 176.17 296.362 175.752 296.498 175.329C296.634 174.911 296.77 174.488 296.901 174.065C297.017 173.697 297.132 173.325 297.248 172.952C297.656 171.607 298.043 170.254 298.41 168.893C298.632 168.056 298.848 167.217 299.06 166.374C299.593 164.219 300.076 162.041 300.509 159.842C300.595 159.399 300.68 158.956 300.761 158.507C300.841 158.064 300.922 157.621 300.997 157.178C301.078 156.735 301.153 156.291 301.224 155.848C301.299 155.4 301.37 154.957 301.435 154.508C301.49 154.166 301.541 153.818 301.591 153.476C301.606 153.37 301.621 153.269 301.636 153.169C301.671 152.932 301.702 152.7 301.732 152.469C301.762 152.252 301.792 152.036 301.822 151.824C301.883 151.371 301.938 150.922 301.994 150.469C302.079 149.799 302.155 149.119 302.225 148.439L302.23 148.44C302.25 148.213 302.275 147.986 302.3 147.76C302.311 147.654 302.321 147.543 302.331 147.432C302.562 145.146 302.733 142.841 302.844 140.517C302.859 140.17 302.874 139.817 302.889 139.459C302.899 139.273 302.904 139.092 302.909 138.905C302.935 138.256 302.955 137.606 302.965 136.956C302.99 135.964 303.002 134.969 303 133.97C303 130.767 302.888 127.592 302.663 124.446Z" fill="#382BDA"/>
<path d="M146.89 158.223H145.054V212.082H146.89V158.223Z" fill="#3F3D56"/>
<path d="M201.858 133.069H200.022V212.082H201.858V133.069Z" fill="#3F3D56"/>
<path d="M256.938 149.606H255.102V212.082H256.938V149.606Z" fill="#3F3D56"/>
<path d="M201.053 139.956C204.155 139.956 206.669 137.44 206.669 134.335C206.669 131.231 204.155 128.714 201.053 128.714C197.951 128.714 195.436 131.231 195.436 134.335C195.436 137.44 197.951 139.956 201.053 139.956Z" fill="#3F3D56"/>
<path d="M256.133 155.575C259.236 155.575 261.75 153.059 261.75 149.954C261.75 146.85 259.236 144.333 256.133 144.333C253.031 144.333 250.517 146.85 250.517 149.954C250.517 153.059 253.031 155.575 256.133 155.575Z" fill="#3F3D56"/>
<path d="M144.966 159.312C148.068 159.312 150.582 156.795 150.582 153.69C150.582 150.586 148.068 148.069 144.966 148.069C141.864 148.069 139.349 150.586 139.349 153.69C139.349 156.795 141.864 159.312 144.966 159.312Z" fill="#3F3D56"/>
<path d="M277.441 212.725C277.24 213.002 277.038 213.274 276.837 213.546C276.59 213.888 276.334 214.226 276.077 214.563L110.528 214.563V212.725L277.441 212.725Z" fill="#3F3D56"/>
<path d="M63.9685 345.06H69.2882L71.8189 324.524L63.9675 324.524L63.9685 345.06Z" fill="#FFB8B8"/>
<path d="M77.8082 345.279C77.1906 344.655 76.455 344.16 75.6443 343.824C74.833 343.491 73.9646 343.32 73.0879 343.32L69.9528 340.943L69.7867 341.008L64.1102 343.32H62.6106V350.22H79.7658V350.003C79.7684 349.126 79.5967 348.256 79.2606 347.445C78.9246 346.634 78.4309 345.898 77.8082 345.279Z" fill="#2F2E41"/>
<path d="M88.6838 345.06H94.0034L96.5342 324.524L88.6827 324.524L88.6838 345.06Z" fill="#FFB8B8"/>
<path d="M102.527 345.279C101.908 344.654 101.171 344.159 100.358 343.824C99.547 343.49 98.6785 343.319 97.8017 343.32L94.6716 340.943L94.5005 341.013L88.824 343.32H87.3244L87.3294 350.22H104.48V350.003C104.482 349.126 104.311 348.257 103.975 347.446C103.64 346.635 103.148 345.899 102.527 345.279Z" fill="#2F2E41"/>
<path d="M92.9361 232.675L51.1382 233.766L51.8651 254.137C51.8651 254.137 51.1382 259.593 52.592 261.048C54.0459 262.503 54.7728 262.503 54.0459 265.049C53.319 267.596 57.1596 271.755 56.6931 272.221C56.2267 272.688 55.1363 275.235 55.1363 275.235L58.7709 295.969C58.7709 295.969 61.3151 331.981 62.042 332.708C62.7689 333.436 63.4958 332.708 62.7689 334.527C62.042 336.346 61.3151 335.618 62.042 336.346C62.6859 337.041 63.2925 337.769 63.8593 338.528H72.6467C72.6467 338.528 73.3093 334.891 73.3093 334.527C73.3093 334.163 74.0362 331.981 74.0362 331.617C74.0362 331.253 73.3937 330.61 73.3937 330.61C73.1717 329.871 73.0217 329.112 72.9458 328.343C72.9458 327.616 70.765 299.606 70.765 299.606L75.1266 263.231L85.6669 298.879C85.6669 298.879 85.6669 330.162 86.3938 330.889C87.1207 331.617 87.1207 331.253 86.7573 332.708C86.3938 334.163 84.94 333.799 86.0303 334.891C87.1207 335.982 87.4842 334.163 87.1207 335.982L86.7573 337.801L97.661 337.957C97.661 337.957 99.1149 334.891 98.388 333.799C97.6611 332.708 97.7047 333.006 98.5915 331.22C99.4784 329.434 99.8418 329.071 99.4784 328.707C99.1149 328.343 99.1149 326.408 99.1149 326.408L97.2976 291.604C97.2976 291.604 96.9341 254.864 96.9341 253.773C96.9067 253.211 97.0101 252.651 97.2361 252.136V250.655L95.8438 245.406L92.9361 232.675Z" fill="#2F2E41"/>
<path d="M140.238 153.339C140.037 153.897 139.717 154.405 139.298 154.826C138.88 155.248 138.375 155.572 137.818 155.777C137.261 155.981 136.666 156.061 136.075 156.011C135.483 155.96 134.91 155.781 134.396 155.485L116.252 170.697L115.266 163.261L133.012 149.666C133.567 148.834 134.406 148.234 135.373 147.981C136.339 147.727 137.365 147.837 138.255 148.29C139.146 148.743 139.84 149.507 140.205 150.437C140.571 151.368 140.583 152.4 140.238 153.339Z" fill="#FFB8B8"/>
<path d="M60.2352 159.617C66.4579 159.617 71.5025 154.568 71.5025 148.341C71.5025 142.113 66.4579 137.064 60.2352 137.064C54.0125 137.064 48.968 142.113 48.968 148.341C48.968 154.568 54.0125 159.617 60.2352 159.617Z" fill="#FFB8B8"/>
<path d="M69.3696 137.118C68.3206 134.616 63.8252 133.13 56.7118 133.354C49.5983 133.578 48.3526 142.067 48.3526 142.067C44.4346 145.722 50.7602 157.134 51.8576 155.56C52.9551 153.987 54.7977 155.474 54.7977 155.474L53.0417 145.589C54.896 146.303 56.8903 146.783 58.6345 145.951L55.7447 144.404L62.9299 145.299L59.9667 143.018C60.0385 142.994 60.1104 142.969 60.1822 142.945C61.3706 143.458 62.6432 143.747 63.9363 143.798C65.447 143.787 67.0525 143.078 67.6855 141.705C67.8539 141.328 67.945 140.922 67.9537 140.509C70.0367 141.186 71.1304 143.628 71.1304 143.628C70.7349 141.41 70.1457 139.232 69.3696 137.118Z" fill="#2F2E41"/>
<path d="M69.2542 160.121C66.738 160.121 65.1176 160.469 61.2024 161.129C53.976 162.348 58.3038 169.219 58.3038 169.219C58.3038 169.219 58.6309 169.053 57.7452 169.219C56.8596 169.386 53.8401 172 53.8401 172L48.4404 176.799C40.3032 183.191 42.1249 193.163 42.1249 193.163L53.9911 205.114L48.7927 229.093C48.7927 229.093 51.0019 232.654 49.8595 234.25C48.7172 235.847 59.9242 235.388 59.9242 235.388C67.6589 238.838 94.909 235.922 94.909 235.922C94.5315 234.935 90.8831 227.285 90.8831 227.285C92.4683 224.545 90.9586 220.586 90.9586 220.586C90.9586 220.586 89.3835 201.861 88.377 199.272C87.3705 196.683 90.9535 182.657 93.3087 182.808C95.6638 182.959 110.877 175.193 110.877 175.193C110.877 175.193 110.494 174.583 115.516 172.528C118.401 171.394 121.046 169.725 123.311 167.608L125.375 163.483C124.383 163.866 121.037 157.55 121.037 157.55L119.577 158.107L118.732 157.862C118.732 157.862 112.135 159.741 110.786 161.111C109.437 162.481 108.984 162.098 107.767 162.405C106.549 162.712 106.398 163.569 106.015 163.473C105.633 163.377 104.953 164.536 104.42 164.384C103.887 164.233 102.744 164.843 101.984 164.994C101.225 165.145 95.8248 167.432 95.8248 167.432C92.4833 165.739 83.4252 166.424 83.4252 166.424C83.4252 166.424 80.4611 164.677 79.6207 166.424C79.3946 166.921 79.0315 167.342 78.5742 167.639C78.1169 167.937 77.5843 168.097 77.0391 168.101L73.4259 166.555C73.216 167.322 69.2748 159.326 69.2542 160.121Z" fill="#3F3D56"/>
<path d="M28.851 322.832L28.3489 311.533C23.1147 308.733 17.2767 307.254 11.3418 307.224C19.51 313.908 18.4892 326.792 24.0271 335.779C25.7757 338.569 28.1293 340.93 30.9134 342.686C33.6975 344.442 36.8406 345.548 40.11 345.923L46.9455 350.111C47.8834 344.878 47.6766 339.504 46.3393 334.358C45.0021 329.213 42.5661 324.419 39.1993 320.306C37.2877 318.018 35.0957 315.979 32.6752 314.239C31.0381 318.559 28.851 322.832 28.851 322.832Z" fill="#F2F2F2"/>
<path d="M2.64936e-06 350.401C-0.000231895 350.479 0.0151088 350.558 0.0451229 350.63C0.0751369 350.703 0.119235 350.769 0.174893 350.825C0.230552 350.881 0.296661 350.925 0.369426 350.955C0.442192 350.985 0.520171 351 0.598882 351H143.16C143.319 351 143.471 350.937 143.583 350.824C143.696 350.712 143.759 350.56 143.759 350.401C143.759 350.242 143.696 350.089 143.583 349.977C143.471 349.865 143.319 349.801 143.16 349.801H0.598882C0.520172 349.801 0.44219 349.816 0.369426 349.846C0.296662 349.877 0.230551 349.921 0.174893 349.976C0.119235 350.032 0.0751378 350.098 0.0451229 350.171C0.0151079 350.244 -0.000229224 350.322 2.64936e-06 350.401Z" fill="#CCCCCC"/>
<path d="M148.703 152.468H145.683V153.476H148.703V152.468Z" fill="#3F3D56"/>
<path d="M154.798 152.469V153.476H160.897V152.469H154.798ZM166.996 152.469V153.476H173.09V152.469H166.996ZM179.19 152.469V153.476H185.289V152.469H179.19ZM191.383 152.469V153.476H197.482V152.469H191.383ZM203.581 152.469V153.476H209.675V152.469H203.581ZM215.775 152.469V153.476H221.874V152.469H215.775ZM227.968 152.469V153.476H234.067V152.469H227.968ZM240.166 152.469V153.476H246.26V152.469H240.166ZM252.36 152.469V153.476H258.459V152.469H252.36ZM264.553 152.469V153.476H270.652V152.469H264.553ZM276.746 152.469V153.476H282.846V152.469H276.746ZM288.945 152.469V153.476H295.039V152.469H288.945ZM301.138 152.469V153.476H301.591C301.606 153.37 301.621 153.269 301.636 153.169C301.671 152.937 301.702 152.705 301.737 152.469H301.138Z" fill="#3F3D56"/>
<path d="M201.039 132.323H198.019V133.33H201.039V132.323Z" fill="#3F3D56"/>
<path d="M207.134 132.323V133.33H213.233V132.323H207.134ZM219.332 132.323V133.33H225.427V132.323H219.332ZM231.526 132.323V133.33H237.625V132.323H231.526ZM243.719 132.323V133.33H249.818V132.323H243.719ZM255.918 132.323V133.33H262.012V132.323H255.918ZM268.111 132.323V133.33H274.21V132.323H268.111ZM280.304 132.323V133.33H286.403V132.323H280.304ZM292.503 132.323V133.33H298.597V132.323H292.503Z" fill="#3F3D56"/>
<path d="M256.898 147.432H253.878V148.439H256.898V147.432Z" fill="#3F3D56"/>
<path d="M262.993 147.432V148.439H269.092V147.432H262.993ZM275.191 147.432V148.439H281.285V147.432H275.191ZM287.385 147.432V148.439H293.484V147.432H287.385ZM299.578 147.432V148.439L302.23 148.44C302.25 148.213 302.275 147.986 302.3 147.76C302.311 147.654 302.321 147.543 302.331 147.432H299.578Z" fill="#3F3D56"/>
<path d="M77.0483 252.482V220.043C77.0491 219.386 77.31 218.757 77.7739 218.292C78.2378 217.828 78.8668 217.567 79.5228 217.566H104.002C104.658 217.567 105.287 217.828 105.751 218.292C106.215 218.757 106.475 219.386 106.476 220.043V252.482C106.475 253.139 106.215 253.768 105.751 254.232C105.287 254.697 104.658 254.958 104.002 254.959H79.5228C78.8668 254.958 78.2378 254.697 77.7739 254.232C77.31 253.768 77.0491 253.139 77.0483 252.482Z" fill="#E6E6E6"/>
<path d="M78.926 242.684V221.829C78.9267 221.214 79.1711 220.624 79.6055 220.19C80.04 219.755 80.629 219.51 81.2434 219.51H102.281C102.895 219.51 103.485 219.755 103.919 220.19C104.353 220.624 104.598 221.214 104.599 221.829V250.696C104.598 251.311 104.353 251.9 103.919 252.335C103.485 252.77 102.895 253.014 102.281 253.015H89.2487C86.5119 253.012 83.8881 251.922 81.9529 249.986C80.0177 248.049 78.9291 245.423 78.926 242.684Z" fill="white"/>
<path d="M82.3323 227.648C82.333 227.047 82.5717 226.471 82.9963 226.046C83.4208 225.621 83.9965 225.382 84.5968 225.381H99.1906C99.7912 225.381 100.367 225.62 100.792 226.045C101.217 226.47 101.455 227.047 101.455 227.648C101.455 228.249 101.217 228.825 100.792 229.25C100.367 229.675 99.7912 229.914 99.1906 229.914H84.5968C83.9965 229.914 83.4208 229.675 82.9963 229.25C82.5717 228.825 82.333 228.249 82.3323 227.648Z" fill="#E6E6E6"/>
<path d="M82.3323 234.699C82.333 234.098 82.5717 233.522 82.9963 233.097C83.4208 232.672 83.9965 232.433 84.5968 232.432H99.1906C99.7912 232.432 100.367 232.671 100.792 233.096C101.217 233.521 101.455 234.098 101.455 234.699C101.455 235.3 101.217 235.876 100.792 236.301C100.367 236.727 99.7912 236.965 99.1906 236.965H84.5968C83.9965 236.965 83.4208 236.726 82.9963 236.301C82.5717 235.876 82.333 235.3 82.3323 234.699Z" fill="#E6E6E6"/>
<path d="M82.3323 241.75C82.333 241.149 82.5717 240.573 82.9963 240.148C83.4208 239.723 83.9965 239.484 84.5968 239.484H99.1906C99.7912 239.484 100.367 239.722 100.792 240.147C101.217 240.572 101.455 241.149 101.455 241.75C101.455 242.351 101.217 242.927 100.792 243.353C100.367 243.778 99.7912 244.016 99.1906 244.016H84.5968C83.9965 244.016 83.4208 243.777 82.9963 243.352C82.5717 242.927 82.333 242.351 82.3323 241.75Z" fill="#E6E6E6"/>
<path d="M77.6266 241.15C77.0761 241.16 76.5302 241.049 76.0271 240.826C75.5241 240.602 75.0762 240.27 74.715 239.855C74.3538 239.439 74.0881 238.949 73.9366 238.419C73.7851 237.889 73.7514 237.333 73.8381 236.789L52.9389 225.336L59.0556 222.025L78.4228 233.667C79.3264 233.873 80.1231 234.404 80.6618 235.159C81.2006 235.913 81.4439 236.84 81.3458 237.762C81.2476 238.685 80.8148 239.539 80.1293 240.163C79.4439 240.788 78.5534 241.139 77.6266 241.15Z" fill="#FFB8B8"/>
<path d="M65.474 232.684L58.0629 231.367L55.4093 229.159L53.6246 228.249L47.4737 223.928L47.4554 223.874L37.6819 194.96C37.2332 192.585 37.7083 190.129 39.0101 188.094C40.3118 186.058 42.3418 184.598 44.6842 184.012C45.9795 183.689 47.3284 183.645 48.6421 183.882C49.9557 184.119 51.2043 184.631 52.3058 185.386C53.4072 186.141 54.3365 187.12 55.0324 188.26C55.7283 189.4 56.1751 190.675 56.3433 192L59.4887 216.781L64.7025 222.169L66.9837 222.611L67.5088 225.07L69.4999 228.152L65.474 232.684Z" fill="#3F3D56"/>
</svg>
