<svg width="500" height="500" viewBox="0 0 500 500" fill="none" xmlns="http://www.w3.org/2000/svg">
<path d="M94.2869 177.852C102.041 157.081 120.132 140.465 141.486 134.502C162.84 128.539 186.922 133.379 204.316 147.128C218.269 158.158 227.513 173.96 235.936 189.624C244.359 205.289 235.468 194.228 247.951 206.897C260.434 219.566 278.377 228.344 295.859 225.074C317.16 221.089 331.326 201.331 342.723 182.899C354.119 164.467 366.918 144.244 387.707 138.126C395.48 135.839 405.565 136.727 409.376 143.877C412.533 149.797 409.89 157.015 407.227 163.173C389.18 204.908 371.133 246.644 353.086 288.379C342.08 313.831 330.366 340.254 309.087 358.035C283.455 379.454 247.345 384.828 214.334 379.726C196.061 376.902 177.798 370.906 163.58 359.084C144.427 343.16 134.856 318.878 123.849 296.534C111.853 272.181 119.339 273.642 104.176 251.124C79.8819 215.046 94.2869 177.852 94.2869 177.852Z" fill="#5D50F8"/>
<g opacity="0.9">
<path d="M94.2869 177.852C102.041 157.081 120.132 140.465 141.486 134.502C162.84 128.539 186.922 133.379 204.316 147.128C218.269 158.158 227.513 173.96 235.936 189.624C244.359 205.289 235.468 194.228 247.951 206.897C260.434 219.566 278.377 228.344 295.859 225.074C317.16 221.089 331.326 201.331 342.723 182.899C354.119 164.467 366.918 144.244 387.707 138.126C395.48 135.839 405.565 136.727 409.376 143.877C412.533 149.797 409.89 157.015 407.227 163.173C389.18 204.908 371.133 246.644 353.086 288.379C342.08 313.831 330.366 340.254 309.087 358.035C283.455 379.454 247.345 384.828 214.334 379.726C196.061 376.902 177.798 370.906 163.58 359.084C144.427 343.16 134.856 318.878 123.849 296.534C111.853 272.181 119.339 273.642 104.176 251.124C79.8819 215.046 94.2869 177.852 94.2869 177.852Z" fill="white"/>
</g>
<path d="M110.889 390.888H104.556V391.138H110.889V390.888Z" fill="#EBEBEB"/>
<path d="M252.139 427.016C359.221 427.016 446.028 421.947 446.028 415.693C446.028 409.439 359.221 404.37 252.139 404.37C145.057 404.37 58.25 409.439 58.25 415.693C58.25 421.947 145.057 427.016 252.139 427.016Z" fill="#F5F5F5"/>
<path d="M403.35 95.08C403.35 104.74 395.52 112.57 385.86 112.57C385.47 112.57 385.08 112.56 384.69 112.53C375.59 111.93 368.38 104.35 368.38 95.08C368.38 85.81 375.59 78.23 384.69 77.63C385.08 77.6 385.47 77.59 385.86 77.59C395.52 77.59 403.35 85.42 403.35 95.08Z" fill="#407BFF"/>
<path opacity="0.2" d="M401.01 95.08C401.01 104.35 393.8 111.93 384.69 112.53C375.59 111.93 368.38 104.35 368.38 95.08C368.38 85.81 375.59 78.23 384.69 77.63C393.8 78.23 401.01 85.81 401.01 95.08Z" fill="white"/>
<path opacity="0.4" d="M396.752 100.08C399.518 93.4038 396.347 85.7492 389.671 82.9836C382.994 80.218 375.339 83.3885 372.574 90.0652C369.808 96.7419 372.979 104.396 379.655 107.162C386.332 109.928 393.987 106.757 396.752 100.08Z" fill="white"/>
<g opacity="0.7">
<path d="M390.671 97.864C391.177 100.757 389.189 102.692 385.609 102.996L385.549 105.389H383.374L383.434 102.996C381.333 102.801 379.392 102.149 378.138 101.322L379.123 98.625C380.425 99.474 381.977 100.017 383.504 100.17L383.6 96.495C381.471 95.886 379.111 95.082 378.65 92.449C378.144 89.557 380.173 87.6 383.824 87.337L383.884 84.944H386.059L386.003 87.359C387.574 87.51 389.064 87.947 390.222 88.598L389.368 91.295C388.322 90.665 387.126 90.294 385.929 90.164L385.838 93.992C387.943 94.579 390.233 95.362 390.671 97.864ZM383.667 93.383L383.749 90.251C382.551 90.491 381.973 91.164 382.097 91.991C382.215 92.665 382.826 93.056 383.667 93.383ZM387.246 98.429C387.136 97.799 386.566 97.406 385.756 97.124L385.69 100.103C386.823 99.864 387.391 99.256 387.246 98.429Z" fill="white"/>
</g>
<path d="M298.865 255.71H239.695V415.741H298.865V255.71Z" fill="#382ADA"/>
<path opacity="0.2" d="M256.4 255.555H239.68V415.773H256.4V255.555Z" fill="black"/>
<path d="M239.616 319.71H180.446V415.74H239.616V319.71Z" fill="#382ADA"/>
<path opacity="0.2" d="M198.226 319.71H180.446V415.64H198.226V319.71Z" fill="black"/>
<path d="M180.4 340.1H121.23V415.74H180.4V340.1Z" fill="#382ADA"/>
<path opacity="0.2" d="M138.83 340.1H121.23V415.64H138.83V340.1Z" fill="black"/>
<path d="M121.212 360.494H62.0439V415.742H121.212V360.494Z" fill="#382ADA"/>
<path opacity="0.2" d="M78.7661 360.439H62.0461V415.639H78.7661V360.439Z" fill="black"/>
<path d="M222.918 132.081C220.108 135.478 217.214 138.806 214.318 142.129L212.129 144.608L210.165 146.798C209.357 147.751 208.825 148.947 208.636 150.25L207.977 156.705C207.756 158.895 207.543 161.084 207.286 163.273C206.803 167.65 206.3 172.026 205.713 176.398C205.507 177.931 204.097 179.006 202.565 178.8C201.213 178.618 200.218 177.499 200.143 176.186C199.889 171.786 199.722 167.39 199.573 162.996C199.483 160.798 199.438 158.602 199.384 156.406L199.235 149.704C199.276 146.621 200.294 143.521 202.057 140.919L204.234 137.991L206.207 135.369C208.86 131.89 211.516 128.418 214.255 125.013C216.191 122.607 219.71 122.226 222.116 124.162C224.522 126.098 224.903 129.617 222.967 132.023C222.956 132.034 222.928 132.069 222.918 132.081Z" fill="#407BFF"/>
<path d="M199.449 176.692L195.794 182.897L204.208 183.751L205.689 177.451C205.864 176.705 205.385 175.952 204.629 175.822C203.234 175.583 201.052 175.484 199.449 176.692Z" fill="#CB7A63"/>
<path d="M195.794 182.897L196.178 185.092C196.367 186.177 197.311 186.967 198.412 186.964L201.152 186.957C201.987 186.955 202.752 186.493 203.144 185.756L204.208 183.751L195.794 182.897Z" fill="#CB7A63"/>
<path d="M198.854 172.04L206.953 172.317L206.431 177.155L199.59 176.627L198.854 172.04Z" fill="#407BFF"/>
<path opacity="0.3" d="M198.854 172.04L206.953 172.317L206.431 177.155L199.59 176.627L198.854 172.04Z" fill="white"/>
<path d="M207.022 222.837L205.691 224.837L204.673 222.771L207.098 191.373C207.483 186.381 205.8 182.28 199.59 182.129C193.782 181.988 190.257 185.956 189.852 190.939L187.309 222.28L185.918 224.274L184.969 222.214L187.528 190.88C188.001 185.087 190.572 180.439 199.706 180.659C208.856 180.88 209.876 185.625 209.43 191.431L207.022 222.837Z" fill="#263238"/>
<path d="M181.285 201.658L179.679 201.65C176.335 201.634 173.501 204.109 173.067 207.425L170.106 230.052L180.524 230.423L181.285 201.658Z" fill="#263238"/>
<path opacity="0.2" d="M181.285 201.658L179.679 201.65C176.335 201.634 173.501 204.109 173.067 207.425L170.106 230.052L180.524 230.423L181.285 201.658Z" fill="white"/>
<path d="M210.7 223.102L208.346 223.036L208.575 191.638C208.611 186.646 206.641 182.545 200.421 182.394C194.603 182.253 191.355 186.221 191.299 191.204L190.947 222.545L188.602 222.479L188.97 191.145C189.038 185.352 191.284 180.704 200.433 180.924C209.599 181.145 210.95 185.89 210.911 191.696L210.7 223.102Z" fill="#263238"/>
<path d="M221.741 231.648L175.436 230.274L175.883 206.932C175.927 203.942 178.345 201.583 181.285 201.66L214.998 202.542C218.806 202.642 221.881 205.851 221.865 209.716L221.741 231.648Z" fill="#263238"/>
<path opacity="0.4" d="M216.61 231.495L180.525 230.424C177.713 230.341 175.47 227.941 175.512 225.068L175.883 206.931C175.927 203.941 178.345 201.582 181.285 201.659L214.998 202.541C218.806 202.641 221.881 205.85 221.865 209.715L221.763 226.418C221.751 229.304 219.443 231.579 216.61 231.495Z" fill="white"/>
<g opacity="0.3">
<path d="M210.7 223.102L209.509 225.102L208.347 223.036L208.576 191.638C208.612 186.646 206.642 182.545 200.422 182.394C194.604 182.253 191.356 186.221 191.3 191.204L190.948 222.545L189.697 224.539L188.604 222.478L188.972 191.144C189.04 185.351 191.286 180.703 200.435 180.923C209.601 181.144 210.952 185.889 210.913 191.695L210.7 223.102Z" fill="white"/>
</g>
<path d="M191.744 210.434L187.885 210.329L187.902 208.876L191.76 208.98L191.744 210.434Z" fill="#263238"/>
<path d="M191.64 219.855L187.772 219.747L187.79 218.288L191.656 218.395L191.64 219.855Z" fill="#263238"/>
<path d="M211.576 210.969L207.701 210.865L207.712 209.408L211.585 209.512L211.576 210.969Z" fill="#263238"/>
<path d="M211.514 220.41L207.631 220.302L207.642 218.839L211.523 218.947L211.514 220.41Z" fill="#263238"/>
<path d="M204.193 211.598L195.907 211.374L195.938 208.265L204.218 208.487L204.193 211.598Z" fill="white"/>
<path d="M239.941 96.992C240.26 96.931 240.599 97.263 240.703 97.745C240.806 98.227 240.639 98.679 240.321 98.74C240.002 98.801 239.663 98.469 239.56 97.987C239.43 97.489 239.622 97.053 239.941 96.992Z" fill="#263238"/>
<path d="M239.998 97.396C240.324 97.244 240.623 96.904 240.754 96.569C240.475 96.83 240.092 96.975 239.71 96.966C239.856 97.048 239.99 97.228 239.998 97.396Z" fill="#263238"/>
<path d="M240.636 102.29C241.476 102.325 242.287 101.986 242.853 101.365C241.628 100.301 240.555 99.076 239.661 97.722L240.636 102.29Z" fill="#B74D3C"/>
<path d="M237.263 96.203C237.726 95.622 238.442 95.3 239.184 95.339C239.215 95.349 239.247 95.354 239.28 95.353C239.443 95.35 239.572 95.215 239.569 95.052C239.566 94.889 239.431 94.76 239.269 94.763C238.341 94.688 237.434 95.066 236.835 95.779C236.789 95.832 236.765 95.9 236.765 95.971C236.765 96.134 236.897 96.266 237.06 96.266C237.133 96.272 237.205 96.249 237.263 96.203Z" fill="#263238"/>
<path d="M234.218 125.103C225.899 125.192 224.624 120.664 224.624 120.664C227.095 118.238 227.218 113.798 226.693 109.84C227.33 110.735 228.124 111.517 229.164 112.21C231.154 113.518 235.471 111.416 235.471 111.416C235.482 111.416 235.471 112.154 235.527 113.216C235.661 115.81 236.231 120.361 238.591 121.066C238.591 121.066 243.388 125.003 234.218 125.103Z" fill="#CB7A63"/>
<path d="M235.593 112.091C235.505 112.473 235.416 112.856 235.363 113.261C235.329 113.284 235.294 113.296 235.259 113.297C233.311 113.781 231.157 113.515 229.167 112.207C228.119 111.513 227.325 110.736 226.691 109.841C226.565 108.837 226.381 107.856 226.197 106.956L235.256 111.91L235.593 112.091Z" fill="#CB7A63"/>
<path d="M241.554 105.299C241.495 108.375 239.812 110.971 237.458 112.383H237.446C237.435 112.395 237.423 112.395 237.411 112.395C236.779 112.795 236.089 113.08 235.363 113.261C235.329 113.284 235.294 113.296 235.259 113.297C233.311 113.781 231.157 113.515 229.167 112.207C228.119 111.513 227.325 110.736 226.691 109.841C225.06 107.604 224.38 104.618 223.214 100.422C222.854 99.1889 222.782 97.8839 223.011 96.6209C223.829 92.1039 228.155 89.1089 232.661 89.9269C238.984 91.0499 241.678 99.6789 241.554 105.299Z" fill="#CB7A63"/>
<path opacity="0.2" d="M237.003 112.546C236.421 112.915 236.131 113.06 235.527 113.217C235.471 112.155 235.483 111.417 235.471 111.417C235.527 110.489 235.594 109.561 235.594 109.561C235.594 109.594 236.567 112.546 237.003 112.546Z" fill="black"/>
<path d="M239.369 93.954C238.692 95.03 236.56 95.94 236.632 95.69C236.999 94.797 236.931 93.083 235.824 93.484C236.13 94.167 237.048 99.302 236.632 99.925C236.404 100.266 236.189 104.374 234.44 107.996C233.045 110.886 233.045 111.782 233.045 111.782L227.366 112.878C225.24 112.612 223.26 109.896 223.085 109.595C222.343 108.318 220.074 106.641 218.894 105.754C218.384 105.37 217.985 104.805 217.769 104.199C217.38 103.109 218.175 99.181 218.348 97.334C218.597 94.677 219.992 92.219 223.846 90.641C226.229 89.665 228.234 87.524 230.665 86.677C233.097 85.83 235.989 85.868 238.043 87.421C239.053 88.185 241.066 91.257 239.369 93.954Z" fill="#263238"/>
<path d="M236.402 97.694C238.152 98.207 239.064 100.785 239.139 102.423C239.224 104.232 238.016 105.375 236.439 104.164C235.251 103.231 234.403 101.934 234.024 100.472C233.596 98.699 234.652 97.18 236.402 97.694Z" fill="#CB7A63"/>
<path d="M238.506 103.718C238.506 104.14 238.164 104.482 237.742 104.482C237.32 104.482 236.978 104.14 236.978 103.718C236.978 103.296 237.32 102.954 237.742 102.954C238.164 102.954 238.506 103.296 238.506 103.718Z" fill="#407BFF"/>
<path opacity="0.3" d="M238.506 103.718C238.506 104.14 238.164 104.482 237.742 104.482C237.32 104.482 236.978 104.14 236.978 103.718C236.978 103.296 237.32 102.954 237.742 102.954C238.164 102.954 238.506 103.296 238.506 103.718Z" fill="white"/>
<path d="M222.236 123.663C222.236 123.663 223.529 119.674 225.478 118.414C227.428 117.154 235.987 118.461 237.328 118.986C238.669 119.511 240.023 122.602 240.023 122.602L222.236 123.663Z" fill="#407BFF"/>
<path opacity="0.3" d="M222.236 123.663C222.236 123.663 223.529 119.674 225.478 118.414C227.428 117.154 235.987 118.461 237.328 118.986C238.669 119.511 240.023 122.602 240.023 122.602L222.236 123.663Z" fill="white"/>
<path d="M241.781 121.959C240.449 121.74 240.082 121.539 238.556 121.419C233.964 121.203 229.362 121.253 224.776 121.568C223.101 121.688 221.49 122.012 219.891 122.395C216.606 123.184 214.391 126.245 214.635 129.59C215.317 138.952 218.084 144.445 218.492 150.608C219.305 162.887 217.346 171.496 217.013 174.362L223.308 175.318C234.552 175.051 242.017 172.634 248.205 170.002C248.205 170.002 246.583 155.157 248.151 149.808C252.436 135.194 249.654 132.882 248.809 128.698C248.105 125.22 245.307 122.537 241.781 121.959Z" fill="#407BFF"/>
<path opacity="0.1" d="M248.151 149.804C247.637 151.548 247.469 154.299 247.469 157.206C247.469 163.244 248.207 169.998 248.207 169.998C242.023 172.637 234.554 175.052 223.305 175.32L217.01 174.358C217.345 171.495 219.302 162.886 218.497 150.608C218.083 144.447 215.322 138.957 214.639 129.586C214.393 126.243 216.607 123.179 219.894 122.396C221.493 122.005 223.103 121.692 224.78 121.569C229.365 121.256 233.96 121.2 238.556 121.412C240.077 121.535 240.446 121.736 241.776 121.96C245.309 122.541 248.105 125.214 248.809 128.703C249.111 130.201 249.67 131.465 250.05 133.142C250.519 135.177 250.743 137.827 249.96 142.266C249.604 144.347 249.023 146.818 248.151 149.804Z" fill="white"/>
<path d="M243.59 121.506C245.888 121.83 248.165 122.289 250.453 122.675C252.733 123.115 255.011 123.567 257.283 124.056L256.46 123.991C257.474 124.036 258.366 124.115 258.929 124.15C259.201 124.17 259.392 124.165 259.321 124.206C259.307 124.229 259.174 124.271 259.019 124.371C258.825 124.475 258.591 124.644 258.337 124.904C257.813 125.429 257.603 126.132 257.618 126.34C257.614 126.567 257.686 126.514 257.698 126.338C257.737 125.977 257.66 125.287 257.511 124.577L257.615 124.872C256.462 121.544 255.367 118.193 254.364 114.805C253.391 111.406 252.456 107.992 251.792 104.472C251.537 103.121 252.426 101.818 253.778 101.563C254.812 101.368 255.819 101.848 256.348 102.686C258.253 105.72 259.886 108.86 261.481 112.015C263.047 115.182 264.52 118.385 265.935 121.61L266.039 121.905C266.426 122.925 266.804 123.998 267.031 125.441C267.135 126.165 267.208 127.027 267.043 128.147C266.89 129.242 266.29 130.811 265.108 131.964C264.53 132.543 263.905 132.95 263.31 133.262C262.742 133.547 262.183 133.749 261.727 133.873C260.775 134.136 260.06 134.213 259.428 134.278C258.18 134.396 257.259 134.401 256.462 134.448L256.334 134.456L255.638 134.383C253.327 134.141 251.021 133.863 248.717 133.572C246.422 133.228 244.115 132.956 241.83 132.549C238.79 132.008 236.764 129.104 237.306 126.063C237.835 123.093 240.628 121.093 243.59 121.506Z" fill="#407BFF"/>
<g opacity="0.1">
<path d="M243.59 121.506C245.888 121.83 248.165 122.289 250.453 122.675C252.733 123.115 255.011 123.567 257.283 124.056L256.46 123.991C257.474 124.036 258.366 124.115 258.929 124.15C259.201 124.17 259.392 124.165 259.321 124.206C259.307 124.229 259.174 124.271 259.019 124.371C258.825 124.475 258.591 124.644 258.337 124.904C257.813 125.429 257.603 126.132 257.618 126.34C257.614 126.567 257.686 126.514 257.698 126.338C257.737 125.977 257.66 125.287 257.511 124.577L257.615 124.872C256.462 121.544 255.367 118.193 254.364 114.805C253.391 111.406 252.456 107.992 251.792 104.472C251.537 103.121 252.426 101.818 253.778 101.563C254.812 101.368 255.819 101.848 256.348 102.686C258.253 105.72 259.886 108.86 261.481 112.015C263.047 115.182 264.52 118.385 265.935 121.61L266.039 121.905C266.426 122.925 266.804 123.998 267.031 125.441C267.135 126.165 267.208 127.027 267.043 128.147C266.89 129.242 266.29 130.811 265.108 131.964C264.53 132.543 263.905 132.95 263.31 133.262C262.742 133.547 262.183 133.749 261.727 133.873C260.775 134.136 260.06 134.213 259.428 134.278C258.18 134.396 257.259 134.401 256.462 134.448L256.334 134.456L255.638 134.383C253.327 134.141 251.021 133.863 248.717 133.572C246.422 133.228 244.115 132.956 241.83 132.549C238.79 132.008 236.764 129.104 237.306 126.063C237.835 123.093 240.628 121.093 243.59 121.506Z" fill="white"/>
</g>
<path d="M284.943 99.978L314.924 99.059L314.464 89.667L284.543 91.637L284.943 99.978Z" fill="#407BFF"/>
<path d="M262.282 100.338L286.526 99.5579L286.157 91.8569L261.956 93.4179L262.282 100.338Z" fill="#407BFF"/>
<path d="M283.325 99.7549L284.914 99.9229L284.52 91.6949L282.955 92.0149L283.325 99.7549Z" fill="#263238"/>
<path opacity="0.2" d="M283.325 99.7549L284.914 99.9229L284.52 91.6949L282.955 92.0149L283.325 99.7549Z" fill="black"/>
<path d="M284.916 99.979L286.544 99.929L286.141 91.532L284.517 91.639L284.916 99.979Z" fill="#263238"/>
<path d="M258.518 99.1999L260.924 100.317L260.606 93.5699L258.316 94.9129L258.518 99.1999Z" fill="#263238"/>
<path d="M246.198 99.1159L253.327 98.7449L253.179 95.5869L246.053 96.0129L246.198 99.1159Z" fill="#263238"/>
<path opacity="0.2" d="M246.198 99.1159L253.327 98.7449L253.179 95.5869L246.053 96.0129L246.198 99.1159Z" fill="black"/>
<path d="M252.352 99.383L260.284 99.078L260.076 94.658L252.153 95.127L252.352 99.383Z" fill="#263238"/>
<path opacity="0.2" d="M258.518 99.1999L260.924 100.317L260.606 93.5699L258.316 94.9129L258.518 99.1999Z" fill="black"/>
<path d="M260.967 100.381L262.282 100.338L261.956 93.418L260.643 93.503L260.967 100.381Z" fill="#263238"/>
<path d="M313.903 99.0899L318.606 98.9219L318.144 89.4939L313.445 89.7339L313.903 99.0899Z" fill="#263238"/>
<path d="M315.989 99.7569L321.989 99.5889L322.138 99.1739C323.42 95.6169 323.165 91.6869 321.434 88.3259L315.448 88.7399L315.579 89.0539C317.001 92.4559 317.147 96.2569 315.989 99.7569Z" fill="#407BFF"/>
<g opacity="0.4">
<path d="M309.598 90.7088L312.025 90.5588L312.074 91.5938L309.609 91.7358C309.55 91.3978 309.57 91.0518 309.598 90.7088Z" fill="white"/>
<path d="M308.13 90.8239C308.104 91.1659 308.088 91.5089 308.141 91.8449L287.096 93.0369L287.045 92.1019L308.13 90.8239Z" fill="white"/>
</g>
<g opacity="0.4">
<path d="M262.469 93.9639L262.513 94.8029L282.286 93.6289L282.243 92.7109L262.469 93.9639Z" fill="white"/>
</g>
<g opacity="0.4">
<path d="M315.978 89.0639L316.037 90.1119L320.727 89.8029L320.676 88.7339L315.978 89.0639Z" fill="white"/>
</g>
<path opacity="0.3" d="M321.384 98.2039C321.354 98.5619 321.336 98.9209 321.393 99.2749L316.536 99.4409L316.477 98.3919L321.384 98.2039Z" fill="black"/>
<path opacity="0.3" d="M312.686 97.6189C312.658 97.9659 312.642 98.3139 312.696 98.6559L286.954 99.5759L286.903 98.6419L312.686 97.6189Z" fill="black"/>
<path opacity="0.3" d="M282.049 98.5229C282.029 98.8289 282.017 99.1379 282.061 99.4409L262.934 100.113L262.89 99.2719L282.049 98.5229Z" fill="black"/>
<path d="M244.595 96.133L244.657 99.153C244.667 99.666 245.132 100.075 245.697 100.065L248.148 100.023L248.046 95.075L245.596 95.165C245.032 95.187 244.585 95.619 244.595 96.133Z" fill="#407BFF"/>
<path d="M257.265 104.511L258.196 98.8829C258.235 98.6489 258.243 98.4109 258.222 98.1759L257.955 95.1929C257.911 94.8069 257.64 94.4279 257.22 94.2989L252.724 94.2469C252.131 94.0599 251.479 94.3439 251.282 94.8719L250.475 98.5589C250.414 98.8349 250.42 99.1219 250.492 99.3949L251.826 104.472C251.955 104.896 252.346 105.226 252.83 105.319L255.768 105.345C256.46 105.478 257.124 105.109 257.265 104.511Z" fill="#CE7A63"/>
<path d="M259.909 106.882L252.264 109.571L250.991 104.874L257.555 102.877L259.909 106.882Z" fill="#407BFF"/>
<path opacity="0.3" d="M259.909 106.882L252.264 109.571L250.991 104.874L257.555 102.877L259.909 106.882Z" fill="white"/>
<path opacity="0.2" d="M249.962 142.267L244.103 131.208L250.052 133.142C250.521 135.178 250.745 137.828 249.962 142.267Z" fill="black"/>
<path d="M280.167 234.075L278.955 249.096L285.792 249.226L287.668 233.752L280.167 234.075Z" fill="#CE7A63"/>
<path d="M286.875 247.174L279.076 247.332C278.782 247.338 278.529 247.561 278.468 247.871L277.125 254.711C277.002 255.317 277.359 255.911 277.922 256.038C277.994 256.054 278.068 256.062 278.142 256.062C280.953 255.953 283.451 255.737 286.952 255.671C291.082 255.589 290.04 256.14 294.896 256.116C297.822 256.098 298.323 252.517 297.08 252.367C291.394 251.715 290.787 249.886 288.575 247.748C288.094 247.339 287.489 247.135 286.875 247.174Z" fill="#263238"/>
<path d="M205.509 298.446L202.744 312.242L210.095 314.487L213.636 300.396L205.509 298.446Z" fill="#CE7A63"/>
<path d="M244.84 170.604C244.84 170.604 234.377 231.668 228.694 249.639C224.648 262.435 213.794 304.299 213.794 304.299L203.948 302.116C203.948 302.116 202.847 273.62 208.323 258.911C210.191 253.893 212.629 249.366 213.289 246.255C216.109 232.964 210.297 208.852 212.866 190.868C214.259 181.12 217.234 174.168 217.234 174.168L244.84 170.604Z" fill="#263238"/>
<path d="M228.694 249.639C224.648 262.435 213.794 304.299 213.794 304.299L203.948 302.116C203.948 302.116 202.847 273.62 208.323 258.911C210.191 253.893 212.629 249.366 213.289 246.255C216.109 232.964 210.297 208.852 212.866 190.868C214.259 181.12 217.234 174.168 217.234 174.168" fill="#263238"/>
<path opacity="0.2" d="M232.011 189.479L237.278 210.161L241.131 190.378L232.011 189.479Z" fill="black"/>
<path d="M288.148 241.28L278.528 241.59C278.528 241.59 279.238 229 279.238 210.64C279.238 207.81 279.678 205.02 280.298 202.52C281.668 196.91 283.888 192.73 283.888 192.73C283.888 192.73 282.858 192.79 281.098 192.87C275.658 193.15 241.936 194.892 241.276 194.842C240.776 194.792 237.712 195.198 232.218 192.52C222.01 187.543 221.908 173.57 221.908 173.57L248.198 170C248.198 170.02 248.628 170.08 254.958 170.19C274.148 170.52 297.731 171.263 301.87 177.851C307.691 187.119 288.148 241.28 288.148 241.28Z" fill="#263238"/>
<path d="M210.463 310.916L202.396 311.025C202.092 311.029 201.843 311.254 201.797 311.565L200.793 318.46C200.7 319.071 201.103 319.673 201.693 319.805C201.769 319.822 201.845 319.831 201.922 319.831C204.826 319.739 207.402 319.537 211.023 319.493C215.296 319.437 214.247 319.987 219.275 319.994C222.304 319.995 222.62 316.383 221.325 316.223C215.4 315.528 214.667 313.678 212.256 311.506C211.736 311.09 211.098 310.88 210.463 310.916Z" fill="#263238"/>
<path opacity="0.2" d="M280.297 202.52C281.667 196.91 283.887 192.73 283.887 192.73C283.887 192.73 282.857 192.79 281.097 192.87C281.017 192.84 280.937 192.82 280.837 192.82L287.849 192.23L280.297 202.52Z" fill="black"/>
<path d="M96.5419 127.758C103.316 127.758 108.808 122.266 108.808 115.492C108.808 108.718 103.316 103.226 96.5419 103.226C89.7676 103.226 84.2759 108.718 84.2759 115.492C84.2759 122.266 89.7676 127.758 96.5419 127.758Z" fill="#407BFF"/>
<path opacity="0.6" d="M96.5419 127.758C103.316 127.758 108.808 122.266 108.808 115.492C108.808 108.718 103.316 103.226 96.5419 103.226C89.7676 103.226 84.2759 108.718 84.2759 115.492C84.2759 122.266 89.7676 127.758 96.5419 127.758Z" fill="white"/>
<path d="M96.564 98.549C95.556 98.549 94.74 97.7329 94.74 96.7249V88.6699C94.74 87.6619 95.556 86.8459 96.564 86.8459C97.572 86.8459 98.388 87.6619 98.388 88.6699V96.7249C98.388 97.7319 97.572 98.549 96.564 98.549Z" fill="#407BFF"/>
<path d="M96.564 143.95C95.556 143.95 94.74 143.134 94.74 142.126V134.071C94.74 133.063 95.556 132.247 96.564 132.247C97.572 132.247 98.388 133.063 98.388 134.071V142.126C98.388 143.133 97.572 143.95 96.564 143.95Z" fill="#407BFF"/>
<path d="M83.36 104.018C82.893 104.018 82.426 103.84 82.07 103.484L78.588 100.002C77.875 99.2889 77.875 98.1349 78.588 97.4229C79.301 96.7099 80.456 96.7099 81.167 97.4229L84.649 100.905C85.361 101.618 85.361 102.772 84.649 103.484C84.294 103.84 83.827 104.018 83.36 104.018Z" fill="#407BFF"/>
<path d="M113.014 133.671C112.547 133.671 112.081 133.493 111.724 133.137L108.478 129.891C107.765 129.179 107.765 128.024 108.478 127.312C109.19 126.599 110.345 126.599 111.057 127.312L114.303 130.558C115.016 131.27 115.016 132.425 114.303 133.137C113.947 133.493 113.48 133.671 113.014 133.671Z" fill="#407BFF"/>
<path d="M77.891 117.222H69.836C68.828 117.222 68.012 116.406 68.012 115.398C68.012 114.39 68.828 113.574 69.836 113.574H77.891C78.899 113.574 79.715 114.39 79.715 115.398C79.715 116.406 78.899 117.222 77.891 117.222Z" fill="#407BFF"/>
<path d="M123.292 117.222H115.237C114.229 117.222 113.413 116.406 113.413 115.398C113.413 114.39 114.229 113.574 115.237 113.574H123.292C124.299 113.574 125.116 114.39 125.116 115.398C125.116 116.406 124.3 117.222 123.292 117.222Z" fill="#407BFF"/>
<path d="M80.2901 133.496C79.8231 133.496 79.3571 133.318 79.0001 132.962C78.2871 132.25 78.2871 131.095 79.0001 130.383L82.0701 127.313C82.7811 126.6 83.9371 126.6 84.6491 127.313C85.3611 128.025 85.3611 129.18 84.6491 129.892L81.5791 132.962C81.2241 133.318 80.7571 133.496 80.2901 133.496Z" fill="#407BFF"/>
<path d="M109.768 104.018C109.301 104.018 108.835 103.84 108.478 103.484C107.765 102.772 107.765 101.617 108.478 100.905L111.77 97.613C112.483 96.9 113.637 96.9 114.349 97.613C115.062 98.325 115.062 99.48 114.349 100.192L111.057 103.484C110.701 103.84 110.234 104.018 109.768 104.018Z" fill="#407BFF"/>
<g opacity="0.6">
<path d="M96.564 98.549C95.556 98.549 94.74 97.7329 94.74 96.7249V88.6699C94.74 87.6619 95.556 86.8459 96.564 86.8459C97.572 86.8459 98.388 87.6619 98.388 88.6699V96.7249C98.388 97.7319 97.572 98.549 96.564 98.549Z" fill="white"/>
<path d="M96.564 143.95C95.556 143.95 94.74 143.134 94.74 142.126V134.071C94.74 133.063 95.556 132.247 96.564 132.247C97.572 132.247 98.388 133.063 98.388 134.071V142.126C98.388 143.133 97.572 143.95 96.564 143.95Z" fill="white"/>
<path d="M83.36 104.018C82.893 104.018 82.426 103.84 82.07 103.484L78.588 100.002C77.875 99.2889 77.875 98.1349 78.588 97.4229C79.301 96.7099 80.456 96.7099 81.167 97.4229L84.649 100.905C85.361 101.618 85.361 102.772 84.649 103.484C84.294 103.84 83.827 104.018 83.36 104.018Z" fill="white"/>
<path d="M113.014 133.671C112.547 133.671 112.081 133.493 111.724 133.137L108.478 129.891C107.765 129.179 107.765 128.024 108.478 127.312C109.19 126.599 110.345 126.599 111.057 127.312L114.303 130.558C115.016 131.27 115.016 132.425 114.303 133.137C113.947 133.493 113.48 133.671 113.014 133.671Z" fill="white"/>
<path d="M77.891 117.222H69.836C68.828 117.222 68.012 116.406 68.012 115.398C68.012 114.39 68.828 113.574 69.836 113.574H77.891C78.899 113.574 79.715 114.39 79.715 115.398C79.715 116.406 78.899 117.222 77.891 117.222Z" fill="white"/>
<path d="M123.292 117.222H115.237C114.229 117.222 113.413 116.406 113.413 115.398C113.413 114.39 114.229 113.574 115.237 113.574H123.292C124.299 113.574 125.116 114.39 125.116 115.398C125.116 116.406 124.3 117.222 123.292 117.222Z" fill="white"/>
<path d="M80.2901 133.496C79.8231 133.496 79.3571 133.318 79.0001 132.962C78.2871 132.25 78.2871 131.095 79.0001 130.383L82.0701 127.313C82.7811 126.6 83.9371 126.6 84.6491 127.313C85.3611 128.025 85.3611 129.18 84.6491 129.892L81.5791 132.962C81.2241 133.318 80.7571 133.496 80.2901 133.496Z" fill="white"/>
<path d="M109.768 104.018C109.301 104.018 108.835 103.84 108.478 103.484C107.765 102.772 107.765 101.617 108.478 100.905L111.77 97.613C112.483 96.9 113.637 96.9 114.349 97.613C115.062 98.325 115.062 99.48 114.349 100.192L111.057 103.484C110.701 103.84 110.234 104.018 109.768 104.018Z" fill="white"/>
</g>
</svg>
