<svg width="154" height="154" viewBox="0 0 154 154" fill="none" xmlns="http://www.w3.org/2000/svg">
<g id="BG ELEMENT !" opacity="0.05">
<circle id="Ellipse 40" cx="5" cy="5" r="5" fill="#0F001A"/>
<circle id="Ellipse 44" cx="5" cy="33.6875" r="5" fill="#0F001A"/>
<circle id="Ellipse 45" cx="5" cy="62.375" r="5" fill="#0F001A"/>
<circle id="Ellipse 46" cx="5" cy="91.0625" r="5" fill="#0F001A"/>
<circle id="Ellipse 64" cx="5" cy="119.75" r="5" fill="#0F001A"/>
<circle id="Ellipse 70" cx="5" cy="148.438" r="5" fill="#0F001A"/>
<circle id="Ellipse 41" cx="33.6875" cy="5" r="5" fill="#0F001A"/>
<circle id="Ellipse 47" cx="33.6875" cy="33.6875" r="5" fill="#0F001A"/>
<circle id="Ellipse 48" cx="33.6875" cy="62.375" r="5" fill="#0F001A"/>
<circle id="Ellipse 49" cx="33.6875" cy="91.0625" r="5" fill="#0F001A"/>
<circle id="Ellipse 65" cx="33.6875" cy="119.75" r="5" fill="#0F001A"/>
<circle id="Ellipse 71" cx="33.6875" cy="148.438" r="5" fill="#0F001A"/>
<circle id="Ellipse 42" cx="62.375" cy="5" r="5" fill="#0F001A"/>
<circle id="Ellipse 50" cx="62.375" cy="33.6875" r="5" fill="#0F001A"/>
<circle id="Ellipse 51" cx="62.375" cy="62.375" r="5" fill="#0F001A"/>
<circle id="Ellipse 52" cx="62.375" cy="91.0625" r="5" fill="#0F001A"/>
<circle id="Ellipse 66" cx="62.375" cy="119.75" r="5" fill="#0F001A"/>
<circle id="Ellipse 72" cx="62.375" cy="148.438" r="5" fill="#0F001A"/>
<circle id="Ellipse 43" cx="91.0625" cy="5" r="5" fill="#0F001A"/>
<circle id="Ellipse 56" cx="119.75" cy="5" r="5" fill="#0F001A"/>
<circle id="Ellipse 60" cx="148.438" cy="5" r="5" fill="#0F001A"/>
<circle id="Ellipse 53" cx="91.0625" cy="33.6875" r="5" fill="#0F001A"/>
<circle id="Ellipse 57" cx="119.75" cy="33.6875" r="5" fill="#0F001A"/>
<circle id="Ellipse 61" cx="148.438" cy="33.6875" r="5" fill="#0F001A"/>
<circle id="Ellipse 54" cx="91.0625" cy="62.375" r="5" fill="#0F001A"/>
<circle id="Ellipse 58" cx="119.75" cy="62.375" r="5" fill="#0F001A"/>
<circle id="Ellipse 62" cx="148.438" cy="62.375" r="5" fill="#0F001A"/>
<circle id="Ellipse 55" cx="91.0625" cy="91.0625" r="5" fill="#0F001A"/>
<circle id="Ellipse 67" cx="91.0625" cy="119.75" r="5" fill="#0F001A"/>
<circle id="Ellipse 73" cx="91.0625" cy="148.438" r="5" fill="#0F001A"/>
<circle id="Ellipse 59" cx="119.75" cy="91.0625" r="5" fill="#0F001A"/>
<circle id="Ellipse 68" cx="119.75" cy="119.75" r="5" fill="#0F001A"/>
<circle id="Ellipse 74" cx="119.75" cy="148.438" r="5" fill="#0F001A"/>
<circle id="Ellipse 63" cx="148.438" cy="91.0625" r="5" fill="#0F001A"/>
<circle id="Ellipse 69" cx="148.438" cy="119.75" r="5" fill="#0F001A"/>
<circle id="Ellipse 75" cx="148.438" cy="148.438" r="5" fill="#0F001A"/>
</g>
</svg>
