<svg width="500" height="500" viewBox="0 0 500 500" fill="none" xmlns="http://www.w3.org/2000/svg">
<path d="M403.354 117.635C375.435 58.186 276.295 66.573 238.037 108.38C199.779 150.186 187.341 176.979 152.829 161.363C118.317 145.747 74.3111 149.923 71.7861 199.527C69.2611 249.131 109.699 307.79 173.876 325.142C238.053 342.494 238.037 403.901 322.976 391.51C369.286 384.754 370.341 334.65 363.801 293.209C357.261 251.768 435.732 186.579 403.354 117.635Z" fill="#5D50F8"/>
<path opacity="0.9" d="M403.354 117.635C375.435 58.186 276.295 66.573 238.037 108.38C199.779 150.186 187.341 176.979 152.829 161.363C118.317 145.747 74.3111 149.923 71.7861 199.527C69.2611 249.131 109.699 307.79 173.876 325.142C238.053 342.494 238.037 403.901 322.976 391.51C369.286 384.754 370.341 334.65 363.801 293.209C357.261 251.768 435.732 186.579 403.354 117.635Z" fill="white"/>
<path d="M250 427.561C357.082 427.561 443.889 422.492 443.889 416.238C443.889 409.985 357.082 404.915 250 404.915C142.918 404.915 56.1111 409.985 56.1111 416.238C56.1111 422.492 142.918 427.561 250 427.561Z" fill="#F5F5F5"/>
<path d="M291.73 282.068L284.088 283.311L286.967 301.012L244.668 326.52L196.465 315.734L193.585 298.032L185.943 299.275L189.796 322.964L247.715 346.441L247.752 346.67L247.922 346.525L248.129 346.609L248.092 346.38L295.584 305.756L291.73 282.068Z" fill="#263238"/>
<path opacity="0.2" d="M291.73 282.068L284.088 283.311L286.967 301.012L244.668 326.52L196.465 315.734L193.585 298.032L185.943 299.275L189.796 322.964L247.715 346.441L247.752 346.67L247.922 346.525L248.129 346.609L248.092 346.38L295.584 305.756L291.73 282.068Z" fill="white"/>
<path d="M299.493 287.258L276.7 287.291L263.513 280.057L312.66 279.986L299.493 287.258Z" fill="#263238"/>
<path d="M316.769 281.167L259.406 281.251C258.496 281.252 257.757 280.515 257.755 279.605C257.754 278.695 258.491 277.956 259.401 277.954L316.764 277.871C317.674 277.87 318.413 278.607 318.415 279.517C318.417 280.426 317.68 281.165 316.769 281.167Z" fill="#263238"/>
<path d="M178.173 303.32L200.967 303.282L214.132 296.007L164.984 296.09L178.173 303.32Z" fill="#263238"/>
<path d="M160.878 297.284L218.241 297.187C219.151 297.185 219.888 296.446 219.886 295.536C219.885 294.626 219.145 293.889 218.235 293.89L160.872 293.987C159.962 293.989 159.225 294.728 159.227 295.638C159.229 296.549 159.968 297.285 160.878 297.284Z" fill="#263238"/>
<path d="M258.791 398.629H232.945V333.865C232.945 326.728 238.731 320.942 245.868 320.942C253.005 320.942 258.791 326.728 258.791 333.865V398.629Z" fill="#263238"/>
<path opacity="0.3" d="M258.791 398.629H232.945V333.865C232.945 326.728 238.731 320.942 245.868 320.942C253.005 320.942 258.791 326.728 258.791 333.865V398.629Z" fill="white"/>
<path d="M272.505 411.121H219.23L228.411 393.881H263.325L272.505 411.121Z" fill="#263238"/>
<path opacity="0.2" d="M272.505 411.121H219.23L228.411 393.881H263.325L272.505 411.121Z" fill="white"/>
<path d="M278.501 409.107H213.236C210.586 409.107 208.438 411.255 208.438 413.905V418.681H283.3V413.905C283.299 411.255 281.151 409.107 278.501 409.107Z" fill="#263238"/>
<path d="M245.868 339.87C248.434 339.87 250.514 337.79 250.514 335.224C250.514 332.658 248.434 330.578 245.868 330.578C243.302 330.578 241.222 332.658 241.222 335.224C241.222 337.79 243.302 339.87 245.868 339.87Z" fill="#263238"/>
<path d="M325.089 89.807H353.817C358.702 89.807 362.663 93.767 362.663 98.653V123.655C362.663 128.54 358.702 132.501 353.817 132.501H342.455L339.453 140.395L336.451 132.501H325.088C320.203 132.501 316.242 128.541 316.242 123.655V98.653C316.242 93.767 320.203 89.807 325.089 89.807Z" fill="#407BFF"/>
<path opacity="0.7" d="M325.089 89.807H353.817C358.702 89.807 362.663 93.767 362.663 98.653V123.655C362.663 128.54 358.702 132.501 353.817 132.501H342.455L339.453 140.395L336.451 132.501H325.088C320.203 132.501 316.242 128.541 316.242 123.655V98.653C316.242 93.767 320.203 89.807 325.089 89.807Z" fill="white"/>
<path d="M339.453 106.088C333.683 100.087 327.215 102.56 327.215 108.404C327.215 114.248 339.453 122.329 339.453 122.329C339.453 122.329 351.691 114.248 351.691 108.404C351.691 102.56 345.223 100.087 339.453 106.088Z" fill="#407BFF"/>
<path d="M148.398 117.515H119.67C114.784 117.515 110.824 121.475 110.824 126.361V151.363C110.824 156.248 114.785 160.209 119.67 160.209H131.032L134.034 168.103L137.036 160.209H148.399C153.284 160.209 157.245 156.249 157.245 151.363V126.361C157.244 121.476 153.283 117.515 148.398 117.515Z" fill="#407BFF"/>
<path opacity="0.7" d="M148.398 117.515H119.67C114.784 117.515 110.824 121.475 110.824 126.361V151.363C110.824 156.248 114.785 160.209 119.67 160.209H131.032L134.034 168.103L137.036 160.209H148.399C153.284 160.209 157.245 156.249 157.245 151.363V126.361C157.244 121.476 153.283 117.515 148.398 117.515Z" fill="white"/>
<path d="M144.113 148.837C149.681 143.269 149.681 134.241 144.113 128.673C138.545 123.105 129.518 123.105 123.95 128.673C118.382 134.241 118.382 143.269 123.95 148.837C129.518 154.405 138.545 154.405 144.113 148.837Z" fill="#407BFF"/>
<path d="M132.537 145.124C132.152 145.124 131.787 144.955 131.538 144.662L125.944 138.071C125.476 137.519 125.544 136.693 126.095 136.224C126.646 135.757 127.473 135.823 127.942 136.375L132.537 141.789L140.125 132.849C140.594 132.296 141.421 132.23 141.972 132.698C142.524 133.166 142.592 133.993 142.123 134.545L133.536 144.663C133.287 144.954 132.922 145.124 132.537 145.124Z" fill="white"/>
<path d="M303.616 222.617L303.949 217.947L298.367 213.594C297.959 213.276 297.456 213.103 296.938 213.103H293.22C292.096 213.103 291.134 213.908 290.934 215.014L290.189 219.144C289.976 220.323 290.695 221.47 291.848 221.794L295.344 222.774C295.447 222.803 295.547 222.838 295.645 222.881C296.548 223.28 301.873 225.488 303.616 222.617Z" fill="#E4897B"/>
<path d="M312.825 222.9L302.033 216.639L300.334 222.846L310.288 229.057L312.825 222.9Z" fill="#E4897B"/>
<path d="M334.902 200.967C336.477 205.264 334.35 237.405 327.484 241.593C322.849 244.42 303.983 226.224 303.983 226.224L304.664 217.933L320.587 227.387C321.541 209.813 320.587 197.945 326.117 195.238L334.902 200.967Z" fill="#263238"/>
<path opacity="0.3" d="M334.34 221.5C333.26 229.65 331.32 237.76 328.45 240.79C328.14 241.12 327.81 241.39 327.48 241.59C326.84 241.98 325.93 241.97 324.84 241.66C318.01 239.75 303.98 226.22 303.98 226.22L304.66 217.93L320.59 227.39C321.54 209.81 320.59 197.95 326.12 195.24L334.9 200.97C335.7 203.13 335.55 212.34 334.34 221.5Z" fill="white"/>
<path opacity="0.2" d="M334.34 221.5C333.26 229.65 331.32 237.76 328.45 240.79C324.54 224.17 328.03 208.76 328.03 208.76C328.03 208.76 330.72 214.19 334.34 221.5Z" fill="black"/>
<path d="M388.143 276.407C388.143 276.407 363.108 265.42 335.125 275.832C335.125 275.832 327.861 216.544 328.036 208.348C328.211 200.151 371.615 200.584 371.615 200.584C371.615 200.584 373.81 224.345 377.246 238.586C380.683 252.826 389.446 273.579 388.143 276.407Z" fill="#263238"/>
<path d="M322.857 409.834L331.546 409.6C331.871 409.591 332.161 409.808 332.243 410.123L334.068 417.12C334.257 417.845 333.725 418.552 332.974 418.56C329.837 418.591 325.302 418.53 321.362 418.637C316.755 418.761 313.826 418.535 308.424 418.681C305.157 418.769 304.133 415.507 305.489 415.172C311.665 413.649 315.702 413.95 320.962 410.504C321.534 410.128 322.17 409.852 322.857 409.834Z" fill="#263238"/>
<path d="M367.068 409.834L375.757 409.6C376.082 409.591 376.372 409.808 376.454 410.123L378.279 417.12C378.468 417.845 377.937 418.552 377.185 418.56C374.049 418.591 369.513 418.53 365.573 418.637C360.966 418.761 358.038 418.535 352.635 418.681C349.368 418.769 348.344 415.507 349.7 415.172C355.876 413.649 359.913 413.95 365.173 410.504C365.746 410.128 366.382 409.852 367.068 409.834Z" fill="#263238"/>
<path d="M380.962 250.601C385.141 268.723 377.969 411.243 377.969 411.243H364.108L358.182 292.468L336.354 411.243L321.541 410.165C331.225 318.157 339.785 263.226 339.785 263.226L339.765 256.285L380.962 250.601Z" fill="#263238"/>
<path opacity="0.2" d="M321.538 410.164L336.356 411.242L353.534 317.744L358.179 292.473L364.106 411.242H377.965C377.965 411.242 385.142 268.721 380.961 250.606L339.762 256.285L339.784 263.225C339.784 263.225 331.226 318.154 321.538 410.164Z" fill="white"/>
<path d="M375.117 229.265C375.362 230.414 375.6 231.531 375.842 232.615C375.971 233.193 376.098 233.761 376.233 234.317C376.511 235.514 376.782 236.679 377.052 237.789C377.189 238.355 377.324 238.91 377.456 239.454C379.054 245.976 380.366 250.719 380.681 252.824C374.689 253.929 352.102 258.105 339.787 260.366C337.914 255.782 336.298 251.406 334.917 247.242C334.749 246.738 334.582 246.235 334.427 245.739C334.083 244.69 333.764 243.657 333.45 242.645C333.288 242.118 333.139 241.599 332.98 241.083C332.685 240.056 332.392 239.039 332.116 238.051C331.971 237.498 331.817 236.958 331.687 236.424C324.596 209.729 327.427 194.401 327.427 194.401C327.427 194.401 331.636 192.38 336.716 190.75C337.383 190.524 338.068 190.327 338.774 190.125C343.296 188.863 350.883 187.634 356.157 186.922C357.272 186.773 358.394 186.655 359.497 186.552C359.553 186.547 359.609 186.542 359.665 186.537C365.253 186.038 370.105 190.311 370.412 195.913C370.716 201.446 371.298 206.87 372.028 212.046C372.8 217.538 373.755 222.758 374.749 227.515C374.835 227.949 374.92 228.382 375.014 228.803L375.117 229.265Z" fill="#407BFF"/>
<path d="M349.222 167.598C349.303 173.51 350.322 184.092 354.798 186.763C354.798 186.763 345.504 194.702 342.793 194.756C340.89 194.794 338.25 191.532 338.25 191.532C343.888 188.327 342.804 183.728 340.896 179.667L349.222 167.598Z" fill="#E4897B"/>
<path opacity="0.2" d="M345.828 172.521L340.899 179.66C341.354 180.62 341.757 181.611 342.03 182.609C344.229 181.61 346.819 178.088 346.558 175.516C346.428 174.232 346.138 173.047 345.828 172.521Z" fill="black"/>
<path d="M342.75 194.77C342.75 194.77 345.143 196.758 347.868 198.662C350.933 196.414 358.013 190.587 356.933 186.471C356.268 185.33 352.958 185.089 352.958 185.089C352.958 185.089 350.237 190.169 342.75 194.77Z" fill="#407BFF"/>
<path d="M342.75 194.77C342.75 194.77 340.472 197.234 339.203 200.097C336.474 198.912 336.427 190.926 337.189 189.915C338.943 188.419 341.244 188.102 341.244 188.102C341.244 188.102 340.08 191.932 342.75 194.77Z" fill="#407BFF"/>
<g opacity="0.5">
<path d="M342.75 194.77C342.75 194.77 345.143 196.758 347.868 198.662C350.933 196.414 358.013 190.587 356.933 186.471C356.268 185.33 352.958 185.089 352.958 185.089C352.958 185.089 350.237 190.169 342.75 194.77Z" fill="white"/>
<path d="M342.75 194.77C342.75 194.77 340.472 197.234 339.203 200.097C336.474 198.912 336.427 190.926 337.189 189.915C338.943 188.419 341.244 188.102 341.244 188.102C341.244 188.102 340.08 191.932 342.75 194.77Z" fill="white"/>
</g>
<path d="M390.46 277.9C389.91 279.36 386.86 279.81 386.86 279.81C388.01 271.46 385.15 264.8 382.82 260.43C377.11 249.71 361.09 237.63 355.04 222.08C354.77 221.41 354.53 220.74 354.31 220.06C347.79 200.1 355.95 185.56 355.95 185.56C357.05 185.7 358.12 185.85 359.13 186.02C359.9 186.14 360.64 186.28 361.35 186.41C368.44 187.74 372.61 189.4 372.61 189.4C372.61 189.4 375.4 223.69 378.24 239.16C381.1 254.63 391.01 276.45 390.46 277.9Z" fill="#263238"/>
<path opacity="0.3" d="M390.46 277.9C389.91 279.36 386.86 279.81 386.86 279.81C388.01 271.46 385.15 264.8 382.82 260.43C379.06 253.38 370.84 245.73 363.94 236.9C360.47 232.47 357.33 227.74 355.27 222.63C355.18 222.45 355.11 222.26 355.04 222.08C354.77 221.41 354.53 220.74 354.31 220.06C347.79 200.1 355.95 185.56 355.95 185.56C357.05 185.7 358.12 185.85 359.13 186.02C359.9 186.14 360.64 186.28 361.35 186.41C368.44 187.74 372.61 189.4 372.61 189.4C372.61 189.4 373.28 197.56 374.28 207.72C374.66 211.49 375.08 215.54 375.54 219.55C376.37 226.86 377.3 234.04 378.24 239.16C381.1 254.63 391.01 276.45 390.46 277.9Z" fill="white"/>
<path opacity="0.2" d="M357.5 202.3C357.5 202.3 354.64 212.91 355.04 222.08C354.77 221.41 354.53 220.74 354.31 220.06C347.79 200.1 355.95 185.56 355.95 185.56C357.05 185.7 358.12 185.85 359.13 186.02L360.05 197.28L353.77 198.66L357.5 202.3Z" fill="black"/>
<path d="M334.946 277.943L336.469 278.942C336.469 278.942 333.306 256.259 332.793 225.86C332.77 224.394 332.76 222.981 332.753 221.633C332.688 195.897 336.46 191.044 336.706 190.752L333.039 192.191L326.394 194.822C325.395 216.831 334.946 277.943 334.946 277.943Z" fill="#263238"/>
<path opacity="0.3" d="M334.946 277.943L336.469 278.942C336.469 278.942 333.306 256.259 332.793 225.86C332.77 224.394 332.76 222.981 332.753 221.633C332.688 195.897 336.46 191.044 336.706 190.752L333.039 192.191L326.394 194.822C325.395 216.831 334.946 277.943 334.946 277.943Z" fill="white"/>
<path opacity="0.2" d="M333.109 199.934L328.967 202.797C328.967 202.797 330.644 215.31 332.754 221.634C332.689 195.898 336.461 191.045 336.707 190.753L333.04 192.192C331.619 193.691 329.448 196.249 328.268 199.01L333.109 199.934Z" fill="black"/>
<path opacity="0.1" d="M371.79 204.397C371.79 204.397 372.328 209.141 374.637 212.715C374.329 209.73 374.033 206.766 373.754 203.941C373.139 203.937 372.477 204.085 371.79 204.397Z" fill="black"/>
<path opacity="0.2" d="M353.534 317.744L358.179 292.473L357.284 279.099C357.284 279.099 350.915 302.29 353.534 317.744Z" fill="black"/>
<path d="M329.676 156.896C328.298 159.53 329.186 162.891 329.583 165.08C329.98 167.269 330.235 170.178 332.351 166.569C334.467 162.96 334.594 150.047 329.676 156.896Z" fill="#263238"/>
<path d="M349.284 163.057C349.962 170.505 351.198 171.521 348.041 175.849C343.292 182.36 334.29 184.885 331.81 177.615C329.577 171.072 327.004 158.988 333.798 155.005C340.491 151.081 348.605 155.61 349.284 163.057Z" fill="#FF8B7B"/>
<path d="M349.302 168.169C345.457 168.894 345.649 167.249 345.796 166.842C346.437 165.063 344.828 163.009 342.983 160.298C341.139 157.586 346.339 152.815 350.963 153.134C355.22 153.426 355.722 166.958 349.302 168.169Z" fill="#263238"/>
<path d="M333.656 173.936C333.656 173.936 336.452 174.096 341.329 171.335C341.057 173.112 340.13 174.759 337.185 175.552C334.239 176.345 333.656 173.936 333.656 173.936Z" fill="white"/>
<path d="M353.412 167.465C352.961 169.349 351.796 170.818 350.573 171.59C348.733 172.751 347.342 170.99 347.458 168.706C347.563 166.65 348.647 163.569 350.684 163.347C352.691 163.129 353.928 165.312 353.412 167.465Z" fill="#FF8B7B"/>
<path d="M333.999 166.384C333.999 166.384 333.394 169.349 332.423 170.893C333.419 171.545 334.808 170.936 334.808 170.936L333.999 166.384Z" fill="#FF5652"/>
<path d="M350.375 149.977C348.321 147.868 335.018 148.702 330.305 151.587C327.873 153.076 328.075 155.471 329.061 156.669C332.555 160.913 336.015 157.402 336.015 157.402C340.567 153.329 344.519 157.325 344.519 157.325L351.603 153.852C351.603 153.852 352.17 151.819 350.375 149.977Z" fill="#263238"/>
<path d="M340.186 164.7C340.29 165.318 340.045 165.87 339.64 165.934C339.235 165.998 338.823 165.549 338.719 164.931C338.615 164.314 338.86 163.761 339.264 163.697C339.67 163.633 340.082 164.082 340.186 164.7Z" fill="#263238"/>
<path d="M333.184 165.804C333.288 166.422 333.044 166.974 332.638 167.038C332.233 167.102 331.821 166.653 331.717 166.036C331.613 165.418 331.857 164.866 332.262 164.802C332.668 164.738 333.08 165.187 333.184 165.804Z" fill="#263238"/>
<path d="M341.966 162.105C341.843 162.142 341.704 162.113 341.603 162.018C340.407 160.883 339.082 161.172 339.069 161.174C338.871 161.22 338.672 161.097 338.624 160.899C338.576 160.702 338.7 160.504 338.896 160.459C338.966 160.443 340.626 160.08 342.109 161.489C342.257 161.63 342.264 161.862 342.124 162.008C342.08 162.055 342.025 162.087 341.966 162.105Z" fill="#263238"/>
<path d="M329.763 163.879C329.696 163.899 329.623 163.9 329.55 163.878C329.355 163.819 329.243 163.614 329.3 163.42C329.877 161.473 331.501 160.996 331.571 160.966C331.766 160.91 331.972 161.022 332.03 161.217C332.088 161.411 331.979 161.613 331.785 161.671C331.717 161.688 330.47 162.072 330.007 163.634C329.972 163.756 329.877 163.845 329.763 163.879Z" fill="#263238"/>
<path d="M310.367 228.94L265.468 223.579L255.586 258.407L263.593 271.431L312.508 275.519L320.586 237.708L310.367 228.94Z" fill="#263238"/>
<path opacity="0.5" d="M255.59 258.405L258.703 263.484L259.401 264.607L263.592 271.432L312.513 275.517L320.583 237.707L316.224 233.967L314.88 232.813L310.371 228.939L265.469 223.577L255.59 258.405Z" fill="white"/>
<path opacity="0.4" d="M320.583 237.707L276.174 232.96L265.469 223.577L310.371 228.939L320.583 237.707Z" fill="white"/>
<path opacity="0.2" d="M276.174 232.96L263.592 271.432L255.59 258.405L265.469 223.577L276.174 232.96Z" fill="white"/>
<path d="M258.703 263.484L259.401 264.607L271.034 228.566L316.224 233.967L314.88 232.813L270.21 227.829L258.703 263.484Z" fill="#263238"/>
<path d="M301.028 231.422L298.678 229.448L287.35 227.945L289.423 230.115L301.028 231.422Z" fill="#263238"/>
<path d="M305.4 232.051C305.4 232.051 305.359 220.25 304.995 219.484C304.631 218.718 288.727 216.889 287.543 216.72C286.359 216.551 281.682 228.243 281.682 228.243L282.649 229.583L285.655 229.839C285.655 229.839 288.966 219.773 289.343 219.517C289.72 219.261 301.972 220.76 302.315 221.007C302.657 221.254 301.78 230.293 301.78 230.293L302.877 231.72L305.4 232.051Z" fill="#263238"/>
<path d="M258.359 253.045L261.803 257.178L262.081 256.311L264.282 249.5L264.547 248.681L265.017 247.223C265.017 247.223 264.11 248.344 262.869 249.622C261.518 251.005 259.774 252.571 258.359 253.045Z" fill="#407BFF"/>
<path opacity="0.2" d="M259.447 253.311L262.08 256.31L264.281 249.499L264.546 248.68C263.447 250.163 261.445 252.56 259.447 253.311Z" fill="white"/>
<path opacity="0.2" d="M262.869 249.622C263.353 249.557 263.839 249.524 264.281 249.5L265.017 247.223C265.017 247.223 264.11 248.343 262.869 249.622Z" fill="black"/>
<path d="M256.738 244.704L256.409 250.772C256.409 250.772 260.136 248.7 264.326 249.336L264.599 248.488L266.299 243.209L266.481 242.657C266.481 242.657 260.987 242.277 256.738 244.704Z" fill="#407BFF"/>
<path d="M262.578 234.17C262.578 234.17 264.518 237.695 267.417 240.062L267.613 239.421L268.134 237.739L269.002 234.939L269.424 233.582L269.542 233.189C269.542 233.189 268.055 231.156 267.289 229.444L262.578 234.17Z" fill="#407BFF"/>
<path d="M272.427 225.922C272.427 225.922 273.747 227.847 273.964 228.912L274.675 229.002L275.65 229.113L277.203 229.309L278.698 229.489L279.23 229.551C279.23 229.551 279.272 226.359 276.495 223.393L272.427 225.922Z" fill="#407BFF"/>
<path opacity="0.2" d="M273.361 226.032C273.361 226.032 274.339 227.729 274.675 229.003L275.65 229.114C275.476 228.88 275.407 228.56 275.491 228.252C275.644 227.693 276.221 227.363 276.78 227.516C277.34 227.669 277.669 228.246 277.516 228.805C277.461 229.008 277.35 229.185 277.202 229.31L278.697 229.49C278.518 228.208 277.987 225.596 276.492 224.161L273.361 226.032Z" fill="white"/>
<path opacity="0.2" d="M257.155 244.921L257.006 249.835C257.006 249.835 261.195 248.159 264.599 248.487L266.299 243.208C264.475 243.094 260.622 243.12 257.155 244.921ZM262.487 244.262C263.431 244.146 264.257 244.652 264.345 245.391C264.433 246.13 263.737 246.821 262.805 246.93C261.861 247.046 261.026 246.538 260.937 245.798C260.849 245.059 261.546 244.368 262.487 244.262Z" fill="white"/>
<path opacity="0.2" d="M263.446 234.407C263.446 234.407 265.869 238.064 267.613 239.421L268.134 237.739C267.435 237.527 267.037 236.745 267.248 235.973C267.461 235.192 268.224 234.716 268.937 234.91C268.956 234.915 268.986 234.923 269.002 234.938L269.424 233.581C268.721 232.85 267.771 231.7 267.234 230.516L263.446 234.407Z" fill="white"/>
<path opacity="0.2" d="M375.54 219.55C372.74 226.12 368.38 234.58 363.94 236.9C360.47 232.47 357.33 227.74 355.27 222.63C357.27 217.42 361.54 207.09 364.67 204.93C367.03 203.31 371.13 205.48 374.28 207.72C374.66 211.49 375.08 215.54 375.54 219.55Z" fill="black"/>
<path d="M321.169 232.663L313.302 233.078L317.995 241.873C317.995 241.873 324.599 240.03 323.98 236.407L321.169 232.663Z" fill="#E4897B"/>
<path d="M308.427 237.314L312.644 244.405L317.995 241.874L313.302 233.079L308.427 237.314Z" fill="#E4897B"/>
<path d="M333.201 231.064L320.537 232.8L321.588 238.873L333.165 237.51L333.201 231.064Z" fill="#E4897B"/>
<path d="M372.61 189.396C381.681 194.755 369.681 234.472 362.692 236.714C355.703 238.956 331.513 238.205 331.513 238.205L330.232 230.516L357.502 226.824C357.502 226.824 360.328 219.043 362.482 205.592C364.317 194.139 372.61 189.396 372.61 189.396Z" fill="#263238"/>
<path opacity="0.3" d="M372.61 189.396C381.681 194.755 369.681 234.472 362.692 236.714C355.703 238.956 331.513 238.205 331.513 238.205L330.232 230.516L357.502 226.824C357.502 226.824 360.328 219.043 362.482 205.592C364.317 194.139 372.61 189.396 372.61 189.396Z" fill="white"/>
<path d="M151.763 224.825C153.369 227.797 155.057 230.976 156.766 233.905C157.637 235.365 158.497 236.826 159.414 238.111C159.86 238.755 160.309 239.368 160.748 239.903C160.972 240.181 161.233 240.425 161.472 240.693L162.346 241.539C164.813 243.868 167.612 246.217 170.336 248.589C173.079 250.957 175.852 253.351 178.537 255.834L178.554 255.85C179.628 256.843 179.693 258.519 178.7 259.592C177.89 260.468 176.623 260.67 175.602 260.177C172.242 258.55 169.016 256.767 165.823 254.87C162.619 252.968 159.515 250.996 156.356 248.657L155.157 247.71C154.738 247.344 154.307 246.989 153.903 246.604C153.071 245.826 152.336 245.046 151.637 244.265C150.283 242.685 149.096 241.112 147.996 239.495C145.786 236.253 143.921 233.033 142.254 229.47C141.015 226.823 142.157 223.672 144.805 222.434C147.354 221.241 150.37 222.256 151.696 224.697L151.763 224.825Z" fill="#DC897C"/>
<path d="M168.21 246.049L159.61 252.589C159.61 252.589 154.69 248.499 151.06 244.919C149.34 243.219 147.9 241.629 147.42 240.649C146.69 239.169 147.51 234.649 148.55 230.379C149.66 225.839 151.01 221.589 151.01 221.589C153.36 224.349 159.23 237.089 159.23 237.089L168.21 246.049Z" fill="#407BFF"/>
<path opacity="0.2" d="M151.06 244.919C149.34 243.219 147.9 241.629 147.42 240.649C146.69 239.169 147.51 234.649 148.55 230.379C150.052 230.742 152.36 237.089 151.06 244.919Z" fill="black"/>
<path d="M147.806 268.04C145.111 276.591 137.472 283.393 128.392 276.462C119.312 269.531 136.943 235.262 143.337 232.438C149.731 229.616 147.806 268.04 147.806 268.04Z" fill="#407BFF"/>
<path opacity="0.2" d="M147.806 268.04C145.111 276.591 137.472 283.393 128.392 276.462C119.312 269.531 136.943 235.262 143.337 232.438C149.731 229.616 147.806 268.04 147.806 268.04Z" fill="black"/>
<path d="M172.298 418.676C166.403 418.676 165.624 418.585 162.311 418.474C159.475 418.373 158.796 418.727 156.517 418.676C154.612 418.636 154.684 416.812 155.271 414.715C155.565 413.662 156.018 411.435 156.423 409.734L165.06 409.107C166.275 411.427 169.018 414.736 172.34 415.182C175.51 415.607 174.648 418.676 172.298 418.676Z" fill="#407BFF"/>
<path d="M121.451 261.227H143.45C144.774 269.378 150.963 308.236 152.086 329.39C153.409 354.297 161.394 394.189 165.616 409.776C164.428 410.843 158.844 411.289 156.204 409.971C156.204 409.971 133.162 363.964 136.159 335.202C118.731 286.126 120.882 264.841 121.451 261.227Z" fill="#407BFF"/>
<g opacity="0.7">
<path d="M121.451 261.227H143.45C144.774 269.378 150.963 308.236 152.086 329.39C153.409 354.297 161.394 394.189 165.616 409.776C164.428 410.843 158.844 411.289 156.204 409.971C156.204 409.971 133.162 363.964 136.159 335.202C118.731 286.126 120.882 264.841 121.451 261.227Z" fill="white"/>
</g>
<path d="M129.588 418.676C123.693 418.676 122.914 418.585 119.601 418.474C116.765 418.373 116.086 418.727 113.807 418.676C111.902 418.636 111.973 416.812 112.561 414.715C112.855 413.662 113.308 411.435 113.713 409.734L122.35 409.107C123.565 411.427 126.308 414.736 129.63 415.182C132.8 415.607 131.938 418.676 129.588 418.676Z" fill="#407BFF"/>
<path opacity="0.2" d="M130.455 317.939C127.714 308.903 125.739 301.078 124.344 294.367C125.729 289.118 127.695 284.624 130.368 281.922C130.368 281.922 134.212 296.546 130.455 317.939Z" fill="black"/>
<path d="M112.444 261.227H135.334C133.761 273.288 128.923 310.095 125.93 329.54C122.136 354.192 121.655 393.749 122.603 409.869C121.222 410.671 116.188 411.642 113.468 410.791C113.468 410.791 100.613 360.933 109.151 331.974C101.973 279.306 111.016 263.362 112.444 261.227Z" fill="#407BFF"/>
<g opacity="0.7">
<path d="M112.444 261.227H135.334C133.761 273.288 128.923 310.095 125.93 329.54C122.136 354.192 121.655 393.749 122.603 409.869C121.222 410.671 116.188 411.642 113.468 410.791C113.468 410.791 100.613 360.933 109.151 331.974C101.973 279.306 111.016 263.362 112.444 261.227Z" fill="white"/>
</g>
<path d="M148.727 187.693C148.727 187.693 150.965 201.332 146.587 206.128C142.209 210.923 127.151 211.919 122.138 203.064C117.125 194.209 120.204 181.252 131.711 178.577C143.218 175.902 148.727 187.693 148.727 187.693Z" fill="#263238"/>
<path d="M116.373 214.74C116.373 214.74 116.979 220.848 116.79 230.436C116.724 233.356 116.595 236.602 116.344 240.091C115.897 246.461 115.066 253.659 113.616 261.245L143.59 266.219C143.59 266.219 154.138 231.946 148.201 219.347C148.201 219.347 134.034 209.561 116.373 214.74Z" fill="#263238"/>
<path d="M211.105 253.684L208.789 253.316C207.918 253.177 207.034 253.469 206.416 254.097L203.527 257.035C202.372 258.21 201.857 259.871 202.146 261.493L202.325 262.497C206.124 263.37 210.873 261.514 210.873 261.514L212.285 261.135C213.542 260.797 214.273 259.597 213.963 258.377L213.249 255.569C213.002 254.6 212.149 253.849 211.105 253.684Z" fill="#E4897B"/>
<path d="M136.821 226.574L126.449 214.021C129.895 211.487 129.767 202.938 129.294 198.205L137.261 207.109C136.059 210.526 135.586 214.298 140.527 216.358C140.527 216.358 136.813 226.544 136.821 226.574Z" fill="#E4897B"/>
<path opacity="0.2" d="M132.541 201.838L137.257 207.105C136.97 207.913 136.728 208.741 136.594 209.563C134.69 208.96 132.233 206.376 132.213 204.297C132.203 203.259 132.334 202.285 132.541 201.838Z" fill="black"/>
<path d="M126.279 189.975C126.754 197.108 126.805 200.13 130.385 203.953C135.77 209.704 144.316 208.026 145.954 201.008C147.429 194.691 146.403 184.087 139.49 180.922C132.68 177.805 125.804 182.842 126.279 189.975Z" fill="#E4897B"/>
<path d="M132.881 185.654C128.436 190.161 135.659 196.821 127.791 195.543C119.923 194.265 124.473 183.484 129.472 181.509C134.471 179.533 132.881 185.654 132.881 185.654Z" fill="#263238"/>
<path d="M137.191 192.461C137.205 193.061 137.526 193.562 137.907 193.58C138.288 193.597 138.586 193.125 138.572 192.524C138.558 191.924 138.237 191.423 137.856 191.405C137.475 191.388 137.177 191.861 137.191 192.461Z" fill="#263238"/>
<path d="M144.367 192.895C144.381 193.495 144.701 193.996 145.083 194.014C145.464 194.031 145.762 193.559 145.748 192.958C145.734 192.358 145.413 191.857 145.032 191.839C144.651 191.822 144.353 192.294 144.367 192.895Z" fill="#263238"/>
<path d="M144.864 191.865L146.255 191.513C146.255 191.513 145.563 192.607 144.864 191.865Z" fill="#263238"/>
<path d="M142.39 193.788C142.39 193.788 143.44 196.418 144.559 197.715C143.806 198.42 142.489 198.022 142.489 198.022L142.39 193.788Z" fill="#DE5753"/>
<path d="M139.186 200.088C139.49 200.157 139.816 200.203 140.166 200.219C140.26 200.223 140.335 200.148 140.333 200.05C140.331 199.953 140.254 199.871 140.157 199.866C137.599 199.751 136.359 197.854 136.346 197.835C136.293 197.751 136.186 197.723 136.108 197.772C136.03 197.821 136.01 197.93 136.063 198.014C136.112 198.088 137.11 199.616 139.186 200.088Z" fill="#263238"/>
<path d="M124.796 196.622C125.339 198.138 126.406 199.16 127.451 199.576C129.023 200.201 129.95 198.424 129.632 196.5C129.346 194.769 128.183 192.357 126.548 192.571C124.938 192.782 124.174 194.888 124.796 196.622Z" fill="#E4897B"/>
<path d="M135.581 189.051C135.671 189.063 135.764 189.039 135.836 188.976C136.957 187.988 138.183 188.375 138.198 188.379C138.379 188.437 138.567 188.338 138.614 188.152C138.66 187.967 138.549 187.768 138.365 187.707C138.301 187.686 136.763 187.199 135.371 188.426C135.232 188.548 135.224 188.771 135.352 188.923C135.414 188.995 135.497 189.039 135.581 189.051Z" fill="#263238"/>
<path d="M146.375 189.696C146.46 189.713 146.549 189.698 146.623 189.647C146.775 189.542 146.807 189.325 146.693 189.162C145.554 187.526 143.966 187.493 143.898 187.493C143.708 187.492 143.564 187.647 143.576 187.841C143.588 188.035 143.751 188.193 143.941 188.195C144.003 188.196 145.235 188.239 146.141 189.54C146.199 189.625 146.285 189.679 146.375 189.696Z" fill="#263238"/>
<path d="M137.688 191.431L139.079 191.079C139.079 191.079 138.387 192.173 137.688 191.431Z" fill="#263238"/>
<path d="M139.781 182.894C139.781 182.894 140.275 187.448 133.12 190.443C133.12 190.443 136.032 188.888 136.927 185.314C136.927 185.314 134.209 191.1 128.802 190.822C123.395 190.544 124.266 203.918 126.707 208.172C126.707 208.172 119.815 203.857 119.189 198.803C119.189 198.803 119.864 203.679 122.662 206.168C122.662 206.168 118.065 204.1 115.856 195.277C113.175 184.568 121.479 176.377 127.992 174.891C137.766 172.661 140.61 176.19 140.61 176.19C140.61 176.19 143.686 174.466 148.025 180.423C152.363 186.379 154.386 199.056 149.15 205.478C149.15 205.478 150.457 199.24 147.851 190.844C147.851 190.844 143.381 189.596 140.807 183.525C140.807 183.525 140.851 187.305 136.871 189.271C136.87 189.269 139.557 187.658 139.781 182.894Z" fill="#263238"/>
<path d="M144.103 268.04L144.3 263.775L113.651 258.689L111.925 262.157L144.103 268.04Z" fill="#407BFF"/>
<path opacity="0.7" d="M144.103 268.04L144.3 263.775L113.651 258.689L111.925 262.157L144.103 268.04Z" fill="white"/>
<path d="M122.509 263.688L112.369 262.005L113.462 259.216L122.989 260.797L122.509 263.688Z" fill="#263238"/>
<path d="M141.407 263.854L144.444 264.358L144.227 267.292L140.928 266.745L141.407 263.854Z" fill="#263238"/>
<path d="M123.969 260.953L123.489 263.844L139.914 266.569L140.394 263.679L123.969 260.953Z" fill="#263238"/>
<path d="M130.815 265.292L135.257 266.029C135.562 266.08 135.851 265.873 135.902 265.568L136.271 263.345C136.322 263.04 136.115 262.751 135.81 262.7L131.368 261.963C131.063 261.912 130.774 262.119 130.723 262.424L130.354 264.647C130.303 264.952 130.51 265.241 130.815 265.292Z" fill="white"/>
<path d="M129.51 228.479C129.52 229.539 129.44 230.639 129.26 231.779C128.64 235.699 126.64 241.099 124.06 246.469C119.47 256.059 113.05 265.589 109.43 266.579L114.05 255.769L115.2 235.459L115.83 224.229L116.37 214.739C116.37 214.739 120.62 213.189 122.99 213.229C122.99 213.229 129.42 219.339 129.51 228.479Z" fill="#407BFF"/>
<path d="M143.337 216.764C143.337 216.764 145.367 224.544 145.752 234.01C146.137 243.477 147.806 268.04 147.806 268.04C147.806 268.04 151.4 229.868 151.015 221.592C151.015 221.592 146.943 217.542 143.337 216.764Z" fill="#407BFF"/>
<path d="M172.779 291.497C170.261 294.657 163.884 293.764 158.537 289.502C153.189 285.241 150.896 279.225 153.414 276.065C155.932 272.905 162.309 273.798 167.656 278.059C173.003 282.321 175.297 288.337 172.779 291.497Z" fill="#263238"/>
<path d="M185.177 284.232C186.201 284.082 187.023 283.702 187.551 283.039C190.023 279.936 185.43 272.164 177.292 265.679C169.154 259.194 160.552 256.451 158.08 259.554C157.552 260.217 157.364 261.103 157.447 262.135C157.034 262.331 156.679 262.588 156.409 262.927C155.886 263.583 155.711 264.466 155.811 265.496C155.377 265.687 155.014 265.952 154.737 266.299C154.218 266.951 154.054 267.836 154.176 268.872C153.724 269.056 153.347 269.318 153.065 269.672C152.548 270.321 152.394 271.209 152.542 272.255C152.073 272.43 151.679 272.686 151.393 273.045C149.338 275.624 153.156 282.086 159.922 287.478C166.688 292.87 173.839 295.149 175.895 292.57C176.181 292.211 176.342 291.77 176.409 291.274C177.461 291.185 178.292 290.837 178.81 290.188C179.092 289.834 179.263 289.408 179.342 288.926C180.379 288.814 181.205 288.457 181.725 287.805C182.002 287.457 182.179 287.044 182.268 286.579C183.295 286.447 184.117 286.079 184.639 285.423C184.907 285.082 185.078 284.678 185.177 284.232Z" fill="#263238"/>
<path opacity="0.3" d="M185.177 284.232C186.201 284.082 187.023 283.702 187.551 283.039C190.023 279.936 185.43 272.164 177.292 265.679C169.154 259.194 160.552 256.451 158.08 259.554C157.552 260.217 157.364 261.103 157.447 262.135C157.034 262.331 156.679 262.588 156.409 262.927C155.886 263.583 155.711 264.466 155.811 265.496C155.377 265.687 155.014 265.952 154.737 266.299C154.218 266.951 154.054 267.836 154.176 268.872C153.724 269.056 153.347 269.318 153.065 269.672C152.548 270.321 152.394 271.209 152.542 272.255C152.073 272.43 151.679 272.686 151.393 273.045C149.338 275.624 153.156 282.086 159.922 287.478C166.688 292.87 173.839 295.149 175.895 292.57C176.181 292.211 176.342 291.77 176.409 291.274C177.461 291.185 178.292 290.837 178.81 290.188C179.092 289.834 179.263 289.408 179.342 288.926C180.379 288.814 181.205 288.457 181.725 287.805C182.002 287.457 182.179 287.044 182.268 286.579C183.295 286.447 184.117 286.079 184.639 285.423C184.907 285.082 185.078 284.678 185.177 284.232Z" fill="white"/>
<path d="M219.04 266.197C231.004 251.183 227.919 229.022 211.842 217.929C197.972 208.359 178.792 210.83 167.767 223.575C160.602 231.858 158.263 242.559 160.365 252.396C160.747 254.181 160.266 256.05 158.995 257.36C158.933 257.424 158.874 257.491 158.818 257.561C156.308 260.712 160.972 268.605 169.236 275.19C177.501 281.776 186.235 284.561 188.746 281.41C188.8 281.342 188.851 281.272 188.898 281.2C189.907 279.654 191.644 278.779 193.49 278.749C203.106 278.593 212.578 274.305 219.04 266.197Z" fill="#407BFF"/>
<path opacity="0.7" d="M219.04 266.197C231.004 251.183 227.919 229.022 211.842 217.929C197.972 208.359 178.792 210.83 167.767 223.575C160.602 231.858 158.263 242.559 160.365 252.396C160.747 254.181 160.266 256.05 158.995 257.36C158.933 257.424 158.874 257.491 158.818 257.561C156.308 260.712 160.972 268.605 169.236 275.19C177.501 281.776 186.235 284.561 188.746 281.41C188.8 281.342 188.851 281.272 188.898 281.2C189.907 279.654 191.644 278.779 193.49 278.749C203.106 278.593 212.578 274.305 219.04 266.197Z" fill="white"/>
<path d="M177.518 274.308C177.518 274.308 189.536 262.952 199.21 264.358L194.302 260.447L195.672 255.506L187.041 259.692L189.195 250.344L181.203 253.727L182.717 245.182L178.207 247.62L173.299 243.709C173.299 243.709 175.207 256.892 167.617 266.417" stroke="#263238" strokeWidth="0.4788" stroke-miterlimit="10" strokeLinecap="round" strokeLinejoin="round"/>
<path opacity="0.2" d="M218 240.878C214.007 246.008 204.775 245.499 197.38 239.742C189.985 233.985 187.228 225.16 191.221 220.031C195.214 214.901 204.446 215.41 211.841 221.166C219.236 226.923 221.993 235.748 218 240.878Z" fill="white"/>
<path opacity="0.2" d="M191.409 267.565C188.495 271.308 181.76 270.937 176.364 266.737C170.969 262.537 168.957 256.098 171.871 252.355C174.785 248.612 181.52 248.983 186.916 253.184C192.311 257.384 194.323 263.823 191.409 267.565Z" fill="white"/>
<path opacity="0.2" d="M129.51 228.479C129.52 229.539 129.44 230.639 129.26 231.779C128.64 235.699 126.64 241.099 124.06 246.469C120.71 243.359 117.62 239.179 115.2 235.459L115.83 224.229C119.38 223.069 123.64 222.179 125.85 223.639C127.17 224.509 128.42 226.359 129.51 228.479Z" fill="black"/>
<path d="M123.672 220.544C125.184 224.776 126.661 229.241 128.213 233.262C128.414 233.737 128.608 234.263 128.813 234.695L129.103 235.377L129.383 235.966C129.59 236.346 129.603 236.493 129.919 236.876C130.034 237.038 130.182 237.214 130.34 237.395C130.491 237.573 130.639 237.752 130.818 237.938C132.172 239.415 133.83 240.953 135.526 242.424C138.943 245.389 142.593 248.276 146.267 251.132L157.384 259.677L157.414 259.7C158.566 260.586 158.782 262.238 157.897 263.39C157.115 264.407 155.735 264.694 154.63 264.138C150.348 261.988 146.202 259.698 142.091 257.262C137.995 254.805 133.954 252.253 130.001 249.359C128.027 247.888 126.062 246.406 124.106 244.533C123.863 244.308 123.614 244.052 123.368 243.797C123.123 243.549 122.875 243.289 122.622 242.992C122.162 242.491 121.516 241.656 121.102 241.039L120.492 240.103L119.969 239.218C119.615 238.614 119.344 238.058 119.031 237.474C116.721 232.907 115.045 228.485 113.598 223.785C112.738 220.992 114.306 218.03 117.099 217.17C119.813 216.335 122.686 217.79 123.635 220.435L123.672 220.544Z" fill="#DC897C"/>
<path d="M116.373 214.74C116.373 214.74 120.275 214.74 122.989 217.423C126.761 221.152 128.867 232.545 131.382 236.911C133.104 239.901 140.835 246.692 140.835 246.692L131.382 253.282C131.382 253.282 123.741 246.505 121.058 242.036C118.375 237.566 108.082 220.631 116.373 214.74Z" fill="#407BFF"/>
<path d="M154.665 258.759L161.838 256.676L160.491 264.85C160.491 264.85 153.979 266.322 153.362 262.935L154.665 258.759Z" fill="#E4897B"/>
<path d="M168.979 258.611L165.434 265.245L160.491 264.85L161.838 256.676L168.979 258.611Z" fill="#E4897B"/>
</svg>
